<svg width="162" height="161" viewBox="0 0 162 161" fill="none" xmlns="http://www.w3.org/2000/svg">
<path d="M67.4682 4.05699C75.8416 -0.770297 86.158 -0.770297 94.5314 4.05699L140.478 30.5452C148.851 35.3725 154.01 44.2937 154.01 53.9483V106.925C154.01 116.579 148.851 125.501 140.478 130.328L94.5314 156.816C86.158 161.643 75.8416 161.643 67.4682 156.816L21.5217 130.328C13.1483 125.501 7.99011 116.579 7.99011 106.925V53.9483C7.99011 44.2937 13.1483 35.3725 21.5217 30.5452L67.4682 4.05699ZM153.729 107.571L153.72 107.635C152.487 115.991 147.382 123.384 139.805 127.469L93.8586 152.243C85.8337 156.57 76.166 156.57 68.1411 152.243L22.1946 127.469C14.5986 123.373 9.48656 115.953 8.26994 107.571C8.49463 116.879 13.5559 125.422 21.6579 130.092L67.6044 156.581C75.8935 161.359 86.1061 161.359 94.3953 156.581L140.342 130.092C148.444 125.422 153.505 116.879 153.729 107.571ZM153.73 104.311L153.679 104.646C152.334 113.161 146.965 120.629 139.1 124.576L93.1534 147.636C85.5068 151.473 76.4929 151.473 68.8463 147.636L22.8998 124.576C14.9315 120.577 9.52557 112.965 8.26981 104.311C8.4914 113.9 13.8442 122.658 22.324 127.23L68.2705 152.004C76.2146 156.287 85.785 156.287 93.7292 152.004L139.676 127.23C148.155 122.658 153.508 113.9 153.73 104.311ZM153.731 101.022L153.729 101.034C152.43 109.965 146.713 117.767 138.362 121.646L92.4158 142.991C85.1777 146.354 76.822 146.354 69.5839 142.991L23.6374 121.646C15.2829 117.765 9.56477 109.958 8.26932 101.022C8.48638 110.903 14.1497 119.881 23.0221 124.334L68.9686 147.393C76.5382 151.192 85.4614 151.192 93.0311 147.393L138.978 124.334C147.85 119.881 153.513 110.903 153.731 101.022ZM153.731 97.7053L153.679 98.0448C152.245 107.128 146.238 114.982 137.592 118.675L91.6459 138.306C84.8466 141.211 77.153 141.211 70.3537 138.306L24.4073 118.675C15.6545 114.936 9.60539 106.932 8.2689 97.7055C8.48083 107.888 14.4743 117.09 23.7523 121.4L69.6987 142.745C76.864 146.074 85.1356 146.074 92.3009 142.745L138.247 121.4C147.525 117.09 153.519 107.888 153.731 97.7053ZM153.732 94.3549L153.689 94.6409C152.226 104.048 145.863 112.122 136.791 115.659L90.8442 133.575C84.514 136.044 77.4856 136.044 71.1555 133.575L25.209 115.659C16.045 112.086 9.6449 103.884 8.26773 94.3547C8.47243 104.853 14.8172 114.282 24.5144 118.425L70.4609 138.056C77.1917 140.932 84.8079 140.932 91.5388 138.056L137.485 118.425C147.182 114.282 153.527 104.853 153.732 94.3549ZM153.733 90.976L153.697 91.2149C152.203 100.95 145.465 109.242 135.958 112.595L90.0115 128.796C84.1802 130.852 77.8195 130.852 71.9882 128.796L26.0417 112.595C16.4574 109.215 9.68639 100.814 8.26686 90.9758C8.46367 101.798 15.1811 111.457 25.3081 115.406L71.2545 133.322C77.521 135.766 84.4787 135.766 90.7451 133.322L136.692 115.406C146.819 111.457 153.536 101.798 153.733 90.976ZM153.733 87.5733L153.686 87.884C152.12 97.9018 145.004 106.353 135.095 109.477L89.1489 123.964C83.8452 125.637 78.1544 125.637 72.8507 123.964L26.9043 109.477C16.8937 106.321 9.73243 97.7267 8.26707 87.573C8.45707 98.7264 15.5684 108.613 26.1324 112.338L72.0789 128.54C77.8515 130.575 84.1482 130.575 89.9208 128.54L135.867 112.338C146.431 108.613 153.543 98.7264 153.733 87.5733ZM153.731 84.304L153.724 84.3467C152.199 94.7059 144.699 103.386 134.365 106.259L88.2582 119.076C83.5096 120.396 78.4901 120.396 73.7415 119.076L27.6344 106.259C17.2863 103.382 9.78015 94.6821 8.26955 84.3041C8.52203 95.7295 16.0304 105.763 26.9863 109.218L72.9327 123.705C78.183 125.36 83.8166 125.36 89.0669 123.705L135.013 109.218C145.969 105.763 153.478 95.7295 153.731 84.304ZM152.361 88.8726L152.333 88.938C149.661 95.4379 143.999 100.492 136.83 102.217L87.3413 114.128C83.1733 115.131 78.8263 115.131 74.6584 114.128L25.1701 102.217C17.9772 100.486 12.3004 95.4041 9.63953 88.8729C12.3867 97.0506 19.04 103.587 27.7074 105.997L73.8145 118.814C78.5153 120.121 83.4843 120.121 88.1851 118.814L134.292 105.997C142.96 103.587 149.613 97.0506 152.361 88.8726ZM152.539 87.6202L152.534 87.6303C150.226 93.009 145.393 97.1195 139.358 98.3469L86.4007 109.116C82.8367 109.841 79.163 109.841 75.599 109.116L22.642 98.3469C16.6025 97.1187 11.7675 93.0035 9.46092 87.6195C11.8674 94.6219 17.7114 100.142 25.2339 101.953L74.7222 113.864C78.8482 114.857 83.1514 114.857 87.2775 113.864L136.766 101.953C144.288 100.142 150.132 94.6219 152.539 87.6202ZM152.733 86.3681C150.794 90.6448 146.825 93.8452 141.942 94.6561L85.4393 104.038C82.4998 104.526 79.4998 104.526 76.5604 104.038L20.0581 94.6561C15.1724 93.8448 11.2017 90.6417 9.26716 86.3679C11.3152 92.2284 16.3255 96.7849 22.6964 98.0805L75.6533 108.85C79.1814 109.567 82.8182 109.567 86.3463 108.85L139.303 98.0805C145.674 96.7849 150.684 92.2284 152.733 86.3681ZM152.936 85.1328L152.835 85.3349C151.257 88.4277 148.226 90.6819 144.573 91.1522L84.4603 98.8907C82.1628 99.1864 79.8368 99.1864 77.5394 98.8907L17.4268 91.1522C13.6949 90.6717 10.6114 88.3292 9.06439 85.1329C10.7389 89.8816 14.89 93.5223 20.1027 94.3878L76.6051 103.77C79.5149 104.253 82.4847 104.253 85.3946 103.77L141.897 94.3878C147.11 93.5223 151.261 89.8816 152.936 85.1328ZM153.151 83.9052L153.138 83.929C151.993 86.0755 149.821 87.6056 147.242 87.8414L83.4673 93.6716C81.8257 93.8217 80.1739 93.8217 78.5324 93.6716L14.7579 87.8414C12.1694 87.6047 9.99091 86.0642 8.84891 83.9051C10.1329 87.5798 13.4041 90.3601 17.4616 90.8825L77.5742 98.621C79.8485 98.9138 82.1511 98.9138 84.4254 98.621L144.538 90.8825C148.596 90.3601 151.867 87.5798 153.151 83.9052ZM153.378 82.6785C152.662 83.8463 151.402 84.6493 149.938 84.7285L82.4641 88.3792C81.4886 88.4319 80.511 88.4319 79.5355 88.3792L12.0618 84.7285C10.598 84.6493 9.33775 83.8463 8.62159 82.6785L8.65972 82.7915C9.56162 85.3785 11.9101 87.308 14.7828 87.5706L78.5572 93.4008C80.1822 93.5494 81.8174 93.5494 83.4424 93.4008L147.217 87.5706C150.09 87.308 152.438 85.3785 153.34 82.7915L153.378 82.6785ZM153.622 81.3965L153.613 81.4043C153.367 81.6536 153.028 81.8103 152.65 81.8167L81.4549 83.0121C81.1515 83.0172 80.8481 83.0172 80.5448 83.0121L9.34925 81.8167C8.96795 81.8103 8.62485 81.6502 8.37875 81.3961C8.79108 83.0817 10.2679 84.3591 12.0765 84.4569L79.5503 88.1076C80.5159 88.1599 81.4837 88.1599 82.4494 88.1076L149.923 84.4569C151.732 84.3591 153.209 83.0817 153.622 81.3965ZM80.9998 78.129L80.5494 78.1328L9.35383 79.3282C8.74812 79.3384 8.26243 79.8316 8.26243 80.4365C8.26243 81.0414 8.74812 81.5346 9.35383 81.5448L80.5494 82.7403C80.8497 82.7453 81.15 82.7453 81.4503 82.7403L152.646 81.5448C153.252 81.5346 153.737 81.0414 153.737 80.4365C153.737 79.8316 153.252 79.3384 152.646 79.3282L81.4503 78.1328C81.15 78.1277 80.8497 78.1277 80.5494 78.1328L80.9998 78.129ZM82.4494 72.7654C81.4837 72.7132 80.5159 72.7132 79.5503 72.7654L12.0765 76.4161C10.2679 76.514 8.79108 77.7913 8.37791 79.4766C8.62485 79.2229 8.96795 79.0628 9.34925 79.0564L80.5448 77.8609C80.8481 77.8558 81.1515 77.8558 81.4549 77.8609L152.65 79.0564C153.032 79.0628 153.375 79.2229 153.621 79.477C153.209 77.7913 151.732 76.514 149.923 76.4161L82.4494 72.7654ZM83.4424 67.4722C81.8174 67.3237 80.1822 67.3237 78.5572 67.4722L14.7828 73.3025C11.8688 73.5688 9.49416 75.5503 8.6217 78.1936C9.33832 77.0264 10.5983 76.2238 12.0618 76.1446L79.5355 72.4939C80.511 72.4411 81.4886 72.4411 82.4641 72.4939L149.938 76.1446C151.401 76.2238 152.661 77.0264 153.378 78.1937C152.505 75.5503 150.131 73.5688 147.217 73.3025L83.4424 67.4722ZM84.4254 62.2521C82.1511 61.9593 79.8485 61.9593 77.5742 62.2521L17.4616 69.9906C13.4041 70.5129 10.1329 73.2932 8.84905 76.9679C9.99091 74.8089 12.1694 73.2683 14.7579 73.0317L78.5324 67.2014C80.1739 67.0514 81.8257 67.0514 83.4673 67.2014L147.242 73.0317C149.83 73.2683 152.009 74.8089 153.151 76.9679C151.867 73.2932 148.596 70.5129 144.538 69.9906L84.4254 62.2521ZM89.0669 37.1681C83.8166 35.5126 78.183 35.5126 72.9327 37.1681L26.9863 51.6552C16.0304 55.1096 8.52203 65.1435 8.26903 76.569C9.78015 66.191 17.2863 57.4909 27.6344 54.6142L73.7415 41.7969C78.4901 40.4769 83.5096 40.4769 88.2582 41.7969L134.365 54.6142C144.713 57.4909 152.22 66.191 153.73 76.5689C153.478 65.1435 145.969 55.1096 135.013 51.6552L89.0669 37.1681ZM85.3946 57.1031C82.4847 56.62 79.5149 56.62 76.6051 57.1031L20.1027 66.4852C14.89 67.3508 10.7389 70.9914 9.06405 75.7403C10.6114 72.5438 13.6949 70.2013 17.4268 69.7209L77.5394 61.9824C79.8368 61.6866 82.1628 61.6866 84.4603 61.9824L144.573 69.7209C148.305 70.2013 151.388 72.5438 152.935 75.7401C151.261 70.9914 147.11 67.3508 141.897 66.4852L85.3946 57.1031ZM86.3463 52.0232C82.8182 51.3057 79.1814 51.3057 75.6533 52.0232L22.6964 62.7926C16.3255 64.0882 11.3152 68.6447 9.26673 74.505C11.2017 70.2313 15.1724 67.0282 20.0581 66.217L76.5604 56.8349C79.4998 56.3468 82.4998 56.3468 85.4393 56.8349L141.942 66.217C146.827 67.0282 150.798 70.2313 152.732 74.5051C150.684 68.6447 145.674 64.0882 139.303 62.7926L86.3463 52.0232ZM89.9208 32.3333C84.1482 30.2978 77.8515 30.2978 72.0789 32.3333L26.1324 48.5349C15.5684 52.26 8.45707 62.1467 8.26637 73.2997C9.73243 63.1464 16.8937 54.5522 26.9043 51.3959L72.8507 36.9087C78.1544 35.2365 83.8452 35.2365 89.1489 36.9087L135.095 51.3959C145.106 54.5522 152.267 63.1464 153.733 73.3C153.543 62.1467 146.431 52.26 135.867 48.5349L89.9208 32.3333ZM87.2775 47.0095C83.1514 46.0164 78.8482 46.0164 74.7222 47.0095L25.2339 58.9201C17.7114 60.7306 11.8674 66.2512 9.46016 73.2528C11.7675 67.8696 16.6025 63.7543 22.642 62.5261L75.599 51.7567C79.163 51.0319 82.8367 51.0319 86.4007 51.7567L139.358 62.5261C145.397 63.7543 150.232 67.8696 152.539 73.2536C150.132 66.2512 144.288 60.7306 136.766 58.9201L87.2775 47.0095ZM88.1851 42.0589C83.4843 40.7521 78.5153 40.7521 73.8145 42.0589L27.7074 54.8762C19.04 57.2856 12.3867 63.8225 9.63898 72.0004C12.3004 65.4689 17.9772 60.3869 25.1701 58.6557L74.6584 46.7451C78.8263 45.742 83.1733 45.742 87.3413 46.7451L136.83 58.6557C144.022 60.3869 149.699 65.4689 152.36 72.0002C149.613 63.8225 142.96 57.2856 134.292 54.8762L88.1851 42.0589ZM90.7451 27.551C84.4787 25.1075 77.521 25.1075 71.2545 27.551L25.3081 45.467C15.1811 49.4159 8.46367 59.0752 8.26688 69.8971C9.68639 60.0586 16.4574 51.6581 26.0417 48.2785L71.9882 32.0769C77.8195 30.0207 84.1802 30.0207 90.0115 32.0769L135.958 48.2785C145.542 51.6581 152.313 60.0586 153.733 69.8972C153.536 59.0752 146.819 49.4159 136.692 45.467L90.7451 27.551ZM91.5388 22.8172C84.8079 19.9415 77.1917 19.9415 70.4609 22.8172L24.5144 42.4477C14.8172 46.5908 8.47243 56.0204 8.26755 66.5181C9.6449 56.9894 16.045 48.7871 25.209 45.2137L71.1555 27.2977C77.4856 24.8294 84.514 24.8294 90.8442 27.2977L136.791 45.2137C145.955 48.7871 152.355 56.9894 153.732 66.5183C153.527 56.0204 147.182 46.5908 137.485 42.4477L91.5388 22.8172ZM92.3009 18.1282C85.1356 14.7995 76.864 14.7995 69.6987 18.1282L23.7523 39.4731C14.4743 43.7833 8.48083 52.9846 8.26828 63.1678C9.60539 53.9406 15.6545 45.9373 24.4073 42.1977L70.3537 22.5673C77.153 19.6623 84.8466 19.6623 91.6459 22.5673L137.592 42.1977C146.345 45.9373 152.394 53.9406 153.731 63.1676C153.519 52.9846 147.525 43.7833 138.247 39.4731L92.3009 18.1282ZM93.0311 13.4802C85.4614 9.68113 76.5382 9.68113 68.9686 13.4802L23.0221 36.5395C14.1497 40.9923 8.48638 49.9703 8.26893 59.8513C9.56477 50.915 15.2829 43.1077 23.6374 39.2266L69.5839 17.8817C76.822 14.5191 85.1777 14.5191 92.4158 17.8817L138.362 39.2266C146.717 43.1077 152.435 50.915 153.73 59.8511C153.513 49.9703 147.85 40.9923 138.978 36.5395L93.0311 13.4802ZM93.7292 8.86941C85.785 4.58603 76.2146 4.58603 68.2705 8.86941L22.324 33.6432C13.8442 38.2155 8.4914 46.9732 8.2696 56.562C9.52557 47.9079 14.9315 40.2956 22.8998 36.2965L68.8463 13.2372C76.4929 9.39955 85.5068 9.39955 93.1534 13.2372L139.1 36.2965C147.068 40.2956 152.474 47.9079 153.73 56.562C153.508 46.9732 148.155 38.2155 139.676 33.6432L93.7292 8.86941ZM94.3953 4.29248C86.1061 -0.486233 75.8935 -0.486233 67.6044 4.29248L21.6579 30.7807C13.5559 35.4515 8.49463 43.9941 8.27022 53.3021C9.48656 44.92 14.5986 37.4996 22.1946 33.4039L68.1411 8.63014C76.166 4.30322 85.8337 4.30322 93.8586 8.63014L139.805 33.4039C147.401 37.4996 152.513 44.92 153.73 53.3022C153.505 43.9941 148.444 35.4515 140.342 30.7807L94.3953 4.29248Z" stroke="url(#paint0_linear_3963_942)" stroke-width="0.5"/>
<path d="M157.38 66.9051C162.207 75.2785 162.207 85.5949 157.38 93.9683L130.891 139.915C126.064 148.288 117.143 153.446 107.488 153.446H54.5118C44.8572 153.446 35.9361 148.288 31.1088 139.915L4.62053 93.9683C-0.206754 85.5949 -0.206754 75.2785 4.62053 66.9051L31.1088 20.9586C35.9361 12.5852 44.8572 7.427 54.5118 7.427H107.488C117.143 7.427 126.064 12.5852 130.891 20.9586L157.38 66.9051ZM53.8656 153.166L53.8015 153.157C45.4456 151.924 38.0527 146.819 33.9675 139.242L9.19369 93.2954C4.86676 85.2706 4.86676 75.6029 9.19369 67.578L33.9675 21.6315C38.0632 14.0355 45.4835 8.92345 53.8657 7.70683C44.5577 7.93152 36.0151 12.9928 31.3443 21.0948L4.85602 67.0413C0.077309 75.3304 0.077309 85.543 4.85602 93.8322L31.3443 139.779C36.0151 147.881 44.5577 152.942 53.8656 153.166ZM57.1255 153.167L56.7907 153.116C48.2754 151.771 40.8075 146.402 36.8601 138.537L13.8007 92.5903C9.9631 84.9437 9.9631 75.9298 13.8007 68.2832L36.8601 22.3367C40.8592 14.3684 48.4714 8.96246 57.1256 7.7067C47.5367 7.92829 38.779 13.281 34.2068 21.7609L9.43296 67.7074C5.14957 75.6515 5.14957 85.2219 9.43296 93.166L34.2068 139.113C38.779 147.592 47.5367 152.945 57.1255 153.167ZM60.4149 153.168L60.403 153.166C51.4717 151.867 43.6696 146.15 39.7901 137.799L18.4452 91.8527C15.0827 84.6145 15.0827 76.2589 18.4452 69.0207L39.7901 23.0743C43.6713 14.7198 51.4785 9.00166 60.4146 7.70621C50.5339 7.92327 41.5559 13.5866 37.103 22.459L14.0437 68.4055C10.2447 75.9751 10.2447 84.8983 14.0437 92.468L37.103 138.414C41.5559 147.287 50.5339 152.95 60.4149 153.168ZM63.7313 153.168L63.3918 153.116C54.3083 151.682 46.4549 145.675 42.7612 137.029L23.1308 91.0828C20.2258 84.2835 20.2258 76.5899 23.1308 69.7906L42.7612 23.8442C46.5008 15.0914 54.5042 9.04228 63.7311 7.70579C53.5481 7.91772 44.3468 13.9112 40.0367 23.1891L18.6918 69.1356C15.363 76.3009 15.363 84.5725 18.6918 91.7378L40.0367 137.684C44.3468 146.962 53.5481 152.956 63.7313 153.168ZM67.0817 153.169L66.7956 153.126C57.389 151.663 49.3148 145.3 45.7773 136.228L27.8613 90.2811C25.3929 83.9509 25.3929 76.9225 27.8613 70.5924L45.7773 24.6459C49.3506 15.4819 57.553 9.08179 67.0818 7.70462C56.584 7.90932 47.1543 14.2541 43.0112 23.9513L23.3808 69.8978C20.5051 76.6286 20.5051 84.2448 23.3808 90.9757L43.0112 136.922C47.1543 146.619 56.584 152.964 67.0817 153.169ZM70.4606 153.17L70.2217 153.134C60.4862 151.64 52.1943 144.901 48.842 135.395L32.6405 89.4483C30.5843 83.6171 30.5843 77.2564 32.6405 71.4251L48.842 25.4786C52.2217 15.8942 60.6221 9.12328 70.4608 7.70375C59.6388 7.90056 49.9794 14.618 46.0306 24.7449L28.1146 70.6914C25.6711 76.9579 25.6711 83.9156 28.1146 90.182L46.0306 136.128C49.9794 146.255 59.6388 152.973 70.4606 153.17ZM73.8633 153.17L73.5526 153.123C63.5347 151.557 55.0835 144.44 51.9594 134.532L37.4723 88.5858C35.8 83.2821 35.8 77.5913 37.4723 72.2876L51.9594 26.3412C55.1158 16.3306 63.7099 9.16932 73.8636 7.70396C62.7102 7.89395 52.8235 15.0053 49.0984 25.5693L32.8969 71.5158C30.8614 77.2884 30.8614 83.585 32.8969 89.3577L49.0984 135.304C52.8235 145.868 62.7102 152.979 73.8633 153.17ZM77.1326 153.168L77.0899 153.161C66.7307 151.636 58.0505 144.136 55.1778 133.802L42.3605 87.6951C41.0404 82.9465 41.0404 77.927 42.3605 73.1784L55.1778 27.0713C58.0544 16.7232 66.7545 9.21704 77.1325 7.70644C65.707 7.95892 55.6731 15.4673 52.2187 26.4232L37.7316 72.3696C36.0762 77.6199 36.0762 83.2535 37.7316 88.5038L52.2187 134.45C55.6731 145.406 65.707 152.915 77.1326 153.168ZM72.564 151.798L72.4986 151.77C65.9987 149.098 60.9447 143.435 59.2193 136.266L47.3086 86.7782C46.3055 82.6102 46.3055 78.2632 47.3086 74.0953L59.2193 24.6069C60.9504 17.4141 66.0324 11.7373 72.5637 9.07642C64.386 11.8236 57.8492 18.4769 55.4397 27.1443L42.6224 73.2514C41.3156 77.9522 41.3156 82.9212 42.6224 87.622L55.4397 133.729C57.8492 142.397 64.386 149.05 72.564 151.798ZM73.8164 151.976L73.8063 151.971C68.4276 149.663 64.3171 144.83 63.0897 138.794L52.3203 85.8376C51.5955 82.2736 51.5955 78.5998 52.3203 75.0359L63.0897 22.0789C64.3179 16.0393 68.4331 11.2044 73.8171 8.89781C66.8147 11.3043 61.2941 17.1483 59.4836 24.6708L47.573 74.1591C46.58 78.2851 46.58 82.5883 47.573 86.7143L59.4836 136.203C61.2941 143.725 66.8147 149.569 73.8164 151.976ZM75.0685 152.17C70.7918 150.231 67.5914 146.262 66.7805 141.378L57.3984 84.8761C56.9103 81.9367 56.9103 78.9367 57.3984 75.9973L66.7805 19.4949C67.5918 14.6093 70.7949 10.6385 75.0687 8.70405C69.2082 10.7521 64.6517 15.7624 63.3561 22.1333L52.5867 75.0902C51.8692 78.6183 51.8692 82.2551 52.5867 85.7832L63.3561 138.74C64.6517 145.111 69.2082 150.121 75.0685 152.17ZM76.3038 152.372L76.1016 152.272C73.0089 150.694 70.7547 147.663 70.2844 144.01L62.5459 83.8971C62.2502 81.5997 62.2502 79.2737 62.5459 76.9763L70.2844 16.8637C70.7648 13.1317 73.1073 10.0483 76.3036 8.50128C71.5549 10.1758 67.9143 14.3269 67.0487 19.5396L57.6667 76.042C57.1835 78.9518 57.1835 81.9216 57.6667 84.8315L67.0487 141.334C67.9143 146.546 71.5549 150.698 76.3038 152.372ZM77.5314 152.587L77.5076 152.575C75.361 151.43 73.831 149.258 73.5952 146.679L67.765 82.9041C67.6149 81.2626 67.6149 79.6108 67.765 77.9693L73.5952 14.1948C73.8319 11.6063 75.3724 9.4278 77.5315 8.2858C73.8568 9.56983 71.0764 12.841 70.5541 16.8985L62.8156 77.0111C62.5228 79.2854 62.5228 81.588 62.8156 83.8623L70.5541 143.975C71.0764 148.032 73.8567 151.304 77.5314 152.587ZM78.758 152.815C77.5903 152.099 76.7873 150.839 76.7081 149.375L73.0574 81.901C73.0046 80.9255 73.0046 79.9479 73.0574 78.9724L76.7081 11.4987C76.7873 10.0349 77.5903 8.77464 78.758 8.05848L78.6451 8.09661C76.058 8.99851 74.1286 11.347 73.866 14.2196L68.0358 77.9941C67.8872 79.6191 67.8872 81.2543 68.0358 82.8793L73.866 146.654C74.1286 149.526 76.058 151.875 78.6451 152.777L78.758 152.815ZM80.0401 153.059L80.0322 153.05C79.783 152.804 79.6262 152.464 79.6199 152.087L78.4244 80.8917C78.4193 80.5884 78.4193 80.285 78.4244 79.9817L79.6199 8.78614C79.6263 8.40484 79.7864 8.06174 80.0405 7.81564C78.3548 8.22797 77.0775 9.70483 76.9796 11.5134L73.3289 78.9872C73.2767 79.9528 73.2767 80.9206 73.3289 81.8863L76.9796 149.36C77.0775 151.169 78.3548 152.645 80.0401 153.059ZM83.3076 80.4367L83.3038 79.9863L82.1083 8.79072C82.0982 8.18501 81.605 7.69932 81.0001 7.69932C80.3952 7.69932 79.902 8.18501 79.8918 8.79072L78.6963 79.9863C78.6913 80.2865 78.6913 80.5869 78.6963 80.8872L79.8918 152.083C79.902 152.688 80.3952 153.174 81.0001 153.174C81.605 153.174 82.0982 152.688 82.1083 152.083L83.3038 80.8872C83.3089 80.5869 83.3089 80.2865 83.3038 79.9863L83.3076 80.4367ZM88.6712 81.8863C88.7234 80.9206 88.7234 79.9528 88.6712 78.9872L85.0205 11.5134C84.9226 9.70483 83.6453 8.22797 81.96 7.8148C82.2137 8.06174 82.3738 8.40484 82.3802 8.78614L83.5757 79.9817C83.5808 80.285 83.5808 80.5884 83.5757 80.8917L82.3802 152.087C82.3738 152.469 82.2137 152.812 81.9596 153.058C83.6453 152.645 84.9226 151.169 85.0205 149.36L88.6712 81.8863ZM93.9644 82.8793C94.1129 81.2543 94.1129 79.6191 93.9644 77.9941L88.1341 14.2196C87.8677 11.3057 85.8862 8.93105 83.243 8.05859C84.4102 8.77521 85.2128 10.0352 85.292 11.4987L88.9427 78.9724C88.9955 79.9479 88.9955 80.9255 88.9427 81.901L85.292 149.375C85.2128 150.838 84.4102 152.098 83.2429 152.814C85.8862 151.942 87.8677 149.568 88.1341 146.654L93.9644 82.8793ZM99.1845 83.8623C99.4773 81.588 99.4773 79.2854 99.1845 77.0111L91.446 16.8985C90.9237 12.841 88.1434 9.56983 84.4687 8.28594C86.6277 9.4278 88.1683 11.6063 88.4049 14.1948L94.2351 77.9693C94.3852 79.6108 94.3852 81.2626 94.2351 82.9041L88.4049 146.679C88.1683 149.267 86.6277 151.446 84.4686 152.588C88.1434 151.304 90.9237 148.032 91.446 143.975L99.1845 83.8623ZM124.269 88.5038C125.924 83.2535 125.924 77.6199 124.269 72.3696L109.781 26.4232C106.327 15.4673 96.2931 7.95892 84.8676 7.70592C95.2456 9.21704 103.946 16.7232 106.822 27.0713L119.64 73.1784C120.96 77.927 120.96 82.9465 119.64 87.6951L106.822 133.802C103.946 144.15 95.2456 151.656 84.8677 153.167C96.2931 152.915 106.327 145.406 109.781 134.45L124.269 88.5038ZM104.333 84.8315C104.817 81.9216 104.817 78.9518 104.333 76.042L94.9514 19.5396C94.0858 14.3269 90.4452 10.1758 85.6963 8.50093C88.8928 10.0483 91.2353 13.1317 91.7157 16.8637L99.4542 76.9763C99.75 79.2737 99.75 81.5997 99.4542 83.8971L91.7157 144.01C91.2353 147.742 88.8928 150.825 85.6965 152.372C90.4452 150.698 94.0858 146.546 94.9514 141.334L104.333 84.8315ZM109.413 85.7832C110.131 82.2551 110.131 78.6183 109.413 75.0902L98.644 22.1333C97.3484 15.7624 92.7919 10.7521 86.9316 8.70362C91.2053 10.6385 94.4084 14.6093 95.2196 19.4949L104.602 75.9973C105.09 78.9367 105.09 81.9367 104.602 84.8761L95.2196 141.378C94.4084 146.264 91.2053 150.235 86.9315 152.169C92.7919 150.121 97.3484 145.111 98.644 138.74L109.413 85.7832ZM129.103 89.3577C131.139 83.585 131.139 77.2884 129.103 71.5158L112.902 25.5693C109.177 15.0053 99.2899 7.89395 88.1369 7.70325C98.2902 9.16932 106.884 16.3306 110.041 26.3412L124.528 72.2876C126.2 77.5913 126.2 83.2821 124.528 88.5858L110.041 134.532C106.884 144.543 98.2902 151.704 88.1365 153.169C99.2899 152.979 109.177 145.868 112.902 135.304L129.103 89.3577ZM114.427 86.7143C115.42 82.5883 115.42 78.2851 114.427 74.1591L102.516 24.6708C100.706 17.1483 95.1854 11.3043 88.1838 8.89705C93.567 11.2044 97.6822 16.0393 98.9105 22.0789L109.68 75.0359C110.405 78.5998 110.405 82.2736 109.68 85.8376L98.9105 138.794C97.6822 144.834 93.567 149.669 88.183 151.976C95.1854 149.569 100.706 143.725 102.516 136.203L114.427 86.7143ZM119.378 87.622C120.684 82.9212 120.684 77.9522 119.378 73.2514L106.56 27.1443C104.151 18.4769 97.6141 11.8236 89.4361 9.07587C95.9677 11.7373 101.05 17.4141 102.781 24.6069L114.691 74.0953C115.695 78.2632 115.695 82.6102 114.691 86.7782L102.781 136.266C101.05 143.459 95.9677 149.136 89.4364 151.797C97.6141 149.05 104.151 142.397 106.56 133.729L119.378 87.622ZM133.886 90.182C136.329 83.9156 136.329 76.9579 133.886 70.6914L115.97 24.7449C112.021 14.618 102.361 7.90056 91.5395 7.70377C101.378 9.12328 109.778 15.8942 113.158 25.4786L129.36 71.4251C131.416 77.2564 131.416 83.6171 129.36 89.4483L113.158 135.395C109.778 144.979 101.378 151.75 91.5394 153.17C102.361 152.973 112.021 146.255 115.97 136.128L133.886 90.182ZM138.619 90.9757C141.495 84.2448 141.495 76.6286 138.619 69.8978L118.989 23.9513C114.846 14.2541 105.416 7.90932 94.9184 7.70444C104.447 9.08179 112.65 15.4819 116.223 24.6459L134.139 70.5924C136.607 76.9225 136.607 83.9509 134.139 90.2811L116.223 136.228C112.65 145.392 104.447 151.792 94.9183 153.169C105.416 152.964 114.846 146.619 118.989 136.922L138.619 90.9757ZM143.308 91.7378C146.637 84.5725 146.637 76.3009 143.308 69.1356L121.963 23.1891C117.653 13.9112 108.452 7.91772 98.2688 7.70517C107.496 9.04228 115.499 15.0914 119.239 23.8442L138.869 69.7906C141.774 76.5899 141.774 84.2835 138.869 91.0828L119.239 137.029C115.499 145.782 107.496 151.831 98.269 153.168C108.452 152.956 117.653 146.962 121.963 137.684L143.308 91.7378ZM147.956 92.468C151.755 84.8983 151.755 75.9751 147.956 68.4055L124.897 22.459C120.444 13.5866 111.466 7.92327 101.585 7.70582C110.522 9.00166 118.329 14.7198 122.21 23.0743L143.555 69.0207C146.917 76.2589 146.917 84.6145 143.555 91.8527L122.21 137.799C118.329 146.154 110.522 151.872 101.585 153.167C111.466 152.95 120.444 147.287 124.897 138.414L147.956 92.468ZM152.567 93.166C156.851 85.2219 156.851 75.6515 152.567 67.7074L127.793 21.7609C123.221 13.281 114.463 7.92829 104.875 7.70649C113.529 8.96246 121.141 14.3684 125.14 22.3367L148.199 68.2832C152.037 75.9298 152.037 84.9437 148.199 92.5903L125.14 138.537C121.141 146.505 113.529 151.911 104.875 153.167C114.463 152.945 123.221 147.592 127.793 139.113L152.567 93.166ZM157.144 93.8322C161.923 85.543 161.923 75.3304 157.144 67.0413L130.656 21.0948C125.985 12.9928 117.442 7.93152 108.135 7.70711C116.517 8.92345 123.937 14.0355 128.033 21.6315L152.806 67.578C157.133 75.6029 157.133 85.2706 152.806 93.2954L128.033 139.242C123.937 146.838 116.517 151.95 108.134 153.167C117.442 152.942 125.985 147.881 130.656 139.779L157.144 93.8322Z" stroke="url(#paint1_linear_3963_942)" stroke-width="0.5"/>
<defs>
<linearGradient id="paint0_linear_3963_942" x1="80.9998" y1="0.436523" x2="80.9998" y2="160.437" gradientUnits="userSpaceOnUse">
<stop stop-color="#FF6F4F"/>
<stop offset="1" stop-color="#FF01DD"/>
</linearGradient>
<linearGradient id="paint1_linear_3963_942" x1="161" y1="80.4367" x2="1.00006" y2="80.4367" gradientUnits="userSpaceOnUse">
<stop stop-color="#FF6F4F"/>
<stop offset="1" stop-color="#FF01DD"/>
</linearGradient>
</defs>
</svg>
