<svg width="138" height="153" viewBox="0 0 138 153" fill="none" xmlns="http://www.w3.org/2000/svg">
<path d="M56.0036 4.63089L13.6864 29.2104C5.64418 33.8817 0.689972 42.5145 0.689972 51.857L0.689972 101.016C0.689972 110.359 5.64418 118.991 13.6864 123.663L56.0036 148.242C64.0458 152.913 73.9542 152.913 81.9964 148.242L124.314 123.663C132.356 118.991 137.31 110.359 137.31 101.016V51.857C137.31 42.5145 132.356 33.8817 124.314 29.2104L81.9964 4.63089C73.9542 -0.0403558 64.0458 -0.0403558 56.0036 4.63089ZM81.8656 4.85877L124.183 29.4383C132.144 34.0626 137.048 42.6085 137.048 51.857V101.016C137.048 110.265 132.144 118.811 124.183 123.435L81.8656 148.014C73.9043 152.639 64.0956 152.639 56.1343 148.014L13.8172 123.435C5.85588 118.811 0.951522 110.265 0.951522 101.016V51.857C0.951522 42.6085 5.85588 34.0626 13.8172 29.4383L56.1343 4.85877C64.0956 0.234527 73.9043 0.234527 81.8656 4.85877Z" fill="url(#paint0_linear_3963_950)" stroke="url(#paint1_linear_3963_950)" stroke-width="0.647584"/>
<path d="M55.8145 8.87705L17.1284 31.3395C9.08755 36.0082 4.13422 44.6364 4.13422 53.9739V98.8988C4.13422 108.236 9.08755 116.865 17.1284 121.533L55.8145 143.996C63.8553 148.664 73.762 148.664 81.8028 143.996L120.489 121.533C128.53 116.865 133.483 108.236 133.483 98.8988V53.9739C133.483 44.6364 128.53 36.0082 120.489 31.3395L81.8028 8.87705C73.762 4.2083 63.8553 4.2083 55.8145 8.87705ZM81.6721 9.1048L120.358 31.5672C128.318 36.189 133.222 44.7304 133.222 53.9739V98.8988C133.222 108.142 128.318 116.684 120.358 121.306L81.6721 143.768C73.7122 148.39 63.9052 148.39 55.9453 143.768L17.2591 121.306C9.29922 116.684 4.39572 108.142 4.39572 98.8988V53.9739C4.39572 44.7304 9.29922 36.189 17.2591 31.5672L55.9453 9.1048C63.9052 4.48304 73.7122 4.48304 81.6721 9.1048Z" fill="url(#paint2_linear_3963_950)" stroke="url(#paint3_linear_3963_950)" stroke-width="0.647584"/>
<path d="M56.0084 13.1234L20.9526 33.4696C12.9134 38.1356 7.96103 46.7586 7.96103 56.0904V96.7829C7.96103 106.115 12.9134 114.738 20.9526 119.404L56.0084 139.75C64.0476 144.416 73.9523 144.416 81.9915 139.75L117.047 119.404C125.086 114.738 130.039 106.115 130.039 96.7829V56.0904C130.039 46.7586 125.086 38.1356 117.047 33.4696L81.9915 13.1234C73.9523 8.4575 64.0476 8.4575 56.0084 13.1234ZM81.8608 13.351L116.917 33.6973C124.875 38.3162 129.777 46.8525 129.777 56.0904V96.7829C129.777 106.021 124.875 114.557 116.917 119.176L81.8608 139.522C73.9025 144.141 64.0974 144.141 56.1391 139.522L21.0833 119.176C13.125 114.557 8.22248 106.021 8.22248 96.7829V56.0904C8.22248 46.8525 13.125 38.3162 21.0833 33.6973L56.1391 13.351C64.0974 8.73207 73.9025 8.73207 81.8608 13.351Z" fill="url(#paint4_linear_3963_950)" stroke="url(#paint5_linear_3963_950)" stroke-width="0.647584"/>
<path d="M55.8199 17.3799L24.3939 35.6673C16.3565 40.3444 11.4052 48.9881 11.4052 58.3423V94.917C11.4052 104.271 16.3565 112.915 24.3939 117.592L55.8199 135.879C63.8573 140.557 73.7598 140.557 81.7973 135.879L113.223 117.592C121.261 112.915 126.212 104.271 126.212 94.917V58.3423C126.212 48.9881 121.261 40.3444 113.223 35.6673L81.7973 17.3799C73.7598 12.7028 63.8573 12.7028 55.8199 17.3799ZM81.6666 17.6081L113.093 35.8954C121.049 40.5255 125.951 49.0822 125.951 58.3423V94.917C125.951 104.177 121.049 112.734 113.093 117.364L81.6666 135.651C73.71 140.281 63.9071 140.281 55.9506 135.651L24.5246 117.364C16.568 112.734 11.6666 104.177 11.6666 94.917V58.3423C11.6666 49.0822 16.568 40.5255 24.5246 35.8954L55.9506 17.6081C63.9071 12.978 73.71 12.978 81.6666 17.6081Z" fill="url(#paint6_linear_3963_950)" stroke="url(#paint7_linear_3963_950)" stroke-width="0.647584"/>
<path d="M56.0146 21.626L28.2176 37.7966C20.1822 42.4711 15.2321 51.1099 15.2321 60.4589V92.8001C15.2321 102.149 20.1822 110.788 28.2176 115.462L56.0146 131.633C64.05 136.308 73.95 136.308 81.9854 131.633L109.782 115.462C117.818 110.788 122.768 102.149 122.768 92.8001V60.4589C122.768 51.1099 117.818 42.4711 109.782 37.7966L81.9854 21.626C73.95 16.9515 64.05 16.9515 56.0146 21.626ZM81.8547 21.854L109.652 38.0246C117.606 42.6521 122.506 51.204 122.506 60.4589V92.8001C122.506 102.055 117.606 110.607 109.652 115.234L81.8547 131.405C73.9002 136.032 64.0998 136.032 56.1452 131.405L28.3482 115.234C20.3937 110.607 15.4935 102.055 15.4935 92.8001V60.4589C15.4935 51.204 20.3937 42.6521 28.3482 38.0246L56.1452 21.854C64.0998 17.2266 73.9002 17.2266 81.8547 21.854Z" fill="url(#paint8_linear_3963_950)" stroke="url(#paint9_linear_3963_950)" stroke-width="0.647584"/>
<path d="M55.827 25.8719L31.6581 39.9268C23.625 44.5983 18.6764 53.2315 18.6764 62.5745V90.6844C18.6764 100.027 23.625 108.661 31.6581 113.332L55.827 127.387C63.8601 132.058 73.7572 132.058 81.7903 127.387L105.959 113.332C113.992 108.661 118.941 100.027 118.941 90.6844V62.5745C118.941 53.2315 113.992 44.5983 105.959 39.9268L81.7903 25.8719C73.7572 21.2004 63.8601 21.2004 55.827 25.8719ZM81.6597 26.0998L105.829 40.1547C113.781 44.7792 118.68 53.3256 118.68 62.5745V90.6844C118.68 99.9333 113.781 108.48 105.829 113.104L81.6597 127.159C73.7075 131.784 63.9099 131.784 55.9576 127.159L31.7887 113.104C23.8364 108.48 18.9376 99.9333 18.9376 90.6844V62.5745C18.9376 53.3256 23.8364 44.7792 31.7887 40.1547L55.9576 26.0998C63.9099 21.4753 73.7075 21.4753 81.6597 26.0998Z" fill="url(#paint10_linear_3963_950)" stroke="url(#paint11_linear_3963_950)" stroke-width="0.647584"/>
<path d="M56.0226 30.1179L35.4805 42.0587C27.4501 46.7266 22.5032 55.3533 22.5032 64.6892V88.5707C22.5032 97.9065 27.4501 106.533 35.4805 111.201L56.0226 123.142C64.053 127.81 73.9469 127.81 81.9773 123.142L102.519 111.201C110.55 106.533 115.497 97.9065 115.497 88.5707V64.6892C115.497 55.3533 110.55 46.7266 102.519 42.0587L81.9773 30.1179C73.9469 25.45 64.053 25.45 56.0226 30.1179ZM81.8467 30.3456L102.389 42.2864C110.338 46.9073 115.235 55.4472 115.235 64.6892V88.5707C115.235 97.8126 110.338 106.353 102.389 110.973L81.8467 122.914C73.8971 127.535 64.1028 127.535 56.1532 122.914L35.6111 110.973C27.6615 106.353 22.7644 97.8126 22.7644 88.5707V64.6892C22.7644 55.4472 27.6615 46.9073 35.6111 42.2864L56.1532 30.3456C64.1028 25.7247 73.8971 25.7247 81.8467 30.3456Z" fill="url(#paint12_linear_3963_950)" stroke="url(#paint13_linear_3963_950)" stroke-width="0.647584"/>
<path d="M55.8364 34.3628L38.9198 44.1912C30.8925 48.8549 25.9475 57.4739 25.9475 66.8014V86.4581C25.9475 95.7856 30.8925 104.405 38.9198 109.068L55.8364 118.897C63.8637 123.56 73.7537 123.56 81.7809 118.897L98.6976 109.068C106.725 104.405 111.67 95.7856 111.67 86.4581V66.8014C111.67 57.4739 106.725 48.8549 98.6976 44.1912L81.7809 34.3628C73.7537 29.699 63.8637 29.699 55.8364 34.3628ZM81.6504 34.5903L98.567 44.4187C106.514 49.0355 111.409 57.5677 111.409 66.8014V86.4581C111.409 95.6917 106.514 104.224 98.567 108.841L81.6504 118.669C73.7039 123.286 63.9134 123.286 55.9669 118.669L39.0503 108.841C31.1038 104.224 26.2085 95.6917 26.2085 86.4581V66.8014C26.2085 57.5677 31.1038 49.0355 39.0503 44.4187L55.9669 34.5903C63.9134 29.9735 73.7039 29.9735 81.6504 34.5903Z" fill="url(#paint14_linear_3963_950)" stroke="url(#paint15_linear_3963_950)" stroke-width="0.647584"/>
<path d="M56.0338 38.2374L42.7407 45.9916C34.7171 50.672 29.7744 59.3217 29.7744 68.6825V84.191C29.7744 93.5518 34.7171 102.201 42.7407 106.882L56.0338 114.636C64.0573 119.316 73.9428 119.316 81.9663 114.636L95.2594 106.882C103.283 102.201 108.226 93.5518 108.226 84.191V68.6825C108.226 59.3217 103.283 50.672 95.2594 45.9916L81.9663 38.2374C73.9428 33.557 64.0573 33.557 56.0338 38.2374ZM81.8358 38.4657L95.1289 46.22C103.072 50.8533 107.965 59.4159 107.965 68.6825V84.191C107.965 93.4576 103.072 102.02 95.1289 106.654L81.8358 114.408C73.893 119.041 64.1071 119.041 56.1642 114.408L42.8712 106.654C34.9283 102.02 30.0354 93.4576 30.0354 84.191V68.6825C30.0354 59.4159 34.9283 50.8533 42.8712 46.22L56.1642 38.4657C64.1071 33.8324 73.893 33.8324 81.8358 38.4657Z" fill="url(#paint16_linear_3963_950)" stroke="url(#paint17_linear_3963_950)" stroke-width="0.647584"/>
<path d="M55.8496 42.4826L46.1776 48.1232C38.1585 52.7999 33.2186 61.4427 33.2186 70.796V82.0772C33.2186 91.4305 38.1585 100.073 46.1776 104.75L55.8496 110.391C63.8687 115.067 73.7486 115.067 81.7677 110.391L91.4397 104.75C99.4588 100.073 104.399 91.4305 104.399 82.0772V70.796C104.399 61.4427 99.4588 52.7999 91.4397 48.1232L81.7677 42.4826C73.7486 37.806 63.8687 37.806 55.8496 42.4826ZM81.6373 42.7108L91.3093 48.3514C99.2477 52.981 104.138 61.5368 104.138 70.796V82.0772C104.138 91.3364 99.2477 99.8922 91.3093 104.522L81.6373 110.162C73.6989 114.792 63.9184 114.792 55.98 110.162L46.308 104.522C38.3696 99.8922 33.4794 91.3364 33.4794 82.0772V70.796C33.4794 61.5368 38.3696 52.981 46.308 48.3514L55.98 42.7108C63.9184 38.0812 73.6989 38.0812 81.6373 42.7108Z" fill="url(#paint18_linear_3963_950)" stroke="url(#paint19_linear_3963_950)" stroke-width="0.647584"/>
<path d="M56.0497 46.7272L49.9956 50.2567C41.982 54.9287 37.0454 63.5629 37.0454 72.9068V79.966C37.0454 89.3099 41.982 97.9441 49.9956 102.616L56.0497 106.146C64.0633 110.818 73.9365 110.818 81.9501 106.146L88.0042 102.616C96.0179 97.9441 100.954 89.3099 100.954 79.966V72.9068C100.954 63.5629 96.0179 54.9287 88.0042 50.2567L81.9501 46.7272C73.9365 42.0552 64.0633 42.0552 56.0497 46.7272ZM81.8198 46.9551L87.8739 50.4846C95.8069 55.1096 100.694 63.6569 100.694 72.9068V79.966C100.694 89.2159 95.8069 97.7632 87.8739 102.388L81.8198 105.918C73.8868 110.543 64.113 110.543 56.18 105.918L50.1259 102.388C42.1929 97.7632 37.306 89.2159 37.306 79.966V72.9068C37.306 63.6569 42.1929 55.1096 50.1259 50.4846L56.18 46.9551C64.113 42.3301 73.8868 42.3301 81.8198 46.9551Z" fill="url(#paint20_linear_3963_950)" stroke="url(#paint21_linear_3963_950)" stroke-width="0.647584"/>
<path d="M55.8695 50.9709L53.4287 52.3933C45.422 57.0592 40.4896 65.6822 40.4896 75.0141V77.8588C40.4896 87.1907 45.422 95.8138 53.4287 100.48L55.8695 101.902C63.8762 106.568 73.741 106.568 81.7477 101.902L84.1885 100.48C92.1952 95.8138 97.1276 87.1907 97.1276 77.8588V75.0141C97.1276 65.6822 92.1952 57.0592 84.1885 52.3933L81.7477 50.9709C73.741 46.305 63.8762 46.305 55.8695 50.9709ZM81.6175 51.1985L84.0583 52.6209C91.9845 57.2399 96.8672 65.7761 96.8672 75.0141V77.8588C96.8672 87.0968 91.9845 95.6331 84.0583 100.252L81.6175 101.674C73.6913 106.293 63.9259 106.293 55.9997 101.674L53.5589 100.252C45.6328 95.6331 40.75 87.0968 40.75 77.8588V75.0141C40.75 65.7761 45.6328 57.2399 53.5589 52.6209L55.9997 51.1985C63.9259 46.5795 73.6913 46.5795 81.6175 51.1985Z" fill="url(#paint22_linear_3963_950)" stroke="url(#paint23_linear_3963_950)" stroke-width="0.647584"/>
<path d="M56.3713 55.0572C48.675 59.5069 43.9339 67.7304 43.9339 76.6298C43.9339 85.5293 48.675 93.7528 56.3713 98.2025C64.0676 102.652 73.5498 102.652 81.2461 98.2025C88.9423 93.7528 93.6834 85.5293 93.6834 76.6298C93.6834 67.7304 88.9423 59.5069 81.2461 55.0572C73.5498 50.6075 64.0676 50.6075 56.3713 55.0572ZM81.115 55.2845C88.7302 59.6874 93.4213 67.8242 93.4213 76.6298C93.4213 85.4355 88.7302 93.5723 81.115 97.9752C73.4998 102.378 64.1175 102.378 56.5023 97.9752C48.8872 93.5723 44.196 85.4355 44.196 76.6298C44.196 67.8242 48.8872 59.6874 56.5023 55.2845C64.1175 50.8817 73.4998 50.8817 81.115 55.2845Z" fill="url(#paint24_linear_3963_950)" stroke="url(#paint25_linear_3963_950)" stroke-width="0.647584"/>
<path d="M58.3802 58.0413C51.8088 61.8357 47.7606 68.8479 47.7606 76.4366C47.7606 84.0253 51.8088 91.0375 58.3802 94.8319C64.9517 98.6262 73.048 98.6262 79.6195 94.8319C86.1909 91.0375 90.2391 84.0253 90.2391 76.4366C90.2391 68.8479 86.1909 61.8357 79.6195 58.0413C73.048 54.247 64.9517 54.247 58.3802 58.0413ZM79.4885 58.2683C85.9788 62.0158 89.977 68.9415 89.977 76.4366C89.977 83.9317 85.9788 90.8574 79.4885 94.6049C72.9981 98.3524 65.0016 98.3524 58.5113 94.6049C52.0209 90.8574 48.0227 83.9317 48.0227 76.4366C48.0227 68.9415 52.0209 62.0158 58.5113 58.2683C65.0016 54.5208 72.9981 54.5208 79.4885 58.2683Z" fill="url(#paint26_linear_3963_950)" stroke="url(#paint27_linear_3963_950)" stroke-width="0.647584"/>
<path d="M60.0067 61.0512C54.5601 64.2247 51.2048 70.0895 51.2048 76.4364C51.2048 82.7833 54.5601 88.6481 60.0067 91.8215C65.4533 94.995 72.1638 94.995 77.6104 91.8215C83.057 88.6481 86.4122 82.7833 86.4122 76.4364C86.4122 70.0895 83.057 64.2247 77.6104 61.0512C72.1638 57.8778 65.4533 57.8778 60.0067 61.0512ZM77.4794 61.2802C82.8449 64.4065 86.1502 70.1839 86.1502 76.4364C86.1502 82.6888 82.8449 88.4663 77.4794 91.5925C72.1138 94.7187 65.5032 94.7187 60.1377 91.5925C54.7722 88.4663 51.4669 82.6888 51.4669 76.4364C51.4669 70.1839 54.7722 64.4065 60.1377 61.2802C65.5032 58.154 72.1138 58.154 77.4794 61.2802Z" fill="url(#paint28_linear_3963_950)" stroke="url(#paint29_linear_3963_950)" stroke-width="0.647584"/>
<path d="M62.0159 64.4219C57.6941 66.94 55.0318 71.5936 55.0318 76.6297C55.0318 81.6658 57.6941 86.3194 62.0159 88.8375C66.3376 91.3555 71.6623 91.3555 75.984 88.8375C80.3058 86.3194 82.9681 81.6658 82.9681 76.6297C82.9681 71.5936 80.3058 66.94 75.984 64.4219C71.6623 61.9039 66.3376 61.9039 62.0159 64.4219ZM75.8531 64.6509C80.0938 67.1217 82.7062 71.688 82.7062 76.6297C82.7062 81.5714 80.0938 86.1377 75.8531 88.6086C71.6123 91.0794 66.3876 91.0794 62.1468 88.6086C57.9061 86.1377 55.2937 81.5714 55.2937 76.6297C55.2937 71.688 57.9061 67.1217 62.1468 64.6509C66.3876 62.18 71.6123 62.18 75.8531 64.6509Z" fill="url(#paint30_linear_3963_950)" stroke="url(#paint31_linear_3963_950)" stroke-width="0.647584"/>
<path d="M63.6424 67.406C60.4455 69.2686 58.4761 72.711 58.4761 76.4364C58.4761 80.1617 60.4455 83.6041 63.6424 85.4668C66.8393 87.3294 70.7781 87.3294 73.975 85.4668C77.1719 83.6041 79.1413 80.1617 79.1413 76.4364C79.1413 72.711 77.1719 69.2686 73.975 67.406C70.7781 65.5433 66.8393 65.5433 63.6424 67.406ZM73.8441 67.6347C76.96 69.4502 78.8795 72.8054 78.8795 76.4364C78.8795 80.0673 76.96 83.4225 73.8441 85.238C70.7282 87.0535 66.8892 87.0535 63.7733 85.238C60.6573 83.4225 58.7378 80.0673 58.7378 76.4364C58.7378 72.8054 60.6573 69.4502 63.7733 67.6347C66.8892 65.8192 70.7282 65.8192 73.8441 67.6347Z" fill="url(#paint32_linear_3963_950)" stroke="url(#paint33_linear_3963_950)" stroke-width="0.647584"/>
<path d="M65.6514 70.7765C63.5793 71.9838 62.3029 74.215 62.3029 76.6296C62.3029 79.0441 63.5793 81.2753 65.6514 82.4826C67.7235 83.6899 70.2764 83.6899 72.3485 82.4826C74.4206 81.2753 75.697 79.0441 75.697 76.6296C75.697 74.215 74.4206 71.9838 72.3485 70.7765C70.2764 69.5692 67.7235 69.5692 65.6514 70.7765ZM72.2178 71.005C74.2089 72.1652 75.4356 74.3092 75.4356 76.6296C75.4356 78.9499 74.2089 81.0939 72.2178 82.2541C70.2266 83.4143 67.7733 83.4143 65.7821 82.2541C63.791 81.0939 62.5643 78.9499 62.5643 76.6296C62.5643 74.3092 63.791 72.1652 65.7821 71.005C67.7733 69.8449 70.2266 69.8449 72.2178 71.005Z" fill="url(#paint34_linear_3963_950)" stroke="url(#paint35_linear_3963_950)" stroke-width="0.647584"/>
<path d="M67.2778 73.7608C66.3306 74.3127 65.747 75.3327 65.747 76.4365C65.747 77.5403 66.3306 78.5603 67.2778 79.1122C68.225 79.6641 69.3921 79.6641 70.3393 79.1122C71.2865 78.5603 71.8701 77.5403 71.8701 76.4365C71.8701 75.3327 71.2865 74.3127 70.3393 73.7608C69.3921 73.2089 68.225 73.2089 67.2778 73.7608ZM70.2091 73.9884C71.0758 74.4933 71.6097 75.4265 71.6097 76.4365C71.6097 77.4464 71.0758 78.3796 70.2091 78.8846C69.3424 79.3896 68.2747 79.3896 67.408 78.8846C66.5413 78.3796 66.0074 77.4464 66.0074 76.4365C66.0074 75.4265 66.5413 74.4933 67.408 73.9884C68.2747 73.4834 69.3424 73.4834 70.2091 73.9884Z" fill="url(#paint36_linear_3963_950)" stroke="url(#paint37_linear_3963_950)" stroke-width="0.647584"/>
<defs>
<linearGradient id="paint0_linear_3963_950" x1="69" y1="1.12746" x2="69" y2="151.746" gradientUnits="userSpaceOnUse">
<stop stop-color="#FF01DD"/>
<stop offset="0.421875" stop-color="#9B61EF"/>
<stop offset="1" stop-color="#41B7FF"/>
</linearGradient>
<linearGradient id="paint1_linear_3963_950" x1="69" y1="1.12746" x2="69" y2="151.746" gradientUnits="userSpaceOnUse">
<stop stop-color="#FF01DD"/>
<stop offset="0.421875" stop-color="#9B61EF"/>
<stop offset="1" stop-color="#41B7FF"/>
</linearGradient>
<linearGradient id="paint2_linear_3963_950" x1="68.8087" y1="5.37549" x2="68.8087" y2="147.497" gradientUnits="userSpaceOnUse">
<stop stop-color="#FF01DD"/>
<stop offset="0.421875" stop-color="#9B61EF"/>
<stop offset="1" stop-color="#41B7FF"/>
</linearGradient>
<linearGradient id="paint3_linear_3963_950" x1="68.8087" y1="5.37549" x2="68.8087" y2="147.497" gradientUnits="userSpaceOnUse">
<stop stop-color="#FF01DD"/>
<stop offset="0.421875" stop-color="#9B61EF"/>
<stop offset="1" stop-color="#41B7FF"/>
</linearGradient>
<linearGradient id="paint4_linear_3963_950" x1="68.9999" y1="9.62398" x2="68.9999" y2="143.249" gradientUnits="userSpaceOnUse">
<stop stop-color="#FF01DD"/>
<stop offset="0.421875" stop-color="#9B61EF"/>
<stop offset="1" stop-color="#41B7FF"/>
</linearGradient>
<linearGradient id="paint5_linear_3963_950" x1="68.9999" y1="9.62398" x2="68.9999" y2="143.249" gradientUnits="userSpaceOnUse">
<stop stop-color="#FF01DD"/>
<stop offset="0.421875" stop-color="#9B61EF"/>
<stop offset="1" stop-color="#41B7FF"/>
</linearGradient>
<linearGradient id="paint6_linear_3963_950" x1="68.8086" y1="13.8721" x2="68.8086" y2="139.387" gradientUnits="userSpaceOnUse">
<stop stop-color="#FF01DD"/>
<stop offset="0.421875" stop-color="#9B61EF"/>
<stop offset="1" stop-color="#41B7FF"/>
</linearGradient>
<linearGradient id="paint7_linear_3963_950" x1="68.8086" y1="13.8721" x2="68.8086" y2="139.387" gradientUnits="userSpaceOnUse">
<stop stop-color="#FF01DD"/>
<stop offset="0.421875" stop-color="#9B61EF"/>
<stop offset="1" stop-color="#41B7FF"/>
</linearGradient>
<linearGradient id="paint8_linear_3963_950" x1="69" y1="18.1201" x2="69" y2="135.139" gradientUnits="userSpaceOnUse">
<stop stop-color="#FF01DD"/>
<stop offset="0.421875" stop-color="#9B61EF"/>
<stop offset="1" stop-color="#41B7FF"/>
</linearGradient>
<linearGradient id="paint9_linear_3963_950" x1="69" y1="18.1201" x2="69" y2="135.139" gradientUnits="userSpaceOnUse">
<stop stop-color="#FF01DD"/>
<stop offset="0.421875" stop-color="#9B61EF"/>
<stop offset="1" stop-color="#41B7FF"/>
</linearGradient>
<linearGradient id="paint10_linear_3963_950" x1="68.8087" y1="22.3683" x2="68.8087" y2="130.891" gradientUnits="userSpaceOnUse">
<stop stop-color="#FF01DD"/>
<stop offset="0.421875" stop-color="#9B61EF"/>
<stop offset="1" stop-color="#41B7FF"/>
</linearGradient>
<linearGradient id="paint11_linear_3963_950" x1="68.8087" y1="22.3683" x2="68.8087" y2="130.891" gradientUnits="userSpaceOnUse">
<stop stop-color="#FF01DD"/>
<stop offset="0.421875" stop-color="#9B61EF"/>
<stop offset="1" stop-color="#41B7FF"/>
</linearGradient>
<linearGradient id="paint12_linear_3963_950" x1="68.9999" y1="26.617" x2="68.9999" y2="126.643" gradientUnits="userSpaceOnUse">
<stop stop-color="#FF01DD"/>
<stop offset="0.421875" stop-color="#9B61EF"/>
<stop offset="1" stop-color="#41B7FF"/>
</linearGradient>
<linearGradient id="paint13_linear_3963_950" x1="68.9999" y1="26.617" x2="68.9999" y2="126.643" gradientUnits="userSpaceOnUse">
<stop stop-color="#FF01DD"/>
<stop offset="0.421875" stop-color="#9B61EF"/>
<stop offset="1" stop-color="#41B7FF"/>
</linearGradient>
<linearGradient id="paint14_linear_3963_950" x1="68.8087" y1="30.865" x2="68.8087" y2="122.394" gradientUnits="userSpaceOnUse">
<stop stop-color="#FF01DD"/>
<stop offset="0.421875" stop-color="#9B61EF"/>
<stop offset="1" stop-color="#41B7FF"/>
</linearGradient>
<linearGradient id="paint15_linear_3963_950" x1="68.8087" y1="30.865" x2="68.8087" y2="122.394" gradientUnits="userSpaceOnUse">
<stop stop-color="#FF01DD"/>
<stop offset="0.421875" stop-color="#9B61EF"/>
<stop offset="1" stop-color="#41B7FF"/>
</linearGradient>
<linearGradient id="paint16_linear_3963_950" x1="69" y1="34.7271" x2="69" y2="118.146" gradientUnits="userSpaceOnUse">
<stop stop-color="#FF01DD"/>
<stop offset="0.421875" stop-color="#9B61EF"/>
<stop offset="1" stop-color="#41B7FF"/>
</linearGradient>
<linearGradient id="paint17_linear_3963_950" x1="69" y1="34.7271" x2="69" y2="118.146" gradientUnits="userSpaceOnUse">
<stop stop-color="#FF01DD"/>
<stop offset="0.421875" stop-color="#9B61EF"/>
<stop offset="1" stop-color="#41B7FF"/>
</linearGradient>
<linearGradient id="paint18_linear_3963_950" x1="68.8087" y1="38.9751" x2="68.8087" y2="113.898" gradientUnits="userSpaceOnUse">
<stop stop-color="#FF01DD"/>
<stop offset="0.421875" stop-color="#9B61EF"/>
<stop offset="1" stop-color="#41B7FF"/>
</linearGradient>
<linearGradient id="paint19_linear_3963_950" x1="68.8087" y1="38.9751" x2="68.8087" y2="113.898" gradientUnits="userSpaceOnUse">
<stop stop-color="#FF01DD"/>
<stop offset="0.421875" stop-color="#9B61EF"/>
<stop offset="1" stop-color="#41B7FF"/>
</linearGradient>
<linearGradient id="paint20_linear_3963_950" x1="68.9999" y1="43.2232" x2="68.9999" y2="109.65" gradientUnits="userSpaceOnUse">
<stop stop-color="#FF01DD"/>
<stop offset="0.421875" stop-color="#9B61EF"/>
<stop offset="1" stop-color="#41B7FF"/>
</linearGradient>
<linearGradient id="paint21_linear_3963_950" x1="68.9999" y1="43.2232" x2="68.9999" y2="109.65" gradientUnits="userSpaceOnUse">
<stop stop-color="#FF01DD"/>
<stop offset="0.421875" stop-color="#9B61EF"/>
<stop offset="1" stop-color="#41B7FF"/>
</linearGradient>
<linearGradient id="paint22_linear_3963_950" x1="68.8086" y1="47.4715" x2="68.8086" y2="105.402" gradientUnits="userSpaceOnUse">
<stop stop-color="#FF01DD"/>
<stop offset="0.421875" stop-color="#9B61EF"/>
<stop offset="1" stop-color="#41B7FF"/>
</linearGradient>
<linearGradient id="paint23_linear_3963_950" x1="68.8086" y1="47.4715" x2="68.8086" y2="105.402" gradientUnits="userSpaceOnUse">
<stop stop-color="#FF01DD"/>
<stop offset="0.421875" stop-color="#9B61EF"/>
<stop offset="1" stop-color="#41B7FF"/>
</linearGradient>
<linearGradient id="paint24_linear_3963_950" x1="68.8087" y1="51.7199" x2="68.8087" y2="101.54" gradientUnits="userSpaceOnUse">
<stop stop-color="#FF01DD"/>
<stop offset="0.421875" stop-color="#9B61EF"/>
<stop offset="1" stop-color="#41B7FF"/>
</linearGradient>
<linearGradient id="paint25_linear_3963_950" x1="68.8087" y1="51.7199" x2="68.8087" y2="101.54" gradientUnits="userSpaceOnUse">
<stop stop-color="#FF01DD"/>
<stop offset="0.421875" stop-color="#9B61EF"/>
<stop offset="1" stop-color="#41B7FF"/>
</linearGradient>
<linearGradient id="paint26_linear_3963_950" x1="68.9999" y1="55.1956" x2="68.9999" y2="97.6776" gradientUnits="userSpaceOnUse">
<stop stop-color="#FF01DD"/>
<stop offset="0.421875" stop-color="#9B61EF"/>
<stop offset="1" stop-color="#41B7FF"/>
</linearGradient>
<linearGradient id="paint27_linear_3963_950" x1="68.9999" y1="55.1956" x2="68.9999" y2="97.6776" gradientUnits="userSpaceOnUse">
<stop stop-color="#FF01DD"/>
<stop offset="0.421875" stop-color="#9B61EF"/>
<stop offset="1" stop-color="#41B7FF"/>
</linearGradient>
<linearGradient id="paint28_linear_3963_950" x1="68.8085" y1="58.6711" x2="68.8085" y2="94.2016" gradientUnits="userSpaceOnUse">
<stop stop-color="#FF01DD"/>
<stop offset="0.421875" stop-color="#9B61EF"/>
<stop offset="1" stop-color="#41B7FF"/>
</linearGradient>
<linearGradient id="paint29_linear_3963_950" x1="68.8085" y1="58.6711" x2="68.8085" y2="94.2016" gradientUnits="userSpaceOnUse">
<stop stop-color="#FF01DD"/>
<stop offset="0.421875" stop-color="#9B61EF"/>
<stop offset="1" stop-color="#41B7FF"/>
</linearGradient>
<linearGradient id="paint30_linear_3963_950" x1="69" y1="62.5334" x2="69" y2="90.726" gradientUnits="userSpaceOnUse">
<stop stop-color="#FF01DD"/>
<stop offset="0.421875" stop-color="#9B61EF"/>
<stop offset="1" stop-color="#41B7FF"/>
</linearGradient>
<linearGradient id="paint31_linear_3963_950" x1="69" y1="62.5334" x2="69" y2="90.726" gradientUnits="userSpaceOnUse">
<stop stop-color="#FF01DD"/>
<stop offset="0.421875" stop-color="#9B61EF"/>
<stop offset="1" stop-color="#41B7FF"/>
</linearGradient>
<linearGradient id="paint32_linear_3963_950" x1="68.8087" y1="66.0089" x2="68.8087" y2="86.8638" gradientUnits="userSpaceOnUse">
<stop stop-color="#FF01DD"/>
<stop offset="0.421875" stop-color="#9B61EF"/>
<stop offset="1" stop-color="#41B7FF"/>
</linearGradient>
<linearGradient id="paint33_linear_3963_950" x1="68.8087" y1="66.0089" x2="68.8087" y2="86.8638" gradientUnits="userSpaceOnUse">
<stop stop-color="#FF01DD"/>
<stop offset="0.421875" stop-color="#9B61EF"/>
<stop offset="1" stop-color="#41B7FF"/>
</linearGradient>
<linearGradient id="paint34_linear_3963_950" x1="69" y1="69.8711" x2="69" y2="83.3881" gradientUnits="userSpaceOnUse">
<stop stop-color="#FF01DD"/>
<stop offset="0.421875" stop-color="#9B61EF"/>
<stop offset="1" stop-color="#41B7FF"/>
</linearGradient>
<linearGradient id="paint35_linear_3963_950" x1="69" y1="69.8711" x2="69" y2="83.3881" gradientUnits="userSpaceOnUse">
<stop stop-color="#FF01DD"/>
<stop offset="0.421875" stop-color="#9B61EF"/>
<stop offset="1" stop-color="#41B7FF"/>
</linearGradient>
<linearGradient id="paint36_linear_3963_950" x1="68.8086" y1="73.3469" x2="68.8086" y2="79.5261" gradientUnits="userSpaceOnUse">
<stop stop-color="#FF01DD"/>
<stop offset="0.421875" stop-color="#9B61EF"/>
<stop offset="1" stop-color="#41B7FF"/>
</linearGradient>
<linearGradient id="paint37_linear_3963_950" x1="68.8086" y1="73.3469" x2="68.8086" y2="79.5261" gradientUnits="userSpaceOnUse">
<stop stop-color="#FF01DD"/>
<stop offset="0.421875" stop-color="#9B61EF"/>
<stop offset="1" stop-color="#41B7FF"/>
</linearGradient>
</defs>
</svg>
