<svg width="146" height="161" viewBox="0 0 146 161" fill="none" xmlns="http://www.w3.org/2000/svg">
<path fill-rule="evenodd" clip-rule="evenodd" d="M130.742 30.8061L133.363 32.3087C133.373 32.3144 133.383 32.3202 133.393 32.326L28.3718 136.781L25.7206 135.261L130.742 30.8061ZM129.695 30.2063L24.6744 134.661L22.0232 133.141L127.044 28.6864L129.695 30.2063ZM125.998 28.0867L20.977 132.542L18.3258 131.022L123.347 26.5668L125.998 28.0867ZM122.301 25.967L17.2797 130.422L14.6284 128.902L119.649 24.4472L122.301 25.967ZM118.603 23.8474L13.5823 128.302L12.6374 127.761C12.0711 127.436 11.5223 127.089 10.9916 126.722L115.952 22.3275L118.603 23.8474ZM114.906 21.7277L10.0409 126.028C9.256 125.422 8.51577 124.77 7.82337 124.076L112.255 20.2078L114.906 21.7277ZM111.209 19.6081L7.02295 123.232C6.35868 122.495 5.745 121.717 5.18516 120.903L108.557 18.0882L111.209 19.6081ZM107.511 17.4884L4.53734 119.907C3.99886 119.03 3.5204 118.117 3.10565 117.174L104.86 15.9686L107.511 17.4884ZM103.814 15.3688L2.63028 116.007C2.23852 114.962 1.92305 113.886 1.68854 112.787L101.163 13.8489L103.814 15.3688ZM100.116 13.2491L1.43727 111.396C1.27543 110.307 1.19235 109.198 1.19235 108.078V107.483L97.4652 11.7293L100.116 13.2491ZM96.419 11.1295L1.19235 105.843V101.686L93.7679 9.60961L96.419 11.1295ZM92.7216 9.00981L1.19235 100.046V95.889L90.0705 7.48995L92.7216 9.00981ZM89.0242 6.89018L1.19235 94.2487V90.0919L86.3731 5.37032L89.0242 6.89018ZM85.3269 4.77052L1.19235 88.4516V84.2948L82.6074 3.31866C83.2309 3.60504 83.8445 3.92073 84.4464 4.26574L85.3269 4.77052ZM82.3671 1.91717C82.3726 1.91947 82.3781 1.92178 82.3836 1.92409C82.7598 2.08219 83.133 2.25023 83.5027 2.42818C84.023 2.67865 84.5364 2.94877 85.0419 3.23856L86.1997 3.90234L87.246 4.50214L89.8971 6.022L90.9433 6.62178L93.5945 8.14163L94.6407 8.74143L97.2919 10.2613L98.3381 10.8611L100.989 12.3809L102.035 12.9807L104.687 14.5006L105.733 15.1004L108.384 16.6202L109.43 17.22L112.081 18.7399L113.128 19.3397L115.779 20.8595L116.825 21.4593L119.476 22.9792L120.522 23.579L123.174 25.0988L124.22 25.6986L126.871 27.2185L127.917 27.8183L130.568 29.3381L131.615 29.9379L133.958 31.2815C134.061 31.3402 134.162 31.3996 134.264 31.4597C134.278 31.4679 134.291 31.4761 134.305 31.4844C134.635 31.6804 134.958 31.8837 135.275 32.0938C136.109 32.6456 136.902 33.245 137.652 33.887C137.664 33.8973 137.676 33.9076 137.688 33.9179C137.971 34.1613 138.247 34.4108 138.518 34.6662C139.235 35.3443 139.908 36.0636 140.532 36.8191C140.541 36.8295 140.549 36.8399 140.558 36.8503C140.798 37.1415 141.031 37.4381 141.256 37.7397C141.858 38.545 142.407 39.3866 142.902 40.2591C142.908 40.2684 142.913 40.2777 142.918 40.287C143.112 40.6301 143.298 40.9781 143.474 41.3304C143.949 42.2772 144.361 43.2561 144.707 44.2609C144.707 44.2615 144.708 44.2622 144.708 44.2629C144.85 44.6748 144.98 45.0911 145.099 45.5112C145.419 46.637 145.656 47.7908 145.807 48.9645C145.809 48.9829 145.811 49.0012 145.814 49.0196C145.874 49.4972 145.92 49.978 145.951 50.4615C145.983 50.9688 146 51.4791 146 51.9917V54.5693V56.2096V60.3664V62.0067V66.1635V67.8038V71.9606V73.6009V77.7577V79.398V83.5548V85.1951V89.3519V90.9921V95.149V96.7893V100.946V102.586V106.743V108.078C146 108.178 145.999 108.278 145.998 108.378C145.998 108.38 145.998 108.383 145.998 108.385C145.977 110.015 145.789 111.62 145.446 113.179C145.289 113.895 145.098 114.603 144.876 115.298C143.086 120.909 139.241 125.759 133.958 128.788L127.715 132.367L123.822 134.599L113.956 140.255L110.063 142.487L100.197 148.143L96.3037 150.375L86.4375 156.031L85.0419 156.831C84.3351 157.236 83.6127 157.603 82.8777 157.931C80.954 158.79 78.9439 159.387 76.9004 159.719C76.8953 159.72 76.8901 159.721 76.885 159.722C76.2655 159.822 75.6429 159.899 75.0187 159.951C73.6318 160.066 72.2371 160.063 70.8507 159.939C70.8208 159.937 70.7909 159.934 70.7611 159.931C70.2991 159.888 69.8382 159.832 69.3788 159.763C68.2304 159.59 67.0917 159.334 65.9722 158.994C65.9701 158.994 65.9681 158.993 65.966 158.993C65.5534 158.867 65.1433 158.731 64.7363 158.583C63.7495 158.225 62.7807 157.801 61.8366 157.311C61.8078 157.296 61.779 157.281 61.7503 157.265C61.4842 157.126 61.2201 156.981 60.9581 156.831L60.7753 156.726L58.1241 155.206L57.0779 154.606L54.4267 153.086L53.3805 152.487L50.7293 150.967L49.6832 150.367L47.0319 148.847L45.9858 148.247L43.3346 146.727L42.2884 146.128L39.6372 144.608L38.591 144.008L35.9398 142.488L34.8937 141.888L32.2424 140.369L31.1963 139.769L28.545 138.249L27.4989 137.649L24.8477 136.129L23.8015 135.529L21.1503 134.01L20.1041 133.41L17.4529 131.89L16.4068 131.29L13.7556 129.77L12.7094 129.171L12.0419 128.788C11.3838 128.411 10.7481 128.005 10.1358 127.573C10.1252 127.566 10.1146 127.558 10.104 127.551C9.79375 127.331 9.48951 127.105 9.19153 126.872C8.41088 126.263 7.6729 125.609 6.98033 124.915C6.9694 124.904 6.95848 124.893 6.94758 124.882C6.68466 124.618 6.4283 124.347 6.17871 124.072C5.51296 123.337 4.89517 122.563 4.3282 121.756C4.32684 121.754 4.32549 121.752 4.32414 121.75C4.09838 121.428 3.88066 121.101 3.67123 120.769C3.12477 119.902 2.63454 119.001 2.20376 118.071C2.20163 118.067 2.19949 118.062 2.19736 118.058C2.02465 117.684 1.86151 117.306 1.70819 116.924C1.29858 115.903 0.958949 114.852 0.693302 113.777C0.691118 113.768 0.688939 113.759 0.686765 113.75C0.579213 113.313 0.483908 112.872 0.401127 112.427C0.171677 111.195 0.0384244 109.936 0.0071647 108.662C0.00688122 108.65 0.00660591 108.639 0.00633922 108.627C0.00211876 108.444 0 108.261 0 108.078V107.029V102.872V101.232V97.0749V95.4346V91.2779V89.6375V85.4807V83.8404V79.6836V78.0433V73.8868V72.2465V68.0897V66.4493V62.2926V60.6522V56.4955V54.8551V51.9917C0 51.5464 0.0124722 51.1028 0.0371718 50.6614C0.0383857 50.6397 0.0396294 50.618 0.0409025 50.5964C0.075306 50.0103 0.131263 49.4282 0.208196 48.851C0.466465 46.9131 0.961149 45.0303 1.67054 43.2397C1.67975 43.2165 1.689 43.1933 1.69828 43.17C2.12507 42.1026 2.62828 41.0683 3.20327 40.0749C5.28308 36.4819 8.30214 33.4254 12.0419 31.2815L12.0477 31.2782L15.941 29.0462L25.8069 23.3902L29.7002 21.1582L39.566 15.5023L43.4594 13.2703L53.3251 7.61444L57.2185 5.38241L60.9581 3.23856C62.4511 2.38263 64.0136 1.6982 65.6176 1.18527C65.6397 1.1782 65.6618 1.17117 65.684 1.16416C66.4062 0.935504 67.1368 0.74156 67.8731 0.582337C69.4306 0.245565 71.0141 0.0641103 72.5997 0.037968C72.6032 0.0379101 72.6067 0.037853 72.6102 0.0377966C73.1473 0.0291733 73.6847 0.0383761 74.2214 0.0654028C75.4632 0.127942 76.7012 0.285926 77.9239 0.539356C77.9302 0.540666 77.9365 0.541978 77.9428 0.543293C78.3827 0.634826 78.8205 0.738716 79.2559 0.854958C80.3103 1.13654 81.35 1.49061 82.3671 1.91717ZM78.2742 1.83133C79.351 2.08438 80.4136 2.41602 81.4531 2.82626L1.19235 82.6545V78.4977L78.2742 1.83133ZM76.9047 1.55309C75.6328 1.33465 74.3466 1.22375 73.0601 1.2204L1.19235 72.7009V76.8574L76.9047 1.55309ZM1.19235 71.0605L71.3516 1.27926C69.6119 1.40382 67.8833 1.72586 66.2011 2.24537L1.19235 66.9038V71.0605ZM1.19235 65.2634L63.5401 3.25154C62.8659 3.5555 62.2029 3.89356 61.5536 4.26574L53.9702 8.61319L1.19235 61.1067V65.2634ZM1.19235 59.4663L50.0768 10.8452L40.2111 16.5011L1.19235 55.3096V59.4663ZM1.19235 53.6692L36.3177 18.7331L26.4519 24.389L1.34603 49.3596C1.24429 50.2272 1.19235 51.1058 1.19235 51.9917V53.6692ZM1.66299 47.404L22.5586 26.621L12.6927 32.277L4.20812 40.7158C3.01703 42.7855 2.15332 45.0413 1.66299 47.404ZM29.4179 137.381L32.0692 138.901L136.806 34.7279C136.054 34.0884 135.256 33.4939 134.415 32.9499L29.4179 137.381ZM137.674 35.505L33.1153 139.5L35.7666 141.02L139.685 37.6618C139.064 36.9031 138.393 36.1823 137.674 35.505ZM140.403 38.5878L36.8127 141.62L39.4639 143.14L142.025 41.1313C141.542 40.2494 141 39.3996 140.403 38.5878ZM142.583 42.2172L40.5101 143.74L43.1613 145.26L143.762 45.2006C143.44 44.1774 143.045 43.1805 142.583 42.2172ZM144.125 46.4803L44.2074 145.859L46.8587 147.379L144.723 50.0418C144.619 48.8321 144.417 47.6417 144.125 46.4803ZM144.804 51.6018L47.9048 147.979L50.5561 149.499L144.808 55.7552V51.9917C144.808 51.8616 144.807 51.7316 144.804 51.6018ZM144.808 57.3955L51.6022 150.099L54.2534 151.618L144.808 61.5523V57.3955ZM144.808 63.1926L55.2996 152.218L57.9508 153.738L144.808 67.3494V63.1926ZM144.808 68.9897L58.997 154.338L61.5536 155.804C61.5852 155.822 61.6168 155.84 61.6484 155.858L144.808 73.1465V68.9897ZM144.808 74.7868L62.7224 156.43C63.6823 156.909 64.6678 157.317 65.6714 157.653L144.808 78.9436V74.7868ZM144.808 80.5839L66.9346 158.037C68.0879 158.352 69.2604 158.575 70.4409 158.707L144.808 84.7407V80.5839ZM144.808 86.381L71.97 158.826C73.4408 158.892 74.9165 158.817 76.3759 158.601L144.808 90.5378V86.381ZM144.808 92.1781L78.4262 158.202C80.5094 157.697 82.5376 156.898 84.4464 155.804L85.7928 155.032L144.808 96.3349V92.1781ZM144.808 97.9752L89.6858 152.8L99.552 147.144L144.808 102.132V97.9752ZM144.808 103.772L103.445 144.912L113.311 139.256L144.808 107.929V103.772ZM144.755 109.622L117.204 137.024L127.07 131.368L143.809 114.72C144.314 113.077 144.635 111.368 144.755 109.622ZM142.818 117.345L130.963 129.136L133.363 127.761C137.612 125.325 140.882 121.649 142.818 117.345Z" fill="url(#paint0_linear_3963_934)"/>
<defs>
<linearGradient id="paint0_linear_3963_934" x1="73" y1="0.034668" x2="73" y2="160.035" gradientUnits="userSpaceOnUse">
<stop stop-color="#5C5CFF"/>
<stop offset="1" stop-color="#41B7FF"/>
</linearGradient>
</defs>
</svg>
