<svg width="144" height="159" viewBox="0 0 144 159" fill="none" xmlns="http://www.w3.org/2000/svg">
<path fill-rule="evenodd" clip-rule="evenodd" d="M85.8422 3.90061L85.8431 3.90112L85.9383 3.95562C86.559 4.25504 87.1713 4.57907 87.7736 4.92773L87.7759 4.92903L87.8798 4.98773C88.4976 5.286 89.1069 5.60866 89.7065 5.95569L89.7087 5.95697L89.8126 6.01566C90.4303 6.3139 91.0396 6.63652 91.6391 6.98353L91.6414 6.98487L91.746 7.04387C92.3641 7.34231 92.9738 7.66517 93.5736 8.01243L93.5742 8.0128L93.6695 8.06729C94.2902 8.36672 94.9025 8.69076 95.5048 9.03943L95.507 9.04072L95.611 9.09939C96.2288 9.39766 96.8381 9.72032 97.4376 10.0674L97.4398 10.0686L97.5438 10.1273C98.1615 10.4256 98.7709 10.7482 99.3704 11.0953L99.3726 11.0966L99.4766 11.1552C100.095 11.4537 100.705 11.7767 101.305 12.124L101.305 12.1245L101.4 12.1786C102.021 12.4781 102.633 12.8023 103.236 13.1511L103.238 13.1524L103.342 13.2111C103.96 13.5093 104.569 13.832 105.169 14.179L105.171 14.1803L105.275 14.239C105.463 14.3299 105.651 14.4231 105.837 14.5187C106.834 14.8865 107.807 15.3417 108.744 15.8844C109.747 16.4655 110.684 17.1315 111.558 17.8781C112.144 18.2191 112.716 18.58 113.271 18.9597L113.374 19.0206L113.376 19.0218C113.978 19.3706 114.564 19.7403 115.133 20.1297L115.228 20.1852L115.229 20.1861C115.829 20.5333 116.412 20.9013 116.979 21.2889L117.082 21.3498L117.084 21.3512C117.683 21.6982 118.267 22.0659 118.833 22.4531L118.936 22.5144L118.938 22.5157C119.538 22.8629 120.121 23.2307 120.687 23.6181L120.79 23.679L120.792 23.6802C121.394 24.029 121.98 24.3988 122.549 24.7882L122.644 24.8436C123.244 25.1911 123.829 25.5596 124.396 25.9473L124.498 26.0082L124.5 26.0094C125.1 26.3565 125.683 26.7243 126.249 27.1115L126.352 27.1729L126.355 27.1742C126.954 27.5213 127.537 27.8892 128.104 28.2765L128.206 28.3375L128.209 28.3388C128.811 28.6876 129.397 29.0572 129.966 29.4466L130.061 29.5021C138.611 34.4531 143.872 43.6147 143.86 53.5349L143.802 104.839C143.79 114.759 138.509 123.932 129.948 128.902L85.6718 154.605C77.1103 159.575 66.5685 159.587 58.0174 154.636L13.7999 129.035C5.24881 124.085 -0.0113395 114.923 2.94232e-05 105.003L0.0588192 53.6986C0.0701886 43.7784 5.35109 34.6058 13.9124 29.6358L58.1886 3.93277C66.7498 -1.03712 77.2912 -1.04978 85.8422 3.90061ZM112.216 22.3614C112.218 22.44 112.219 22.5188 112.219 22.5978C112.216 25.2809 110.788 27.7617 108.472 29.106C106.157 30.4503 103.305 30.4539 100.991 29.1143C98.6775 27.7748 97.2546 25.2962 97.2577 22.6129C97.2608 19.9297 98.689 17.4489 101.005 16.1047C101.029 16.0907 101.053 16.0768 101.077 16.0631C99.9489 16.267 98.8471 16.6662 97.8231 17.2606C94.7125 19.0664 92.7937 22.3993 92.7895 26.0036C92.7854 29.6077 94.6964 32.9351 97.8016 34.733C100.907 36.5309 104.736 36.5268 107.846 34.7212C110.957 32.9154 112.876 29.5825 112.88 25.9782C112.881 24.7212 112.65 23.4979 112.216 22.3614ZM97.3107 14.7061C95.9632 15.0441 94.6513 15.5719 93.4151 16.2895C88.7531 18.9959 85.8774 23.9907 85.8712 29.3928C85.865 34.7949 88.7295 39.7842 93.3865 42.4805C98.0435 45.1769 103.784 45.1699 108.447 42.4634C113.109 39.757 115.984 34.7622 115.991 29.3602C115.992 27.8051 115.756 26.2843 115.308 24.8426C116.359 27.1313 116.928 29.6567 116.925 32.2646C116.918 38.5878 113.552 44.4347 108.095 47.6026C102.638 50.7705 95.9196 50.7779 90.471 47.6233C85.0224 44.4686 81.6698 38.6305 81.6771 32.3075C81.6843 25.9843 85.0505 20.1374 90.5076 16.9695C92.6337 15.7352 94.9513 14.9807 97.3107 14.7061ZM70.1247 1.49595C66.2017 1.78343 62.3263 2.95031 58.8019 4.99631L14.5256 30.6994C6.34255 35.4498 1.29478 44.2175 1.28391 53.6994L1.22511 105.003C1.21425 114.485 6.24168 123.24 14.4127 127.971L58.6302 153.572C66.8012 158.303 76.8756 158.292 85.0586 153.541L129.335 127.838C137.518 123.088 142.566 114.32 142.577 104.838L142.635 53.5341C142.64 49.4501 141.71 45.501 139.997 41.9501C141.308 45.2089 142.01 48.7387 142.006 52.3703L141.953 99.2805C141.941 109.201 136.66 118.373 128.099 123.343L87.6146 146.845C79.0532 151.815 68.5113 151.828 59.9602 146.877L19.5297 123.468C10.9786 118.517 5.71841 109.356 5.72978 99.4355L5.78354 52.5253C5.79491 42.6051 11.0758 33.4325 19.6371 28.4625L60.1214 4.96068C63.2554 3.14134 66.6548 1.98632 70.1247 1.49595ZM117.976 29.6779C118.092 30.5284 118.151 31.3926 118.15 32.2654C118.142 39.0269 114.543 45.2787 108.708 48.6662C102.872 52.0538 95.6869 52.0623 89.8582 48.6877C84.0295 45.313 80.4442 39.0684 80.452 32.3067C80.4597 25.5453 84.0591 19.2934 89.8943 15.9059C90.5354 15.5338 91.1927 15.2025 91.8627 14.9119C90.0834 15.394 88.3513 16.1107 86.7128 17.0619C80.0825 20.9109 75.9926 28.0148 75.9838 35.6974C75.975 43.3799 80.0484 50.4734 86.6687 54.3064C93.289 58.1394 101.451 58.1303 108.082 54.2814C114.712 50.4324 118.802 43.3285 118.811 35.6458C118.813 33.5978 118.525 31.5916 117.976 29.6779ZM121.608 34.9223C121.817 36.2684 121.923 37.6403 121.921 39.0278C121.91 48.5081 116.864 57.274 108.682 62.0237C100.5 66.7734 90.4256 66.7853 82.2535 62.0539C74.0815 57.3225 69.0546 48.5671 69.0655 39.0866C69.0763 29.6062 74.1231 20.8403 82.3048 16.0907C85.325 14.3374 88.6031 13.2297 91.9481 12.7679C87.8335 12.9811 83.7554 14.1597 80.0626 16.3034L77.4975 17.7925C69.3144 22.5429 64.2667 31.3105 64.2558 40.7925L64.2524 43.7647C64.2416 53.2465 69.269 62.0014 77.44 66.7323L80.0017 68.2154C88.1727 72.9463 98.2471 72.935 106.43 68.1846L108.995 66.6956C117.178 61.9452 122.226 53.1775 122.237 43.6956L122.24 40.7234C122.243 38.7482 122.026 36.8046 121.608 34.9223ZM88.7168 14.6965C86.7148 15.2623 84.7658 16.0816 82.918 17.1543C75.1145 21.6843 70.3009 30.0453 70.2906 39.0874C70.2802 48.1293 75.0744 56.4781 82.8664 60.9895C90.6583 65.5008 100.265 65.4901 108.069 60.9601C115.872 56.43 120.686 48.0691 120.696 39.027C120.699 36.7103 120.386 34.4391 119.788 32.2663C119.953 33.3756 120.037 34.5049 120.036 35.6466C120.026 43.7675 115.703 51.2764 108.695 55.3449C101.686 59.4136 93.0562 59.4238 86.0559 55.3708C79.0555 51.3177 74.7494 43.8177 74.7587 35.6967C74.768 27.5757 79.0911 20.0669 86.0996 15.9983C86.95 15.5046 87.8244 15.0706 88.7168 14.6965ZM121.456 30.3048C122.767 33.5634 123.469 37.0929 123.465 40.7242L123.462 43.6964C123.451 53.6166 118.17 62.7892 109.608 67.7591L107.043 69.2482C98.4818 74.2183 87.94 74.2308 79.3889 69.2799L76.8272 67.7967C68.2761 62.8458 63.016 53.6843 63.0273 43.7639L63.0307 40.7917C63.0421 30.8715 68.323 21.6989 76.8843 16.7289L79.4494 15.2399C82.5832 13.4206 85.9823 12.2657 89.4521 11.7752C85.5292 12.0627 81.6541 13.2296 78.1298 15.2755L71.7728 18.9659C63.5897 23.7163 58.542 32.4839 58.5311 41.9659L58.5227 49.3318C58.5118 58.8136 63.5392 67.5686 71.7103 72.2994L78.0588 75.9751C86.2299 80.706 96.3043 80.6947 104.487 75.9443L110.844 72.254C119.027 67.5036 124.075 58.736 124.086 49.254L124.094 41.888C124.099 37.8043 123.169 33.8554 121.456 30.3048ZM72.0579 2.52384C68.1347 2.81129 64.2592 3.97817 60.7346 6.02424L20.2503 29.526C12.0673 34.2765 7.01949 43.0441 7.00862 52.5261L6.95486 99.4363C6.944 108.918 11.9714 117.673 20.1425 122.404L60.573 145.812C68.7441 150.543 78.8185 150.532 87.0014 145.781L127.486 122.28C135.669 117.529 140.717 108.762 140.727 99.2797L140.781 52.3695C140.786 48.2857 139.856 44.3367 138.143 40.7859C139.454 44.0446 140.156 47.5743 140.152 51.2057L140.103 93.7221C140.092 103.642 134.811 112.815 126.25 117.785L89.5575 139.085C80.9961 144.055 70.4542 144.068 61.9031 139.117L25.2594 117.901C16.7083 112.95 11.4482 103.789 11.4595 93.8683L11.5083 51.3519C11.5196 41.4317 16.8005 32.2591 25.3619 27.2891L62.0542 5.98861C65.1883 4.16921 68.5878 3.01417 72.0579 2.52384ZM73.9895 3.55184C70.0667 3.83943 66.1917 5.00629 62.6675 7.05215L25.9751 28.3527C17.792 33.1031 12.7442 41.8708 12.7333 51.3527L12.6846 93.8691C12.6738 103.351 17.7012 112.106 25.8722 116.837L62.5159 138.053C70.687 142.783 80.7614 142.772 88.9443 138.022L125.637 116.721C133.82 111.971 138.868 103.203 138.878 93.7213L138.927 51.2049C138.932 47.1213 138.002 43.1725 136.289 39.622C137.6 42.8805 138.302 46.4099 138.298 50.041L138.254 88.1637C138.243 98.0839 132.962 107.256 124.401 112.226L91.5004 131.326C82.9389 136.296 72.3971 136.308 63.8459 131.357L30.9892 112.334C22.4381 107.383 17.1779 98.2216 17.1893 88.3012L17.233 50.1786C17.2444 40.2583 22.5252 31.0858 31.0866 26.1158L63.987 7.01652C67.1208 5.19733 70.5198 4.04235 73.9895 3.55184ZM75.9224 4.57976C71.9996 4.86733 68.1245 6.03419 64.6002 8.08008L31.6998 27.1793C23.5167 31.9298 18.4689 40.6974 18.4581 50.1793L18.4144 88.302C18.4035 97.7837 23.4309 106.539 31.602 111.27L64.4588 130.293C72.6298 135.024 82.7042 135.012 90.8872 130.262L123.788 111.163C131.971 106.412 137.018 97.6448 137.029 88.1629L137.073 50.0403C137.078 45.9567 136.148 42.0078 134.435 38.4572C135.746 41.7158 136.448 45.2453 136.444 48.8764L136.405 82.6052C136.394 92.5255 131.113 101.698 122.552 106.668L93.4432 123.566C84.8818 128.536 74.3399 128.549 65.7888 123.598L36.7189 106.767C28.1678 101.816 22.9077 92.6544 22.919 82.734L22.9577 49.0052C22.9691 39.085 28.25 29.9124 36.8113 24.9424L65.9198 8.04445C69.0536 6.22523 72.4527 5.07024 75.9224 4.57976ZM125.164 32.634C126.476 35.8926 127.178 39.4221 127.174 43.0534L127.16 54.8132C127.149 64.7334 121.868 73.906 113.306 78.876L103.158 84.7676C94.5961 89.7376 84.0542 89.7501 75.5031 84.7992L65.3677 78.931C56.8166 73.9801 51.5564 64.8186 51.5678 54.8982L51.5813 43.1384C51.5927 33.2182 56.8736 24.0456 65.4349 19.0756L75.5838 13.184C78.7176 11.3648 82.1167 10.2098 85.5864 9.71935C81.6636 10.0069 77.7885 11.1738 74.2642 13.2197L60.3234 21.3126C52.1403 26.063 47.0925 34.8306 47.0817 44.3126L47.0631 60.4662C47.0523 69.948 52.0797 78.7029 60.2508 83.4338L74.1731 91.4945C82.3441 96.2253 92.4185 96.214 100.601 91.4637L114.542 83.3708C122.725 78.6204 127.773 69.8528 127.784 60.3708L127.803 44.2172C127.807 40.1335 126.877 36.1846 125.164 32.634ZM83.6536 8.69144C79.7308 8.97901 75.8557 10.1459 72.3314 12.1918L54.5987 22.4859C46.4156 27.2363 41.3678 36.004 41.3569 45.4859L41.3334 66.0333C41.3225 75.5151 46.35 84.2701 54.521 89.0009L72.2302 99.2542C80.4013 103.985 90.4757 103.974 98.6586 99.2234L116.391 88.9292C124.574 84.1788 129.622 75.4112 129.633 65.9292L129.657 45.3818C129.661 41.2982 128.731 37.3494 127.018 33.7988C128.33 37.0573 129.032 40.5868 129.028 44.218L129.009 60.3716C128.998 70.2918 123.717 79.4644 115.156 84.4344L101.215 92.5273C92.6532 97.4973 82.1114 97.5098 73.5603 92.5589L59.638 84.4982C51.0868 79.5473 45.8267 70.3858 45.8381 60.4654L45.8566 44.3118C45.8679 34.3916 51.1488 25.219 59.7101 20.249L73.651 12.1561C76.7848 10.3369 80.1839 9.18192 83.6536 8.69144ZM81.7208 7.66351C77.798 7.95109 73.9229 9.11795 70.3986 11.1638L48.8739 23.6593C40.6908 28.4097 35.6431 37.1773 35.6322 46.6593L35.6036 71.6005C35.5928 81.0823 40.6202 89.8372 48.7913 94.5681L70.2874 107.014C78.4584 111.745 88.5328 111.733 96.7158 106.983L118.24 94.4877C126.424 89.7372 131.471 80.9696 131.482 71.4876L131.511 46.5464C131.515 42.4628 130.586 38.5139 128.872 34.9633C130.184 38.2219 130.886 41.7514 130.882 45.3826L130.858 65.93C130.847 75.8502 125.566 85.0228 117.005 89.9928L99.2718 100.287C90.7104 105.257 80.1685 105.27 71.6174 100.319L53.9082 90.0653C45.3571 85.1144 40.0969 75.9529 40.1083 66.0325L40.1319 45.4851C40.1432 35.5649 45.4241 26.3923 53.9854 21.4224L71.7182 11.1282C74.852 9.30898 78.2511 8.154 81.7208 7.66351ZM79.788 6.6356C75.8652 6.92318 71.9901 8.09004 68.4658 10.1359L43.1492 24.8326C34.9661 29.583 29.9184 38.3507 29.9075 47.8326L29.8739 77.1676C29.863 86.6494 34.8905 95.4044 43.0615 100.135L68.3445 114.774C76.5155 119.504 86.5899 119.493 94.7729 114.743L120.089 100.046C128.273 95.2956 133.32 86.528 133.331 77.0461L133.365 47.711C133.37 43.6274 132.44 39.6786 130.727 36.128C132.038 39.3865 132.74 42.916 132.736 46.5472L132.707 71.4884C132.696 81.4086 127.415 90.5812 118.854 95.5512L97.329 108.047C88.7675 113.017 78.2256 113.029 69.6745 108.078L48.1784 95.6325C39.6273 90.6816 34.3672 81.5201 34.3786 71.5997L34.4071 46.6585C34.4185 36.7383 39.6994 27.5657 48.2607 22.5957L69.7854 10.1003C72.9192 8.28107 76.3183 7.12608 79.788 6.6356ZM77.8551 5.60768C73.9324 5.89526 70.0573 7.06212 66.533 9.10799L37.4245 26.006C29.2414 30.7564 24.1937 39.524 24.1828 49.006L24.1441 82.7348C24.1333 92.2166 29.1607 100.972 37.3317 105.702L66.4016 122.533C74.5727 127.264 84.6471 127.253 92.83 122.502L121.939 105.604C130.122 100.854 135.169 92.0864 135.18 82.6045L135.219 48.8756C135.224 44.792 134.294 40.8432 132.581 37.2926C133.892 40.5512 134.594 44.0806 134.59 47.7118L134.556 77.0468C134.545 86.967 129.264 96.1396 120.703 101.11L95.3861 115.806C86.8246 120.776 76.2828 120.789 67.7317 115.838L42.4487 101.2C33.8976 96.2488 28.6374 87.0872 28.6488 77.1669L28.6824 47.8319C28.6938 37.9116 33.9747 28.739 42.536 23.7691L67.8526 9.07236C70.9864 7.25315 74.3855 6.09817 77.8551 5.60768ZM123.31 31.4695C125.023 35.0201 125.953 38.9689 125.948 43.0526L125.935 54.8124C125.924 64.2944 120.876 73.062 112.693 77.8124L102.544 83.704C94.3614 88.4544 84.287 88.4657 76.116 83.7348L65.9805 77.8666C57.8095 73.1357 52.782 64.3808 52.7929 54.899L52.8064 43.1392C52.8172 33.6573 57.865 24.8896 66.0481 20.1392L76.197 14.2476C79.7213 12.2017 83.5964 11.0348 87.5192 10.7473C84.0495 11.2377 80.6504 12.3927 77.5166 14.212L71.1596 17.9023C62.5983 22.8723 57.3174 32.0449 57.306 41.9651L57.2976 49.3311C57.2862 59.2514 62.5463 68.413 71.0975 73.3639L77.446 77.0395C85.9971 81.9904 96.539 81.978 105.1 77.0079L111.457 73.3176C120.019 68.3476 125.3 59.175 125.311 49.2548L125.319 41.8888C125.324 38.2576 124.621 34.728 123.31 31.4695ZM114.061 24.9678C114.091 25.3021 114.105 25.6395 114.105 25.979C114.1 30.0216 111.948 33.7594 108.46 35.7847C104.971 37.8101 100.674 37.8154 97.1888 35.7974C93.7035 33.7795 91.5598 30.0455 91.5645 26.0028C91.5691 21.9602 93.7211 18.2224 97.2099 16.1971C97.436 16.0658 97.6656 15.943 97.8981 15.8287C96.5582 16.1341 95.2528 16.6422 94.0283 17.353C89.7445 19.8399 87.102 24.4298 87.0963 29.3935C87.0906 34.3571 89.7224 38.9398 93.9993 41.4161C98.2763 43.8924 103.55 43.8866 107.833 41.3999C112.117 38.9131 114.76 34.3232 114.765 29.3594C114.767 27.8437 114.523 26.3634 114.061 24.9678ZM104.327 16.3376C103.389 16.4019 102.461 16.6788 101.618 17.1683C99.6805 18.2929 98.4854 20.3688 98.4828 22.6137C98.4802 24.8584 99.6703 26.9304 101.604 28.0499C103.538 29.1694 105.922 29.167 107.859 28.0424C109.797 26.9178 110.992 24.8419 110.994 22.597C110.995 21.576 110.75 20.5908 110.3 19.7146C110.147 20.8418 109.483 21.8482 108.485 22.4272C107.343 23.0905 105.935 23.0924 104.793 22.4312C103.651 21.77 102.949 20.5468 102.951 19.2229C102.952 18.0927 103.466 17.0353 104.327 16.3376ZM109.068 18.7658C109.068 18.7658 108.989 17.9132 108.074 17.251C107.16 16.5888 105.821 16.886 105.821 16.886C105.681 16.9361 105.544 16.9994 105.413 17.0759C104.648 17.5194 104.177 18.3383 104.176 19.2237C104.175 20.109 104.644 20.9257 105.406 21.3668C106.168 21.808 107.108 21.8072 107.872 21.3637C108.636 20.9201 109.108 20.1012 109.109 19.2158C109.109 19.0632 109.095 18.9127 109.068 18.7658Z" fill="url(#paint0_linear_3963_931)"/>
<defs>
<linearGradient id="paint0_linear_3963_931" x1="71.9302" y1="0.196533" x2="71.9302" y2="158.341" gradientUnits="userSpaceOnUse">
<stop stop-color="#41B7FF"/>
<stop offset="1" stop-color="#5C5CFF"/>
</linearGradient>
</defs>
</svg>
