<svg width="159" height="153" viewBox="0 0 159 153" fill="none" xmlns="http://www.w3.org/2000/svg">
<path d="M146.195 48.9637L145.933 48.2608C144.994 47.433 143.827 46.8666 142.546 46.6557C140.145 46.2605 137.709 47.1738 136.156 49.0516C134.602 50.9294 134.168 53.4864 135.015 55.7594C135.863 58.0324 137.864 59.6761 140.265 60.0712C142.666 60.4664 145.101 59.5531 146.655 57.6753C147.483 56.6733 147.994 55.4779 148.161 54.2354L147.926 53.6067C147.832 53.7734 147.723 53.9331 147.598 54.0837C146.856 54.9807 145.693 55.417 144.546 55.2282C143.399 55.0394 142.443 54.2542 142.038 53.1684C141.633 52.0826 141.841 50.8612 142.583 49.9642C143.325 49.0671 144.488 48.6309 145.635 48.8196C145.828 48.8513 146.015 48.8998 146.195 48.9637ZM146.326 49.3141C146.094 49.2099 145.847 49.1346 145.589 49.0921C144.54 48.9194 143.475 49.3186 142.796 50.1393C142.117 50.9601 141.927 52.0776 142.298 53.0711C142.668 54.0645 143.543 54.7829 144.592 54.9557C145.641 55.1284 146.706 54.7292 147.385 53.9085C147.552 53.7069 147.689 53.4874 147.796 53.2563L146.326 49.3141ZM145.74 47.7438L145.694 47.6205C144.107 45.8418 141.936 44.62 139.502 44.2193C135.75 43.6016 131.943 45.0291 129.515 47.9639C127.088 50.8988 126.408 54.8952 127.733 58.4477C129.058 62.0002 132.185 64.5692 135.937 65.1868C139.69 65.8045 143.497 64.377 145.924 61.4422C147.499 59.5383 148.338 57.1878 148.372 54.8015L148.353 54.7524C148.124 55.8712 147.623 56.9379 146.868 57.8505C145.252 59.8046 142.717 60.755 140.218 60.3438C137.72 59.9325 135.638 58.2221 134.756 55.8567C133.874 53.4914 134.326 50.8305 135.942 48.8765C137.559 46.9224 140.094 45.972 142.592 46.3832C143.759 46.5753 144.835 47.0507 145.74 47.7438ZM148.52 56.326C148.223 58.2375 147.417 60.0711 146.138 61.6174C143.647 64.6285 139.741 66.0931 135.891 65.4593C132.041 64.8256 128.832 62.1899 127.473 58.545C126.114 54.9002 126.811 50.7999 129.302 47.7888C131.793 44.7776 135.699 43.3131 139.548 43.9468C141.601 44.2846 143.471 45.1915 144.976 46.5171C142.81 44.0391 139.818 42.3359 136.459 41.7828C131.355 40.9427 126.177 42.8843 122.875 46.8762C119.573 50.8682 118.649 56.304 120.45 61.136C122.252 65.9681 126.506 69.4623 131.61 70.3024C136.714 71.1425 141.892 69.2009 145.194 65.209C147.303 62.6592 148.442 59.5203 148.52 56.326ZM145.237 46.3944L144.816 45.2645C142.068 42.0628 138.24 39.8605 133.934 39.1517C127.479 38.0891 120.93 40.5449 116.753 45.5939C112.577 50.6429 111.408 57.5181 113.687 63.6297C115.966 69.7413 121.347 74.1607 127.802 75.2233C134.257 76.2859 140.806 73.8302 144.983 68.7812C147.768 65.4134 149.216 61.2332 149.195 57.009L148.801 55.9533C148.806 59.3384 147.64 62.6851 145.407 65.3842C142.042 69.4524 136.765 71.4311 131.564 70.5749C126.362 69.7187 122.027 66.1578 120.191 61.2334C118.355 56.309 119.296 50.7693 122.661 46.7011C126.026 42.6329 131.304 40.6542 136.505 41.5103C139.956 42.0784 143.025 43.837 145.237 46.3944ZM146.817 47.5603C147.403 48.531 147.904 49.5633 148.309 50.6481C148.684 51.6547 148.967 52.6816 149.16 53.7178C149.229 53.9368 149.295 54.1563 149.359 54.3763L149.401 54.4898C149.646 55.1452 149.864 55.8064 150.055 56.472L150.098 56.5855C150.342 57.2409 150.56 57.9021 150.752 58.5677L150.794 58.6813C151.039 59.3366 151.257 59.9978 151.448 60.6634L151.491 60.777C151.735 61.4323 151.953 62.0935 152.145 62.7591L152.187 62.8727C152.432 63.528 152.65 64.1892 152.841 64.8549L152.884 64.9684C153.128 65.6238 153.346 66.2849 153.538 66.9506L153.58 67.0641C153.825 67.7195 154.043 68.3807 154.234 69.0463L154.277 69.1598C154.521 69.8152 154.739 70.4764 154.931 71.142L154.973 71.2556C155.218 71.9109 155.436 72.5721 155.627 73.2377L155.67 73.3513C155.914 74.0066 156.132 74.6678 156.324 75.3334L156.366 75.447C159.788 84.624 158.033 94.9476 151.762 102.529L118.765 142.422C112.494 150.003 102.659 153.691 92.9662 152.095L41.9625 143.699C32.2695 142.104 24.1903 135.468 20.7683 126.291L2.76207 78.0023C-0.659942 68.8253 1.09514 58.5017 7.36618 50.9203L40.3637 11.0277C46.6347 3.44627 56.469 -0.241184 66.162 1.35438L117.166 9.75003C126.859 11.3456 134.938 17.9818 138.36 27.1588L138.402 27.2723C138.693 27.9008 138.961 28.5432 139.206 29.1986L139.248 29.3121C139.539 29.9406 139.807 30.583 140.051 31.2384L140.094 31.3519C140.384 31.9804 140.652 32.6228 140.897 33.2782L140.939 33.3917C141.23 34.0202 141.498 34.6626 141.742 35.318L141.785 35.4315C142.076 36.0601 142.344 36.7025 142.588 37.3578L142.63 37.4713C142.921 38.0999 143.189 38.7423 143.434 39.3976L143.476 39.5112C143.767 40.1397 144.035 40.7821 144.279 41.4374L144.322 41.551C144.612 42.1795 144.88 42.8219 145.125 43.4772L145.167 43.5908C145.458 44.2193 145.726 44.8617 145.97 45.517L146.013 45.6306C146.303 46.2591 146.572 46.9015 146.816 47.5568L146.817 47.5603ZM149.323 59.4441C148.885 62.8795 147.486 66.1883 145.196 68.9564C140.957 74.0817 134.308 76.5745 127.756 75.4958C121.203 74.4172 115.741 69.9309 113.428 63.727C111.114 57.5231 112.301 50.544 116.54 45.4187C120.779 40.2934 127.428 37.8006 133.981 38.8792C137.648 39.483 140.974 41.1541 143.597 43.5965C140.312 40.0016 135.866 37.5342 130.891 36.7153C123.084 35.4302 115.164 38.4001 110.113 44.5062C105.062 50.6122 103.649 58.9269 106.405 66.318C109.161 73.7091 115.668 79.0539 123.474 80.3389C131.281 81.624 139.202 78.6541 144.252 72.548C147.372 68.7766 149.104 64.1627 149.323 59.4441ZM149.463 61.0952C148.957 65.2941 147.262 69.3429 144.466 72.7232C139.352 78.9056 131.332 81.9125 123.428 80.6114C115.524 79.3103 108.936 73.8988 106.145 66.4153C103.355 58.9319 104.786 50.5133 109.9 44.331C115.013 38.1486 123.033 35.1417 130.937 36.4428C135.414 37.1797 139.469 39.2352 142.65 42.2389C138.807 38.0826 133.631 35.231 127.847 34.2789C118.689 32.7713 109.397 36.2553 103.472 43.4185C97.5473 50.5816 95.889 60.3356 99.1222 69.0063C102.355 77.677 109.989 83.947 119.147 85.4545C128.305 86.962 137.597 83.478 143.522 76.3149C147.148 71.9313 149.176 66.5773 149.463 61.0952ZM144.21 43.641L144.198 43.607C140.073 37.7366 133.707 33.6598 126.421 32.4604L123.466 31.974C113.871 30.3945 104.135 34.0449 97.9274 41.55L96.0157 43.8611C89.8078 51.3663 88.0704 61.586 91.458 70.6707L92.5011 73.4681C95.8887 82.5528 103.887 89.1222 113.482 90.7017L116.437 91.1881C126.032 92.7676 135.768 89.1172 141.976 81.6121L143.887 79.301C148.601 73.6019 150.738 66.3375 150.009 59.1934L149.745 58.484C150.055 64.92 147.977 71.362 143.735 76.4901C137.747 83.7295 128.357 87.2506 119.101 85.727C109.845 84.2034 102.13 77.8666 98.8626 69.1036C95.595 60.3406 97.2709 50.4827 103.259 43.2433C109.247 36.0039 118.638 32.4828 127.894 34.0064C134.45 35.0856 140.233 38.58 144.21 43.641ZM143.839 42.6463L143.536 41.8321C139.417 35.8195 132.971 31.638 125.575 30.4206L118.253 29.2152C108.657 27.6357 98.9217 31.286 92.7137 38.7912L87.9761 44.5188C81.7681 52.0239 80.0307 62.2437 83.4183 71.3283L86.0035 78.2613C89.3911 87.346 97.389 93.9154 106.985 95.4949L114.307 96.7003C123.903 98.2798 133.638 94.6294 139.846 87.1243L144.584 81.3967C149.368 75.6123 151.498 68.2153 150.671 60.9683L150.368 60.1541C150.818 67.0482 148.645 73.9822 144.101 79.4762L142.189 81.7873C135.918 89.3687 126.084 93.0561 116.391 91.4606L113.436 90.9742C103.743 89.3786 95.6635 82.7425 92.2415 73.5655L91.1984 70.768C87.7764 61.591 89.5314 51.2674 95.8025 43.6859L97.7141 41.3749C103.985 33.7934 113.819 30.106 123.513 31.7015L126.467 32.1879C133.491 33.3441 139.668 37.1474 143.839 42.6463ZM143.163 40.8316L142.88 40.0728C138.771 33.9098 132.24 29.617 124.73 28.3808L113.039 26.4564C103.443 24.8769 93.708 28.5272 87.5 36.0324L79.9364 45.1765C73.7285 52.6816 71.9911 62.9013 75.3786 71.986L79.506 83.0545C82.8935 92.1392 90.8915 98.7086 100.487 100.288L112.178 102.213C121.773 103.792 131.509 100.142 137.717 92.6365L145.28 83.4924C150.139 77.6184 152.259 70.0816 151.327 62.7276L151.044 61.9688C151.573 68.9552 149.403 76.0033 144.797 81.5719L140.059 87.2995C133.788 94.8809 123.954 98.5684 114.261 96.9728L106.938 95.7674C97.2452 94.1718 89.166 87.5357 85.7439 78.3587L83.1587 71.4257C79.7367 62.2487 81.4918 51.925 87.7628 44.3436L92.5004 38.616C98.7715 31.0346 108.606 27.3471 118.299 28.9427L125.622 30.1481C132.741 31.32 138.99 35.2114 143.163 40.8316ZM142.49 39.0271L142.231 38.3321C138.136 32.009 131.515 27.5971 123.884 26.341L107.825 23.6975C98.2296 22.118 88.4943 25.7684 82.2864 33.2735L71.8968 45.8341C65.6888 53.3393 63.9514 63.559 67.339 72.6437L73.0084 87.8477C76.396 96.9324 84.3939 103.502 93.9894 105.081L110.048 107.725C119.644 109.304 129.379 105.654 135.587 98.1487L145.977 85.5881C150.914 79.6196 153.023 71.9343 151.976 64.4684L151.717 63.7734C152.329 70.8548 150.164 78.0216 145.494 83.6676L137.93 92.8117C131.659 100.393 121.825 104.081 112.132 102.485L100.441 100.561C90.7476 98.965 82.6684 92.3288 79.2464 83.1518L75.119 72.0833C71.697 62.9063 73.4521 52.5827 79.7232 45.0013L87.2868 35.8572C93.5578 28.2757 103.392 24.5883 113.085 26.1839L124.776 28.1083C131.995 29.2965 138.318 33.2803 142.49 39.0271ZM141.821 37.2339L141.59 36.6132C137.513 30.1186 130.798 25.5785 123.039 24.3012L102.611 20.9387C93.016 19.3592 83.2806 23.0095 77.0727 30.5147L63.8571 46.4918C57.6491 53.9969 55.9117 64.2167 59.2993 73.3013L66.5108 92.6409C69.8984 101.726 77.8963 108.295 87.4918 109.874L107.919 113.237C117.514 114.816 127.25 111.166 133.458 103.661L146.673 87.6839C151.693 81.6148 153.79 73.7708 152.617 66.1872L152.386 65.5665C153.087 72.7461 150.927 80.0369 146.19 85.7633L135.801 98.3239C129.529 105.905 119.695 109.593 110.002 107.997L93.9431 105.354C84.25 103.758 76.1708 97.122 72.7488 87.9451L67.0794 72.741C63.6574 63.564 65.4124 53.2404 71.6835 45.6589L82.0731 33.0984C88.3441 25.5169 98.1784 21.8295 107.871 23.425L123.931 26.0685C131.252 27.2736 137.653 31.3545 141.821 37.2339ZM141.157 35.4536L140.959 34.9212C136.905 28.2411 130.09 23.5613 122.193 22.2614L97.3978 18.1799C87.8023 16.6004 78.0669 20.2507 71.859 27.7559L55.8174 47.1494C49.6095 54.6546 47.8721 64.8743 51.2596 73.959L60.0133 97.4341C63.4008 106.519 71.3988 113.088 80.9943 114.668L105.789 118.749C115.385 120.329 125.12 116.678 131.328 109.173L147.37 89.7796C152.479 83.6028 154.56 75.5874 153.248 67.8792L153.05 67.3468C153.846 74.6278 151.693 82.0487 146.887 87.859L133.671 103.836C127.4 111.418 117.566 115.105 107.873 113.509L87.4455 110.147C77.7525 108.551 69.6732 101.915 66.2512 92.7382L59.0397 73.3987C55.6177 64.2217 57.3728 53.898 63.6438 46.3166L76.8594 30.3395C83.1305 22.7581 92.9647 19.0706 102.658 20.6662L123.085 24.0287C130.514 25.2515 136.994 29.4349 141.157 35.4536ZM140.499 33.6881L140.34 33.263C136.317 26.3797 129.394 21.5461 121.347 20.2216L92.1841 15.421C82.5886 13.8415 72.8533 17.4919 66.6453 24.997L47.7778 47.8071C41.5698 55.3123 39.8324 65.532 43.22 74.6167L53.5157 102.227C56.9033 111.312 64.9012 117.881 74.4967 119.461L103.66 124.261C113.256 125.841 122.991 122.191 129.199 114.685L148.066 91.8753C153.272 85.5816 155.334 77.3789 153.867 69.5374L153.708 69.1123C154.607 76.4987 152.462 84.0566 147.583 89.9547L131.542 109.348C125.27 116.93 115.436 120.617 105.743 119.022L80.948 114.94C71.2549 113.345 63.1757 106.708 59.7537 97.5314L51 74.0563C47.578 64.8793 49.3331 54.5557 55.6042 46.9743L71.6457 27.5807C77.9168 19.9993 87.7511 16.3118 97.4441 17.9074L122.239 21.9889C129.78 23.2302 136.344 27.5223 140.499 33.6881ZM139.847 31.9397L139.739 31.6493C135.755 24.5396 128.714 19.5335 120.502 18.1818L86.9704 12.6622C77.3749 11.0827 67.6396 14.7331 61.4316 22.2382L39.7381 48.4648C33.5302 55.9699 31.7927 66.1897 35.1803 75.2743L47.0181 107.02C50.4057 116.105 58.4036 122.675 67.9991 124.254L101.53 129.774C111.126 131.353 120.861 127.703 127.069 120.198L148.763 93.971C154.076 87.5482 156.114 79.1373 154.468 71.1511L154.36 70.8607C155.37 78.357 153.235 86.0598 148.28 92.0505L129.412 114.861C123.141 122.442 113.307 126.129 103.614 124.534L74.4504 119.733C64.7573 118.138 56.6781 111.502 53.2561 102.325L42.9604 74.714C39.5384 65.537 41.2935 55.2134 47.5645 47.6319L66.4321 24.8219C72.7031 17.2404 82.5374 13.553 92.2304 15.1485L121.394 19.9491C129.053 21.2098 135.704 25.6178 139.847 31.9397ZM139.202 30.2116L139.16 30.0981C135.229 22.7296 128.055 17.5244 119.656 16.142L81.7568 9.90338C72.1612 8.32388 62.4259 11.9742 56.218 19.4794L31.6984 49.1225C25.4905 56.6276 23.7531 66.8473 27.1406 75.932L40.5206 111.814C43.9081 120.898 51.9061 127.468 61.5016 129.047L99.401 135.286C108.997 136.865 118.732 133.215 124.94 125.71L149.459 96.0667C154.893 89.4977 156.902 80.8492 155.047 72.7023L155.005 72.5888C156.136 80.2004 154.012 88.0576 148.976 94.1462L127.283 120.373C121.012 127.954 111.177 131.642 101.484 130.046L67.9528 124.527C58.2598 122.931 50.1805 116.295 46.7585 107.118L34.9207 75.3717C31.4987 66.1947 33.2538 55.871 39.5248 48.2896L61.2184 22.063C67.4894 14.4816 77.3237 10.7941 87.0168 12.3897L120.548 17.9093C128.333 19.1906 135.076 23.723 139.202 30.2116ZM155.672 74.491C156.868 82.1627 154.752 90.1017 149.673 96.2419L125.153 125.885C118.882 133.466 109.048 137.154 99.3547 135.558L61.4552 129.32C51.7622 127.724 43.683 121.088 40.261 111.911L26.8811 76.0293C23.459 66.8523 25.2141 56.5287 31.4852 48.9473L56.0047 19.3042C62.2757 11.7228 72.11 8.03531 81.8031 9.63087L119.703 15.8694C127.553 17.1617 134.345 21.7603 138.461 28.3373C134.564 20.8213 127.315 15.502 118.811 14.1022L76.5431 7.14455C66.9476 5.56504 57.2122 9.21539 51.0043 16.7205L23.6588 49.7801C17.4508 57.2853 15.7134 67.505 19.101 76.5897L34.023 116.607C37.4106 125.691 45.4085 132.261 55.004 133.84L97.2715 140.798C106.867 142.378 116.602 138.727 122.81 131.222L150.156 98.1624C155.658 91.5109 157.648 82.7271 155.672 74.491ZM156.368 76.5867C157.565 84.2584 155.448 92.1974 150.369 98.3376L123.024 131.397C116.753 138.979 106.918 142.666 97.2252 141.071L54.9577 134.113C45.2646 132.517 37.1854 125.881 33.7634 116.704L18.8414 76.687C15.4194 67.51 17.1745 57.1864 23.4455 49.6049L50.791 16.5454C57.0621 8.96393 66.8964 5.27647 76.5894 6.87204L118.857 13.8296C126.707 15.1219 133.499 19.7205 137.616 26.2974C133.718 18.7815 126.469 13.4622 117.965 12.0623L71.3294 4.38572C61.7339 2.80621 51.9985 6.45656 45.7906 13.9617L15.6191 50.4378C9.41117 57.9429 7.67375 68.1627 11.0613 77.2473L27.5254 121.4C30.913 130.485 38.9109 137.054 48.5064 138.634L95.142 146.31C104.738 147.89 114.473 144.239 120.681 136.734L150.852 100.258C156.354 93.6066 158.345 84.8228 156.368 76.5867ZM136.77 24.2576C132.873 16.7417 125.624 11.4224 117.119 10.0225L66.1157 1.62688C56.5202 0.0473781 46.7849 3.69772 40.5769 11.2029L7.57945 51.0955C1.3715 58.6006 -0.365916 68.8204 3.02166 77.905L21.0278 126.193C24.4154 135.278 32.4133 141.847 42.0089 143.427L93.0125 151.822C102.608 153.402 112.343 149.752 118.551 142.246L151.549 102.354C157.051 95.7023 159.041 86.9185 157.065 78.6824C158.261 86.3541 156.145 94.2931 151.066 100.433L120.894 136.909C114.623 144.491 104.789 148.178 95.0957 146.583L48.4601 138.906C38.7671 137.311 30.6878 130.674 27.2658 121.497L10.8017 77.3447C7.37972 68.1677 9.1348 57.8441 15.4058 50.2626L45.5773 13.7865C51.8484 6.2051 61.6827 2.51765 71.3757 4.11321L118.011 11.7898C125.862 13.0821 132.654 17.6807 136.77 24.2576Z" stroke="url(#paint0_linear_3963_938)" stroke-width="0.611607"/>
<defs>
<linearGradient id="paint0_linear_3963_938" x1="52.5015" y1="2.55399" x2="107.939" y2="150.403" gradientUnits="userSpaceOnUse">
<stop stop-color="#00FFF5"/>
<stop offset="1" stop-color="#00FF73"/>
</linearGradient>
</defs>
</svg>
