<svg width="141" height="153" viewBox="0 0 141 153" fill="none" xmlns="http://www.w3.org/2000/svg">
<path fill-rule="evenodd" clip-rule="evenodd" d="M138.199 43.3055C136.247 37.7537 132.324 32.9722 127.007 29.9447L83.0782 4.93516C75.2948 0.50389 65.7052 0.50389 57.9218 4.93516L13.9932 29.9447C8.6756 32.9722 4.75311 37.7537 2.80153 43.3054C5.16392 38.4202 9.05861 34.2943 14.0599 31.6312L57.9885 8.2404C65.7967 4.08272 75.2033 4.08272 83.0116 8.2404L126.94 31.6312C131.941 34.2943 135.836 38.4202 138.199 43.3055ZM1.15507 73.4393V73.447C1.15582 73.4454 1.15657 73.4438 1.15732 73.4422C1.15657 73.4412 1.15582 73.4403 1.15507 73.4393ZM1.15507 79.426V79.4333C1.15578 79.4324 1.15649 79.4315 1.1572 79.4306C1.15649 79.4291 1.15578 79.4275 1.15507 79.426ZM139.845 79.4337V79.426C139.844 79.4277 139.843 79.4293 139.843 79.4309C139.843 79.4318 139.844 79.4328 139.845 79.4337ZM139.845 73.447V73.4398C139.844 73.4407 139.844 73.4415 139.843 73.4424C139.844 73.444 139.844 73.4455 139.845 73.447ZM2.80141 109.568C4.75309 115.119 8.67559 119.901 13.9932 122.928L57.9218 147.938C65.7052 152.369 75.2948 152.369 83.0782 147.938L127.007 122.928C132.324 119.901 136.247 115.12 138.198 109.568C135.836 114.453 131.941 118.579 126.94 121.242L83.0116 144.633C75.2033 148.79 65.7967 148.79 57.9885 144.633L14.0599 121.242C9.05859 118.579 5.1639 114.453 2.80141 109.568ZM137.03 82.8768C135.543 84.4643 133.507 85.5559 131.189 85.8505L73.7167 93.157C71.5811 93.4285 69.419 93.4285 67.2834 93.157L9.81084 85.8505C7.49341 85.5559 5.45693 84.4643 3.97012 82.8768C4.90729 83.4219 5.97675 83.7749 7.12562 83.8786L68.0992 89.3834C69.6964 89.5276 71.3036 89.5276 72.9008 89.3834L133.874 83.8786C135.023 83.7749 136.093 83.4219 137.03 82.8768ZM3.97023 69.9962C4.90735 69.4512 5.97679 69.0981 7.12562 68.9944L68.0992 63.4896C69.6964 63.3455 71.3036 63.3455 72.9008 63.4896L133.874 68.9944C135.023 69.0981 136.093 69.4512 137.03 69.9963C135.543 68.4087 133.507 67.3171 131.189 67.0225L73.7167 59.716C71.5811 59.4445 69.419 59.4445 67.2834 59.716L9.81084 67.0225C7.49342 67.3171 5.45695 68.4087 3.97023 69.9962ZM138.229 46.4466C136.211 40.6342 132.037 35.665 126.381 32.6537L82.4528 9.26287C74.9933 5.29091 66.0067 5.29091 58.5473 9.26287L14.6187 32.6537C8.96333 35.665 4.78937 40.6342 2.77077 46.4465C5.23967 41.3058 9.40026 37.0057 14.746 34.3562L58.6746 12.5841C66.1148 8.8966 74.8853 8.8966 82.3254 12.5841L126.254 34.3562C131.6 37.0057 135.76 41.3058 138.229 46.4466ZM4.89837 67.6718C6.27791 66.7302 7.89664 66.0945 9.6605 65.8703L67.133 58.5638C69.3684 58.2796 71.6316 58.2796 73.867 58.5638L131.34 65.8703C133.103 66.0945 134.722 66.7303 136.102 67.6719C134.187 65.6325 131.602 64.1949 128.648 63.7104L74.6267 54.8521C71.8943 54.404 69.1057 54.404 66.3734 54.8521L12.3525 63.7104C9.39804 64.1949 6.81266 65.6324 4.89837 67.6718ZM138.3 65.5172C135.143 58.8697 129.165 53.6842 121.645 51.6198L77.5624 39.518C72.942 38.2496 68.0581 38.2496 63.4377 39.518L19.3555 51.6198C11.8355 53.6842 5.85754 58.8697 2.69987 65.5172C5.197 58.119 11.1566 52.1346 18.9965 49.6934L62.9251 36.015C67.8551 34.4799 73.145 34.4799 78.075 36.015L122.004 49.6934C129.843 52.1346 135.803 58.119 138.3 65.5172ZM138.391 62.5769C135.363 56.0327 129.634 50.8511 122.358 48.5855L78.429 34.9071C73.2686 33.3003 67.7314 33.3003 62.571 34.9071L18.6424 48.5855C11.3661 50.8512 5.63681 56.0327 2.60916 62.577C4.9631 55.3212 10.638 49.374 18.1947 46.7425L62.1233 31.4454C67.5437 29.5579 73.4563 29.5579 78.8767 31.4454L122.805 46.7425C130.362 49.374 136.037 55.3211 138.391 62.5769ZM138.293 52.8113C136.14 46.4492 131.416 41.0952 125.04 38.1702L81.1117 18.0169C74.3835 14.9302 66.6165 14.9302 59.8884 18.0169L15.9598 38.1702C9.58415 41.0952 4.86044 46.4493 2.70726 52.8114C5.39485 47.1337 10.1337 42.4812 16.2128 39.9162L60.1414 21.3816C66.7571 18.5903 74.243 18.5903 80.8586 21.3816L124.787 39.9162C130.866 42.4812 135.605 47.1336 138.293 52.8113ZM138.261 49.6151C136.175 43.5325 131.734 38.3723 125.726 35.3944L81.7973 13.6224C74.6894 10.0995 66.3106 10.0995 59.2028 13.6224L15.2742 35.3944C9.26589 38.3723 4.82506 43.5325 2.73923 49.6151C5.31657 44.21 9.75839 39.7342 15.4637 37.1167L59.3923 16.9634C66.435 13.7324 74.565 13.7324 81.6077 16.9634L125.536 37.1167C131.242 39.7342 135.683 44.21 138.261 49.6151ZM138.326 56.0374C136.105 49.3861 131.082 43.8355 124.325 40.9845L80.396 22.4499C74.0758 19.7832 66.9242 19.7832 60.604 22.4499L16.6754 40.9845C9.91829 43.8355 4.89487 49.3861 2.67457 56.0374C5.47385 50.0784 10.5262 45.2486 16.9929 42.7584L60.9215 25.8426C67.0807 23.4708 73.9193 23.4708 80.0786 25.8426L124.007 42.7584C130.474 45.2486 135.526 50.0784 138.326 56.0374ZM138.358 59.2926C136.071 52.3433 130.731 46.5946 123.579 43.8408L79.6508 26.9249C73.7667 24.659 67.2334 24.659 61.3492 26.9249L17.4207 43.8408C10.2693 46.5946 4.92888 52.3433 2.64168 59.2928C5.55437 53.0445 10.9368 48.038 17.8032 45.647L61.7317 30.3498C67.4056 28.3741 73.5945 28.3741 79.2683 30.3498L123.197 45.647C130.063 48.038 135.446 53.0445 138.358 59.2926ZM133.621 60.4764C130.476 56.8384 126.248 54.0895 121.329 52.739L77.247 40.6373C72.8329 39.4255 68.1671 39.4255 63.7531 40.6373L19.6709 52.739C14.7518 54.0895 10.5236 56.8383 7.37884 60.4764C10.04 58.0796 13.323 56.3092 17.0149 55.4317L64.3298 44.186C68.3852 43.2221 72.6148 43.2221 76.6702 44.186L123.985 55.4317C127.677 56.3092 130.96 58.0796 133.621 60.4764ZM5.77143 65.3138C7.58712 63.9268 9.76181 62.9576 12.1596 62.5644L66.1805 53.706C69.0405 53.237 71.9595 53.237 74.8196 53.706L128.84 62.5644C131.238 62.9576 133.413 63.9268 135.229 65.3139C132.895 62.7776 129.757 60.9451 126.152 60.221L75.5204 50.0528C72.2075 49.3874 68.7926 49.3874 65.4797 50.0528L14.8485 60.221C11.2429 60.9451 8.10544 62.7775 5.77143 65.3138ZM134.404 62.9165C131.659 59.8454 127.972 57.5744 123.71 56.5612L76.3947 45.3154C72.5204 44.3946 68.4797 44.3946 64.6054 45.3154L17.2905 56.5612C13.0276 57.5744 9.34095 59.8454 6.59622 62.9164C8.83983 61.0424 11.571 59.6936 14.6139 59.0825L65.245 48.9143C68.7128 48.2179 72.2873 48.2179 75.755 48.9143L126.386 59.0825C129.429 59.6936 132.16 61.0424 134.404 62.9165ZM138.021 72.3028C136.972 71.1099 135.473 70.3054 133.767 70.1513L72.7936 64.6466C71.2677 64.5088 69.7323 64.5088 68.2064 64.6466L7.23283 70.1513C5.52706 70.3053 4.02828 71.1098 2.97934 72.3028C3.46812 72.0918 4.00233 71.9624 4.56484 71.9323L69.0753 68.4854C70.0244 68.4347 70.9756 68.4347 71.9248 68.4854L136.435 71.9323C136.998 71.9624 137.532 72.0918 138.021 72.3028ZM139.083 74.6835C138.517 73.7771 137.524 73.154 136.372 73.0924L71.8611 69.6455C70.9544 69.597 70.0457 69.597 69.1389 69.6455L4.62846 73.0924C3.47602 73.154 2.48325 73.777 1.91744 74.6835C1.94101 74.6822 1.96471 74.6814 1.98852 74.681L70.0573 73.5522C70.3524 73.5473 70.6476 73.5473 70.9428 73.5522L139.012 74.681C139.035 74.6814 139.059 74.6822 139.083 74.6835ZM70.0732 74.7139L2.00829 75.8426C1.67873 75.848 1.41543 76.1129 1.41543 76.4365C1.41543 76.7602 1.67873 77.025 2.00829 77.0305L70.077 78.1592C70.359 78.1639 70.641 78.1639 70.923 78.1592L138.992 77.0305C139.321 77.025 139.585 76.7602 139.585 76.4365C139.585 76.1129 139.321 75.848 138.992 75.8426L70.923 74.7138C70.7824 74.7115 70.6418 74.7103 70.5012 74.7103L70.077 74.7138L70.0732 74.7139ZM1.91749 78.1895C2.48318 79.096 3.47596 79.7191 4.62846 79.7807L69.1389 83.2276C70.0457 83.276 70.9544 83.276 71.8611 83.2276L136.372 79.7807C137.524 79.7191 138.517 79.096 139.083 78.1895C139.059 78.1908 139.035 78.1917 139.012 78.1921L70.9428 79.3208C70.6476 79.3257 70.3524 79.3257 70.0573 79.3208L1.98852 78.1921C1.96473 78.1917 1.94105 78.1908 1.91749 78.1895ZM138.021 80.5703C137.532 80.7812 136.998 80.9107 136.435 80.9407L71.9248 84.3876C70.9756 84.4383 70.0244 84.4383 69.0753 84.3876L4.56484 80.9407C4.00231 80.9107 3.46809 80.7812 2.9793 80.5703C4.02818 81.7632 5.52699 82.5677 7.23283 82.7217L68.2064 88.2265C69.7323 88.3642 71.2677 88.3642 72.7936 88.2265L133.767 82.7217C135.473 82.5677 136.972 81.7632 138.021 80.5703ZM138.391 90.2952C136.037 97.5515 130.362 103.499 122.805 106.131L78.8767 121.428C73.4563 123.315 67.5437 123.315 62.1233 121.428L18.1947 106.131C10.6381 103.499 4.96313 97.5519 2.60935 90.2962C5.63685 96.8403 11.3661 102.022 18.6424 104.288L62.571 117.966C67.7314 119.573 73.2686 119.573 78.429 117.966L122.358 104.288C129.634 102.022 135.364 96.8398 138.391 90.2952ZM138.3 87.3552C135.803 94.7537 129.844 100.738 122.004 103.18L78.075 116.858C73.145 118.393 67.8551 118.393 62.9251 116.858L18.9965 103.18C11.1566 100.738 5.19702 94.7541 2.69994 87.3559C5.85756 94.0034 11.8355 99.1888 19.3555 101.253L63.4377 113.355C68.0581 114.623 72.942 114.623 77.5624 113.355L121.645 101.253C129.165 99.1887 135.143 94.0031 138.3 87.3552ZM136.102 85.2013C134.722 86.1429 133.103 86.7785 131.34 87.0028L73.867 94.3093C71.6316 94.5935 69.3684 94.5935 67.133 94.3093L9.6605 87.0028C7.89659 86.7785 6.27783 86.1428 4.89824 85.2011C6.81258 87.2406 9.39799 88.6781 12.3525 89.1626L66.3734 98.021C69.1057 98.469 71.8943 98.469 74.6267 98.021L128.648 89.1626C131.602 88.6782 134.187 87.2407 136.102 85.2013ZM7.37875 92.3966C10.5236 96.0347 14.7517 98.7836 19.6709 100.134L63.7531 112.236C68.1671 113.448 72.8329 113.448 77.247 112.236L121.329 100.134C126.248 98.7836 130.476 96.0348 133.621 92.3968C130.96 94.7935 127.677 96.5638 123.985 97.4413L76.6702 108.687C72.6148 109.651 68.3852 109.651 64.3298 108.687L17.0149 97.4413C13.3229 96.5638 10.04 94.7934 7.37875 92.3966ZM135.228 87.5594C133.413 88.9463 131.238 89.9155 128.84 90.3087L74.8196 99.167C71.9595 99.636 69.0405 99.636 66.1805 99.167L12.1596 90.3087C9.76177 89.9155 7.58706 88.9463 5.77132 87.5592C8.10539 90.0955 11.2428 91.9279 14.8485 92.6521L65.4797 102.82C68.7926 103.486 72.2075 103.486 75.5204 102.82L126.152 92.6521C129.757 91.928 132.894 90.0956 135.228 87.5594ZM6.59614 89.9566C9.3409 93.0277 13.0276 95.2987 17.2905 96.3119L64.6054 107.558C68.4797 108.478 72.5204 108.478 76.3947 107.558L123.71 96.3119C127.972 95.2987 131.659 93.0277 134.404 89.9567C132.16 91.8307 129.429 93.1794 126.386 93.7905L75.755 103.959C72.2873 104.655 68.7128 104.655 65.245 103.959L14.6139 93.7905C11.571 93.1794 8.83978 91.8306 6.59614 89.9566ZM138.229 106.427C135.76 111.567 131.6 115.867 126.254 118.517L82.3254 140.289C74.8853 143.976 66.1148 143.976 58.6746 140.289L14.746 118.517C9.40026 115.867 5.23967 111.567 2.77074 106.426C4.78938 112.239 8.96333 117.208 14.6187 120.219L58.5473 143.61C66.0067 147.582 74.9933 147.582 82.4528 143.61L126.381 120.219C132.037 117.208 136.211 112.239 138.229 106.427ZM138.261 103.258C135.683 108.663 131.242 113.139 125.536 115.756L81.6077 135.91C74.565 139.141 66.435 139.141 59.3923 135.91L15.4637 115.756C9.75839 113.139 5.31658 108.663 2.73927 103.258C4.82506 109.341 9.26589 114.501 15.2742 117.479L59.2028 139.251C66.3106 142.774 74.6894 142.774 81.7973 139.251L125.726 117.479C131.734 114.501 136.175 109.341 138.261 103.258ZM138.293 100.061C135.605 105.739 130.866 110.392 124.787 112.957L80.8586 131.491C74.243 134.283 66.7571 134.283 60.1414 131.491L16.2128 112.957C10.1337 110.392 5.39487 105.739 2.70733 100.062C4.86046 106.424 9.58415 111.778 15.9598 114.703L59.8884 134.856C66.6165 137.943 74.3835 137.943 81.1117 134.856L125.04 114.703C131.416 111.778 136.14 106.424 138.293 100.061ZM138.325 96.8361C135.526 102.795 130.474 107.624 124.007 110.115L80.0786 127.03C73.9193 129.402 67.0807 129.402 60.9215 127.03L16.9929 110.115C10.5262 107.624 5.47383 102.795 2.6745 96.8356C4.89486 103.487 9.91828 109.038 16.6754 111.889L60.604 130.423C66.9242 133.09 74.0758 133.09 80.396 130.423L124.325 111.889C131.082 109.038 136.105 103.487 138.325 96.8361ZM138.358 93.581C135.445 99.8288 130.063 104.835 123.197 107.226L79.2683 122.523C73.5945 124.499 67.4056 124.499 61.7317 122.523L17.8032 107.226C10.9368 104.835 5.55435 99.8285 2.64167 93.5804C4.92886 100.53 10.2693 106.278 17.4207 109.032L61.3492 125.948C67.2334 128.214 73.7667 128.214 79.6508 125.948L123.579 109.032C130.731 106.279 136.071 100.53 138.358 93.581ZM57.3338 3.9288C65.4811 -0.709666 75.519 -0.709666 83.6663 3.9288L127.595 28.9384C135.742 33.5769 140.762 42.1494 140.762 51.427V101.446C140.762 110.724 135.742 119.296 127.595 123.935L83.6663 148.944C75.519 153.583 65.4811 153.583 57.3338 148.944L13.4052 123.935C5.25776 119.296 0.238464 110.724 0.238464 101.446V51.427C0.238464 42.1494 5.25776 33.5769 13.4052 28.9384L57.3338 3.9288Z" fill="url(#paint0_linear_3963_926)"/>
<defs>
<linearGradient id="paint0_linear_3963_926" x1="70.5" y1="0.902459" x2="70.5" y2="151.971" gradientUnits="userSpaceOnUse">
<stop stop-color="#41B7FF"/>
<stop offset="1" stop-color="#00FF73"/>
</linearGradient>
</defs>
</svg>
