<svg width="174" height="30" viewBox="0 0 174 30" fill="none" xmlns="http://www.w3.org/2000/svg">
<path d="M25.6317 17.936C25.1098 18.2558 24.5009 18.314 24.037 18.0523C23.4571 17.7035 23.1091 16.9186 23.1091 15.843V12.5581C23.1091 10.9884 22.5003 9.85465 21.4564 9.56395C19.6877 9.04069 18.3539 11.2209 17.861 12.0349L14.7295 17.064V10.8721C14.7006 9.44767 14.2366 8.60465 13.3668 8.34303C12.7869 8.16861 11.917 8.25582 11.0762 9.53489L4.08832 20.7558C3.16047 18.9826 2.66756 17.0058 2.66756 15C2.66756 8.22675 8.08965 2.73256 14.7295 2.73256C21.3694 2.73256 26.7915 8.22675 26.7915 15V15.0291V15.0581C26.8495 16.3663 26.4436 17.4128 25.6317 17.936ZM29.4591 15V14.9709V14.9419C29.4301 6.71511 22.8192 0 14.7295 0C6.6109 0 0 6.71512 0 15C0 23.2558 6.6109 30 14.7295 30C18.4699 30 22.0073 28.5756 24.7329 25.9884C25.2838 25.4651 25.3128 24.6221 24.7909 24.0698C24.298 23.5174 23.4571 23.4884 22.9062 23.9826C22.9062 23.9826 22.9062 23.9826 22.8772 24.0116C20.6736 26.1046 17.716 27.2965 14.6716 27.2965C11.1052 27.2965 7.91568 25.7267 5.71205 23.2267L12.004 13.1105V17.7907C12.004 20.0291 12.8739 20.7558 13.5987 20.9593C14.3236 21.1628 15.4254 21.0174 16.6142 19.1279L20.0647 13.5174C20.1806 13.343 20.2676 13.1686 20.3836 13.0523V15.9012C20.3836 17.9942 21.2245 19.6802 22.6742 20.4942C23.979 21.25 25.6317 21.1628 26.9945 20.3198C28.6762 19.2151 29.5751 17.2965 29.4591 15ZM49.9877 9.88372C50.3356 10.0872 50.6546 10.5814 50.6546 11.0174C50.6546 11.7151 50.0747 12.2965 49.4078 12.2965C49.2338 12.2965 49.0888 12.2384 48.9438 12.2093C48.161 11.6279 47.1751 11.25 46.1313 11.25C43.6667 11.25 41.985 13.2558 41.985 15.7558C41.985 18.2558 43.6957 20.2326 46.1313 20.2326C47.3491 20.2326 48.4509 19.7384 49.2628 18.9535C49.4658 18.8081 49.7267 18.7209 49.9877 18.7209C50.6546 18.7209 51.1765 19.2442 51.1765 19.9128C51.1765 20.3488 50.9155 20.7267 50.5966 20.9302C49.4078 21.9477 47.813 22.6163 46.1603 22.6163C42.3909 22.6163 39.3174 19.5058 39.3174 15.6686C39.3174 11.8314 42.3909 8.72093 46.1603 8.72093C47.5521 8.69186 48.8859 9.12791 49.9877 9.88372ZM56.8885 12.7907C59.4691 12.7907 61.6147 14.9709 61.6147 17.6744C61.6147 20.3488 59.4401 22.6453 56.8885 22.6453C54.192 22.6453 51.9593 20.3779 51.9593 17.6744C51.9593 14.9709 54.192 12.7907 56.8885 12.7907ZM56.8595 20.2326C57.9903 20.2326 58.9472 19.157 58.9472 17.7035C58.9472 16.25 57.9903 15.3198 56.8595 15.3198C55.6417 15.3198 54.6269 16.2209 54.6269 17.7035C54.6269 19.1279 55.6417 20.2326 56.8595 20.2326ZM63.2385 21.1337V14.2733C63.2385 13.5174 63.8184 12.907 64.5722 12.907C65.2971 12.907 65.906 13.5174 65.906 14.2733V21.1337C65.906 21.8895 65.2971 22.5 64.5722 22.5C63.8474 22.5 63.2385 21.8605 63.2385 21.1337ZM63.0355 10.3198C63.0355 9.4186 63.7314 8.72093 64.5722 8.72093C65.4421 8.72093 66.138 9.44767 66.138 10.3198C66.138 11.1919 65.4421 11.8895 64.5722 11.8895C63.7024 11.8605 63.0355 11.1628 63.0355 10.3198ZM71.0092 17.4128V21.1337C71.0092 21.8895 70.4003 22.5 69.6754 22.5C68.9505 22.5 68.3416 21.8895 68.3416 21.1337V13.9535C68.3416 13.3721 68.8055 12.907 69.3854 12.907C69.9653 12.907 70.4003 13.4012 70.4003 13.9535C71.4731 12.936 72.4299 12.7907 73.3288 12.7907C75.9963 12.7907 77.1851 14.7965 77.1851 17.093V21.1337C77.1851 21.8895 76.5762 22.5 75.8514 22.5C75.1265 22.5 74.5176 21.8895 74.5176 21.1337V17.4128C74.5176 16.25 74.3726 15.2616 72.6909 15.2616C71.5021 15.2616 71.0092 16.25 71.0092 17.4128ZM85.8257 18.8372C85.5068 18.8372 85.3038 18.6919 85.1298 18.4884L82.0273 15.1163V21.1337C82.0273 21.8895 81.4184 22.5 80.6935 22.5C79.9687 22.5 79.3598 21.8895 79.3598 21.1337V9.21512C79.4468 9.01163 79.6497 8.86628 79.8527 8.86628C80.0847 8.86628 80.2876 9.06977 80.4326 9.21512L85.3908 14.7965C85.5357 14.9709 85.7097 15.0581 85.8257 15.0581C85.9127 15.0581 86.1156 14.9709 86.2606 14.7965L91.2188 9.21512C91.3638 9.06977 91.5377 8.86628 91.7987 8.86628C92.0307 8.86628 92.2336 9.01163 92.2916 9.21512V21.1337C92.2916 21.8895 91.7117 22.5 90.9578 22.5C90.233 22.5 89.6241 21.8895 89.6241 21.1337V15.1163L86.5216 18.4884C86.2896 18.6919 86.0867 18.8372 85.8257 18.8372ZM98.6416 20.2326C99.8304 20.2326 100.845 19.157 100.845 17.7035C100.845 16.25 99.8014 15.2907 98.6416 15.2907C97.4818 15.2907 96.5249 16.2791 96.5249 17.7035C96.5249 19.0988 97.4528 20.2326 98.6416 20.2326ZM101.483 21.4535L101.425 21.1337C100.903 22.1512 99.2505 22.6163 98.2066 22.6163C95.713 22.6163 93.8574 20.3488 93.8574 17.6453C93.8574 14.9709 95.742 12.7616 98.3516 12.7616C98.7865 12.7616 100.294 12.8779 101.454 14.2442L101.512 13.9244C101.512 13.343 101.947 12.8779 102.527 12.8779C103.107 12.8779 103.571 13.3721 103.571 13.9244V21.4244C103.571 22.0058 103.107 22.4709 102.527 22.4709C101.918 22.5 101.483 22.0058 101.483 21.4535ZM110.907 15.2616H110.617C108.935 15.3488 108.616 16.3081 108.616 17.4128V21.1337C108.616 21.8895 108.007 22.5 107.282 22.5C106.557 22.5 105.948 21.8895 105.948 21.1337V13.9535C105.948 13.3721 106.412 12.907 106.992 12.907C107.572 12.907 108.007 13.4012 108.007 13.9535C108.993 13.0233 109.805 12.8198 110.617 12.7907H110.878C111.515 12.7907 112.095 13.343 112.095 14.0407C112.124 14.6802 111.544 15.2616 110.907 15.2616ZM121.2 20.4942C121.316 20.6977 121.403 20.9012 121.403 21.1337C121.403 21.8314 120.765 22.4709 120.069 22.4709C119.605 22.4709 119.199 22.1221 118.88 21.7151L115.807 18.1395V21.1047C115.807 21.8605 115.198 22.4709 114.473 22.4709C113.748 22.4709 113.139 21.8605 113.139 21.1047V10.2035C113.139 9.44767 113.719 8.83721 114.473 8.83721C115.227 8.83721 115.807 9.44767 115.807 10.2035V17.0058L118.88 13.6047C119.199 13.2558 119.576 12.8779 120.04 12.8779C120.707 12.8779 121.316 13.4884 121.316 14.186C121.316 14.3895 121.258 14.6221 121.142 14.7965L118.706 17.4709L121.2 20.4942ZM126.419 15.2907C125.694 15.2907 124.505 15.6686 124.505 16.8023H128.362C128.333 15.6686 127.115 15.2907 126.419 15.2907ZM129.898 18.5174H124.505C124.505 20.1163 126.042 20.3779 126.709 20.3779C127.202 20.3779 127.898 20.2907 128.449 20.0291C128.623 19.9128 128.884 19.8256 129.144 19.8256C129.724 19.8256 130.217 20.3198 130.217 20.9302C130.217 21.3372 129.956 21.686 129.637 21.8895C128.826 22.5 127.753 22.6453 126.738 22.6453C124.041 22.6453 121.809 21.1919 121.809 17.7907C121.809 15.1163 123.171 12.7907 126.361 12.7907C128.942 12.7907 130.884 14.4767 130.942 17.4709C130.942 18.0233 130.478 18.5174 129.898 18.5174ZM137.321 22.6163H136.596C134.567 22.6163 133.378 21.7151 133.378 18.5465V15.2616H132.682C132.044 15.2616 131.493 14.6802 131.493 14.0407C131.493 13.343 132.073 12.7907 132.682 12.7907H133.378V10.2616C133.378 9.50582 133.958 8.89535 134.712 8.89535C135.436 8.89535 136.045 9.50582 136.045 10.2616V12.7907H137.147C137.785 12.7907 138.336 13.343 138.336 14.0407C138.336 14.6802 137.756 15.2616 137.147 15.2616H136.045V18.0233C136.045 19.8546 136.132 20.2326 136.944 20.2326H137.321C137.959 20.2326 138.51 20.7558 138.51 21.4244C138.51 22.064 137.959 22.6163 137.321 22.6163ZM150.224 9.88372C150.572 10.0872 150.891 10.5814 150.891 11.0174C150.891 11.7151 150.311 12.2965 149.644 12.2965C149.47 12.2965 149.325 12.2384 149.18 12.2093C148.397 11.6279 147.411 11.25 146.368 11.25C143.903 11.25 142.221 13.2558 142.221 15.7558C142.221 18.2558 143.932 20.2326 146.368 20.2326C147.585 20.2326 148.687 19.7384 149.499 18.9535C149.702 18.8081 149.963 18.7209 150.224 18.7209C150.891 18.7209 151.413 19.2442 151.413 19.9128C151.413 20.3488 151.152 20.7267 150.833 20.9302C149.644 21.9477 148.049 22.6163 146.397 22.6163C142.627 22.6163 139.554 19.5058 139.554 15.6686C139.554 11.8314 142.627 8.72093 146.397 8.72093C147.788 8.69186 149.151 9.12791 150.224 9.88372ZM156.98 20.2326C158.169 20.2326 159.183 19.157 159.183 17.7035C159.183 16.25 158.14 15.2907 156.98 15.2907C155.791 15.2907 154.863 16.2791 154.863 17.7035C154.863 19.0988 155.82 20.2326 156.98 20.2326ZM159.821 21.4535L159.763 21.1337C159.241 22.1512 157.589 22.6163 156.545 22.6163C154.051 22.6163 152.196 20.3488 152.196 17.6453C152.196 14.9709 154.08 12.7616 156.69 12.7616C157.125 12.7616 158.633 12.8779 159.792 14.2442L159.85 13.9244C159.85 13.343 160.285 12.8779 160.865 12.8779C161.445 12.8779 161.909 13.3721 161.909 13.9244V21.4244C161.909 22.0058 161.445 22.4709 160.865 22.4709C160.256 22.5 159.821 22.0058 159.821 21.4535ZM169.187 20.2326C170.376 20.2326 171.303 19.0988 171.303 17.7035C171.303 16.25 170.347 15.2907 169.187 15.2907C167.998 15.2907 166.983 16.25 166.983 17.7035C166.983 19.157 167.998 20.2326 169.187 20.2326ZM166.983 21.8314V25.2326C166.983 25.9884 166.374 26.5988 165.649 26.5988C164.925 26.5988 164.316 25.9884 164.316 25.2326V13.9535C164.316 13.3721 164.78 12.907 165.359 12.907C165.939 12.907 166.374 13.4012 166.374 14.0698C167.36 13.0523 168.578 12.7907 169.506 12.7907C172.086 12.7907 174 14.9709 174 17.6744C174 20.3488 172.173 22.6453 169.651 22.6453C168.868 22.6163 167.708 22.3837 166.983 21.8314Z" fill="white"/>
<path d="M25.6317 17.936C25.1098 18.2558 24.5009 18.314 24.037 18.0523C23.4571 17.7035 23.1091 16.9186 23.1091 15.843V12.5581C23.1091 10.9884 22.5003 9.85465 21.4564 9.56395C19.6877 9.04069 18.3539 11.2209 17.861 12.0349L14.7295 17.064V10.8721C14.7006 9.44767 14.2366 8.60465 13.3668 8.34303C12.7869 8.16861 11.917 8.25582 11.0762 9.53489L4.08832 20.7558C3.16047 18.9826 2.66756 17.0058 2.66756 15C2.66756 8.22675 8.08965 2.73256 14.7295 2.73256C21.3694 2.73256 26.7915 8.22675 26.7915 15V15.0291V15.0581C26.8495 16.3663 26.4436 17.4128 25.6317 17.936ZM29.4591 15V14.9709V14.9419C29.4301 6.71511 22.8192 0 14.7295 0C6.6109 0 0 6.71512 0 15C0 23.2558 6.6109 30 14.7295 30C18.4699 30 22.0073 28.5756 24.7329 25.9884C25.2838 25.4651 25.3128 24.6221 24.7909 24.0698C24.298 23.5174 23.4571 23.4884 22.9062 23.9826C22.9062 23.9826 22.9062 23.9826 22.8772 24.0116C20.6736 26.1046 17.716 27.2965 14.6716 27.2965C11.1052 27.2965 7.91568 25.7267 5.71205 23.2267L12.004 13.1105V17.7907C12.004 20.0291 12.8739 20.7558 13.5987 20.9593C14.3236 21.1628 15.4254 21.0174 16.6142 19.1279L20.0647 13.5174C20.1806 13.343 20.2676 13.1686 20.3836 13.0523V15.9012C20.3836 17.9942 21.2245 19.6802 22.6742 20.4942C23.979 21.25 25.6317 21.1628 26.9945 20.3198C28.6762 19.2151 29.5751 17.2965 29.4591 15ZM49.9877 9.88372C50.3356 10.0872 50.6546 10.5814 50.6546 11.0174C50.6546 11.7151 50.0747 12.2965 49.4078 12.2965C49.2338 12.2965 49.0888 12.2384 48.9438 12.2093C48.161 11.6279 47.1751 11.25 46.1313 11.25C43.6667 11.25 41.985 13.2558 41.985 15.7558C41.985 18.2558 43.6957 20.2326 46.1313 20.2326C47.3491 20.2326 48.4509 19.7384 49.2628 18.9535C49.4658 18.8081 49.7267 18.7209 49.9877 18.7209C50.6546 18.7209 51.1765 19.2442 51.1765 19.9128C51.1765 20.3488 50.9155 20.7267 50.5966 20.9302C49.4078 21.9477 47.813 22.6163 46.1603 22.6163C42.3909 22.6163 39.3174 19.5058 39.3174 15.6686C39.3174 11.8314 42.3909 8.72093 46.1603 8.72093C47.5521 8.69186 48.8859 9.12791 49.9877 9.88372ZM56.8885 12.7907C59.4691 12.7907 61.6147 14.9709 61.6147 17.6744C61.6147 20.3488 59.4401 22.6453 56.8885 22.6453C54.192 22.6453 51.9593 20.3779 51.9593 17.6744C51.9593 14.9709 54.192 12.7907 56.8885 12.7907ZM56.8595 20.2326C57.9903 20.2326 58.9472 19.157 58.9472 17.7035C58.9472 16.25 57.9903 15.3198 56.8595 15.3198C55.6417 15.3198 54.6269 16.2209 54.6269 17.7035C54.6269 19.1279 55.6417 20.2326 56.8595 20.2326ZM63.2385 21.1337V14.2733C63.2385 13.5174 63.8184 12.907 64.5722 12.907C65.2971 12.907 65.906 13.5174 65.906 14.2733V21.1337C65.906 21.8895 65.2971 22.5 64.5722 22.5C63.8474 22.5 63.2385 21.8605 63.2385 21.1337ZM63.0355 10.3198C63.0355 9.4186 63.7314 8.72093 64.5722 8.72093C65.4421 8.72093 66.138 9.44767 66.138 10.3198C66.138 11.1919 65.4421 11.8895 64.5722 11.8895C63.7024 11.8605 63.0355 11.1628 63.0355 10.3198ZM71.0092 17.4128V21.1337C71.0092 21.8895 70.4003 22.5 69.6754 22.5C68.9505 22.5 68.3416 21.8895 68.3416 21.1337V13.9535C68.3416 13.3721 68.8055 12.907 69.3854 12.907C69.9653 12.907 70.4003 13.4012 70.4003 13.9535C71.4731 12.936 72.4299 12.7907 73.3288 12.7907C75.9963 12.7907 77.1851 14.7965 77.1851 17.093V21.1337C77.1851 21.8895 76.5762 22.5 75.8514 22.5C75.1265 22.5 74.5176 21.8895 74.5176 21.1337V17.4128C74.5176 16.25 74.3726 15.2616 72.6909 15.2616C71.5021 15.2616 71.0092 16.25 71.0092 17.4128ZM85.8257 18.8372C85.5068 18.8372 85.3038 18.6919 85.1298 18.4884L82.0273 15.1163V21.1337C82.0273 21.8895 81.4184 22.5 80.6935 22.5C79.9687 22.5 79.3598 21.8895 79.3598 21.1337V9.21512C79.4468 9.01163 79.6497 8.86628 79.8527 8.86628C80.0847 8.86628 80.2876 9.06977 80.4326 9.21512L85.3908 14.7965C85.5357 14.9709 85.7097 15.0581 85.8257 15.0581C85.9127 15.0581 86.1156 14.9709 86.2606 14.7965L91.2188 9.21512C91.3638 9.06977 91.5377 8.86628 91.7987 8.86628C92.0307 8.86628 92.2336 9.01163 92.2916 9.21512V21.1337C92.2916 21.8895 91.7117 22.5 90.9578 22.5C90.233 22.5 89.6241 21.8895 89.6241 21.1337V15.1163L86.5216 18.4884C86.2896 18.6919 86.0867 18.8372 85.8257 18.8372ZM98.6416 20.2326C99.8304 20.2326 100.845 19.157 100.845 17.7035C100.845 16.25 99.8014 15.2907 98.6416 15.2907C97.4818 15.2907 96.5249 16.2791 96.5249 17.7035C96.5249 19.0988 97.4528 20.2326 98.6416 20.2326ZM101.483 21.4535L101.425 21.1337C100.903 22.1512 99.2505 22.6163 98.2066 22.6163C95.713 22.6163 93.8574 20.3488 93.8574 17.6453C93.8574 14.9709 95.742 12.7616 98.3516 12.7616C98.7865 12.7616 100.294 12.8779 101.454 14.2442L101.512 13.9244C101.512 13.343 101.947 12.8779 102.527 12.8779C103.107 12.8779 103.571 13.3721 103.571 13.9244V21.4244C103.571 22.0058 103.107 22.4709 102.527 22.4709C101.918 22.5 101.483 22.0058 101.483 21.4535ZM110.907 15.2616H110.617C108.935 15.3488 108.616 16.3081 108.616 17.4128V21.1337C108.616 21.8895 108.007 22.5 107.282 22.5C106.557 22.5 105.948 21.8895 105.948 21.1337V13.9535C105.948 13.3721 106.412 12.907 106.992 12.907C107.572 12.907 108.007 13.4012 108.007 13.9535C108.993 13.0233 109.805 12.8198 110.617 12.7907H110.878C111.515 12.7907 112.095 13.343 112.095 14.0407C112.124 14.6802 111.544 15.2616 110.907 15.2616ZM121.2 20.4942C121.316 20.6977 121.403 20.9012 121.403 21.1337C121.403 21.8314 120.765 22.4709 120.069 22.4709C119.605 22.4709 119.199 22.1221 118.88 21.7151L115.807 18.1395V21.1047C115.807 21.8605 115.198 22.4709 114.473 22.4709C113.748 22.4709 113.139 21.8605 113.139 21.1047V10.2035C113.139 9.44767 113.719 8.83721 114.473 8.83721C115.227 8.83721 115.807 9.44767 115.807 10.2035V17.0058L118.88 13.6047C119.199 13.2558 119.576 12.8779 120.04 12.8779C120.707 12.8779 121.316 13.4884 121.316 14.186C121.316 14.3895 121.258 14.6221 121.142 14.7965L118.706 17.4709L121.2 20.4942ZM126.419 15.2907C125.694 15.2907 124.505 15.6686 124.505 16.8023H128.362C128.333 15.6686 127.115 15.2907 126.419 15.2907ZM129.898 18.5174H124.505C124.505 20.1163 126.042 20.3779 126.709 20.3779C127.202 20.3779 127.898 20.2907 128.449 20.0291C128.623 19.9128 128.884 19.8256 129.144 19.8256C129.724 19.8256 130.217 20.3198 130.217 20.9302C130.217 21.3372 129.956 21.686 129.637 21.8895C128.826 22.5 127.753 22.6453 126.738 22.6453C124.041 22.6453 121.809 21.1919 121.809 17.7907C121.809 15.1163 123.171 12.7907 126.361 12.7907C128.942 12.7907 130.884 14.4767 130.942 17.4709C130.942 18.0233 130.478 18.5174 129.898 18.5174ZM137.321 22.6163H136.596C134.567 22.6163 133.378 21.7151 133.378 18.5465V15.2616H132.682C132.044 15.2616 131.493 14.6802 131.493 14.0407C131.493 13.343 132.073 12.7907 132.682 12.7907H133.378V10.2616C133.378 9.50582 133.958 8.89535 134.712 8.89535C135.436 8.89535 136.045 9.50582 136.045 10.2616V12.7907H137.147C137.785 12.7907 138.336 13.343 138.336 14.0407C138.336 14.6802 137.756 15.2616 137.147 15.2616H136.045V18.0233C136.045 19.8546 136.132 20.2326 136.944 20.2326H137.321C137.959 20.2326 138.51 20.7558 138.51 21.4244C138.51 22.064 137.959 22.6163 137.321 22.6163ZM150.224 9.88372C150.572 10.0872 150.891 10.5814 150.891 11.0174C150.891 11.7151 150.311 12.2965 149.644 12.2965C149.47 12.2965 149.325 12.2384 149.18 12.2093C148.397 11.6279 147.411 11.25 146.368 11.25C143.903 11.25 142.221 13.2558 142.221 15.7558C142.221 18.2558 143.932 20.2326 146.368 20.2326C147.585 20.2326 148.687 19.7384 149.499 18.9535C149.702 18.8081 149.963 18.7209 150.224 18.7209C150.891 18.7209 151.413 19.2442 151.413 19.9128C151.413 20.3488 151.152 20.7267 150.833 20.9302C149.644 21.9477 148.049 22.6163 146.397 22.6163C142.627 22.6163 139.554 19.5058 139.554 15.6686C139.554 11.8314 142.627 8.72093 146.397 8.72093C147.788 8.69186 149.151 9.12791 150.224 9.88372ZM156.98 20.2326C158.169 20.2326 159.183 19.157 159.183 17.7035C159.183 16.25 158.14 15.2907 156.98 15.2907C155.791 15.2907 154.863 16.2791 154.863 17.7035C154.863 19.0988 155.82 20.2326 156.98 20.2326ZM159.821 21.4535L159.763 21.1337C159.241 22.1512 157.589 22.6163 156.545 22.6163C154.051 22.6163 152.196 20.3488 152.196 17.6453C152.196 14.9709 154.08 12.7616 156.69 12.7616C157.125 12.7616 158.633 12.8779 159.792 14.2442L159.85 13.9244C159.85 13.343 160.285 12.8779 160.865 12.8779C161.445 12.8779 161.909 13.3721 161.909 13.9244V21.4244C161.909 22.0058 161.445 22.4709 160.865 22.4709C160.256 22.5 159.821 22.0058 159.821 21.4535ZM169.187 20.2326C170.376 20.2326 171.303 19.0988 171.303 17.7035C171.303 16.25 170.347 15.2907 169.187 15.2907C167.998 15.2907 166.983 16.25 166.983 17.7035C166.983 19.157 167.998 20.2326 169.187 20.2326ZM166.983 21.8314V25.2326C166.983 25.9884 166.374 26.5988 165.649 26.5988C164.925 26.5988 164.316 25.9884 164.316 25.2326V13.9535C164.316 13.3721 164.78 12.907 165.359 12.907C165.939 12.907 166.374 13.4012 166.374 14.0698C167.36 13.0523 168.578 12.7907 169.506 12.7907C172.086 12.7907 174 14.9709 174 17.6744C174 20.3488 172.173 22.6453 169.651 22.6453C168.868 22.6163 167.708 22.3837 166.983 21.8314Z" fill="white"/>
</svg>
