<svg xmlns="http://www.w3.org/2000/svg" viewBox="0 0 712.53 117.17"><defs><style>.cls-1{fill:#fff;fill-rule:evenodd;}</style></defs><title>p_logo_3</title><g><g><path class="cls-1" d="M712.53,95.9h-3.82L679.86,61.85l-9.33,8.3V95.9h-3V8.47h3V66.39h.06l37.69-33.51h4.18L682.23,60ZM650.36,55.31c0-12.79-8.61-20.61-20.85-20.61-12.91,0-21.81,9.64-21.81,23.39V95.9h-3v-63h2.78V47.67h.13C610.3,38.4,618.91,32,629.93,32c13.88,0,23.39,9,23.39,23.14V95.9h-3ZM588.12,81.6h-.06c-3,9-12.84,15.21-24,15.21-12.18,0-20.79-7.21-20.79-17.63,0-10.73,7.64-16.79,22.18-18l22.72-1.69v-5.7c0-11.88-7.09-19.09-19-19.09-11.7,0-19.21,6-20.85,16.55H545.4C546.8,39.31,555.83,32,569.16,32c13.57,0,21.93,8.24,21.93,21.57V95.9h-3Zm0-19.51-22.3,1.7c-12.72,1-19.63,6.36-19.63,15.39,0,8.6,7.64,14.91,18,14.91,13.21,0,23.93-9.58,23.93-21.39ZM532.26,95.9,509.47,57.61c-1,.06-2.79.12-4,.12h-24V95.9h-3V8.47h27.08c17.45,0,28.12,9.33,28.12,24.66,0,12.72-7.82,21.69-21,24L535.77,95.9Zm-1.64-62.77c0-13.76-9.51-21.82-25.15-21.82h-24V54.94h24C521.11,54.94,530.62,46.64,530.62,33.13ZM439.3,96.81c-16.54,0-27.75-12.48-27.75-32.42S422.82,32,439.3,32s27.82,12.48,27.82,32.41S455.84,96.81,439.3,96.81Zm24.85-32.42c0-18.3-10.06-29.69-24.85-29.69s-24.72,11.39-24.72,29.69,9.88,29.7,24.72,29.7S464.15,82.63,464.15,64.39ZM390.28,82.15V35.61h-9.39V32.88h9.39V16h3v16.9H406v2.73H393.25V82.09c0,8,2.85,11.09,9.51,11.09.06,0,4.25,0,4.37-.06V95.9l-4.55.06C394,96,390.28,92.09,390.28,82.15Zm-41,14.66A24.82,24.82,0,0,1,325,77.48h-.12v39h-3V32.88h2.79V51.61h.12A25.07,25.07,0,0,1,349.32,32c15.69,0,26.6,13.15,26.6,32.41S365.07,96.81,349.32,96.81ZM373,64.46c0-17.64-9.69-29.76-23.81-29.76S324.9,46.88,324.9,64.39s10,29.7,24.24,29.7S373,82,373,64.46Zm-100.1,52.71a10.78,10.78,0,0,1-2.85-.48V113.9a10.06,10.06,0,0,0,3.09.49c5.57,0,8.48-3.1,12-12l2.12-5.4-24.3-64.11h3.27l22.6,60.18h.13l22.66-60.18h3.21L290,98.51C284.24,113.66,281.09,117.17,272.85,117.17ZM254.24,34.82c-10.42,0-16.84,9.15-16.84,21.82V95.9h-3v-63h2.79V46h.12c2.73-9.21,8.72-14,17.33-14A16.05,16.05,0,0,1,261,33.19v3.09A14.24,14.24,0,0,0,254.24,34.82ZM190.38,94.27c16.18,0,29.39-10.06,30.84-25h3c-1.39,16.42-15.57,27.88-33.81,27.88-23.21,0-38.12-17.76-38.12-45.57,0-27.21,14.73-44.3,38.12-44.3,17.39,0,32.29,12.91,33.81,29.33h-3c-1.57-14.84-15-26.48-30.84-26.48-21.51,0-35.09,15.94-35.09,41.45C155.29,77.79,169.11,94.27,190.38,94.27ZM96.43,105.48H93.07V93.07h12.41v3.36A9,9,0,0,1,96.43,105.48ZM93.07,77.56h12.41V90H93.07Zm0-15.51h12.41V74.46H93.07Zm3.11-15.51h9.3V59h-9.3Zm0-15.52h9.3V43.43h-9.3Zm0-15.51h9.3V27.92h-9.3Zm0-6.2H93.07V0h3.36a9,9,0,0,1,9,9.05v3.36h-9.3ZM77.56,93.07H90v12.41H77.56Zm0-15.51H90V90H77.56Zm0-15.51H90V74.46H77.56Zm0-52.74V0H90V9.31H77.56ZM62.05,93.07H74.46v12.41H62.05Zm0-15.51H74.46V90H62.05Zm0-15.51H74.46V74.46H62.05Zm0-12,3.48-3.48h8.93V59H62.05ZM74.46,37.61v5.82H68.63ZM62.05,27.92V18.61H74.46v5.83L71,27.92ZM62.05,0H74.46V9.31H62.05ZM46.54,93.07H59v12.41H46.54Zm0-15.51H59V90H46.54Zm0-12L50,62.05H59V74.46H46.54ZM59,53.12V59H53.12ZM46.54,43.43V31H59V40l-3.48,3.47Zm0-24.82H59v9.31H46.54ZM46.54,0H59V9.31H46.54ZM31,93.07H43.43v12.41H31Zm0-12,3.48-3.48h8.93V90H31ZM43.43,68.63v5.83H37.61ZM31,59V46.54H43.43v8.93L40,59ZM31,31H43.43V43.43H31Zm0-15.51H43.43V27.92H31ZM31,0H43.43V12.41H31ZM15.51,93.07h3.1l.19.19.19-.19h8.93v12.41H15.51Zm12.41-8.93V90H22.09ZM15.51,74.46V62.05H27.92V71l-3.48,3.48Zm0-27.92H27.92V59H15.51Zm0-15.52H27.92V43.43H15.51Zm0-15.51H27.92V27.92H15.51ZM15.51,0H27.92V12.41H15.51ZM0,96.43V93.07H12.41v12.41H9.05A9,9,0,0,1,0,96.43ZM0,77.56H12.41v8.93l-.19.19.19.19V90H0ZM0,62.05H12.41V74.46H0ZM0,46.54H12.41V59H0ZM0,31H12.41V43.43H0ZM0,15.51H12.41V27.92H0ZM0,9.05A9,9,0,0,1,9.05,0h3.36V12.41H0ZM15.51,83.39V77.56h5.83ZM31,67.88V62.05h5.83ZM46.54,52.37V46.54h5.83ZM62.05,36.85V31h5.83ZM77.56,21.34V18.61h2.73Zm9.31,6.58H84.14l2.73-2.72Zm0,3.1V43.43H77.56V34.5L81,31Zm0,27.93H77.56V46.54h9.31Z"/></g></g></svg>
