<svg width="127" height="16" viewBox="0 0 127 16" fill="none" xmlns="http://www.w3.org/2000/svg">
  <g clip-path="url(#clip0_3522_866)">
    <path d="M7.60791 0.398926C8.96969 0.398926 10.2679 0.398926 11.5707 0.398926C11.7795 0.398926 12.0246 0.637537 12.1744 0.821079C13.6088 2.49132 15.0251 4.17532 16.4459 5.86849C16.6275 6.08416 16.8136 6.29522 17.154 6.68984V0.431049H21.7342V14.8254C20.3996 14.8254 19.0741 14.8254 17.7532 14.8254C17.5489 14.8254 17.2993 14.573 17.154 14.3665C15.7105 12.7054 14.2807 11.0306 12.8508 9.36497C12.6783 9.16767 12.5013 8.98412 12.2062 8.66293V14.7519H7.60791V0.398926Z" fill="white"/>
    <path d="M39.8276 0.394227H43.7177C45.5017 0.394227 47.2901 0.334583 49.0695 0.430943C50.8489 0.527303 52.2834 1.34865 52.9824 3.08313C53.3534 3.8849 53.4723 4.78241 53.323 5.6546C53.1736 6.52679 52.7632 7.33171 52.1472 7.96077C51.7468 8.33063 51.3172 8.66672 50.8626 8.96567C51.8521 10.847 52.8598 12.765 53.9493 14.8298H53.0414C51.7069 14.8298 50.3723 14.8023 49.0423 14.8298C48.8356 14.8517 48.6277 14.8012 48.4534 14.6868C48.2791 14.5724 48.1488 14.401 48.0845 14.2012C47.5443 13.0036 46.8998 11.8473 46.4004 10.6313C46.0736 9.83289 45.6106 9.57594 44.7663 9.84666V14.7518H39.8276V0.394227ZM44.7663 6.05651C45.6968 6.05651 46.582 6.08863 47.4899 6.05651C47.6054 6.05715 47.7198 6.03315 47.8256 5.98607C47.9313 5.93899 48.0261 5.8699 48.1036 5.78329C48.1811 5.69668 48.2397 5.59451 48.2755 5.48346C48.3114 5.3724 48.3236 5.25496 48.3115 5.1388C48.3115 4.60193 48.0709 4.17979 47.4944 4.15685C46.5865 4.12014 45.7105 4.15685 44.7708 4.15685L44.7663 6.05651Z" fill="white"/>
    <path d="M113.391 0.311523C116.256 0.398706 119.097 0.311525 121.889 0.628135C124.681 0.944746 126.428 2.88112 126.85 5.70308C127.03 6.88652 127.047 8.08947 126.9 9.27757C126.501 12.4161 124.576 14.2424 121.412 14.6737C120.873 14.757 120.328 14.806 119.783 14.8205C117.672 14.8205 115.561 14.8205 113.391 14.8205V0.311523ZM118.312 10.9157C118.852 10.9157 119.324 10.9157 119.792 10.9157C120.308 10.9384 120.813 10.7611 121.205 10.42C121.596 10.079 121.844 9.5998 121.898 9.08027C121.968 8.41584 121.996 7.74768 121.984 7.07965C122.039 4.97809 120.908 3.90896 118.312 4.44582V10.9157Z" fill="white"/>
    <path d="M110.214 9.35561H103.927V10.8928H111.421V14.7839H98.9656V0.449219H111.272V4.3082H103.918V5.57465H110.214V9.35561Z" fill="white"/>
    <path d="M33.3454 8.66289H37.8484C38.0198 9.89144 37.7671 11.1422 37.133 12.2044C36.4988 13.2667 35.5219 14.0756 34.3668 14.4949C32.4304 15.1757 30.3385 15.2651 28.3522 14.7519C27.2845 14.5237 26.3035 13.9916 25.525 13.2185C24.7465 12.4453 24.2029 11.4633 23.9582 10.3882C23.4611 8.54821 23.4611 6.60717 23.9582 4.7672C24.1794 3.78667 24.6545 2.88323 25.3349 2.14949C26.0153 1.41574 26.8765 0.878087 27.8302 0.591621C30.0341 -0.179315 32.4426 -0.0959341 34.5892 0.825628C35.6728 1.3004 36.5745 2.11835 37.1582 3.15619C37.742 4.19403 37.9763 5.39555 37.8257 6.57968H33.2047C33.1775 6.37779 33.1503 6.19425 33.1321 6.01071C32.9914 4.79474 32.3513 4.11563 31.2483 4.02845C29.9364 3.92291 29.024 4.45976 28.8425 5.72621C28.6776 6.90965 28.6669 8.10985 28.8107 9.2961C28.9605 10.5855 29.9319 11.2417 31.1938 11.1728C32.4557 11.104 33.1639 10.4157 33.2864 9.01162C33.2955 8.92902 33.3091 8.83726 33.3454 8.66289Z" fill="white"/>
    <path d="M70.0547 14.7883V0.426101C70.3134 0.426101 70.5086 0.393977 70.731 0.393977H78.1573C78.8878 0.375034 79.6105 0.548712 80.2544 0.897895C80.8984 1.24708 81.4412 1.75973 81.8296 2.38541C82.3696 3.18576 82.6803 4.12136 82.7276 5.08895C82.7748 6.05654 82.5568 7.01851 82.0974 7.86874C81.2395 9.62616 79.7052 10.3879 77.776 10.3557C76.8682 10.3557 75.9603 10.3557 74.9843 10.3557V14.7883H70.0547ZM75.0071 6.561C75.697 6.52429 76.3144 6.52888 76.9181 6.44629C77.4492 6.37287 77.6398 5.95532 77.6489 5.45058C77.658 4.94584 77.5944 4.45945 77.0588 4.3585C76.378 4.27371 75.693 4.22928 75.0071 4.22543V6.561Z" fill="white"/>
    <path d="M92.9326 14.7933H87.9848V4.51037H83.5181V0.431152H97.372V4.48284C96.1101 4.48284 94.8573 4.51038 93.6044 4.48284C93.0597 4.48284 92.919 4.65721 92.9235 5.18489C92.9235 8.08486 92.9235 10.9894 92.9235 13.9032L92.9326 14.7933Z" fill="white"/>
    <path d="M0 14.7935V0.463379H4.86157V14.7935H0Z" fill="white"/>
    <path d="M69.1198 0.394531H63.6273L61.3894 4.41871C61.3304 4.51048 61.2669 4.60224 61.2124 4.6986C61.0898 4.61601 61.0308 4.59765 61.0127 4.56553L60.9854 4.52423L58.5978 0.394531H52.9464C53.1325 0.711142 53.2459 0.917626 53.3685 1.11035C54.989 3.62488 56.6186 6.13023 58.2119 8.65853C58.4377 9.0411 58.5642 9.47517 58.5796 9.92038C58.6205 11.5218 58.5796 13.1324 58.5796 14.7705H63.541C63.541 13.1324 63.5093 11.5585 63.541 9.97544C63.562 9.48877 63.704 9.0153 63.9541 8.59888C65.502 6.09352 67.0907 3.62029 68.6659 1.13788C68.7975 0.93139 68.911 0.715734 69.088 0.412889L69.1198 0.394531Z" fill="white"/>
  </g>
  <defs>
    <clipPath id="clip0_3522_866">
      <rect width="127" height="15" fill="white" transform="translate(0 0.0869141)"/>
    </clipPath>
  </defs>
</svg>
