<svg width="86" height="31" viewBox="0 0 86 31" fill="none" xmlns="http://www.w3.org/2000/svg">
<g clip-path="url(#clip0_3522_878)">
<path d="M22.2977 4.16664C22.2977 3.83374 22.2586 3.5139 22.2325 3.07004H16.4562L14.4505 7.37812C13.491 9.40597 12.5294 11.4382 11.5655 13.4747C11.4288 13.7554 11.279 14.0296 11.0837 14.4082C10.8753 13.9904 10.719 13.6836 10.5757 13.3768C9.97009 12.0713 9.35143 10.7658 8.7458 9.46037L8.44622 8.80762C7.65825 7.13661 6.87678 5.45906 6.08229 3.78804C6.01652 3.647 5.93574 3.51351 5.84134 3.38988L5.67854 3.04395H-0.0065918V23.886H5.72413V15.1653C5.9849 15.3717 6.18885 15.6413 6.31672 15.9486C7.46287 18.3377 8.62855 20.7136 9.73562 23.1288L10.1589 24.0361H11.9823L12.347 23.2463C13.4867 20.7593 14.6979 18.305 15.8831 15.8442C16.0134 15.5766 16.1697 15.3155 16.3064 15.0544L16.4692 15.0935V23.9904H20.4156H21.1841C21.3442 24.0082 21.5058 24.0082 21.666 23.9904H22.3172V22.5283C22.2846 16.4251 22.2977 10.2959 22.2977 4.16664Z" fill="white"/>
<path d="M59.7753 16.3861C59.5593 16.1462 59.4398 15.8345 59.4398 15.5114C59.4398 15.1883 59.5593 14.8766 59.7753 14.6367C61.0778 12.7242 62.3151 10.7725 63.5849 8.83386C63.7282 8.61846 63.9106 8.42264 64.158 8.10279C65.9489 12.672 67.6811 17.1171 69.4134 21.5558H69.6543C70.4748 19.702 71.3084 17.8613 72.0964 16.001C72.1807 15.7045 72.1576 15.3877 72.0313 15.1067C71.1847 12.8939 70.299 10.6876 69.4655 8.46833C69.4142 8.25775 69.2862 8.07398 69.1067 7.95319C68.9271 7.83241 68.709 7.78334 68.4952 7.81559C65.2391 7.81559 61.983 7.81558 58.6878 7.85475C58.4856 7.87988 58.2906 7.94607 58.1148 8.04933C57.939 8.15259 57.7861 8.29072 57.6654 8.45526C56.923 9.55187 56.2652 10.7138 55.5749 11.8495C55.1777 12.5023 54.7674 13.155 54.3637 13.8077L54.1553 13.7294V3.12891H48.7046V23.9187H54.1683V17.3064C54.4874 17.796 54.6633 18.0441 54.8196 18.3051C55.8224 19.9957 56.8058 21.6928 57.8282 23.3704C57.991 23.6315 58.3036 23.9774 58.5575 23.984C60.5112 24.0297 62.5235 23.984 64.666 23.984C64.4055 23.5597 64.2427 23.2594 64.0604 22.9788C62.6407 20.779 61.2341 18.5532 59.7753 16.3861Z" fill="white"/>
<path d="M85.909 8.20721C85.0168 5.80512 84.066 3.42261 83.1348 1.02705C83.011 0.713734 82.8678 0.406937 82.7245 0.0805664C79.9242 1.17717 77.2087 2.23461 74.4996 3.30511C74.2606 3.37691 74.0507 3.52327 73.9005 3.72288C73.1841 5.29598 72.5069 6.88214 71.7319 8.6576L77.3063 6.51659C77.111 6.98656 77.0068 7.24766 76.8896 7.50223C74.7862 12.1432 72.6306 16.7647 70.5988 21.4383C69.5634 23.8208 67.9939 25.2634 65.3109 25.3547C65.2588 25.3547 65.2067 25.42 65.1285 25.4722V30.0871C68.1697 30.0871 70.7877 29.2385 72.6957 26.9605C73.7399 25.6933 74.6155 24.2956 75.3006 22.8025C77.3454 18.4161 79.26 13.9644 81.2267 9.53878C81.3634 9.232 81.5132 8.93174 81.7281 8.48788L83.9227 14.0296C84.6521 12.3717 85.3098 10.9683 85.8764 9.52576C86.0334 9.10213 86.0448 8.6381 85.909 8.20721Z" fill="white"/>
<path d="M42.7005 17.1755C42.4731 17.1449 42.2421 17.193 42.0456 17.3116C41.8491 17.4303 41.6988 17.6125 41.6194 17.8282C41.4017 18.2915 41.0651 18.6886 40.644 18.9787C40.2229 19.2689 39.7325 19.4418 39.223 19.4797C38.4144 19.6034 37.589 19.4176 36.9109 18.9592C36.2328 18.5008 35.7517 17.8035 35.5631 17.0057C35.2913 16.1666 35.3292 15.2576 35.6699 14.4442C36.0105 13.6307 36.6312 12.9669 37.4191 12.5736C38.1826 12.2412 39.0412 12.2011 39.8322 12.461C40.6232 12.7209 41.2916 13.2626 41.7106 13.9835C41.7887 14.106 41.8907 14.2113 42.0104 14.2932C42.1302 14.3751 42.2652 14.4319 42.4074 14.4601C43.9899 14.4992 45.5723 14.4601 47.2264 14.4601C46.8162 10.0671 42.8242 6.97311 38.1094 7.31254C33.0689 7.67155 29.6435 11.3334 29.8519 16.1768C30.0603 21.0201 33.7592 24.4927 38.7085 24.4862C43.267 24.4862 47.1743 21.1441 47.2329 17.1624C45.7416 17.1885 44.2178 17.2081 42.7005 17.1755Z" fill="white"/>
<path d="M23.4634 23.9381H28.8555V7.88721H23.4634V23.9381Z" fill="white"/>
<path d="M23.4572 7.01266H28.8818V3.14844H23.4572V7.01266Z" fill="white"/>
</g>
<defs>
<clipPath id="clip0_3522_878">
<rect width="86" height="30" fill="white" transform="translate(0 0.0869141)"/>
</clipPath>
</defs>
</svg>
