<svg width="143" height="25" viewBox="0 0 143 25" fill="none" xmlns="http://www.w3.org/2000/svg">
  <g clip-path="url(#clip0_3522_887)">
    <path d="M38.3033 6.82178H48.088V16.9028H46.1874V13.0543H40.2769V16.9028H38.3033V6.82178ZM46.0308 10.8093V8.89572H40.3291V10.7879L46.0308 10.8093Z" fill="white"/>
    <path d="M131.137 16.9564H121.394V6.84326H131.137V16.9564ZM123.389 8.8958V14.8076H129.122V8.8958H123.389Z" fill="white"/>
    <path d="M93.6901 13.0437V14.9216L95.5175 14.968V16.9136H93.6484L93.6459 15.0058L91.5807 14.968V13.0437H87.7797V16.9136H85.7851V6.84326H95.5175V13.0437H93.6901ZM87.7797 10.788H93.5021V8.8958H87.7797V10.788Z" fill="white"/>
    <path d="M109.511 16.9243V6.83252H119.295V16.9243H109.511ZM111.547 8.90646V14.8396H117.28V8.89576L111.547 8.90646Z" fill="white"/>
    <path d="M83.6863 14.8718V16.903H73.8912V6.854H83.6863V8.78897H75.9589V10.9271H79.7912V12.9262H76.0111V14.9146L83.6863 14.8718Z" fill="white"/>
    <path d="M52.1499 14.9569H59.9505V16.9347H50.1345V6.86426H59.9505V8.83132H52.1812L52.1499 14.9569Z" fill="white"/>
    <path d="M34.22 6.82178H36.2041V16.9135H34.3035V13.0329H28.3617V16.9135H26.4716V6.84318H28.2886V10.7665H34.22V6.82178Z" fill="white"/>
    <path d="M141.099 8.89617H135.21V16.9033H133.215V6.81152H142.989V16.914H141.099V8.89617Z" fill="white"/>
    <path d="M105.449 16.9136V8.89576H99.6321V16.9029H97.7107V6.83252H107.443V16.9029L105.449 16.9136Z" fill="white"/>
    <path d="M69.9181 14.9356H67.8662L67.8243 13.0434H63.9292V16.9347H62.0391V6.86426H63.877V10.7984H67.8347V8.89546H70.0276V10.9933L68.0854 11.0335V12.9257H69.9859L70.0276 14.9356H69.9181Z" fill="white"/>
    <path d="M69.872 8.92913L69.8602 6.85421L71.8162 6.854V8.92913L69.8602 8.92934L69.872 8.92913Z" fill="white"/>
    <path d="M69.9544 14.9038H71.761V16.935H69.8814C69.8814 16.2294 69.8742 15.6994 69.8742 14.9038L69.9544 14.9038Z" fill="white"/>
    <path d="M15.3914 9.46263H16.9474V11.0341H18.4615V12.627H16.9682V14.2412H15.4018V17.3949H13.8668V24.1299H3.06922V17.4056H1.47152V14.2412H-0.0426636V9.51607H1.47152V6.37308H3.0379V0.119141H13.8563C13.8563 0.183283 13.8563 0.247418 13.8563 0.31156V6.14856C13.8519 6.21619 13.8519 6.28405 13.8563 6.35168H15.381V9.50536H13.8041V6.38378H10.734V4.83365H9.21989V12.6377H7.65351V4.83365H6.13933V6.39441H3.05877V9.52677H1.54462V14.1985H3.06922V17.4056H6.14978V18.9557H10.734V17.3949H13.8668V14.1878H15.4018V10.7134C15.381 10.2751 15.3914 9.86886 15.3914 9.46263Z" fill="white"/>
  </g>
  <defs>
    <clipPath id="clip0_3522_887">
      <rect width="143" height="24" fill="white" transform="translate(0 0.0869141)"/>
    </clipPath>
  </defs>
</svg>
