<svg width="101" height="16" viewBox="0 0 101 16" fill="none" xmlns="http://www.w3.org/2000/svg">
  <g clip-path="url(#clip0_3522_903)">
    <path d="M55.1361 14.6298V0.407514C55.444 0.407514 55.7216 0.36377 55.9942 0.36377H60.6634C65.0246 0.36377 67.6848 2.7941 67.9472 6.99857C68.235 11.6356 65.3174 14.6347 60.5119 14.6347L55.1361 14.6298ZM57.66 2.42955V12.3939C58.9904 12.4516 60.3231 12.4435 61.6527 12.3696C62.4102 12.3098 63.1326 12.037 63.7303 11.585C64.328 11.133 64.7746 10.5219 65.0145 9.82748C65.6041 8.34103 65.6166 6.69962 65.0498 5.20498C64.849 4.53739 64.4511 3.94035 63.9044 3.48646C63.3578 3.03257 62.686 2.74137 61.9707 2.64827C60.5826 2.46843 59.1541 2.4976 57.6701 2.42955H57.66Z" fill="white"/>
    <path d="M95.7655 8.82136L101 14.625C99.9904 14.625 99.1323 14.6541 98.2742 14.6007C98.0773 14.6007 97.8704 14.3236 97.7088 14.1389C96.4015 12.6807 95.0436 11.2663 93.8271 9.76433C93.5588 9.36299 93.1576 9.06065 92.6885 8.90627C92.2195 8.75188 91.71 8.75451 91.2427 8.91371V14.6055H88.7744V0.358946C90.0716 0.358946 91.3336 0.334643 92.5955 0.358946C93.707 0.337023 94.8183 0.408586 95.9169 0.572816C97.9612 0.976251 99.0616 2.41987 99.0869 4.46135C99.1222 6.93056 98.3045 8.05824 96.033 8.67068C95.9398 8.71393 95.8503 8.76432 95.7655 8.82136ZM91.278 2.5025V6.72642C92.4996 6.72642 93.6656 6.8139 94.8114 6.7021C95.3357 6.65036 95.8181 6.4033 96.1558 6.01369C96.4934 5.62408 96.6595 5.1228 96.6185 4.61689C96.6518 4.09673 96.4707 3.58491 96.1143 3.19265C95.758 2.80038 95.2554 2.55936 94.7155 2.52193C93.5748 2.42472 92.4491 2.49763 91.278 2.49763V2.5025Z" fill="white"/>
    <path d="M22.6897 15.0868L12.5438 5.62793V14.8972H10.5247C9.95934 14.8972 10.1108 14.4792 10.1108 14.1875C10.1108 11.8933 10.1108 9.59423 10.1108 7.29999V0.378418L20.2719 9.6963V0.61172H22.6796L22.6897 15.0868Z" fill="white"/>
    <path d="M76.2007 5.9587H81.9097V7.99532H76.2108V12.4331H82.6013V14.5669H73.7274V0.432129H82.5861V2.46388H76.2007V5.9587Z" fill="white"/>
    <path d="M38.3882 3.44583C37.2058 2.99646 35.9974 2.61344 34.769 2.29871C34.028 2.21372 33.2766 2.28674 32.5682 2.51258C32.2608 2.58872 31.9881 2.76062 31.7927 3.00151C31.5974 3.2424 31.4902 3.53875 31.488 3.84439C31.445 4.15766 31.509 4.47588 31.6701 4.75114C31.8312 5.0264 32.0809 5.24381 32.3814 5.37065C33.3909 5.80325 34.451 6.15808 35.4858 6.55665C36.0011 6.73929 36.5065 6.94694 37.0001 7.17882C38.6557 8.02457 39.3069 9.39041 39.1756 11.15C39.1449 11.8952 38.8708 12.6122 38.3922 13.1987C37.9137 13.7852 37.2552 14.2113 36.5104 14.4163C35.3929 14.8024 34.2029 14.9553 33.0194 14.8648C31.8358 14.7743 30.6858 14.4425 29.6455 13.8914C29.5192 13.8057 29.4133 13.6951 29.335 13.5668C29.2566 13.4385 29.2076 13.2957 29.1912 13.1477C29.1591 12.5567 29.1591 11.9645 29.1912 11.3736C30.375 11.8556 31.5868 12.2711 32.8206 12.6179C33.6353 12.7488 34.4689 12.7241 35.2737 12.545C35.6543 12.4991 36.0073 12.3296 36.2743 12.0645C36.5414 11.7993 36.7066 11.4545 36.7426 11.0868C36.8104 10.7101 36.7395 10.3224 36.5424 9.99061C36.3452 9.65878 36.034 9.40355 35.6624 9.26889C34.7791 8.86546 33.8351 8.57383 32.9266 8.21414C32.251 7.96852 31.5933 7.67947 30.9579 7.34894C30.2929 6.99413 29.7566 6.45187 29.421 5.79501C29.0853 5.13814 28.9664 4.39812 29.0802 3.67428C29.1204 2.96899 29.3838 2.29243 29.8349 1.73548C30.2861 1.17853 30.9034 0.767854 31.604 0.558598C32.6293 0.195436 33.7235 0.048299 34.8129 0.127119C35.9023 0.20594 36.9614 0.508884 37.9188 1.0155C38.0459 1.10013 38.153 1.20971 38.2331 1.33705C38.3131 1.46439 38.3643 1.60659 38.3832 1.75432C38.4165 2.31765 38.4182 2.88232 38.3882 3.44583Z" fill="white"/>
    <path d="M0 0.597168H2.44311V14.8632H0V0.597168Z" fill="white"/>
    <path d="M44.8994 0.407715H47.2921V14.5668H44.8994V0.407715Z" fill="white"/>
  </g>
  <defs>
    <clipPath id="clip0_3522_903">
      <rect width="101" height="15" fill="white" transform="translate(0 0.0869141)"/>
    </clipPath>
  </defs>
</svg>
