<svg width="112" height="34" viewBox="0 0 112 34" fill="none" xmlns="http://www.w3.org/2000/svg">
  <path d="M41.3336 13.6423V21.9694H39.1538V13.6423H36.6716V11.8003H43.8158V13.6423H41.3336Z" fill="white"/>
  <path d="M51.275 18.5881C51.275 19.6353 50.9222 20.5058 50.204 21.1998C49.4858 21.8937 48.5786 22.247 47.4824 22.247C46.3736 22.247 45.4664 21.8937 44.7482 21.1998C44.03 20.5058 43.6772 19.6353 43.6772 18.5881C43.6772 17.5409 44.0426 16.6703 44.7608 15.9764C45.479 15.2825 46.3862 14.9292 47.4824 14.9292C48.5786 14.9292 49.4858 15.2699 50.204 15.9638C50.9222 16.6577 51.275 17.5283 51.275 18.5881ZM49.2716 18.5755C49.2716 18.0203 49.1078 17.5787 48.7802 17.2507C48.4526 16.9227 48.0242 16.7586 47.4698 16.7586C46.928 16.7586 46.487 16.9227 46.172 17.2507C45.857 17.5787 45.6932 18.0203 45.6932 18.5881C45.6932 19.1432 45.857 19.5848 46.172 19.9255C46.487 20.2535 46.928 20.4301 47.4698 20.4301C48.0116 20.4301 48.44 20.2661 48.7676 19.9255C49.0952 19.5848 49.2716 19.1306 49.2716 18.5755Z" fill="white"/>
  <path d="M52.8376 21.9694V16.7082H51.8926V15.1563H52.8376V12.8853H54.8158V15.1563H55.7608V16.7082H54.8158V21.9694H52.8376Z" fill="white"/>
  <path d="M63.7112 21.9698H61.796L61.8212 20.9857C61.5566 21.4146 61.229 21.7301 60.851 21.9319C60.473 22.1338 60.0194 22.2347 59.4776 22.2347C58.5704 22.2347 57.8522 21.8941 57.2978 21.2254C56.7434 20.5567 56.4662 19.6609 56.4662 18.5632C56.4662 17.4151 56.7434 16.5193 57.2852 15.8759C57.827 15.2324 58.583 14.917 59.5532 14.917C60.0572 14.917 60.4982 15.0305 60.8762 15.2576C61.2542 15.4847 61.5818 15.8254 61.8338 16.267V15.1441H63.7112V21.9698ZM61.9094 18.5506C61.9094 17.945 61.7582 17.453 61.4432 17.0997C61.1408 16.7464 60.725 16.5698 60.1958 16.5698C59.654 16.5698 59.2382 16.7464 58.9232 17.0997C58.6208 17.453 58.457 17.945 58.457 18.5506C58.457 19.1689 58.6082 19.6483 58.9106 19.9889C59.213 20.3296 59.6288 20.5062 60.1706 20.5062C60.7124 20.5062 61.1408 20.3296 61.4432 19.9889C61.7582 19.6483 61.9094 19.1689 61.9094 18.5506Z" fill="white"/>
  <path d="M65.4626 21.9696V11.1948H67.4283V21.9696H65.4626Z" fill="white"/>
  <path d="M77.2561 11.8003H74.7487L71.3593 16.4054V11.8003H69.1921V21.9694H71.3593V16.6452L74.7739 21.9694H77.3947L73.6273 16.4307L77.2561 11.8003ZM82.4599 14.9293C81.9055 14.9293 81.4519 15.0933 81.0739 15.4213C80.6959 15.7494 80.4187 16.2414 80.2171 16.9101L80.2549 15.1564H78.3019V21.9694H80.2801V18.9666C80.2801 18.2475 80.4061 17.7302 80.6707 17.4148C80.9353 17.112 81.3637 16.948 81.9685 16.948C82.1323 16.948 82.2961 16.9606 82.4473 16.9984C82.5985 17.0237 82.7497 17.0741 82.9009 17.1372L83.2033 15.005C83.1781 15.005 83.1277 14.9923 83.0773 14.9797C82.7875 14.9545 82.5859 14.9293 82.4599 14.9293ZM87.7645 18.197C87.6637 18.4872 87.5755 18.7648 87.5125 19.0297C87.4495 19.2947 87.3865 19.547 87.3361 19.7994C87.3109 19.4839 87.2731 19.2064 87.2227 18.954C87.1723 18.7017 87.1093 18.4746 87.0337 18.2853L85.8493 15.169H83.5687L86.3155 21.4522L84.8413 25.0732H87.0211L91.0783 15.1564H88.8103L87.7645 18.197ZM96.0805 14.9293C95.5765 14.9293 95.1481 15.0428 94.7701 15.2699C94.3921 15.497 94.0771 15.8377 93.8125 16.2919V15.169H91.9225V25.0858H93.9007V22.2596C93.9007 21.9947 93.9007 21.7676 93.8881 21.5657C93.8755 21.3638 93.8629 21.1746 93.8377 21.0106C94.1023 21.4395 94.4299 21.755 94.8079 21.9568C95.1859 22.1587 95.6395 22.2596 96.1813 22.2596C97.0759 22.2596 97.8067 21.919 98.3485 21.2503C98.9029 20.5816 99.1801 19.6984 99.1801 18.5881C99.1801 17.44 98.9029 16.5442 98.3611 15.9008C97.8067 15.2447 97.0507 14.9293 96.0805 14.9293ZM96.7105 19.9886C96.4081 20.3293 95.9797 20.5059 95.4379 20.5059C94.8961 20.5059 94.4803 20.3293 94.1653 19.9886C93.8629 19.648 93.7117 19.1685 93.7117 18.5503C93.7117 17.9447 93.8629 17.4526 94.1779 17.0994C94.4803 16.7461 94.8961 16.5695 95.4253 16.5695C95.9671 16.5695 96.3955 16.7461 96.6979 17.0994C97.0003 17.4526 97.1641 17.9447 97.1641 18.5503C97.1641 19.1685 97.0129 19.648 96.7105 19.9886ZM102.784 12.8853H100.806V15.1564H99.8605V16.7082H100.806V21.9694H102.784V16.7082H103.729V15.1564H102.784V12.8853ZM110.873 15.9638C110.155 15.2699 109.248 14.9293 108.151 14.9293C107.055 14.9293 106.148 15.2825 105.43 15.9765C104.712 16.6704 104.346 17.5409 104.346 18.5881C104.346 19.6353 104.699 20.5059 105.417 21.1998C106.135 21.8938 107.043 22.247 108.151 22.247C109.248 22.247 110.155 21.8938 110.873 21.1998C111.591 20.5059 111.944 19.6353 111.944 18.5881C111.944 17.5283 111.591 16.6578 110.873 15.9638ZM109.437 19.9129C109.109 20.2409 108.681 20.4176 108.139 20.4176C107.597 20.4176 107.156 20.2536 106.841 19.9129C106.526 19.5849 106.362 19.1307 106.362 18.5755C106.362 18.0204 106.526 17.5662 106.841 17.2381C107.156 16.9101 107.597 16.7461 108.139 16.7461C108.681 16.7461 109.122 16.9101 109.449 17.2381C109.777 17.5662 109.941 18.0078 109.941 18.5629C109.928 19.1307 109.764 19.5723 109.437 19.9129Z" fill="url(#paint0_linear_3522_850)"/>
  <path d="M7.16243 1.5558V7.80113H2.81543V3.5745C2.81543 2.04786 4.06283 0.950195 5.43623 0.950195C5.87723 0.950195 6.31823 1.06375 6.74663 1.30347L7.16243 1.5558Z" fill="url(#paint1_linear_3522_850)"/>
  <path d="M30.1198 19.358L29.6788 19.6103L25.3318 17.0996L25.3444 17.087L9.95977 8.19211L8.52337 7.3594L7.17517 6.57716V1.55566L8.52337 2.33791L10.7158 3.59959L30.1324 14.8286C31.8586 15.8253 31.8586 18.3487 30.1198 19.358Z" fill="url(#paint2_linear_3522_850)"/>
  <path d="M12.8324 29.3508L8.51063 31.8489L7.16243 32.6312L6.73403 32.8709C6.30563 33.1106 5.86463 33.2242 5.42363 33.2242C4.06283 33.2242 2.80283 32.1265 2.80283 30.5999V17.8695H0.0560303V14.463H2.81543V8.82324H7.16243V14.463H11.207V17.8695H7.16243V27.5971L8.51063 26.8148L9.64463 26.1588L12.8324 29.3508Z" fill="white"/>
  <path d="M29.6786 19.6104L28.3304 20.3926L13.8152 28.7828L10.6274 25.5907L23.9834 17.8692L25.3316 17.0996L29.6786 19.6104Z" fill="url(#paint3_linear_3522_850)"/>
  <defs>
    <linearGradient id="paint0_linear_3522_850" x1="69.1843" y1="18.4351" x2="111.944" y2="18.4351" gradientUnits="userSpaceOnUse">
      <stop stop-color="#BEBEBE"/>
      <stop offset="1" stop-color="white"/>
    </linearGradient>
    <linearGradient id="paint1_linear_3522_850" x1="4.98837" y1="7.80035" x2="4.98837" y2="0.949047" gradientUnits="userSpaceOnUse">
      <stop stop-color="#A2A2A2"/>
      <stop offset="1" stop-color="white"/>
    </linearGradient>
    <linearGradient id="paint2_linear_3522_850" x1="19.2929" y1="19.6073" x2="19.2929" y2="1.54973" gradientUnits="userSpaceOnUse">
      <stop stop-color="#A2A2A2"/>
      <stop offset="1" stop-color="white"/>
    </linearGradient>
    <linearGradient id="paint3_linear_3522_850" x1="29.6771" y1="22.9377" x2="10.6256" y2="22.9377" gradientUnits="userSpaceOnUse">
      <stop stop-color="#ABABAB"/>
      <stop offset="1" stop-color="white"/>
    </linearGradient>
  </defs>
</svg>
