<svg width="85" height="32" viewBox="0 0 85 32" fill="none" xmlns="http://www.w3.org/2000/svg">
  <g clip-path="url(#clip0_3522_285)">
    <path fill-rule="evenodd" clip-rule="evenodd" d="M30.4695 9.42063V18.7472H35.0809V15.16C35.0809 12.8069 35.0809 11.5083 35.1169 11.3362C35.1617 10.9892 35.2822 10.6561 35.47 10.3605C35.6258 10.144 35.8391 9.97492 36.086 9.87228C36.3329 9.76965 36.6036 9.73747 36.8678 9.77935C37.6748 9.82239 38.1431 10.2959 38.3088 11.2142C38.3088 11.3505 38.3088 12.7638 38.3088 15.117V18.7472H42.9202V14.4426C42.9202 10.8555 42.9202 10.0735 42.8697 9.71478C42.7886 8.58081 42.3179 7.50922 41.5368 6.68006C40.8867 6.03529 40.0353 5.6304 39.123 5.53218C38.5633 5.48718 38.0002 5.50403 37.4442 5.5824C36.653 5.74312 35.9279 6.13531 35.3619 6.70876L35.0377 7.0316V0.0869141H30.4695V9.42063ZM79.4651 0.2304C79.3426 0.510196 74.6592 11.7953 74.6592 11.8168H80.1135L82.5489 5.97699C83.8819 2.76292 84.9771 0.122786 84.9771 0.108437C84.9771 0.0940888 83.7522 0.108437 82.2535 0.108437H79.5299L79.4651 0.2304ZM20.3678 5.53218C19.4513 5.64359 18.5732 5.96531 17.8028 6.47201C17.0159 7.01765 16.3527 7.72168 15.8563 8.53855C15.3598 9.35543 15.0411 10.267 14.9207 11.2142C14.7869 12.2051 14.8382 13.212 15.072 14.1843C15.3035 15.2294 15.7969 16.1991 16.5062 17.0032C17.2155 17.8073 18.1176 18.4196 19.1285 18.783C19.7263 19.0065 20.3646 19.1018 21.0019 19.0628C21.3608 19.0832 21.7208 19.064 22.0755 19.0055C22.8928 18.8578 23.6462 18.4677 24.237 17.8863L24.5324 17.5921V18.7472H28.9781V5.8335H24.5252V7.02443L24.3163 6.80203C23.7253 6.21262 22.9738 5.80856 22.1547 5.6398C21.8195 5.5627 21.4753 5.53132 21.1316 5.54653C20.7641 5.51783 20.4183 5.52501 20.3678 5.53218ZM49.8012 5.56805C48.5357 5.72949 47.3367 6.22488 46.3282 7.00291C45.4059 7.76306 44.6997 8.75058 44.28 9.8671C43.8603 10.9836 43.7417 12.1901 43.9361 13.3665C44.1231 14.6833 44.7044 15.9134 45.6041 16.8963C46.5038 17.8792 47.6802 18.5692 48.9798 18.8763C49.5897 19.0288 50.2171 19.1012 50.8459 19.0915C51.9793 19.1273 53.1037 18.8807 54.1171 18.3741C55.0846 17.8947 55.9191 17.186 56.5473 16.3104C57.1754 15.4348 57.578 14.4189 57.7197 13.3521C57.7954 12.6775 57.7954 11.9965 57.7197 11.3218C57.5649 10.2364 57.1524 9.20348 56.5164 8.30862C56.1509 7.84191 55.738 7.41397 55.2843 7.0316C54.2816 6.25318 53.087 5.75759 51.8258 5.59675C51.1536 5.51905 50.4753 5.50944 49.8012 5.56805V5.56805ZM64.471 5.56805C63.2267 5.73484 62.0499 6.23027 61.0629 7.00291C60.6074 7.38338 60.1944 7.81151 59.8308 8.27993C59.1928 9.17438 58.7778 10.2073 58.6203 11.2931C58.5411 11.9676 58.5411 12.649 58.6203 13.3234C58.8735 14.9495 59.7119 16.4284 60.9792 17.4844C62.2466 18.5404 63.8564 19.1014 65.5085 19.0628C66.6672 19.0857 67.8135 18.822 68.8446 18.2952C70.1665 17.6063 71.2233 16.5025 71.8512 15.1549C72.4791 13.8072 72.643 12.291 72.3175 10.8411C72.0395 9.45328 71.3233 8.19023 70.2733 7.23642C69.2234 6.2826 67.8947 5.68798 66.4812 5.53936C65.8119 5.48072 65.1383 5.49034 64.471 5.56805V5.56805ZM-0.0157471 5.82633C-0.0157471 5.82633 1.23076 8.76778 2.75106 12.3334C4.27136 15.899 5.51066 18.8476 5.51066 18.862C5.51066 18.8763 5.06394 19.9453 4.51634 21.2223L3.52922 23.5611C3.52922 23.5611 4.63162 23.5611 5.97179 23.5611H8.42157L12.1034 14.7296C14.1425 9.86544 15.8357 5.87655 15.8357 5.84785C15.0294 5.80188 14.2211 5.80188 13.4148 5.84785H10.9506L9.45912 9.61434C8.63052 11.659 7.96043 13.3665 7.95323 13.3665C7.94602 13.3665 7.27594 11.6662 6.46175 9.59999L5.0207 5.85502H2.49888C1.12268 5.81198 -0.0157471 5.81915 -0.0157471 5.82633ZM22.6087 9.7363C23.0685 9.84708 23.4893 10.0806 23.8258 10.4119C24.1622 10.7431 24.4016 11.1594 24.518 11.616C24.6116 12.0656 24.6116 12.5295 24.518 12.9791C24.3999 13.4325 24.1618 13.8461 23.8285 14.1767C23.4952 14.5073 23.0789 14.7428 22.6231 14.8587C22.1723 14.9592 21.7048 14.9592 21.2541 14.8587C20.8572 14.756 20.4892 14.5643 20.1782 14.2982C19.8673 14.0321 19.6216 13.6987 19.46 13.3234C19.2976 12.9156 19.2351 12.4751 19.2777 12.0385C19.3203 11.6018 19.4668 11.1815 19.7049 10.8124C20.0192 10.3538 20.4688 10.0039 20.9917 9.81107C21.5145 9.61825 22.0846 9.59212 22.6231 9.7363H22.6087ZM51.3071 9.7363C51.7994 9.82298 52.2547 10.0534 52.6152 10.3983C52.9757 10.7432 53.2251 11.187 53.3317 11.6734C53.4181 12.0995 53.4181 12.5386 53.3317 12.9647C53.2218 13.4034 52.9962 13.805 52.6782 14.1278C52.3603 14.4507 51.9616 14.6832 51.5232 14.8013C51.0706 14.8838 50.6068 14.8838 50.1542 14.8013C49.7965 14.7062 49.4641 14.5342 49.1803 14.2974C48.8965 14.0607 48.6682 13.765 48.5114 13.431C48.3334 13.0753 48.2491 12.6803 48.2664 12.2832C48.2521 11.9263 48.3186 11.5707 48.461 11.2429C48.6578 10.7816 48.9828 10.3859 49.3977 10.1022C49.9771 9.76238 50.6621 9.64743 51.3215 9.77935L51.3071 9.7363ZM65.9769 9.7363C66.3944 9.80656 66.7869 9.98184 67.1173 10.2455C67.4476 10.5092 67.7049 10.8525 67.8647 11.2429C68.007 11.5707 68.0735 11.9263 68.0592 12.2832C68.0765 12.6803 67.9922 13.0753 67.8142 13.431C67.6605 13.7632 67.4358 14.058 67.1558 14.2947C66.8758 14.5313 66.5472 14.7043 66.193 14.8013C65.7427 14.8821 65.2816 14.8821 64.8313 14.8013C64.3948 14.6834 63.9978 14.4517 63.6811 14.1301C63.3645 13.8086 63.1397 13.4088 63.0299 12.9719C62.9291 12.5231 62.9291 12.0576 63.0299 11.6088C63.1661 11.0602 63.4842 10.5734 63.9327 10.2271C64.3811 9.88077 64.9338 9.69522 65.5013 9.70043C65.6666 9.71314 65.8305 9.73953 65.9913 9.77935L65.9769 9.7363ZM75.7472 12.936C75.1032 13.0109 74.4987 13.2841 74.0182 13.7175C73.5376 14.1509 73.205 14.723 73.0668 15.3538C72.9804 15.804 72.9804 16.2666 73.0668 16.7169C73.197 17.2626 73.4812 17.7599 73.8859 18.1502C74.2906 18.5404 74.7989 18.8073 75.3509 18.9194C75.5581 18.953 75.7678 18.9698 75.9777 18.9696C76.6406 18.9772 77.2881 18.7704 77.8229 18.3803C78.3576 17.9902 78.7508 17.4378 78.9433 16.8061C79.1358 16.1745 79.1173 15.4977 78.8904 14.8774C78.6636 14.2572 78.2407 13.727 77.6854 13.3665C77.1053 13.0266 76.431 12.8808 75.7616 12.9504L75.7472 12.936ZM37.7828 19.974C37.571 20.0414 37.377 20.1549 37.2147 20.3063C37.0524 20.4577 36.926 20.6431 36.8446 20.8491C36.7632 21.0552 36.7288 21.2767 36.7441 21.4976C36.7593 21.7185 36.8237 21.9332 36.9326 22.1263C37.1111 22.3906 37.3608 22.5995 37.6532 22.7289C37.8456 22.8292 38.0649 22.8669 38.28 22.8365C38.4951 22.8659 38.7141 22.8283 38.9069 22.7289C39.2148 22.5683 39.4661 22.3181 39.6274 22.0115C39.7161 21.8364 39.7678 21.6451 39.7793 21.4493C39.7909 21.2535 39.762 21.0575 39.6945 20.8733C39.627 20.6891 39.5222 20.5206 39.3868 20.3783C39.2513 20.2359 39.088 20.1228 38.9069 20.0457C38.7306 19.9494 38.5314 19.9023 38.3304 19.9094C38.1454 19.8956 37.9595 19.9176 37.7828 19.974V19.974ZM33.9281 20.0457C33.3506 20.1407 32.8159 20.4085 32.395 20.8135C31.9741 21.2184 31.687 21.7414 31.5719 22.3128C31.5218 22.561 31.4928 22.813 31.4855 23.0661V23.5396H30.4695V24.6301V25.7206H31.4567V30.8789H34.1298V25.7349H35.9455V24.6301V23.5396H34.1442V23.3028C34.1371 23.085 34.2045 22.8712 34.3354 22.6965C34.4663 22.5219 34.653 22.3967 34.8647 22.3415C35.1975 22.2567 35.5477 22.2691 35.8735 22.3774L36.0824 22.4419C36.0824 22.4419 36.0824 21.9397 36.0824 21.3299V20.2179L35.8951 20.1462C35.5178 20.0171 35.1191 19.961 34.7206 19.9812C34.4552 19.9832 34.1903 20.0048 33.9281 20.0457ZM44.8728 23.4105C44.3509 23.5036 43.8817 23.7845 43.5542 24.1996L43.4029 24.4005V23.5396H40.6938V30.8932H43.4029V28.8916C43.4029 27.7365 43.4029 26.7967 43.4029 26.6819C43.439 26.4109 43.563 26.159 43.756 25.9645C43.9447 25.8232 44.1806 25.7592 44.4152 25.7859C44.6497 25.8126 44.8651 25.9279 45.0169 26.108C45.2186 26.4021 45.2186 26.3591 45.2331 28.7194V30.8717H47.935V28.4827C47.935 25.9214 47.935 25.613 47.7837 25.1466C47.674 24.7238 47.4497 24.3391 47.1352 24.0346C46.8796 23.7426 46.548 23.5266 46.1769 23.4105C45.7458 23.3315 45.3039 23.3315 44.8728 23.4105ZM51.7033 23.4105C51.1895 23.4966 50.699 23.687 50.2623 23.97C49.4546 24.5759 48.9105 25.4667 48.742 26.4595C48.6663 26.9998 48.6663 27.5478 48.742 28.0881C48.8425 28.7171 49.0893 29.3141 49.4625 29.8314C49.9413 30.4699 50.6386 30.9115 51.4223 31.0726C51.9192 31.1619 52.4291 31.1497 52.921 31.0367C53.337 30.9244 53.7167 30.7069 54.0234 30.4054L54.2972 30.1543V30.8717H56.9704V23.5396H54.2972V24.3001L54.1171 24.1279C53.7275 23.7396 53.2218 23.4878 52.676 23.4105C52.3545 23.3592 52.0282 23.3447 51.7033 23.3674V23.4105ZM62.1941 23.4105C61.6833 23.53 61.2254 23.8121 60.89 24.214L60.7747 24.3646V23.5396H58.0511V30.8932H60.7891V28.8055C60.7891 26.5958 60.7891 26.5528 60.9476 26.2515C61.0176 26.1206 61.1211 26.0104 61.2477 25.9323C61.3742 25.8542 61.5193 25.8108 61.6682 25.8067C61.7835 25.7917 61.9008 25.8048 62.0099 25.8448C62.1191 25.8847 62.2169 25.9504 62.295 26.0362C62.5832 26.3232 62.576 26.2156 62.5832 28.7051V30.8932H65.2852V28.2244C65.2852 25.5843 65.2852 25.5484 65.1987 25.2686C65.1318 25.0551 65.0499 24.8465 64.9537 24.6444C64.8553 24.4186 64.7105 24.2158 64.5286 24.049C64.3008 23.8031 64.0165 23.616 63.7 23.5037C63.2142 23.3456 62.6959 23.3135 62.1941 23.4105V23.4105ZM69.3345 23.4105C68.5739 23.5041 67.8611 23.8304 67.2946 24.3444C66.728 24.8584 66.3356 25.5347 66.1714 26.2802C66.0851 26.5978 66.0534 26.9277 66.0778 27.2559C66.0465 27.72 66.1078 28.1857 66.2579 28.6261C66.4635 29.2457 66.8318 29.7993 67.3247 30.2295C67.8175 30.6596 68.4169 30.9507 69.0607 31.0726C69.3654 31.1231 69.6744 31.1423 69.983 31.13C70.4985 31.1651 71.0149 31.0765 71.4889 30.8717L71.7555 30.7641V28.2387L71.5321 28.3679C71.2256 28.5529 70.8746 28.6521 70.5162 28.6548C70.1859 28.693 69.8517 28.6305 69.5579 28.4755C69.2676 28.3363 69.0356 28.1002 68.9022 27.8083C68.8132 27.6308 68.7781 27.4313 68.8013 27.2343C68.7846 27.0513 68.8118 26.8669 68.8806 26.6963C69.0005 26.4169 69.2021 26.1799 69.4591 26.0161C69.7161 25.8523 70.0166 25.7694 70.3216 25.778C70.8318 25.7444 71.3388 25.8807 71.7627 26.1654C71.7627 26.1654 71.7627 25.6201 71.7627 24.9457V23.7118L71.5465 23.6257C70.8387 23.3716 70.0783 23.2977 69.3345 23.4105V23.4105ZM75.4806 23.4105C74.4966 23.5716 73.6132 24.1048 73.0145 24.8987C72.4157 25.6927 72.148 26.6862 72.267 27.672C72.3123 28.3369 72.5281 28.9791 72.8939 29.5373C73.163 29.9257 73.5065 30.2575 73.9046 30.5136C74.3027 30.7696 74.7477 30.945 75.214 31.0295C75.8999 31.1263 76.596 31.1263 77.2819 31.0295C77.9895 30.8856 78.6415 30.5447 79.1624 30.0466C79.3834 29.8374 79.5705 29.5954 79.7172 29.3292C79.7172 29.3292 79.1913 29.114 78.5716 28.8772L77.4332 28.4324L77.2675 28.6046C77.0993 28.7904 76.878 28.9206 76.6334 28.9777C76.4594 29.0345 76.2756 29.0552 76.0933 29.0386C75.911 29.0219 75.734 28.9682 75.5733 28.8808C75.4126 28.7934 75.2716 28.6742 75.159 28.5304C75.0464 28.3867 74.9646 28.2215 74.9186 28.045V27.9015H77.462H80.0054V27.2917C80.0177 26.9916 79.9984 26.6911 79.9478 26.3949C79.8098 25.644 79.4483 24.9516 78.9103 24.4077C78.4012 23.8907 77.7446 23.5425 77.0297 23.4105C76.5158 23.3386 75.9944 23.3386 75.4806 23.4105V23.4105ZM36.8894 27.22V30.8932H39.613V23.5396H36.8894V27.22ZM76.5686 25.4408C76.7478 25.4848 76.9104 25.5795 77.0369 25.7134C77.1926 25.8485 77.3011 26.0294 77.3467 26.2299V26.3663H76.1434C74.7528 26.3663 74.8609 26.3663 74.9834 26.0793C75.1249 25.7995 75.3637 25.5805 75.6553 25.4631C75.947 25.3456 76.2715 25.3377 76.5686 25.4408V25.4408ZM53.3029 25.8067C53.5016 25.8661 53.6862 25.9647 53.8459 26.0966C54.0055 26.2285 54.137 26.3909 54.2324 26.5743C54.3296 26.7595 54.3849 26.9637 54.3946 27.1724C54.4043 27.3812 54.3681 27.5896 54.2885 27.7829C54.2089 27.9763 54.0878 28.15 53.9338 28.292C53.7797 28.4339 53.5964 28.5406 53.3966 28.6046C53.0757 28.6908 52.7376 28.6908 52.4167 28.6046C52.19 28.5297 51.9841 28.4031 51.8152 28.2349C51.6464 28.0668 51.5192 27.8618 51.4439 27.6361C51.3922 27.4666 51.3751 27.2886 51.3935 27.1124C51.3854 26.9236 51.433 26.7365 51.5304 26.5743C51.6895 26.2606 51.9538 26.0121 52.2775 25.8719C52.6012 25.7318 52.9639 25.7087 53.3029 25.8067V25.8067Z" fill="white"/>
  </g>
  <defs>
    <clipPath id="clip0_3522_285">
      <rect width="85" height="31" fill="white" transform="translate(0 0.0869141)"/>
    </clipPath>
  </defs>
</svg>
