<svg width="156" height="31" viewBox="0 0 156 31" fill="none" xmlns="http://www.w3.org/2000/svg">
  <g clip-path="url(#clip0_3522_308)">
    <path opacity="0.9" d="M18.0497 11.826H6.44641V6.60865H12.8927V0.0869141H18.0497V11.826Z" fill="white"/>
    <path d="M18.0496 18.348V6.60889H23.2066V13.1306H29.6529V18.348H18.0496Z" fill="white"/>
    <path opacity="0.7" d="M11.6032 18.3477H23.2065V23.565H16.7602V30.0868H11.6032V18.3477Z" fill="white"/>
    <path opacity="0.5" d="M11.6033 11.8262V23.5653H6.44628V17.0436H2.25421e-07L0 11.8262H11.6033Z" fill="white"/>
    <path d="M41.5805 19.6936C40.8873 19.0361 40.5407 17.9841 40.5407 16.5377C40.5407 15.5734 40.7141 14.7406 41.0606 14.0393C41.4072 13.338 41.8838 12.812 42.4903 12.4614C43.0969 12.1107 43.7467 11.9354 44.5266 11.9354C45.4364 11.9354 46.2162 12.1545 46.8661 12.5929V8.12207L49.2056 8.3412V20.4825H47.1694L47.0394 19.6936C46.6928 20.0004 46.3029 20.2634 45.8697 20.3949C45.4364 20.5264 44.9598 20.614 44.3533 20.614C43.1835 20.6579 42.2304 20.3072 41.5805 19.6936ZM45.9996 18.7293C46.3029 18.5978 46.5628 18.4224 46.8227 18.1595V14.3462C46.3462 13.9078 45.783 13.6886 45.1331 13.6886C44.3966 13.6886 43.8767 13.9517 43.4868 14.4338C43.1402 14.8721 42.9236 15.5734 42.9236 16.5377C42.9236 17.4143 43.0969 18.028 43.4435 18.3786C43.7901 18.7293 44.31 18.9046 45.0032 18.9046C45.3931 18.9046 45.6963 18.8608 45.9996 18.7293Z" fill="white"/>
    <path d="M52.0647 19.5622C51.2415 18.8171 50.8516 17.7213 50.8516 16.2748C50.8516 14.9161 51.1982 13.8642 51.9347 13.0752C52.6712 12.33 53.711 11.9355 55.054 11.9355C56.3105 11.9355 57.3069 12.2862 58.0001 12.9437C58.6933 13.6011 59.0399 14.5216 59.0399 15.6174V17.1515H53.0178C53.1478 17.809 53.4077 18.2473 53.8843 18.5102C54.3609 18.7733 55.054 18.9047 55.9639 18.9047C56.3971 18.9047 56.8737 18.8609 57.3069 18.7733C57.7402 18.6856 58.1734 18.598 58.4767 18.4664V20.1321C57.6969 20.4827 56.7004 20.658 55.444 20.658C54.0576 20.658 52.8878 20.3074 52.0647 19.5622ZM56.9603 15.6612V15.2229C56.9603 14.1709 56.3538 13.6888 55.1407 13.6888C54.3609 13.6888 53.841 13.8642 53.5377 14.1709C53.2344 14.4778 53.0612 15.0038 53.0612 15.705H56.9603V15.6612Z" fill="white"/>
    <path d="M61.1196 13.9515H59.9498V12.1105H61.1196V10.8395C61.1196 9.9628 61.3795 9.21769 61.8561 8.69171C62.376 8.12191 63.0692 7.85889 64.0223 7.85889C64.7155 7.85889 65.3221 7.99037 65.8855 8.20956V9.83132C65.5387 9.69984 65.1919 9.65602 64.8457 9.65602C64.3256 9.65602 63.979 9.74367 63.8057 9.91897C63.5891 10.0943 63.5024 10.4011 63.5024 10.8833V12.1105H65.1055L64.8889 13.9515H63.5458V20.4824H61.2063V13.9515H61.1196Z" fill="white"/>
    <path d="M72.6872 12.1105H74.7668L74.897 12.8995C75.287 12.5926 75.677 12.3297 76.1102 12.1982C76.5434 12.0228 77.0197 11.979 77.6263 11.979C78.8827 11.979 79.8361 12.3297 80.4427 12.9871C81.0925 13.6884 81.3955 14.7404 81.3955 16.2307C81.3955 17.7209 81.0493 18.8167 80.3557 19.5619C79.6627 20.307 78.7093 20.7015 77.4529 20.7015C76.5002 20.7015 75.7202 20.4823 75.0704 20.044V24.3395H72.731V12.1105H72.6872ZM78.4495 18.2469C78.7963 17.8086 78.9697 17.1073 78.9697 16.1868C78.9697 15.3102 78.7963 14.6527 78.4927 14.2582C78.1466 13.8638 77.6263 13.6884 76.9334 13.6884C76.1966 13.6884 75.59 13.9514 75.0704 14.4336V18.2469C75.3302 18.466 75.59 18.5976 75.8936 18.7291C76.1534 18.8167 76.5002 18.9044 76.8463 18.9044C77.54 18.9044 78.1027 18.6852 78.4495 18.2469Z" fill="white"/>
    <path d="M82.9985 12.1109H85.1645L85.2515 12.9875C85.6415 12.7245 86.1179 12.5054 86.6375 12.33C87.2009 12.1547 87.7211 12.0232 88.2407 11.9355V13.7326C87.7211 13.8203 87.2009 13.908 86.6375 14.0833C86.0747 14.2586 85.5977 14.434 85.2947 14.6093V20.4388H82.9985V12.1109Z" fill="white"/>
    <path d="M90.8405 13.8637H89.5842L89.8008 12.1104H93.1799V20.4822H90.8405V13.8637Z" fill="white"/>
    <path d="M95.2161 12.1109H97.382L97.469 12.9437C98.3354 12.2862 99.2882 11.9355 100.285 11.9355C100.848 11.9355 101.281 12.0232 101.628 12.1985C101.974 12.3739 102.191 12.6368 102.408 12.9875C102.841 12.6368 103.274 12.4177 103.794 12.2424C104.271 12.067 104.877 11.9794 105.484 11.9794C106.437 11.9794 107.13 12.2424 107.606 12.7245C108.083 13.2066 108.3 13.9956 108.3 15.0038V20.5265H105.96V15.2667C105.96 14.7407 105.831 14.3463 105.614 14.0833C105.397 13.8203 105.007 13.7326 104.487 13.7326C104.141 13.7326 103.837 13.8203 103.534 13.9518C103.231 14.0833 102.971 14.2586 102.754 14.5216C102.798 14.7407 102.841 14.9599 102.841 15.2667V20.5703H100.632V15.3105C100.632 14.7846 100.545 14.3901 100.372 14.1271C100.198 13.8642 99.8516 13.7764 99.3752 13.7764C98.7686 13.7764 98.162 14.0833 97.5554 14.6969V20.6142H95.2161V12.1109Z" fill="white"/>
    <path d="M111.073 19.5622C110.25 18.8171 109.86 17.7213 109.86 16.2748C109.86 14.9161 110.206 13.8642 110.943 13.0752C111.679 12.33 112.719 11.9355 114.062 11.9355C115.318 11.9355 116.315 12.2862 117.009 12.9437C117.702 13.6011 118.048 14.5216 118.048 15.6174V17.1515H112.026C112.156 17.809 112.416 18.2473 112.893 18.5102C113.369 18.7733 114.062 18.9047 114.972 18.9047C115.405 18.9047 115.882 18.8609 116.315 18.7733C116.748 18.6856 117.181 18.598 117.485 18.4664V20.1321C116.705 20.4827 115.708 20.658 114.452 20.658C113.066 20.658 111.896 20.3074 111.073 19.5622ZM115.969 15.6612V15.2229C115.969 14.1709 115.362 13.6888 114.149 13.6888C113.369 13.6888 112.849 13.8642 112.546 14.1709C112.243 14.4778 112.069 15.0038 112.069 15.705H115.969V15.6612Z" fill="white"/>
    <path d="M125.587 19.5619C124.807 18.8167 124.417 17.7209 124.417 16.3183C124.417 14.8719 124.85 13.7761 125.673 13.0748C126.496 12.3297 127.623 11.979 129.096 11.979C129.659 11.979 130.179 12.0228 130.612 12.1105C131.045 12.1982 131.435 12.3297 131.825 12.505V14.2144C131.176 13.9076 130.439 13.7761 129.572 13.7761C128.663 13.7761 127.969 13.9514 127.536 14.3459C127.103 14.7404 126.843 15.3979 126.843 16.3621C126.843 17.2826 127.06 17.9401 127.493 18.3346C127.926 18.7291 128.619 18.9482 129.572 18.9482C130.439 18.9482 131.176 18.7729 131.869 18.466V20.2194C131.089 20.57 130.136 20.7453 129.052 20.7453C127.536 20.6577 126.41 20.2632 125.587 19.5619Z" fill="white"/>
    <path d="M132.518 16.2747C132.518 14.8722 132.908 13.7763 133.645 13.0312C134.381 12.2861 135.507 11.8916 137.024 11.8916C138.54 11.8916 139.666 12.2861 140.403 13.0312C141.14 13.7763 141.529 14.8722 141.529 16.2747C141.529 19.1676 140.013 20.6579 137.024 20.6579C133.991 20.6579 132.518 19.2115 132.518 16.2747ZM138.626 18.0719C138.93 17.7212 139.103 17.1076 139.103 16.2747C139.103 15.442 138.93 14.8283 138.626 14.4777C138.323 14.127 137.76 13.9517 136.981 13.9517C136.244 13.9517 135.68 14.127 135.377 14.4777C135.074 14.8283 134.901 15.442 134.901 16.2747C134.901 17.1076 135.074 17.7212 135.377 18.0719C135.68 18.4225 136.244 18.5978 136.981 18.5978C137.76 18.6417 138.28 18.4663 138.626 18.0719Z" fill="white"/>
    <path d="M142.916 12.1109H145.082L145.169 12.9437C146.035 12.2862 146.989 11.9355 147.985 11.9355C148.548 11.9355 148.981 12.0232 149.328 12.1985C149.675 12.3739 149.891 12.6368 150.108 12.9875C150.541 12.6368 150.974 12.4177 151.494 12.2424C151.971 12.067 152.578 11.9794 153.184 11.9794C154.137 11.9794 154.83 12.2424 155.307 12.7245C155.74 13.2066 156 13.9956 156 15.0038V20.5265H153.661V15.2667C153.661 14.7407 153.53 14.3463 153.314 14.0833C153.097 13.8203 152.707 13.7326 152.188 13.7326C151.841 13.7326 151.538 13.8203 151.234 13.9518C150.931 14.0833 150.671 14.2586 150.454 14.5216C150.498 14.7407 150.541 14.9599 150.541 15.2667V20.5703H148.331V15.3105C148.331 14.7846 148.245 14.3901 148.072 14.1271C147.898 13.8642 147.551 13.7764 147.075 13.7764C146.468 13.7764 145.862 14.0833 145.255 14.6969V20.6142H142.916V12.1109Z" fill="white"/>
    <path d="M93.223 8.16553H90.8405V10.5762H93.223V8.16553Z" fill="white"/>
    <path d="M67.7486 13.8637H66.3188L66.5354 12.1104H70.1311V20.4822H67.7918V13.8637H67.7486Z" fill="white"/>
    <path d="M122.554 18.1157H120.171V20.5264H122.554V18.1157Z" fill="white"/>
  </g>
  <defs>
    <clipPath id="clip0_3522_308">
      <rect width="156" height="30" fill="white" transform="translate(0 0.0869141)"/>
    </clipPath>
  </defs>
</svg>
