<svg xmlns="http://www.w3.org/2000/svg" viewBox="0 0 675.14 176.88"><defs><style>.cls-1{fill:#fff;}</style></defs><title>bigcoin_logo_white</title><g id="Слой_2" data-name="Слой 2"><g id="Layer_1" data-name="Layer 1"><path class="cls-1" d="M258.8,48.54q5.32,1,7.69,3.64c1.57,1.78,2.36,4.35,2.36,7.73v6a38.61,38.61,0,0,1-.21,4.66,9.46,9.46,0,0,1-.94,3,7.25,7.25,0,0,1-3.9,4,20.84,20.84,0,0,1-7.94,1.17H205.54V20.57h50a30,30,0,0,1,5.15.34,10.84,10.84,0,0,1,3.54,1.32,7.34,7.34,0,0,1,3.38,3.83,22,22,0,0,1,.92,7.33v5.23q0,4.6-2.15,6.84C264.92,47,262.41,48,258.8,48.54ZM249.31,43a7.26,7.26,0,0,0,4.36-1,3.83,3.83,0,0,0,1.3-3.25v-1a3.73,3.73,0,0,0-1.3-3.22,7.55,7.55,0,0,0-4.36-.95H219V43Zm.34,22.86a7.27,7.27,0,0,0,4.36-1,3.85,3.85,0,0,0,1.3-3.26V59.44a3.72,3.72,0,0,0-1.3-3.21,7.54,7.54,0,0,0-4.36-1H219V65.83Z"/><path class="cls-1" d="M285.45,20.57H299V78.73h-13.5Z"/><path class="cls-1" d="M371,38.54v-5H328.87V65.83H371V57.1h-21.8V44.71h35.3V65.92a23.47,23.47,0,0,1-.66,6,8.74,8.74,0,0,1-2.17,4,8.65,8.65,0,0,1-4,2.17,23.61,23.61,0,0,1-6,.66H328.1a23,23,0,0,1-6-.66A8.08,8.08,0,0,1,316,71.94a23.47,23.47,0,0,1-.66-6V33.39q0-7.08,2.83-9.95t9.9-2.87h43.6a22.19,22.19,0,0,1,6,.7,9.24,9.24,0,0,1,4,2.17,8.44,8.44,0,0,1,2.17,4,23.66,23.66,0,0,1,.66,6v2.34Z"/><path class="cls-1" d="M455.65,42.71V33.56H413.5V65.83h42.15V55.27l13.49,2.9v7.75a23.47,23.47,0,0,1-.66,6,8.65,8.65,0,0,1-2.17,4,8.55,8.55,0,0,1-4,2.17,23.47,23.47,0,0,1-6,.66h-43.6a22.93,22.93,0,0,1-6-.66,8.08,8.08,0,0,1-6.09-6.13,23.47,23.47,0,0,1-.66-6V33.39q0-7.08,2.83-9.95t9.9-2.87h43.6a22.06,22.06,0,0,1,6,.7,9.12,9.12,0,0,1,4,2.17,8.35,8.35,0,0,1,2.17,4,23.66,23.66,0,0,1,.66,6v6.47Z"/><path class="cls-1" d="M553.22,65.92a23.47,23.47,0,0,1-.66,6,8.05,8.05,0,0,1-6.13,6.13,23.5,23.5,0,0,1-6,.66H496.8a23,23,0,0,1-6-.66,8.08,8.08,0,0,1-6.09-6.13,23.47,23.47,0,0,1-.66-6V33.39q0-7.08,2.83-9.95t9.9-2.87h43.6a22.09,22.09,0,0,1,6,.7,9.24,9.24,0,0,1,4,2.17,8.35,8.35,0,0,1,2.17,4,23.66,23.66,0,0,1,.66,6Zm-13.5-.09V33.56H497.57V65.83Z"/><path class="cls-1" d="M571.92,20.57h13.49V78.73H571.92Z"/><path class="cls-1" d="M604.08,20.57h10.56l47,39.6V20.57h13.49V78.73H664.58l-47-39.51V78.73h-13.5Z"/><path class="cls-1" d="M260,124v-9.15H217.88v32.27H260V136.56l13.49,2.9v7.75a23.47,23.47,0,0,1-.66,6,8.05,8.05,0,0,1-6.13,6.13,23.47,23.47,0,0,1-6,.66h-43.6a23.07,23.07,0,0,1-6-.66,8.09,8.09,0,0,1-6.08-6.13,23.47,23.47,0,0,1-.66-6V114.68q0-7.07,2.83-10t9.9-2.87h43.6a22.46,22.46,0,0,1,6,.7,9.34,9.34,0,0,1,4,2.17,8.35,8.35,0,0,1,2.17,4,23.71,23.71,0,0,1,.66,6v6.47Z"/><path class="cls-1" d="M311.83,101.86H324.9L358.24,160H343l-6.77-12.73H299.35L292.45,160H279Zm17.79,33-11.7-21.71L306.08,134.9Z"/><path class="cls-1" d="M364.73,101.86h49.85a30.39,30.39,0,0,1,5.2.34,10.7,10.7,0,0,1,3.53,1.32,7.36,7.36,0,0,1,3.39,3.83,22.08,22.08,0,0,1,.91,7.33v10.64a35,35,0,0,1-.23,4.58,11.43,11.43,0,0,1-.92,3.09,7.21,7.21,0,0,1-3.93,3.93,21.43,21.43,0,0,1-7.95,1.13H378.22v22H364.73Zm43.68,23.89a7.32,7.32,0,0,0,4.36-1,3.86,3.86,0,0,0,1.3-3.26V119a3.74,3.74,0,0,0-1.3-3.22,7.61,7.61,0,0,0-4.36-1H378.22v10.9Z"/><path class="cls-1" d="M441.6,101.86h13.49V160H441.6Z"/><path class="cls-1" d="M505.39,160H491.81V114.85h-26.7v-13h67v13h-26.7Z"/><path class="cls-1" d="M565.15,101.86h13.07L611.56,160h-15.2l-6.77-12.73H552.67L545.77,160H532.28Zm17.79,33-11.7-21.71L559.4,134.9Z"/><path class="cls-1" d="M618.05,101.86h13.49v45.26h43.6V160H618.05Z"/><rect class="cls-1" x="108.54" y="36.18" width="36.18" height="36.18" rx="8.12"/><rect class="cls-1" x="24.12" y="104.52" width="48.24" height="48.24" rx="11.58"/><path class="cls-1" d="M85.08,0H11.39A11.43,11.43,0,0,0,0,11.39V85.08a11.43,11.43,0,0,0,11.39,11.4H85.08a11.43,11.43,0,0,0,11.4-11.4V11.39A11.43,11.43,0,0,0,85.08,0ZM68.59,75.37H12.06v-9H68.59a6.79,6.79,0,0,0,0-13.57H37.69a4.52,4.52,0,1,1,0-9H62.62a6.79,6.79,0,0,0,0-13.57H12.06v-9H62.62A15.82,15.82,0,0,1,75.87,45.49a15.83,15.83,0,0,1-7.28,29.88ZM36,56.53H47.85a14.32,14.32,0,1,1,0-16.58H36a8.29,8.29,0,0,0,0,16.58Z"/><path class="cls-1" d="M165.48,80.4H102.81v4.68a17.75,17.75,0,0,1-17.73,17.73H80.4v62.67a11.43,11.43,0,0,0,11.39,11.4h73.69a11.43,11.43,0,0,0,11.4-11.4V91.79A11.43,11.43,0,0,0,165.48,80.4Zm-8.7,30.92H126.47a17.32,17.32,0,0,0,0,34.63h30.31v8.66H126.47a26,26,0,1,1,0-52h30.31Z"/></g></g></svg>