<?xml version="1.0" encoding="utf-8"?>
<!-- Generator: Adobe Illustrator 24.0.1, SVG Export Plug-In . SVG Version: 6.00 Build 0)  -->
<svg version="1.1" id="Слой_1" xmlns="http://www.w3.org/2000/svg" xmlns:xlink="http://www.w3.org/1999/xlink" x="0px" y="0px"
	 viewBox="0 0 280 104" style="enable-background:new 0 0 280 104;" xml:space="preserve">
<style type="text/css">
	.st0{fill-rule:evenodd;clip-rule:evenodd;fill:#6772E5;}
	.st1{opacity:0.2;fill-rule:evenodd;clip-rule:evenodd;fill:#224099;enable-background:new    ;}
	.st2{fill-rule:evenodd;clip-rule:evenodd;fill:#FFFFFF;}
	.st3{opacity:0.2;fill-rule:evenodd;clip-rule:evenodd;fill:#D1D2D4;enable-background:new    ;}
	.st4{opacity:0.2;fill-rule:evenodd;clip-rule:evenodd;fill:#BCBDBF;enable-background:new    ;}
	.st5{fill:#FFFFFF;}
</style>
<path class="st0" d="M63.1,3.7c2.5,6.6-5.3,13.4-8.9,12.1c-1.5-0.6-3-1.2-4.3-1.1c-0.8,0.1-1.5,0.4-2.2,0.8l2.1,2.7
	c0,0,4.5,2.7,7.1,4.3c0.3,0.2,0.7,0.3,1.1,0.2C66,20.8,68.3,7.8,63.1,3.7z"/>
<path class="st0" d="M73.7,76.6c-21.9-4.2-44.2-28-31-29.4c8.1-0.8,8.6-10.6,20.2-5.4c0.3,0.1,0.7,0.2,1,0.2c0.4,0,0.7-0.1,1-0.2
	c0.3-0.1,0.6-0.3,0.9-0.6c0.3-0.3,0.5-0.6,0.6-0.9l2.5-6c0.6-1.7,0.5-4.2-0.7-5.4c-1.4-1.5-4.7-1.1-6.2-2c-3.5-2.1-12.4-7.7-13-8.1
	c-0.6-0.3-2-3-2.6-3.3c-0.9-0.5-1.9-0.9-2.9-1.2c-1.5-0.3-3-0.2-4.4,0.3C33.8,16.5,13,22.4,21.8,0.1c0,0-19.8,17.3-1,26.4
	c0.1,0.1,0.3,0.2,0.4,0.3c0.1,0.1,0.1,0.3,0.2,0.5c0,0.2,0,0.3-0.1,0.5c-0.1,0.2-0.2,0.3-0.3,0.4C15,31.9-6.3,46.4,1.9,77.8
	c5.7,10.7,21.2,19.4,42,25.5C51.2,100.5,69.9,85,73.7,76.6z"/>
<path class="st1" d="M42.7,47.2c8.1-0.8,8.6-10.6,20.2-5.4c0.3,0.1,0.7,0.2,1,0.2c0.4,0,0.7-0.1,1-0.2c0.3-0.1,0.6-0.3,0.9-0.6
	c0.3-0.3,0.5-0.6,0.6-0.9l2.5-6c0.6-1.7,0.5-4.2-0.7-5.4c-0.8-0.8-2.1-1-3.6-1.3c6.1,2.4,0.6,10.8-1.3,10.7
	c-2.2-0.1-5.9-4.7-10.4-4.8c-4.5-0.1-7.1,7.9-13.1,8.4c-9.2,0.8-9.8-11.3-15.4-6c-5.6,5.3-23.4,43.6,19.4,67.2
	c7.3-2.8,26.1-18.3,29.8-26.7C51.8,72.4,29.4,48.6,42.7,47.2z"/>
<path class="st2" d="M63.1,3.7c2.5,6.6-5.3,13.4-8.9,12.1c-1.5-0.6-3-1.2-4.3-1.1c-0.8,0.1-1.5,0.4-2.2,0.8l2.1,2.7
	c0,0,4.5,2.7,7.1,4.3c0.3,0.2,0.7,0.3,1.1,0.2C66,20.8,68.3,7.8,63.1,3.7z"/>
<path class="st2" d="M73.7,76.6c-21.9-4.2-44.2-28-31-29.4c8.1-0.8,8.6-10.6,20.2-5.4c0.3,0.1,0.7,0.2,1,0.2c0.4,0,0.7-0.1,1-0.2
	c0.3-0.1,0.6-0.3,0.9-0.6c0.3-0.3,0.5-0.6,0.6-0.9l2.5-6c0.6-1.7,0.5-4.2-0.7-5.4c-1.4-1.5-4.7-1.1-6.2-2c-3.5-2.1-12.4-7.7-13-8.1
	c-0.6-0.3-2-3-2.6-3.3c-0.9-0.5-1.9-0.9-2.9-1.2c-1.5-0.3-3-0.2-4.4,0.3C33.8,16.5,13,22.4,21.8,0.1c0,0-19.8,17.3-1,26.4
	c0.1,0.1,0.3,0.2,0.4,0.3c0.1,0.1,0.1,0.3,0.2,0.5c0,0.2,0,0.3-0.1,0.5c-0.1,0.2-0.2,0.3-0.3,0.4C15,31.9-6.3,46.4,1.9,77.8
	c5.7,10.7,21.2,19.4,42,25.5C51.2,100.5,69.9,85,73.7,76.6z"/>
<path class="st3" d="M42.7,47.2c8.1-0.8,8.6-10.6,20.2-5.4c0.3,0.1,0.7,0.2,1,0.2c0.4,0,0.7-0.1,1-0.2c0.3-0.1,0.6-0.3,0.9-0.6
	c0.3-0.3,0.5-0.6,0.6-0.9l2.5-6c0.6-1.7,0.5-4.2-0.7-5.4c-0.8-0.8-2.1-1-3.6-1.3c6.1,2.4,0.6,10.8-1.3,10.7
	c-2.2-0.1-5.9-4.7-10.4-4.8c-4.5-0.1-7.1,7.9-13.1,8.4c-9.2,0.8-9.8-11.3-15.4-6c-5.6,5.3-23.4,43.6,19.4,67.2
	c7.3-2.8,26.1-18.3,29.8-26.7C51.8,72.4,29.4,48.6,42.7,47.2z"/>
<path class="st4" d="M73.7,76.6c-20.5-3.9-41.4-25.1-33.1-28.9c-4.5,1.9-10.2,9.5-10.2,22.1c0,13.4,8.6,27.3,13.5,33.5
	c7-2.7,24.4-16.9,29.2-25.5C73.5,77,73.7,76.6,73.7,76.6L73.7,76.6z"/>
<path class="st5" d="M114.7,77.2h6.9c-0.8,3.5-2.9,6.7-5.8,8.8c-2.8,2.1-6.4,3.2-10.7,3.2c-5.2,0-9.3-1.7-12.2-5.1
	c-2.9-3.3-4.4-8-4.4-14.2c0-5.9,1.4-10.5,4.3-13.8c2.9-3.4,7-5.1,12.2-5.1c5.5,0,9.8,1.7,12.8,5c2.9,3.4,4.4,8.1,4.4,14.2v1.5
	c0,0.3,0,0.7-0.1,1H98.2c0.1,2.8,0.8,5,2.1,6.3c1.2,1.5,3,2.2,5.4,2.2c1.4,0,2.8-0.3,4-1c0.3-0.1,0.5-0.3,0.8-0.5l0.8-0.8
	c0.2-0.5,0.6-0.8,1-1.1C112.9,77.4,113.8,77.2,114.7,77.2z M98.2,66.5h14c-0.2-2.5-0.8-4.3-1.9-5.5c-0.7-0.7-1.5-1.2-2.3-1.5
	c-0.9-0.3-1.8-0.5-2.7-0.4c-0.9,0-1.8,0.1-2.7,0.5c-0.9,0.3-1.6,0.8-2.3,1.5C98.9,62.5,98.1,64.5,98.2,66.5z"/>
<path class="st5" d="M123.6,88.5v-7.3l19.7-21.7h-13.9c-0.6,0-1.2-0.1-1.8-0.3c-0.6-0.2-1.1-0.6-1.5-1c-0.4-0.4-0.8-0.9-1-1.5
	c-0.2-0.6-0.4-1.2-0.3-1.8v-3.1h30v7.8l-19.4,20.8h20.1v8H123.6z"/>
<path class="st5" d="M157,88.5V46.1c0-0.7,0.1-1.3,0.4-1.9c0.2-0.6,0.6-1.1,1.1-1.6c0.5-0.5,1-0.8,1.6-1.1c0.6-0.2,1.2-0.4,1.9-0.4
	h13.6c7.2,0,12.7,1.9,16.2,5.8c3.6,4,5.4,10,5.4,17.9c0.1,3.9-0.6,7.8-1.9,11.4c-1.2,3.1-3.2,5.9-5.8,8c-1.9,1.5-4.1,2.6-6.5,3.3
	c-2.2,0.6-5.5,1-10,1H157z M166.5,80h7.8c4.5,0,7.8-1.2,9.9-3.6c2-2.2,3-6.1,3-11.6c0-5.3-1-9.2-2.9-11.7c-1.9-2.5-4.9-3.7-8.8-3.7
	h-9.1V80z"/>
<path class="st5" d="M224.5,77.2h6.9c-0.8,3.5-2.9,6.7-5.8,8.8c-2.8,2.1-6.4,3.2-10.7,3.2c-5.2,0-9.3-1.7-12.2-5.1
	c-2.9-3.3-4.4-8.1-4.4-14.2c0-5.9,1.4-10.5,4.3-13.8c2.9-3.4,7-5.1,12.2-5.1c5.5,0,9.8,1.7,12.8,5c2.9,3.4,4.4,8.1,4.4,14.2v1.5
	c0,0.3,0,0.6-0.1,0.9H208c0.1,2.8,0.8,5,2.1,6.3c1.3,1.4,3,2.2,5.4,2.2c1.4,0,2.8-0.3,4-0.9c0.3-0.1,0.5-0.3,0.8-0.5L221,79
	c0.2-0.4,0.6-0.8,1-1.1C222.7,77.4,223.6,77.2,224.5,77.2z M208,66.5h14c-0.2-2.5-0.8-4.3-1.9-5.5c-0.7-0.7-1.5-1.2-2.3-1.5
	c-0.9-0.3-1.8-0.5-2.7-0.4c-0.9,0-1.8,0.1-2.7,0.4c-0.9,0.3-1.6,0.8-2.3,1.5C208.7,62.5,208,64.5,208,66.5z"/>
<path class="st5" d="M233.5,88.5V46.1c0-0.7,0.1-1.3,0.4-1.9c0.2-0.6,0.6-1.1,1.1-1.6c0.5-0.5,1-0.8,1.6-1.1
	c0.6-0.2,1.2-0.4,1.9-0.4h29.5v8.1h-24.8v10.2h18.4v3.2c0,0.6-0.1,1.3-0.4,1.9c-0.2,0.6-0.6,1.1-1.1,1.6c-0.5,0.5-1,0.8-1.6,1.1
	c-0.6,0.3-1.2,0.4-1.9,0.4h-13.5v20.9L233.5,88.5z"/>
<path class="st5" d="M270.4,41.2h5c1.2,0,2.4,0.5,3.3,1.4c0.9,0.9,1.4,2.1,1.4,3.3v2.9h-9.6V41.2z M270.4,51.9h5
	c1.2,0,2.4,0.5,3.3,1.4c0.9,0.9,1.4,2.1,1.4,3.3v31.9h-9.6V51.9z"/>
</svg>
