<?xml version="1.0" encoding="utf-8"?>
<!-- Generator: Adobe Illustrator 24.0.1, SVG Export Plug-In . SVG Version: 6.00 Build 0)  -->
<svg version="1.1" width="140" height="32" id="Layer_1" xmlns="http://www.w3.org/2000/svg" xmlns:xlink="http://www.w3.org/1999/xlink" x="0px" y="0px"
	 viewBox="0 0 21.3 4.9" style="enable-background:new 0 0 21.3 4.9;" xml:space="preserve">
<style type="text/css">
	.st0{fill:#8247E5;}
</style>
<g>
	<path class="st0" d="M8.3,1.5c0.1,0.1,0.2,0.2,0.3,0.3c0.1,0.1,0.1,0.3,0.1,0.5s0,0.4-0.1,0.5c0,0.3-0.2,0.4-0.3,0.5
		C8.1,3.3,8,3.4,7.8,3.4c-0.1,0-0.2,0-0.3-0.1c-0.1,0-0.2-0.1-0.3-0.1v1H6.6V1.5h0.5l0.1,0.2c0.2-0.2,0.4-0.3,0.7-0.3
		C8,1.4,8.2,1.4,8.3,1.5z M8,2.8c0.1-0.1,0.2-0.2,0.2-0.4S8.1,2.1,8,2C7.9,1.9,7.8,1.9,7.7,1.9c-0.1,0-0.2,0-0.3,0.1
		C7.3,2,7.3,2.1,7.2,2.2v0.4c0,0.1,0.1,0.2,0.2,0.2c0,0.1,0.1,0.1,0.2,0.1C7.8,2.9,7.9,2.9,8,2.8z"/>
	<path class="st0" d="M9.1,1.9c0.1-0.1,0.2-0.3,0.4-0.3C9.7,1.5,9.8,1.5,10,1.5s0.4,0,0.5,0.1s0.3,0.2,0.4,0.4C11,2.1,11,2.3,11,2.5
		c0,0.2,0,0.3-0.1,0.5c-0.1,0.1-0.2,0.3-0.4,0.3c-0.1,0.1-0.3,0.1-0.5,0.1s-0.4,0-0.5-0.1S9.2,3.1,9.1,3C9,2.9,9,2.7,9,2.5
		C9,2.2,9,2,9.1,1.9z M9.7,2.8C9.8,2.9,9.9,2.9,10,2.9s0.2-0.1,0.3-0.1s0.1-0.2,0.1-0.4c0-0.2,0-0.3-0.1-0.4S10.1,1.9,10,1.9
		S9.8,2,9.7,2C9.6,2.1,9.6,2.2,9.6,2.4C9.6,2.5,9.6,2.7,9.7,2.8z"/>
	<path class="st0" d="M12,0v3.3h-0.6V0H12z"/>
	<path class="st0" d="M14.4,1.5l-1.2,2.7h-0.6l0.4-1l-0.8-1.7h0.7l0.5,1.1l0.5-1.1C13.8,1.5,14.4,1.5,14.4,1.5z"/>
	<path class="st0" d="M16.6,1.5v1.8c0,0.2,0,0.3-0.1,0.5S16.3,4,16.1,4.1s-0.4,0.1-0.6,0.1c-0.1,0-0.3,0-0.4-0.1
		C15,4.1,14.9,4,14.8,4c-0.1,0-0.2-0.1-0.3-0.2l0.3-0.4c0.2,0.2,0.3,0.2,0.4,0.3s0.2,0.1,0.3,0.1c0.1,0,0.3,0,0.4-0.1S16,3.5,16,3.4
		V3.1c-0.1,0.1-0.1,0.2-0.3,0.2c-0.1,0.1-0.3,0.1-0.4,0.1s-0.3,0-0.5-0.1c-0.1-0.1-0.2-0.2-0.3-0.3c-0.1-0.3-0.1-0.4-0.1-0.6
		s0-0.3,0.1-0.5s0.2-0.3,0.4-0.4c0.1-0.1,0.3-0.1,0.4-0.1s0.3,0,0.4,0.1c0.1,0,0.2,0.1,0.3,0.2l0.1-0.1L16.6,1.5L16.6,1.5z M16,2.6
		V2.2C16,2.1,15.9,2,15.8,2s-0.2-0.1-0.3-0.1c-0.1,0-0.3,0.1-0.4,0.1C15,2.1,15,2.2,15,2.4c0,0.1,0,0.3,0.1,0.4
		C15.2,2.9,15.3,3,15.5,3C15.7,2.9,15.9,2.8,16,2.6z"/>
	<path class="st0" d="M17.1,1.9c0.1-0.2,0.2-0.3,0.3-0.4c0.2-0.1,0.3-0.1,0.5-0.1s0.4,0,0.5,0.1s0.3,0.2,0.4,0.3
		c0.1,0.2,0.1,0.3,0.1,0.5s0,0.4-0.1,0.5c-0.1,0.2-0.2,0.3-0.4,0.4c-0.1,0.1-0.3,0.1-0.5,0.1s-0.4,0-0.5-0.1C17.2,3.1,17.1,3,17,2.9
		c-0.1-0.2-0.1-0.3-0.1-0.5C16.9,2.2,17,2,17.1,1.9z M17.6,2.8c0.1,0.1,0.2,0.1,0.3,0.1s0.2-0.1,0.3-0.1s0.2-0.3,0.2-0.4
		c0-0.2,0-0.3-0.1-0.4S18.1,1.9,18,1.9S17.8,2,17.7,2c-0.1,0.1-0.1,0.2-0.1,0.4C17.5,2.5,17.6,2.7,17.6,2.8z"/>
	<path class="st0" d="M21.1,1.6c0.1,0.1,0.2,0.2,0.2,0.4v1.4h-0.6V2.2c0-0.2-0.1-0.3-0.3-0.3c-0.1,0-0.2,0.1-0.3,0.2
		s-0.2,0.3-0.2,0.5v0.7h-0.5V1.5h0.5v0.3c0.1-0.1,0.2-0.2,0.3-0.3c0.1-0.1,0.3-0.1,0.4-0.1C20.8,1.4,20.9,1.5,21.1,1.6z"/>
</g>
<path class="st0" d="M4.1,1.5C4,1.4,3.9,1.4,3.8,1.5L3,1.9L2.5,2.2L1.7,2.7c-0.1,0.1-0.2,0.1-0.3,0L0.7,2.3C0.6,2.3,0.6,2.2,0.6,2
	V1.3c0-0.1,0.1-0.2,0.2-0.3l0.6-0.3c0.1-0.1,0.2-0.1,0.3,0L2.3,1c0.1,0.1,0.2,0.2,0.2,0.3v0.5L3,1.5V1c0-0.1-0.1-0.2-0.2-0.3
	L1.7,0.1C1.6,0,1.5,0,1.4,0.1L0.2,0.7C0.1,0.8,0,0.9,0,1v1.3c0,0.2,0.1,0.3,0.2,0.3l1.2,0.7c0.1,0.1,0.2,0.1,0.3,0l0.8-0.4L3,2.6
	l0.8-0.4c0.1-0.1,0.2-0.1,0.3,0l0.6,0.3c0.1,0,0.2,0.1,0.2,0.2v0.7c0,0.1-0.1,0.2-0.2,0.3L4.1,4.1C4,4.2,3.9,4.2,3.8,4.1L3.2,3.7
	C3.1,3.7,3,3.6,3,3.5V3L2.5,3.3v0.5c0,0.1,0.1,0.2,0.2,0.3l1.2,0.7c0.1,0.1,0.2,0.1,0.3,0l1.2-0.7c0-0.1,0.1-0.2,0.1-0.3V2.4
	c0-0.1-0.1-0.2-0.2-0.3L4.1,1.5z"/>
</svg>
