<?xml version="1.0" encoding="utf-8"?>
<!-- Generator: Adobe Illustrator 24.0.1, SVG Export Plug-In . SVG Version: 6.00 Build 0)  -->
<svg version="1.1" id="Слой_1" xmlns="http://www.w3.org/2000/svg" xmlns:xlink="http://www.w3.org/1999/xlink" x="0px" y="0px"
	 viewBox="0 0 175 60" style="enable-background:new 0 0 175 60;" xml:space="preserve">
<style type="text/css">
	.st0{clip-path:url(#SVGID_2_);}
	.st1{fill:#FFFFFF;}
	.st2{opacity:0.2;fill-rule:evenodd;clip-rule:evenodd;fill:#EAEAEA;enable-background:new    ;}
	.st3{fill:#C23A76;}
	.st4{fill:#F24B93;}
</style>
<g>
	<defs>
		<rect id="SVGID_1_" width="175" height="60"/>
	</defs>
	<clipPath id="SVGID_2_">
		<use xlink:href="#SVGID_1_"  style="overflow:visible;"/>
	</clipPath>
	<g class="st0">
		<path class="st1" d="M49.9,10c0-0.8-0.6-1.5-1.4-1.6c-3.7-0.5-7.4-1.4-11-2.7C34,4.4,30,2.6,25.7,0.2c-0.5-0.3-1-0.3-1.6,0
			C19.9,2.6,16,4.4,12.4,5.8C8.8,7.1,5.2,7.9,1.5,8.5C0.7,8.6,0.1,9.2,0,10c-0.4,15.1,3,27.4,9.9,37c3.8,5.2,8.5,9.5,14.2,12.7
			c0.4,0.3,1.1,0.3,1.6,0c5.7-3.3,10.4-7.5,14.2-12.7C46.9,37.5,50.2,25.1,49.9,10z"/>
		<path class="st2" d="M49.2,22.8c-0.6-0.3-1.2-0.6-1.8-1c-4.4-2.4-8.7-4.7-13.1-7.1c-2.4,2.3-10.9,10.6-10.9,10.6
			s-0.7,18.9-1.3,21.9l8.9,8.9c3.4-2.6,6.3-5.6,8.8-9.1C44.8,40.3,47.9,32.2,49.2,22.8z"/>
		<path class="st3" d="M28.2,24.6l-5.4-0.1l10.4-9.3c0.5-0.5,1.4-0.5,1.9,0.1l2.2,2.6c0.2,0.4,0.2,0.9-0.1,1.3l-3.4,4.6
			C32.4,25.5,30.4,24.7,28.2,24.6z"/>
		<path class="st4" d="M27.6,43.5L23.5,47c-0.8,0.7-2.1,0.1-2.1-1V24.2l6,3.7c0.4,0.2,0.6,0.6,0.6,1.1l0,13.5
			C28,42.9,27.9,43.3,27.6,43.5z"/>
		<path class="st3" d="M28,36.6V29c0-0.4-0.2-0.8-0.6-1.1l-11.5-7.4l-3.1,4.2c-0.4,0.6-0.3,1.4,0.3,1.8L28,36.6z"/>
		<path class="st4" d="M31.9,25.5H13.1c-0.5,0-0.6-0.3-0.4-0.7l3.8-5.4c0.2-0.3,0.6-0.5,1-0.5H37c0.1,0,0.4,0,0.3,0.1l-4.3,6
			C32.7,25.3,32.3,25.5,31.9,25.5z"/>
		<path class="st1" d="M62.4,40.1V27.4h-4.4v-3.9h13.6v3.9h-4.4v12.7H62.4z"/>
		<path class="st1" d="M79.8,40.1H75V23.5h7.4c2.2,0,3.9,0.5,5,1.5c1.1,1,1.7,2.4,1.7,4.1c0,1-0.2,1.9-0.7,2.8
			c-0.5,0.9-1.1,1.5-2,1.9l3.1,6.3h-5.4l-2.6-5.6h-1.6V40.1z M79.8,31.3h2c0.7,0,1.2-0.2,1.6-0.6c0.4-0.4,0.6-0.9,0.6-1.5
			c0-0.6-0.2-1.1-0.6-1.5c-0.4-0.4-0.9-0.6-1.6-0.6h-2L79.8,31.3L79.8,31.3z"/>
		<path class="st1" d="M97.5,33.6c0,0.9,0.2,1.5,0.6,2c0.4,0.5,1,0.7,1.8,0.7c0.8,0,1.4-0.2,1.8-0.7c0.4-0.5,0.6-1.1,0.6-2V23.5h4.9
			v10.7c0,1.9-0.7,3.4-2,4.5c-1.3,1.1-3.1,1.7-5.3,1.7c-2.2,0-4-0.6-5.3-1.7c-1.3-1.1-2-2.6-2-4.5V23.5h4.9L97.5,33.6L97.5,33.6z"/>
		<path class="st1" d="M115.4,35.2c0.1,0.5,0.4,0.8,0.9,1.1c0.5,0.3,1.1,0.4,1.7,0.4c0.7,0,1.3-0.1,1.7-0.4c0.4-0.3,0.6-0.6,0.6-1
			c0-0.4-0.2-0.7-0.5-0.9c-0.3-0.2-1-0.4-1.9-0.5l-2.2-0.4c-1.5-0.3-2.7-0.8-3.5-1.7c-0.8-0.8-1.2-1.9-1.2-3.2c0-1.7,0.6-3,1.9-4
			c1.3-1,2.9-1.5,4.9-1.5c2.2,0,3.9,0.5,5.1,1.4c1.2,0.9,1.8,2.2,1.8,3.8h-4.4c0-0.5-0.2-0.9-0.7-1.2c-0.4-0.3-1-0.4-1.7-0.4
			c-0.6,0-1.1,0.1-1.5,0.4c-0.4,0.2-0.6,0.6-0.6,1c0,0.4,0.2,0.7,0.5,0.9c0.3,0.2,0.9,0.4,1.7,0.6l2.3,0.4c1.6,0.3,2.8,0.8,3.6,1.6
			c0.8,0.8,1.1,1.8,1.1,3.2c0,1.7-0.7,3-2,4c-1.3,1-3.1,1.5-5.3,1.5c-2.2,0-4-0.4-5.2-1.3c-1.3-0.9-1.9-2.2-1.9-3.8H115.4z"/>
		<path class="st1" d="M132.3,40.1V27.4H128v-3.9h13.6v3.9h-4.4v12.7H132.3z"/>
		<path class="st1" d="M156.6,40.1h-11.7V23.5h11.7v3.9h-6.8v2.7h6.4v3.5h-6.4v2.7h6.8V40.1z"/>
		<path class="st1" d="M172.2,40.1h-11.7V23.5h11.7v3.9h-6.8v2.7h6.4v3.5h-6.4v2.7h6.8V40.1z"/>
	</g>
</g>
</svg>
