<svg xmlns="http://www.w3.org/2000/svg" viewBox="0 0 600.1 103.2"><defs><style>.cls-1{fill:#fff;}</style></defs><title>coinmarketcap</title><g id="Слой_2" data-name="Слой 2"><g id="layer"><path class="cls-1" d="M88.4,61.7a5.48,5.48,0,0,1-5.5.4c-2-1.2-3.2-3.9-3.2-7.6V43.2c0-5.4-2.1-9.3-5.7-10.3-6.1-1.8-10.7,5.7-12.4,8.5L50.8,58.7V37.4c-.1-4.9-1.7-7.8-4.7-8.7-2-.6-5-.3-7.9,4.1L14.1,71.4A42.66,42.66,0,0,1,9.2,51.6C9.2,28.3,27.9,9.4,50.8,9.4S92.4,28.3,92.4,51.6v.2c.2,4.5-1.2,8.1-4,9.9Zm13.2-10.1h0v-.2C101.5,23.1,78.7,0,50.8,0S0,23.1,0,51.6s22.8,51.6,50.8,51.6A49.92,49.92,0,0,0,85.3,89.4,4.67,4.67,0,0,0,79,82.5l-.1.1a41.09,41.09,0,0,1-59.2-2.7L41.4,45.1V61.2c0,7.7,3,10.2,5.5,10.9s6.3.2,10.4-6.3L69.2,46.5a11.07,11.07,0,0,1,1.1-1.6v9.8c0,7.2,2.9,13,7.9,15.8a14.53,14.53,0,0,0,14.9-.6C98.9,66.1,102,59.5,101.6,51.6ZM172.4,34a5,5,0,0,1,2.3,3.9,4.42,4.42,0,0,1-4.3,4.4,7.58,7.58,0,0,1-1.6-.3,16.43,16.43,0,0,0-9.7-3.3c-8.5,0-14.3,6.9-14.3,15.5s5.9,15.4,14.3,15.4a15.53,15.53,0,0,0,10.8-4.4,4.38,4.38,0,0,1,2.5-.8,4.06,4.06,0,0,1,4.1,4.1,4.26,4.26,0,0,1-2,3.5,23.74,23.74,0,1,1-15.3-42A22.6,22.6,0,0,1,172.4,34Zm23.8,10a16.61,16.61,0,0,1,16.3,16.8c0,9.2-7.5,17.1-16.3,17.1a17.2,17.2,0,0,1-17-17.1A16.94,16.94,0,0,1,196.2,44Zm-.1,25.6c3.9,0,7.2-3.7,7.2-8.7s-3.3-8.2-7.2-8.2c-4.2,0-7.7,3.1-7.7,8.2C188.4,65.8,191.9,69.6,196.1,69.6Zm22,3.1V49.1a4.61,4.61,0,0,1,4.6-4.7,4.67,4.67,0,0,1,4.6,4.7V72.7a4.67,4.67,0,0,1-4.6,4.7A4.74,4.74,0,0,1,218.1,72.7Zm-.7-37.2a5.38,5.38,0,0,1,5.3-5.5,5.46,5.46,0,0,1,5.4,5.5,5.35,5.35,0,1,1-10.7,0Zm27.5,24.4V72.7a4.6,4.6,0,1,1-9.2,0V48a3.55,3.55,0,1,1,7.1,0,13.34,13.34,0,0,1,10.1-4c9.2,0,13.3,6.9,13.3,14.8V72.7a4.6,4.6,0,1,1-9.2,0V59.9c0-4-.5-7.4-6.3-7.4-4.1,0-5.8,3.4-5.8,7.4ZM296,64.8a3,3,0,0,1-2.4-1.2L282.9,52V72.7a4.6,4.6,0,1,1-9.2,0v-41a2,2,0,0,1,1.7-1.2,3.22,3.22,0,0,1,2,1.2l17.1,19.2a2.23,2.23,0,0,0,1.5.9,2.46,2.46,0,0,0,1.5-.9l17.1-19.2a3,3,0,0,1,2-1.2,1.74,1.74,0,0,1,1.7,1.2v41a4.61,4.61,0,0,1-4.6,4.7,4.67,4.67,0,0,1-4.6-4.7V52L298.4,63.6a3.69,3.69,0,0,1-2.4,1.2Zm44.2,4.8c4.1,0,7.6-3.7,7.6-8.7s-3.6-8.3-7.6-8.3-7.3,3.4-7.3,8.3S336.1,69.6,340.2,69.6Zm9.8,4.2-.2-1.1c-1.8,3.5-7.5,5.1-11.1,5.1-8.6,0-15-7.8-15-17.1s6.5-16.8,15.5-16.8A14.39,14.39,0,0,1,349.9,49l.2-1.1a3.5,3.5,0,0,1,3.5-3.6,3.65,3.65,0,0,1,3.6,3.6V73.7a3.59,3.59,0,0,1-3.6,3.6,3.44,3.44,0,0,1-3.6-3.5Zm32.5-21.3h-1c-5.8.3-6.9,3.6-6.9,7.4V72.7a4.6,4.6,0,1,1-9.2,0V48a3.55,3.55,0,1,1,7.1,0c3.4-3.2,6.2-3.9,9-4h.9a4.31,4.31,0,0,1,4.2,4.3,4.2,4.2,0,0,1-4.1,4.2Zm35.5,18a4.39,4.39,0,0,1,.7,2.2,4.79,4.79,0,0,1-4.6,4.6c-1.6,0-3-1.2-4.1-2.6L399.4,62.4V72.6a4.6,4.6,0,1,1-9.2,0V35.1a4.6,4.6,0,1,1,9.2,0V58.5L410,46.8c1.1-1.2,2.4-2.5,4-2.5a4.6,4.6,0,0,1,4.4,4.5,3.94,3.94,0,0,1-.6,2.1l-8.4,9.2L418,70.5Zm18-17.9c-2.5,0-6.6,1.3-6.6,5.2h13.3c-.1-3.9-4.3-5.2-6.7-5.2Zm12,11.1H429.4c0,5.5,5.3,6.4,7.6,6.4a14.93,14.93,0,0,0,6-1.2,4.53,4.53,0,0,1,2.4-.7,3.78,3.78,0,0,1,3.7,3.8,4.05,4.05,0,0,1-2,3.3c-2.8,2.1-6.5,2.6-10,2.6-9.3,0-17-5-17-16.7,0-9.2,4.7-17.2,15.7-17.2,8.9,0,15.6,5.8,15.8,16.1a3.65,3.65,0,0,1-3.6,3.6Zm25.6,14.1h-2.5c-7,0-11.1-3.1-11.1-14V52.5h-2.4a4.25,4.25,0,0,1,0-8.5H460V35.3a4.61,4.61,0,0,1,4.6-4.7,4.67,4.67,0,0,1,4.6,4.7V44H473a4.23,4.23,0,0,1,4.1,4.3,4.35,4.35,0,0,1-4.1,4.2h-3.8V62c0,6.3.3,7.6,3.1,7.6h1.3a4.12,4.12,0,0,1,4.1,4.1,4.19,4.19,0,0,1-4.1,4.1ZM518.1,34a5,5,0,0,1,2.3,3.9,4.42,4.42,0,0,1-4.3,4.4,7.58,7.58,0,0,1-1.6-.3,16.43,16.43,0,0,0-9.7-3.3c-8.5,0-14.3,6.9-14.3,15.5s5.9,15.4,14.3,15.4a15.53,15.53,0,0,0,10.8-4.4,4.38,4.38,0,0,1,2.5-.8,4.06,4.06,0,0,1,4.1,4.1,4.26,4.26,0,0,1-2,3.5,23.74,23.74,0,1,1-15.3-42,22.38,22.38,0,0,1,13.2,4Zm23.3,35.6c4.1,0,7.6-3.7,7.6-8.7s-3.6-8.3-7.6-8.3-7.3,3.4-7.3,8.3,3.3,8.7,7.3,8.7Zm9.8,4.2-.2-1.1c-1.8,3.5-7.5,5.1-11.1,5.1-8.6,0-15-7.8-15-17.1s6.5-16.8,15.5-16.8A14.39,14.39,0,0,1,551.1,49l.2-1.1a3.5,3.5,0,0,1,3.5-3.6,3.65,3.65,0,0,1,3.6,3.6V73.7a3.59,3.59,0,0,1-3.6,3.6A3.44,3.44,0,0,1,551.2,73.8Zm32.3-4.2c4.1,0,7.3-3.9,7.3-8.7,0-5-3.3-8.3-7.3-8.3s-7.6,3.3-7.6,8.3S579.4,69.6,583.5,69.6Zm-7.6,5.5V86.8a4.6,4.6,0,1,1-9.2,0V48a3.59,3.59,0,0,1,3.6-3.6c2,0,3.5,1.7,3.5,4A14.79,14.79,0,0,1,584.6,44c8.9,0,15.5,7.5,15.5,16.8s-6.3,17.1-15,17.1c-2.7-.1-6.7-.9-9.2-2.8Z"/></g></g></svg>