<svg xmlns="http://www.w3.org/2000/svg" viewBox="0 0 1590.43 598.47"><defs><style>.cls-1{fill:#fff;}</style></defs><title>9</title><g id="Слой_2" data-name="Слой 2"><g id="Слой_1-2" data-name="Слой 1"><g id="Layer_2" data-name="Layer 2"><path class="cls-1" d="M224.53,121.83a102.85,102.85,0,0,0-15.2,2.6c-34.8,8.5-57.1,25.7-71.5,44,34.8-6.6,70.8,1.9,95.5,10.5.8.3,1.5.5,2.2.8a107.84,107.84,0,0,1-10.2-20.4C220.93,147.83,221.53,134.33,224.53,121.83Z"/><path class="cls-1" d="M135.83,228.13c-13.9-1.5-27.1-3-34.9-3a23.52,23.52,0,0,0-2.8.1c-54,3.7-95.2,52.9-98,116.9-2,45.6,19.2,75.4,33.1,89.9a114.37,114.37,0,0,1,6.1-52.9c16.6-46.2,48.7-59.7,85.9-75.3,15.4-6.5,32-13.4,48.7-23.5l71-56.2c-14.4,3.2-34.6,6.3-60.8,7.5C172.43,232.23,153.83,230.13,135.83,228.13Z"/><path class="cls-1" d="M303,198a1.57,1.57,0,0,0,2.5,1.8c7.5-7.7,23.1-20.2,43.7-20.1,22.1.1,50.4,14.4,57.4,31.4,5.7,13.9-9.4,23.4-9.4,23.4h0c-3.5-3.8-11.4-8.9-25.8-9.3-21.2-.7-35.8,17.2-34.2,18.2,10.6,6.6,24.5,5.3,32.8,5s21.4-3.5,25.2-5c6.7-2.6,16.6-11.1,21.2-22.9,3.6-9.2,11.9-40.7-35.8-48.8C350.63,166.63,314.23,174,303,198Z"/><path class="cls-1" d="M521.53,266.93c-.8-.9-1.6-1.8-2.4-2.8l-.4-.5c-5.5-6.2-10.8-11.8-13.3-14.4,1.7-6,5.7-23,1.4-37.1-3.3-11-9.6-22-13.1-27.6l-1.1-1.8h0q-.9-1.35-1.5-2.4a15.14,15.14,0,0,1-.9-1.4l-.3-.9c-3.5-10-12.1-31.6-23.2-39.9L551,8.13c3.2-4.9-2.9-10.6-7.6-7l-123.1,94.5c-12.3-17.5-29.9-30.9-30.9-31.7a3.81,3.81,0,0,0-4.1-.3,3.88,3.88,0,0,0-1.9,3.7c0,.1.8,8.4-4.1,25a125.11,125.11,0,0,1,27.4,13.7l-6.4,4.9A121.64,121.64,0,0,0,351.73,93c-25.1-3.7-45.2,1.4-59.7,15.2h0c8.4,5.3,18.6,12.3,24.1,17.6,1.1,1,2.1,2.1,3.1,3.2-4.5,1.3-8.8,2.7-13.1,4.1-.4-.3-.7-.7-1.1-1a103.89,103.89,0,0,0-10-7.5c-7.7-5.4-16.6-11.8-22.5-19.9a32.42,32.42,0,0,1-6.1-14.8c-.4-3.3-1.4-5.6-3.1-7h0c-.9-.7-4-2.8-8.2.5-2.9,2.3-6.2,7.6-9.2,14.6-7.3,17.4-12.3,45.6-2.5,65.4a102.38,102.38,0,0,0,5.2,9.3,22,22,0,0,0-1.2,4.4,158.13,158.13,0,0,0-1.6,18c-28.1-11.8-71.6-24.9-111.3-15.2-33.8,8.2-55.9,24.8-70.4,42.5a103.48,103.48,0,0,1,33.3-8c7.9-.5,23.3,1.1,39.6,2.9,16.8,1.8,35.8,3.9,46.6,3.5,27.2-1.2,47.8-4.7,61.8-7.9,0,7.6.2,15.7.6,23.9,1.1,23.8,3.5,48.7,7,66,5.1,25.4,23.5,78.3,44.5,91.6,7.7,4.9,19.2,11.6,32.5,19.1-3.6,9.1-7.3,21.4-7.3,33.3,0,21.6,7.3,37.7,15.6,52.4,6.5,11.6,13.6,22.3,18.2,34.1,3.6,9.2-3.9,39.3-8,55.2-1.6,6.3-2.7,10.4-2.4,9.9,5.2-7.3,10.6-15.3,16-23.8,21.8-34.4,27.5-66.7,27.7-68l.3-2-1.5-1.4c-.2-.2-24.4-22.3-26-47.2-.6-9.7,1.5-16.3,6.1-19.6a9.41,9.41,0,0,1,2.2-1.2c10.6,5.3,21.3,10.3,31.5,14.9,4,4.9,12.8,13.4,16.7,17.1,4.8,4.6,9.8,11,17.3,11h30.2c7.6,0,18.6,0,24.5-3s15.4-8,15.7-17.9a91.23,91.23,0,0,1,1.3-9.7c5.2-6.9,5.9-15.1,6.9-27.3.7-8,2.4-21.9,4.3-36.7,2.8-22.3,5.8-45.3,5.6-53.8a152.6,152.6,0,0,0-2-23C524.53,301.53,530.43,277.33,521.53,266.93Zm-220.1,121.4c-18.9-12-36.4-63.3-41.1-86.8-6.9-33.9-9.7-97.2-5.6-123.1,3.8-23.7,69.5-48.9,115.8-50.5,2.7-.1,5.3-.1,7.9-.1h4.3c-.2,6.9,1.8,22.1,19.6,36.2,19.7,15.6,43.1,7.1,43.1,7.1l17.2-26.5c6.4,5,13.3,18.1,18.5,31.4a14.19,14.19,0,0,0-4.4-1.3c-11.4-1.8-44.8-1.2-34,44.3,1.4,5.7,7.3,13.3,24.4,31.7,3.9,4.2,7.3,7.6,10,10.3,7.9,7.9,10.6,10.5,10.6,16.7,0,.5-.3,2.2-.6,4.3a7.05,7.05,0,0,0-4.8-1.4c-5.1-.3-47.8,7.9-60.1,21.4a8,8,0,0,1-9.6,2c-.1-.1-.3-.1-.4-.2a7.68,7.68,0,0,1-3.9-4.9c-1.9-7.2,4.1-18.8,6.5-22.6a3,3,0,0,0-5-3.2c-.1.2-1.3,2.1-2.7,4.9a59.49,59.49,0,0,1-20.3,23.1c-13.9,9.3-34.1,21.5-50.3,25.7-25.5,6.7-35.3-11.7-35.7-12.5a3,3,0,0,0-4-1.3,2.88,2.88,0,0,0-1.3,4,34.92,34.92,0,0,0,30.5,17.2c.8,0,1.9-.1,3.1-.2a27.81,27.81,0,0,1,17.4,3.8c4.9,3,11.4,6.7,17.7,9.9,17.8,8.9,20.9,8.7,27.6,7.6,1.6-.3,70.6-3.4,113.5-11.6l5.1.3a6.06,6.06,0,0,1,5.7,6.7v.1a5.87,5.87,0,0,1-3.1,4.6,140.42,140.42,0,0,1-14,7,50.49,50.49,0,0,1-7.2,2.2,103.28,103.28,0,0,1-15.8,2.2s-7.6,1.7-19.1,3c-4.8.6-10.2,1-16,1.3-19.9,1-18.4,2.2-35.1,1.5-4.1-.2-8.1-.5-11.7-.9s-4.5,4.9-1,5.7a119.32,119.32,0,0,0,30.3,3.6h4.1a45.07,45.07,0,0,1,41.8,27.4,149.5,149.5,0,0,1,7.7,26.3,18.17,18.17,0,0,1-19.6,21.7c-17.7-1.8-37.7-6.9-49.1-11.8C368.53,427.33,321.93,401.33,301.43,388.33Zm185.4-200.6,1.7,2.7c3.4,5.6,8.4,14.9,11.2,24,4.5,14.7-2,34.6-2,34.8l-.7,2.2,1.6,1.6c.1.1,7.2,7.3,14.6,15.8l.2.2c.8.9,1.7,1.9,2.5,2.9,5.2,6.1,2.7,24.1-.2,34l-.2.9.2.9s.4,2.1.8,5.5a7.14,7.14,0,0,0-6.2,7.8l1.1,10.6-12.2.2-19.3-21.9a4,4,0,0,1,.3-5.7h0c10.1-9,11.5-13.5,11.7-15.2,1.3-7.7,1.7-10.5,1.7-11.4-.1-8.6-4.2-12.7-12.3-20.9-2.7-2.7-6-6-9.8-10.1-.8-.9-1.6-1.7-2.4-2.6a57.2,57.2,0,0,0,12,2.1c11.9,1,15.4-1.9,15.4-1.9s2.2-3.9-1.5-9.3-8.8-9.5-18.7-9.8c-7.1-.2-13.5,5.3-16.6,8.5-1.2-1.4-4.1-6.6-5.4-15.4-2.1-13.7,3-20.2,6.6-23.2,6.5-5.5,15.4-10.9,20.4-10.6a23.18,23.18,0,0,1,3.8.6C485.53,185.63,486.13,186.53,486.83,187.73Zm20.9,232.1c-1,11.6-1.5,18.2-5.4,23.5-3.3,4.4-10.4,1.1-9.3-4.3a56.51,56.51,0,0,0,1.1-9.1c.5-15.2-7-29.6-9.5-39.3v-.2a11.67,11.67,0,0,1,6.8-13.2c2.3-1,4.9-2.3,7.6-3.7a9,9,0,0,1,13.1,9.1v.2C510.13,397.63,508.43,411.63,507.73,419.83Zm-111.1-118.4a5.51,5.51,0,0,1,7.9,1.7,21.5,21.5,0,0,0,4.8,5.9c6.4,5.3,13.9,5,18.8,5a26.71,26.71,0,0,0,8.5-1.2h.1a4,4,0,0,1,4.4,5.9c-3.7,6.8-8.7,15.7-9.3,16.2-1,.7-32.3,7.2-36.3,7.7s-16.4,1.7-25.9-4.2c-3.9-2.5-7.8-5.2-11-7.5a3.94,3.94,0,0,1,.6-6.7C373.43,317,387.53,307.73,396.63,301.43Zm73.3,20.4,11.8,13a4,4,0,0,1-2.5,6.7c-7.1.9-14.2,1.7-21.1,2.3a4,4,0,0,1-3.8-6.1c2.7-4.3,6.1-10,9.2-15.3A4.12,4.12,0,0,1,469.93,321.83Zm-57.2-208.1,118.4-98.1-109,109.1a7.22,7.22,0,0,1-11.5-2.1h0A7.14,7.14,0,0,1,412.73,113.73Z"/><path class="cls-1" d="M129.33,313.73c-36.3,15.2-65,27.2-80,69-21.4,59.6,13.3,125.5,88.6,170.5-24.7-96.5,5-132,31.4-163.5,9.1-10.9,17.8-21.2,24-33.6,18.3-36.5,17.5-71.6,15.7-87.9C181.93,291.73,154,303.33,129.33,313.73Z"/></g><path class="cls-1" d="M697.3,441.25v-284h57.35V269H867V157.23h57.34v284H867V317.06H754.65V441.25Z"/><path class="cls-1" d="M1239.77,441.25h-62.39l-24.8-64.52H1039.05l-23.44,64.52H954.78l110.62-284H1126ZM1134.18,328.88l-39.13-105.39-38.37,105.39Z"/><path class="cls-1" d="M1270.18,441.25v-284h92q52.3,0,68.19,4.26,24.42,6.39,40.88,27.8t16.47,55.31q0,26.16-9.49,44t-24.12,28Q1439.5,326.75,1424.4,330q-20.54,4.06-59.48,4.07h-37.39V441.25Zm57.35-236v80.6h31.38q33.9,0,45.34-4.46a37.66,37.66,0,0,0,17.92-14,38.11,38.11,0,0,0,6.49-22.08q0-15.49-9.11-25.57a39.63,39.63,0,0,0-23-12.6q-10.27-1.94-41.27-1.94Z"/><path class="cls-1" d="M1533.08,441.25v-284h57.35v284Z"/></g></g></svg>