<svg xmlns="http://www.w3.org/2000/svg" viewBox="0 0 453.62 57.64" width="103" height="17">
  <defs>
    <style>.cls-1{fill:#fff;fill-rule:evenodd;}</style>
  </defs>
  <title>hacken_logo</title>
  <g id="Слой_2" data-name="Слой 2">
    <g id="Layer_1" data-name="Layer 1">
      <polygon class="cls-1"
               points="3.53 0 3.53 27.19 7.06 27.19 7.06 0 10.59 0 10.59 27.19 57.64 27.19 57.64 23.25 14.54 23.25 14.54 0 18.07 0 18.07 19.66 57.64 19.66 57.64 16.13 21.06 16.13 21.06 0 24.59 0 24.59 12.55 36.08 12.55 36.08 0 39.61 0 39.61 12.55 43.14 12.55 43.14 0 46.67 0 46.67 12.55 50.68 12.55 50.68 0 54.21 0 54.21 12.55 57.74 12.55 57.74 0 61.27 0 61.27 57.64 57.64 57.64 57.64 30.83 53.66 30.83 53.66 57.64 50.13 57.64 50.13 30.83 7.06 30.83 7.06 30.83 3.53 30.83 3.53 34.36 46.63 34.36 46.63 57.64 43.1 57.64 43.1 37.96 3.53 37.96 3.53 41.49 40.12 41.49 40.12 57.64 36.59 57.64 36.59 45.07 25.07 45.07 25.07 57.64 21.54 57.64 21.54 45.07 18.01 45.07 18.01 57.64 14.48 57.64 14.48 45.07 10.59 45.07 10.59 57.64 7.06 57.64 7.06 45.07 3.53 45.07 3.53 57.64 0 57.64 0 0 3.53 0"/>
      <path id="Fill-15" class="cls-1"
            d="M109.14,6.48V21.71H90.73V6.49H77.6V51.16H90.73V35.38h18.41V51.15h13.14V6.48Z"/>
      <path id="Fill-16" class="cls-1" d="M210.75,6.48h-6.57V51.16h48.4V38.47H217.46V19.17h35.11V6.48Z"/>
      <path id="Fill-17" class="cls-1"
            d="M440.46,6.48V25.69L422.13,6.48l0,0v0H408.94V51.16H422.1V31.32l18.36,19.84h13.16V6.48Z"/>
      <path id="Fill-18" class="cls-1"
            d="M313.2,6.48V21.69H292.47V6.49H278.64V51.16h13.83V35.35h20.72V51.16H327V34.92H314.13L327,21.69V6.48Z"/>
      <path id="Fill-19" class="cls-1"
            d="M142.23,6.49h43.34V51.15h-13V41.48H153.92v9.68h-13V6.49Zm30.3,21.8H153.92V19.17h18.61Z"/>
      <path id="Fill-20" class="cls-1"
            d="M349.29,6.48h-3.64V51.15h44.59V38.49H358.68V35.16h31.57V22.49H358.68V19.16h31.65V6.48Z"/>
    </g>
  </g>
</svg>
