<svg width="49" height="50" viewBox="0 0 49 50" fill="none" xmlns="http://www.w3.org/2000/svg">
<path d="M19.375 4.32495C22.5464 2.49396 26.4536 2.49396 29.625 4.32495L39.8426 10.2241C43.014 12.0551 44.9676 15.4389 44.9676 19.1009V30.8991C44.9676 34.5611 43.014 37.9449 39.8426 39.7759L29.625 45.6751C26.4536 47.506 22.5464 47.506 19.375 45.6751L9.15738 39.7759C5.98602 37.9449 4.03238 34.5611 4.03238 30.8991V19.1009C4.03238 15.4389 5.98602 12.0551 9.15738 10.2241L19.375 4.32495Z" stroke="url(#paint0_linear_3877_449)" stroke-width="1.5"/>
<path fill-rule="evenodd" clip-rule="evenodd" d="M24.5 21.6902C26.0107 21.6902 27.2353 20.4656 27.2353 18.9549C27.2353 17.4442 26.0107 16.2195 24.5 16.2195C22.9893 16.2195 21.7646 17.4442 21.7646 18.9549C21.7646 20.4656 22.9893 21.6902 24.5 21.6902ZM24.5 23.1902C26.8391 23.1902 28.7353 21.294 28.7353 18.9549C28.7353 16.6157 26.8391 14.7195 24.5 14.7195C22.1608 14.7195 20.2646 16.6157 20.2646 18.9549C20.2646 21.294 22.1608 23.1902 24.5 23.1902Z" fill="white"/>
<path fill-rule="evenodd" clip-rule="evenodd" d="M19.2315 30.0337C19.0401 30.6963 18.9026 31.3906 18.822 32.1017L24.5 32.1017L30.1779 32.1017C30.0974 31.3906 29.9598 30.6963 29.7684 30.0337C29.4438 28.9103 28.9751 27.9153 28.4049 27.0978C27.8345 26.2801 27.1849 25.6713 26.5132 25.2724C25.846 24.8762 25.164 24.6902 24.5 24.6902C23.8359 24.6902 23.1539 24.8762 22.4867 25.2724C21.815 25.6713 21.1654 26.2801 20.595 27.0978C20.0248 27.9153 19.5561 28.9103 19.2315 30.0337ZM31.6865 32.1017C31.7368 32.5973 31.7623 33.0986 31.7623 33.6017H30.2623L24.5 33.6017L18.7377 33.6017H17.2377C17.2377 33.0986 17.2631 32.5973 17.3134 32.1017C17.3999 31.2504 17.5598 30.4157 17.7905 29.6174C18.1554 28.3542 18.6904 27.2064 19.3648 26.2396C20.0391 25.2728 20.8397 24.5059 21.7208 23.9827C22.6019 23.4595 23.5463 23.1902 24.5 23.1902C25.4537 23.1902 26.398 23.4595 27.2791 23.9827C28.1602 24.5059 28.9608 25.2728 29.6352 26.2396C30.3096 27.2064 30.8445 28.3542 31.2095 29.6174C31.4401 30.4157 31.6001 31.2504 31.6865 32.1017Z" fill="white"/>
<defs>
<linearGradient id="paint0_linear_3877_449" x1="1.61148e-06" y1="49.5" x2="78.7002" y2="42.1021" gradientUnits="userSpaceOnUse">
<stop stop-color="#41B7FF"/>
<stop offset="1" stop-color="#00FF73"/>
</linearGradient>
</defs>
</svg>
