<svg width="49" height="50" viewBox="0 0 49 50" fill="none" xmlns="http://www.w3.org/2000/svg">
<path d="M19.375 4.32495C22.5464 2.49396 26.4536 2.49396 29.625 4.32495L39.8426 10.2241C43.014 12.0551 44.9676 15.4389 44.9676 19.1009V30.8991C44.9676 34.5611 43.014 37.9449 39.8426 39.7759L29.625 45.6751C26.4536 47.506 22.5464 47.506 19.375 45.6751L9.15738 39.7759C5.98602 37.9449 4.03238 34.5611 4.03238 30.8991V19.1009C4.03238 15.4389 5.98602 12.0551 9.15738 10.2241L19.375 4.32495Z" stroke="url(#paint0_linear_3777_476)" stroke-width="1.5"/>
<path fill-rule="evenodd" clip-rule="evenodd" d="M26.9172 16.3472L30.4869 18.3029L30.6625 18.3991L30.6609 18.4022C34.0111 20.391 34.5539 25.305 32.3614 29.3069C30.169 33.3089 25.7355 35.4966 22.256 33.7438L22.2543 33.7468L22.0787 33.6506L18.4194 31.6459L18.4194 31.6458C18.4169 31.6445 18.4145 31.6432 18.412 31.6418L18.4126 31.6408C14.9952 29.6831 14.4295 24.7251 16.6385 20.693C18.8475 16.6608 23.3304 14.4687 26.8198 16.2949L26.8202 16.2941L26.8276 16.2982L26.8276 16.2982L26.883 16.3285C26.8944 16.3347 26.9058 16.3409 26.9172 16.3471L26.9172 16.3472ZM28.8801 27.3997C30.2926 24.8214 30.5325 21.8647 29.6193 19.5379L29.7662 19.6184C32.2491 20.9787 33.0617 24.9068 31.0459 28.5862C29.0301 32.2657 25.2823 33.6953 22.7994 32.3351L22.6525 32.2546C25.1049 31.7718 27.4676 29.978 28.8801 27.3997ZM27.5646 26.679C29.5564 23.0433 28.7124 19.0819 26.1447 17.6347C23.6643 16.3238 19.9561 17.7593 17.954 21.4137C15.9496 25.0723 16.7401 28.9749 19.1867 30.3554C21.7883 31.7327 25.5749 30.3107 27.5646 26.679Z" fill="white"/>
<defs>
<linearGradient id="paint0_linear_3777_476" x1="1.61148e-06" y1="49.5" x2="78.7002" y2="42.1021" gradientUnits="userSpaceOnUse">
<stop stop-color="#41B7FF"/>
<stop offset="1" stop-color="#00FF73"/>
</linearGradient>
</defs>
</svg>
