<svg width="49" height="50" viewBox="0 0 49 50" fill="none" xmlns="http://www.w3.org/2000/svg">
<path fill-rule="evenodd" clip-rule="evenodd" d="M18 27.625L24.5625 14.5V22.375H31.125L24.5625 35.5V27.625H18Z" stroke="white" stroke-width="1.5" stroke-linecap="round" stroke-linejoin="round"/>
<path d="M19.375 4.32495C22.5464 2.49396 26.4536 2.49396 29.625 4.32495L39.8426 10.2241C43.014 12.0551 44.9676 15.4389 44.9676 19.1009V30.8991C44.9676 34.5611 43.014 37.9449 39.8426 39.7759L29.625 45.6751C26.4536 47.506 22.5464 47.506 19.375 45.6751L9.15738 39.7759C5.98602 37.9449 4.03238 34.5611 4.03238 30.8991V19.1009C4.03238 15.4389 5.98602 12.0551 9.15738 10.2241L19.375 4.32495Z" stroke="url(#paint0_linear_3777_489)" stroke-width="1.5"/>
<defs>
<linearGradient id="paint0_linear_3777_489" x1="1.61148e-06" y1="49.5" x2="78.7002" y2="42.1021" gradientUnits="userSpaceOnUse">
<stop stop-color="#41B7FF"/>
<stop offset="1" stop-color="#00FF73"/>
</linearGradient>
</defs>
</svg>
