<svg width="49" height="50" viewBox="0 0 49 50" fill="none" xmlns="http://www.w3.org/2000/svg">
<path d="M19.375 4.32495C22.5464 2.49396 26.4536 2.49396 29.625 4.32495L39.8426 10.2241C43.014 12.0551 44.9676 15.4389 44.9676 19.1009V30.8991C44.9676 34.5611 43.014 37.9449 39.8426 39.7759L29.625 45.6751C26.4536 47.506 22.5464 47.506 19.375 45.6751L9.15738 39.7759C5.98602 37.9449 4.03238 34.5611 4.03238 30.8991V19.1009C4.03238 15.4389 5.98602 12.0551 9.15738 10.2241L19.375 4.32495Z" stroke="url(#paint0_linear_3777_477)" stroke-width="1.5"/>
<path fill-rule="evenodd" clip-rule="evenodd" d="M29.8737 17.5404C28.5361 16.995 26.6366 16.6405 24.5 16.6405C22.3634 16.6405 20.4639 16.995 19.1263 17.5404C18.4557 17.8139 17.9627 18.1206 17.6492 18.4228C17.3682 18.6937 17.2692 18.9209 17.2526 19.0973C17.2692 19.2737 17.3682 19.5009 17.6492 19.7718C17.9627 20.074 18.4557 20.3807 19.1263 20.6542C20.4639 21.1996 22.3634 21.5541 24.5 21.5541C26.6366 21.5541 28.5361 21.1996 29.8737 20.6542C30.5443 20.3807 31.0373 20.074 31.3508 19.7718C31.6318 19.5009 31.7308 19.2737 31.7474 19.0973C31.7308 18.9209 31.6318 18.6937 31.3508 18.4228C31.0373 18.1206 30.5443 17.8139 29.8737 17.5404ZM15.75 19.0504H15.75V19.1526V23.2228V24.2228V26.8474C15.75 26.976 15.7616 27.1012 15.7834 27.2228H15.75V30.8474H17.25V29.1682C17.6356 29.4259 18.0789 29.6524 18.56 29.8486C20.1178 30.4838 22.2183 30.8596 24.5 30.8596C26.7817 30.8596 28.8822 30.4838 30.44 29.8486C30.9211 29.6524 31.3644 29.4259 31.75 29.1682V30.8474H33.25V27.2228H33.2166C33.2384 27.1012 33.25 26.976 33.25 26.8474V24.2228V23.2228V19.1526V19.0504H33.25C33.25 19.0476 33.25 19.0448 33.25 19.042H33.2471C33.2124 18.372 32.8644 17.7985 32.3919 17.3429C31.8957 16.8646 31.2171 16.4683 30.44 16.1515C28.8822 15.5162 26.7817 15.1405 24.5 15.1405C22.2183 15.1405 20.1178 15.5162 18.56 16.1515C17.7829 16.4683 17.1043 16.8646 16.6081 17.3429C16.1356 17.7984 15.7876 18.372 15.7529 19.042H15.75C15.75 19.0448 15.75 19.0476 15.75 19.0504ZM17.25 21.3628V23.2228C17.25 23.3455 17.3136 23.5522 17.6262 23.8294C17.938 24.1057 18.4318 24.3889 19.1065 24.6419C20.4503 25.1458 22.357 25.4728 24.5 25.4728C26.643 25.4728 28.5497 25.1458 29.8935 24.6419C30.5682 24.3889 31.062 24.1057 31.3738 23.8294C31.6864 23.5522 31.75 23.3455 31.75 23.2228V21.3628C31.3644 21.6204 30.9211 21.847 30.44 22.0431C28.8822 22.6784 26.7817 23.0541 24.5 23.0541C22.2183 23.0541 20.1178 22.6784 18.56 22.0431C18.0789 21.847 17.6356 21.6204 17.25 21.3628ZM19.1263 32.4596C20.4639 33.005 22.3634 33.3596 24.5 33.3596C26.6366 33.3596 28.5361 33.005 29.8737 32.4596C30.5443 32.1862 31.0373 31.8795 31.3508 31.5773C31.6621 31.2771 31.75 31.0306 31.75 30.8474H33.25C33.25 31.5651 32.8902 32.1767 32.3919 32.6571C31.8957 33.1355 31.2171 33.5317 30.44 33.8486C28.8822 34.4838 26.7817 34.8596 24.5 34.8596C22.2183 34.8596 20.1178 34.4838 18.56 33.8486C17.7829 33.5317 17.1043 33.1355 16.6081 32.6571C16.1098 32.1767 15.75 31.5651 15.75 30.8474H17.25C17.25 31.0306 17.3379 31.2771 17.6492 31.5773C17.9627 31.8795 18.4557 32.1862 19.1263 32.4596ZM17.25 26.8474V25.4078C17.641 25.6508 18.0914 25.8632 18.5798 26.0464C20.1315 26.6283 22.2247 26.9728 24.5 26.9728C26.7753 26.9728 28.8685 26.6283 30.4202 26.0464C30.9086 25.8632 31.359 25.6508 31.75 25.4078V26.8474C31.75 27.0306 31.6621 27.2771 31.3508 27.5773C31.0373 27.8795 30.5443 28.1862 29.8737 28.4596C28.5361 29.005 26.6366 29.3596 24.5 29.3596C22.3634 29.3596 20.4639 29.005 19.1263 28.4596C18.4557 28.1862 17.9627 27.8795 17.6492 27.5773C17.3379 27.2771 17.25 27.0306 17.25 26.8474Z" fill="white"/>
<defs>
<linearGradient id="paint0_linear_3777_477" x1="1.61148e-06" y1="49.5" x2="78.7002" y2="42.1021" gradientUnits="userSpaceOnUse">
<stop stop-color="#41B7FF"/>
<stop offset="1" stop-color="#00FF73"/>
</linearGradient>
</defs>
</svg>
