<svg width="49" height="50" viewBox="0 0 49 50" fill="none" xmlns="http://www.w3.org/2000/svg">
<path d="M19.375 4.32495C22.5464 2.49396 26.4536 2.49396 29.625 4.32495L39.8426 10.2241C43.014 12.0551 44.9676 15.4389 44.9676 19.1009V30.8991C44.9676 34.5611 43.014 37.9449 39.8426 39.7759L29.625 45.6751C26.4536 47.506 22.5464 47.506 19.375 45.6751L9.15738 39.7759C5.98602 37.9449 4.03238 34.5611 4.03238 30.8991V19.1009C4.03238 15.4389 5.98602 12.0551 9.15738 10.2241L19.375 4.32495Z" stroke="url(#paint0_linear_3876_472)" stroke-width="1.5"/>
<path fill-rule="evenodd" clip-rule="evenodd" d="M22.1311 15.6378C20.1469 13.7883 16.967 15.6243 17.5765 18.2674L18.0423 20.2876C18.1898 20.9271 17.8176 21.5717 17.1901 21.7638L15.2076 22.3704C12.6138 23.1641 12.6138 26.836 15.2076 27.6297L17.1901 28.2363C17.8176 28.4283 18.1898 29.073 18.0423 29.7125L17.5765 31.7327C16.967 34.3758 20.1469 36.2117 22.1311 34.3623L23.6477 32.9488C24.1278 32.5013 24.8722 32.5013 25.3523 32.9488L26.8689 34.3623C28.8531 36.2117 32.0331 34.3758 31.4235 31.7327L30.9577 29.7125C30.8102 29.073 31.1824 28.4283 31.8099 28.2363L33.7924 27.6297C36.3862 26.836 36.3862 23.1641 33.7924 22.3704L31.8099 21.7638C31.1824 21.5717 30.8102 20.9271 30.9577 20.2876L31.4235 18.2674C32.0331 15.6243 28.8531 13.7883 26.8689 15.6378L25.3523 17.0513C24.8722 17.4988 24.1278 17.4988 23.6477 17.0513L22.1311 15.6378ZM19.0381 17.9303C18.7611 16.7289 20.2065 15.8944 21.1084 16.735L22.625 18.1486C23.6812 19.133 25.3188 19.133 26.375 18.1486L27.8916 16.735C28.7935 15.8944 30.239 16.7289 29.9619 17.9303L29.496 19.9505C29.1716 21.3574 29.9904 22.7756 31.371 23.1981L33.3535 23.8047C34.5325 24.1655 34.5325 25.8345 33.3535 26.1953L31.371 26.802C29.9904 27.2244 29.1716 28.6427 29.496 30.0495L29.9619 32.0697C30.239 33.2711 28.7935 34.1057 27.8916 33.265L26.375 31.8515C25.3188 30.8671 23.6812 30.8671 22.625 31.8515L21.1084 33.265C20.2065 34.1057 18.7611 33.2711 19.0381 32.0697L19.504 30.0495C19.8284 28.6427 19.0096 27.2244 17.629 26.802L15.6465 26.1953C14.4675 25.8345 14.4675 24.1655 15.6465 23.8047L17.629 23.1981C19.0096 22.7756 19.8284 21.3574 19.504 19.9505L19.0381 17.9303ZM26.5185 23.8347C27.1621 24.9494 26.7801 26.3749 25.6654 27.0185C24.5506 27.6621 23.1252 27.2801 22.4816 26.1654C21.838 25.0506 22.2199 23.6252 23.3347 22.9816C24.4494 22.338 25.8749 22.7199 26.5185 23.8347ZM27.8175 23.0847C28.8753 24.9169 28.2476 27.2597 26.4154 28.3175C24.5832 29.3753 22.2404 28.7476 21.1826 26.9154C20.1247 25.0832 20.7525 22.7404 22.5847 21.6825C24.4169 20.6247 26.7597 21.2525 27.8175 23.0847Z" fill="white"/>
<defs>
<linearGradient id="paint0_linear_3876_472" x1="1.61148e-06" y1="49.5" x2="78.7002" y2="42.1021" gradientUnits="userSpaceOnUse">
<stop stop-color="#41B7FF"/>
<stop offset="1" stop-color="#00FF73"/>
</linearGradient>
</defs>
</svg>
