<svg width="49" height="50" viewBox="0 0 49 50" fill="none" xmlns="http://www.w3.org/2000/svg">
<path d="M24.5054 18.6016L21.4725 16.9969L22.8035 16.26C24.1236 15.5291 25.5116 15.8862 26.0566 16.2065L26.6291 16.543C27.0276 16.7773 27.1498 16.9712 27.1829 17.0571C27.2049 17.1144 27.2044 17.1599 27.1694 17.2234C27.1612 17.2318 27.1386 17.2539 27.0922 17.2894C27.0058 17.3554 26.8676 17.4451 26.6517 17.5644C26.2063 17.8105 25.4953 18.1553 24.5054 18.6016ZM20.766 17.388L20.766 17.388L20.766 17.388ZM22.9392 22.7352C23.9182 23.2368 25.0818 23.2368 26.0608 22.7352L29.5142 20.9659C29.6065 20.9186 29.7059 20.8669 29.8311 20.7962C30.2984 20.5323 30.689 20.1943 30.9564 19.7648C31.0552 19.6061 31.1337 19.4404 31.1927 19.2689L31.2361 19.2942L31.2373 19.2949L31.265 19.3112L31.2664 19.312L31.3246 19.3464L31.3274 19.348L31.3843 19.382L31.3857 19.3829L31.4397 19.4154L31.4413 19.4164L31.4969 19.4503L31.4984 19.4512L31.5227 19.4661L31.5241 19.4671L31.5762 19.4993L31.5795 19.5013L31.6285 19.532L31.6318 19.5342L31.6793 19.5643L31.6828 19.5665L31.7307 19.5972L31.7325 19.5984L31.777 19.6273L31.7789 19.6286L31.8258 19.6594C31.8261 19.6596 31.8265 19.6599 31.8268 19.6601C32.2922 19.9686 32.4868 20.1625 32.5398 20.2414C32.5401 20.2419 32.5405 20.2424 32.5408 20.2429L32.5478 20.2536C32.5483 20.2544 32.5488 20.2552 32.5493 20.256C32.7882 20.6307 32.9205 21.069 32.9205 21.5254V28.3624C32.9205 29.2111 32.4621 30 31.7105 30.4287L25.7168 33.8472C24.9642 34.2764 24.0358 34.2764 23.2832 33.8472L17.2895 30.4287C16.5379 30 16.0795 29.2111 16.0795 28.3624V21.5254C16.0795 21.0549 16.2201 20.6036 16.4732 20.2214L16.4829 20.2069C16.4831 20.2066 16.4833 20.2063 16.4835 20.206C16.703 19.8806 17.1421 19.7651 17.5018 19.9494L22.9392 22.7352Z" stroke="white" stroke-width="1.5"/>
<path d="M19.375 4.32495C22.5464 2.49396 26.4536 2.49396 29.625 4.32495L39.8426 10.2241C43.014 12.0551 44.9676 15.4389 44.9676 19.1009V30.8991C44.9676 34.5611 43.014 37.9449 39.8426 39.7759L29.625 45.6751C26.4536 47.506 22.5464 47.506 19.375 45.6751L9.15738 39.7759C5.98602 37.9449 4.03238 34.5611 4.03238 30.8991V19.1009C4.03238 15.4389 5.98602 12.0551 9.15738 10.2241L19.375 4.32495Z" stroke="url(#paint0_linear_3777_483)" stroke-width="1.5"/>
<defs>
<linearGradient id="paint0_linear_3777_483" x1="1.61148e-06" y1="49.5" x2="78.7002" y2="42.1021" gradientUnits="userSpaceOnUse">
<stop stop-color="#41B7FF"/>
<stop offset="1" stop-color="#00FF73"/>
</linearGradient>
</defs>
</svg>
