<svg width="21" height="22" viewBox="0 0 21 22" fill="none" xmlns="http://www.w3.org/2000/svg">
<path fill-rule="evenodd" clip-rule="evenodd" d="M13.5311 0.798634L17.9689 3.31811C19.8446 4.38295 21 6.35086 21 8.48055V13.5195C21 15.6491 19.8446 17.617 17.9689 18.6819L13.5311 21.2014C11.6554 22.2662 9.34455 22.2662 7.46891 21.2014L3.03109 18.6819C1.15545 17.617 0 15.6491 0 13.5195V8.48055C0 6.35086 1.15545 4.38295 3.03109 3.31811L7.46891 0.798634C9.34455 -0.266211 11.6554 -0.266211 13.5311 0.798634Z" fill="#4D4E59" fill-opacity="0.5"/>
<path fill-rule="evenodd" clip-rule="evenodd" d="M8.5 9.875C8.5 9.52982 8.77982 9.25 9.125 9.25H11.125C11.4702 9.25 11.75 9.52982 11.75 9.875V14.75H13.1562C13.5014 14.75 13.7812 15.0298 13.7812 15.375C13.7812 15.7202 13.5014 16 13.1562 16H8.84375C8.49857 16 8.21875 15.7202 8.21875 15.375C8.21875 15.0298 8.49857 14.75 8.84375 14.75H10.5V10.5H9.125C8.77982 10.5 8.5 10.2202 8.5 9.875Z" fill="#FDFCFC"/>
<path d="M11 8C10.8022 8 10.6089 7.94135 10.4444 7.83147C10.28 7.72159 10.1518 7.56541 10.0761 7.38268C10.0004 7.19996 9.98063 6.99889 10.0192 6.80491C10.0578 6.61093 10.153 6.43275 10.2929 6.29289C10.4327 6.15304 10.6109 6.0578 10.8049 6.01922C10.9989 5.98063 11.2 6.00043 11.3827 6.07612C11.5654 6.15181 11.7216 6.27998 11.8315 6.44443C11.9414 6.60888 12 6.80222 12 7C12 7.26522 11.8946 7.51957 11.7071 7.70711C11.5196 7.89464 11.2652 8 11 8Z" fill="#FDFCFC"/>
</svg>
