<svg width="70" height="144" viewBox="0 0 70 144" fill="none" xmlns="http://www.w3.org/2000/svg">
  <g filter="url(#filter0_f_3907_2296)">
    <path d="M59 6H15V114.315H15.0348C14.9303 115.471 15.209 116.627 15.9058 117.494L34.5788 114.821C35.9026 116.41 38.2367 116.194 39.7696 114.387L57.711 118C58.5819 116.988 59 115.688 58.9652 114.387H59V6Z" fill="url(#paint0_linear_3907_2296)"/>
  </g>
  <g clip-path="url(#clip0_3907_2296)">
    <g filter="url(#filter1_d_3907_2296)">
      <path d="M45.9129 98.6406C39.532 96.8353 32.7725 96.8353 26.3916 98.6406C17.4509 101.169 12.961 105.952 12.8829 110.697C12.8829 112.486 12.8829 114.275 12.8829 116.025C12.8829 120.808 17.5289 125.514 26.4697 128.003C32.8506 129.809 39.6101 129.809 45.991 128.003C54.8927 125.436 59.3826 120.692 59.4607 115.908C59.4607 114.158 59.4607 112.369 59.4607 110.58C59.3826 105.874 54.8536 101.13 45.9129 98.6406Z" fill="url(#paint1_linear_3907_2296)"/>
    </g>
    <path d="M52.6672 101.363C61.7251 106.574 61.7641 115.014 52.6672 120.264C47.579 122.833 41.9546 124.172 36.2499 124.172C30.5451 124.172 24.9207 122.833 19.8324 120.264C10.7746 115.092 10.7355 106.652 19.8324 101.402C24.9176 98.8265 30.5405 97.4809 36.2452 97.4741C41.9499 97.4674 47.5759 98.7997 52.6672 101.363Z" fill="#41B7FF"/>
    <path d="M52.6672 101.363C61.7251 106.574 61.7641 115.014 52.6672 120.264C47.579 122.833 41.9546 124.172 36.2499 124.172C30.5451 124.172 24.9207 122.833 19.8324 120.264C10.7746 115.092 10.7355 106.652 19.8324 101.402C24.9176 98.8265 30.5405 97.4809 36.2452 97.4741C41.9499 97.4674 47.5759 98.7997 52.6672 101.363Z" fill="url(#paint2_radial_3907_2296)"/>
    <path d="M52.6672 101.363C61.7251 106.574 61.7641 115.014 52.6672 120.264C47.579 122.833 41.9546 124.172 36.2499 124.172C30.5451 124.172 24.9207 122.833 19.8324 120.264C10.7746 115.092 10.7355 106.652 19.8324 101.402C24.9176 98.8265 30.5405 97.4809 36.2452 97.4741C41.9499 97.4674 47.5759 98.7997 52.6672 101.363Z" fill="url(#paint3_radial_3907_2296)"/>
    <path d="M52.6672 101.363C61.7251 106.574 61.7641 115.014 52.6672 120.264C47.579 122.833 41.9546 124.172 36.2499 124.172C30.5451 124.172 24.9207 122.833 19.8324 120.264C10.7746 115.092 10.7355 106.652 19.8324 101.402C24.9176 98.8265 30.5405 97.4809 36.2452 97.4741C41.9499 97.4674 47.5759 98.7997 52.6672 101.363Z" fill="url(#paint4_radial_3907_2296)"/>
    <path d="M52.6672 101.363C61.7251 106.574 61.7641 115.014 52.6672 120.264C47.579 122.833 41.9546 124.172 36.2499 124.172C30.5451 124.172 24.9207 122.833 19.8324 120.264C10.7746 115.092 10.7355 106.652 19.8324 101.402C24.9176 98.8265 30.5405 97.4809 36.2452 97.4741C41.9499 97.4674 47.5759 98.7997 52.6672 101.363Z" fill="url(#paint5_radial_3907_2296)"/>
    <path opacity="0.6" d="M21.7065 103.463C26.2123 101.182 31.1953 99.9923 36.2499 99.9923C41.3044 99.9923 46.2875 101.182 50.7932 103.463C56.6496 106.808 58.2504 111.669 55.5955 115.869C59.0312 111.397 57.5866 105.991 51.1837 102.335C46.5534 100.004 41.4379 98.7898 36.2499 98.7898C31.0618 98.7898 25.9464 100.004 21.3161 102.335C14.9521 106.224 13.5076 111.436 17.0214 115.908C14.3275 111.669 16.0453 106.847 21.7065 103.463Z" fill="url(#paint6_linear_3907_2296)"/>
    <path d="M45.8348 90.9791C39.5151 89.2104 32.8284 89.2104 26.5087 90.9791C17.568 93.5459 13.0781 98.2906 13 103.035C13 104.824 13 106.613 13 108.402C13 113.147 17.6461 117.853 26.5868 120.342C32.9677 122.147 39.7272 122.147 46.1081 120.342C55.0098 117.775 59.4997 113.03 59.5778 108.286C59.5778 106.497 59.5778 104.708 59.5778 102.919C59.2655 98.1739 54.7365 93.4681 45.8348 90.9791Z" fill="url(#paint7_linear_3907_2296)"/>
    <path d="M52.5892 93.7015C61.6471 98.874 61.6861 107.313 52.5892 112.564C47.5009 115.133 41.8765 116.472 36.1718 116.472C30.4671 116.472 24.8426 115.133 19.7544 112.564C10.6574 107.391 10.6184 98.9128 19.7544 93.6626C24.8457 91.0992 30.4717 89.767 36.1765 89.7737C41.8812 89.7805 47.504 91.1261 52.5892 93.7015Z" fill="#41B7FF"/>
    <path d="M52.5892 93.7015C61.6471 98.874 61.6861 107.313 52.5892 112.564C47.5009 115.133 41.8765 116.472 36.1718 116.472C30.4671 116.472 24.8426 115.133 19.7544 112.564C10.6574 107.391 10.6184 98.9128 19.7544 93.6626C24.8457 91.0992 30.4717 89.767 36.1765 89.7737C41.8812 89.7805 47.504 91.1261 52.5892 93.7015Z" fill="url(#paint8_radial_3907_2296)"/>
    <path d="M52.5892 93.7015C61.6471 98.874 61.6861 107.313 52.5892 112.564C47.5009 115.133 41.8765 116.472 36.1718 116.472C30.4671 116.472 24.8426 115.133 19.7544 112.564C10.6574 107.391 10.6184 98.9128 19.7544 93.6626C24.8457 91.0992 30.4717 89.767 36.1765 89.7737C41.8812 89.7805 47.504 91.1261 52.5892 93.7015Z" fill="url(#paint9_radial_3907_2296)"/>
    <path d="M52.5892 93.7015C61.6471 98.874 61.6861 107.313 52.5892 112.564C47.5009 115.133 41.8765 116.472 36.1718 116.472C30.4671 116.472 24.8426 115.133 19.7544 112.564C10.6574 107.391 10.6184 98.9128 19.7544 93.6626C24.8457 91.0992 30.4717 89.767 36.1765 89.7737C41.8812 89.7805 47.504 91.1261 52.5892 93.7015Z" fill="url(#paint10_radial_3907_2296)"/>
    <path d="M52.5892 93.7015C61.6471 98.874 61.6861 107.313 52.5892 112.564C47.5009 115.133 41.8765 116.472 36.1718 116.472C30.4671 116.472 24.8426 115.133 19.7544 112.564C10.6574 107.391 10.6184 98.9128 19.7544 93.6626C24.8457 91.0992 30.4717 89.767 36.1765 89.7737C41.8812 89.7805 47.504 91.1261 52.5892 93.7015Z" fill="url(#paint11_radial_3907_2296)"/>
    <path opacity="0.6" d="M21.6284 95.7628C26.1369 93.4902 31.1189 92.3061 36.1718 92.3061C41.2246 92.3061 46.2066 93.4902 50.7151 95.7628C56.5715 99.1074 58.1723 103.969 55.5174 108.169C58.9531 103.697 57.5086 98.2907 51.1056 94.6739C46.4808 92.3247 41.3632 91.1 36.1718 91.1C30.9804 91.1 25.8628 92.3247 21.238 94.6739C14.874 98.563 13.4295 103.774 16.9433 108.208C14.2494 103.891 15.8111 99.1463 21.6284 95.7628Z" fill="url(#paint12_linear_3907_2296)"/>
    <path d="M46.5824 81.9354C40.2893 80.2082 33.6307 80.2082 27.3376 81.9354C18.4733 84.4421 14.0023 89.0755 13.9245 93.747C13.9245 95.456 13.9245 97.203 13.9245 98.9501C13.9245 103.584 18.59 108.217 27.4542 110.61C33.7445 112.357 40.4087 112.357 46.699 110.61C55.6022 108.141 60.0732 103.47 60.1509 98.8361C60.1509 97.0891 60.1509 95.3421 60.1509 93.633C59.9954 88.9616 55.4855 84.4801 46.5824 81.9354Z" fill="url(#paint13_linear_3907_2296)"/>
    <path d="M37.2278 106.589C50.0359 106.536 60.3938 100.52 60.3629 93.1529C60.3319 85.7857 49.9237 79.8567 37.1157 79.9102C24.3076 79.9636 13.9497 85.9792 13.9807 93.3464C14.0116 100.714 24.4198 106.643 37.2278 106.589Z" fill="#41B7FF"/>
    <path d="M37.2278 106.589C50.0359 106.536 60.3938 100.52 60.3629 93.1529C60.3319 85.7857 49.9237 79.8567 37.1157 79.9102C24.3076 79.9636 13.9497 85.9792 13.9807 93.3464C14.0116 100.714 24.4198 106.643 37.2278 106.589Z" fill="url(#paint14_radial_3907_2296)"/>
    <path d="M37.2278 106.589C50.0359 106.536 60.3938 100.52 60.3629 93.1529C60.3319 85.7857 49.9237 79.8567 37.1157 79.9102C24.3076 79.9636 13.9497 85.9792 13.9807 93.3464C14.0116 100.714 24.4198 106.643 37.2278 106.589Z" fill="url(#paint15_radial_3907_2296)"/>
    <path d="M37.2278 106.589C50.0359 106.536 60.3938 100.52 60.3629 93.1529C60.3319 85.7857 49.9237 79.8567 37.1157 79.9102C24.3076 79.9636 13.9497 85.9792 13.9807 93.3464C14.0116 100.714 24.4198 106.643 37.2278 106.589Z" fill="url(#paint16_radial_3907_2296)"/>
    <path d="M37.2278 106.589C50.0359 106.536 60.3938 100.52 60.3629 93.1529C60.3319 85.7857 49.9237 79.8567 37.1157 79.9102C24.3076 79.9636 13.9497 85.9792 13.9807 93.3464C14.0116 100.714 24.4198 106.643 37.2278 106.589Z" fill="url(#paint17_radial_3907_2296)"/>
  </g>
  <defs>
    <filter id="filter0_f_3907_2296" x="9" y="0" width="56" height="124" filterUnits="userSpaceOnUse" color-interpolation-filters="sRGB">
      <feFlood flood-opacity="0" result="BackgroundImageFix"/>
      <feBlend mode="normal" in="SourceGraphic" in2="BackgroundImageFix" result="shape"/>
      <feGaussianBlur stdDeviation="3" result="effect1_foregroundBlur_3907_2296"/>
    </filter>
    <filter id="filter1_d_3907_2296" x="-0.117126" y="84.2866" width="72.5778" height="58.0707" filterUnits="userSpaceOnUse" color-interpolation-filters="sRGB">
      <feFlood flood-opacity="0" result="BackgroundImageFix"/>
      <feColorMatrix in="SourceAlpha" type="matrix" values="0 0 0 0 0 0 0 0 0 0 0 0 0 0 0 0 0 0 127 0" result="hardAlpha"/>
      <feOffset/>
      <feGaussianBlur stdDeviation="6.5"/>
      <feComposite in2="hardAlpha" operator="out"/>
      <feColorMatrix type="matrix" values="0 0 0 0 0 0 0 0 0 0 0 0 0 0 0 0 0 0 0.8 0"/>
      <feBlend mode="normal" in2="BackgroundImageFix" result="effect1_dropShadow_3907_2296"/>
      <feBlend mode="normal" in="SourceGraphic" in2="effect1_dropShadow_3907_2296" result="shape"/>
    </filter>
    <linearGradient id="paint0_linear_3907_2296" x1="36.9975" y1="140.934" x2="36.9975" y2="6" gradientUnits="userSpaceOnUse">
      <stop offset="1.38522e-07" stop-color="#3AE2D1"/>
      <stop offset="0.6397" stop-color="#054876" stop-opacity="0.3603"/>
      <stop offset="1" stop-color="#071033" stop-opacity="0"/>
    </linearGradient>
    <linearGradient id="paint1_linear_3907_2296" x1="21.783" y1="129.4" x2="68.872" y2="110.843" gradientUnits="userSpaceOnUse">
      <stop stop-color="#A31FA9"/>
      <stop offset="0.0667915" stop-color="#8B17A0"/>
      <stop offset="0.1494" stop-color="#740F98"/>
      <stop offset="0.2393" stop-color="#640A92"/>
      <stop offset="0.3408" stop-color="#5B078F"/>
      <stop offset="0.4785" stop-color="#58068E"/>
      <stop offset="0.6264" stop-color="#4D22A3"/>
      <stop offset="0.9436" stop-color="#3168DA"/>
      <stop offset="1" stop-color="#2C75E4"/>
    </linearGradient>
    <radialGradient id="paint2_radial_3907_2296" cx="0" cy="0" r="1" gradientUnits="userSpaceOnUse" gradientTransform="translate(57.4477 102.647) rotate(127.762) scale(34.6154 25.8879)">
      <stop stop-color="#14E1E2"/>
      <stop offset="1" stop-color="#1ED0F4" stop-opacity="0.01"/>
    </radialGradient>
    <radialGradient id="paint3_radial_3907_2296" cx="0" cy="0" r="1" gradientUnits="userSpaceOnUse" gradientTransform="translate(21.0427 97.4741) scale(41.568 18.8681)">
      <stop stop-color="#5C5CFF"/>
      <stop offset="1" stop-color="#5C5CFF" stop-opacity="0"/>
    </radialGradient>
    <radialGradient id="paint4_radial_3907_2296" cx="0" cy="0" r="1" gradientUnits="userSpaceOnUse" gradientTransform="translate(22.7938 124.172) scale(45.2749 36.8196)">
      <stop stop-color="#FF01DD"/>
      <stop offset="1" stop-color="#5C5CFF" stop-opacity="0"/>
    </radialGradient>
    <radialGradient id="paint5_radial_3907_2296" cx="0" cy="0" r="1" gradientUnits="userSpaceOnUse" gradientTransform="translate(14.8677 120.334) rotate(23.5365) scale(34.6821 32.6501)">
      <stop stop-color="#FF6F4F"/>
      <stop offset="1" stop-color="#FF01DD" stop-opacity="0"/>
    </radialGradient>
    <linearGradient id="paint6_linear_3907_2296" x1="15.1521" y1="115.908" x2="65.7949" y2="106.827" gradientUnits="userSpaceOnUse">
      <stop stop-color="#FF01DD"/>
      <stop offset="1" stop-color="#41B7FF"/>
    </linearGradient>
    <linearGradient id="paint7_linear_3907_2296" x1="18.0849" y1="116.98" x2="68.8648" y2="96.568" gradientUnits="userSpaceOnUse">
      <stop stop-color="#A31FA9"/>
      <stop offset="0.0667915" stop-color="#8B17A0"/>
      <stop offset="0.1494" stop-color="#740F98"/>
      <stop offset="0.2393" stop-color="#640A92"/>
      <stop offset="0.3408" stop-color="#5B078F"/>
      <stop offset="0.4785" stop-color="#58068E"/>
      <stop offset="0.6264" stop-color="#4D22A3"/>
      <stop offset="0.9436" stop-color="#3168DA"/>
      <stop offset="1" stop-color="#2C75E4"/>
    </linearGradient>
    <radialGradient id="paint8_radial_3907_2296" cx="0" cy="0" r="1" gradientUnits="userSpaceOnUse" gradientTransform="translate(57.3683 94.9465) rotate(127.779) scale(34.6236 25.8981)">
      <stop stop-color="#14E1E2"/>
      <stop offset="1" stop-color="#1ED0F4" stop-opacity="0.01"/>
    </radialGradient>
    <radialGradient id="paint9_radial_3907_2296" cx="0" cy="0" r="1" gradientUnits="userSpaceOnUse" gradientTransform="translate(20.9404 89.7737) scale(41.5943 18.8681)">
      <stop stop-color="#5C5CFF"/>
      <stop offset="1" stop-color="#5C5CFF" stop-opacity="0"/>
    </radialGradient>
    <radialGradient id="paint10_radial_3907_2296" cx="0" cy="0" r="1" gradientUnits="userSpaceOnUse" gradientTransform="translate(22.6926 116.472) scale(45.3035 36.8196)">
      <stop stop-color="#FF01DD"/>
      <stop offset="1" stop-color="#5C5CFF" stop-opacity="0"/>
    </radialGradient>
    <radialGradient id="paint11_radial_3907_2296" cx="0" cy="0" r="1" gradientUnits="userSpaceOnUse" gradientTransform="translate(14.7615 112.634) rotate(23.5232) scale(34.7005 32.6534)">
      <stop stop-color="#FF6F4F"/>
      <stop offset="1" stop-color="#FF01DD" stop-opacity="0"/>
    </radialGradient>
    <linearGradient id="paint12_linear_3907_2296" x1="15.074" y1="108.208" x2="65.7149" y2="99.121" gradientUnits="userSpaceOnUse">
      <stop stop-color="#FF01DD"/>
      <stop offset="1" stop-color="#41B7FF"/>
    </linearGradient>
    <linearGradient id="paint13_linear_3907_2296" x1="30.9315" y1="110.78" x2="61.5313" y2="97.2075" gradientUnits="userSpaceOnUse">
      <stop stop-color="#A31FA9"/>
      <stop offset="0.0667915" stop-color="#8B17A0"/>
      <stop offset="0.1494" stop-color="#740F98"/>
      <stop offset="0.2393" stop-color="#640A92"/>
      <stop offset="0.3408" stop-color="#5B078F"/>
      <stop offset="0.4785" stop-color="#58068E"/>
      <stop offset="0.6264" stop-color="#4D22A3"/>
      <stop offset="0.9436" stop-color="#3168DA"/>
      <stop offset="1" stop-color="#2C75E4"/>
    </linearGradient>
    <radialGradient id="paint14_radial_3907_2296" cx="0" cy="0" r="1" gradientUnits="userSpaceOnUse" gradientTransform="translate(58.3039 84.9909) rotate(127.501) scale(34.5804 25.8576)">
      <stop stop-color="#14E1E2"/>
      <stop offset="1" stop-color="#1ED0F4" stop-opacity="0.01"/>
    </radialGradient>
    <radialGradient id="paint15_radial_3907_2296" cx="0" cy="0" r="1" gradientUnits="userSpaceOnUse" gradientTransform="translate(21.931 79.9736) rotate(-0.239068) scale(41.5069 18.8547)">
      <stop stop-color="#5C5CFF"/>
      <stop offset="1" stop-color="#5C5CFF" stop-opacity="0"/>
    </radialGradient>
    <radialGradient id="paint16_radial_3907_2296" cx="0" cy="0" r="1" gradientUnits="userSpaceOnUse" gradientTransform="translate(23.7917 106.645) rotate(-0.239068) scale(45.2083 36.7933)">
      <stop stop-color="#FF01DD"/>
      <stop offset="1" stop-color="#5C5CFF" stop-opacity="0"/>
    </radialGradient>
    <radialGradient id="paint17_radial_3907_2296" cx="0" cy="0" r="1" gradientUnits="userSpaceOnUse" gradientTransform="translate(15.8612 102.843) rotate(23.313) scale(34.6357 32.6225)">
      <stop stop-color="#FF6F4F"/>
      <stop offset="1" stop-color="#FF01DD" stop-opacity="0"/>
    </radialGradient>
    <clipPath id="clip0_3907_2296">
      <rect width="70" height="79" fill="white" transform="translate(0 65)"/>
    </clipPath>
  </defs>
</svg>
