<svg width="113" height="148" viewBox="0 0 113 148" fill="none" xmlns="http://www.w3.org/2000/svg">
  <g filter="url(#filter0_f_3907_2297)">
    <path d="M102 6H12V114.315H12.0713C11.8575 115.471 12.4276 116.627 13.8527 117.494L52.0475 114.821C54.7553 116.41 59.5297 116.194 62.6651 114.387L99.3634 118C101.145 116.988 102 115.688 101.929 114.387H102V6Z" fill="url(#paint0_linear_3907_2297)"/>
  </g>
  <g clip-path="url(#clip0_3907_2297)">
    <g filter="url(#filter1_d_3907_2297)">
      <path d="M45.1077 98.8136C38.689 96.999 31.8895 96.999 25.4709 98.8136C16.4772 101.355 11.9607 106.163 11.8822 110.932C11.8822 112.73 11.8822 114.528 11.8822 116.287C11.8822 121.095 16.5558 125.825 25.5494 128.327C31.9681 130.142 38.7676 130.142 45.1862 128.327C54.1406 125.747 58.6571 120.978 58.7357 116.17C58.7357 114.411 58.7357 112.613 58.7357 110.815C58.6571 106.085 54.1014 101.315 45.1077 98.8136Z" fill="url(#paint1_linear_3907_2297)"/>
    </g>
    <path d="M51.902 101.55C61.0135 106.788 61.0528 115.271 51.902 120.548C46.7836 123.131 41.1259 124.477 35.3875 124.477C29.649 124.477 23.9913 123.131 18.8729 120.548C9.7614 115.349 9.72213 106.866 18.8729 101.589C23.9882 99.0005 29.6443 97.6479 35.3828 97.6411C41.1212 97.6343 46.7805 98.9735 51.902 101.55Z" fill="#41B7FF"/>
    <path d="M51.902 101.55C61.0135 106.788 61.0528 115.271 51.902 120.548C46.7836 123.131 41.1259 124.477 35.3875 124.477C29.649 124.477 23.9913 123.131 18.8729 120.548C9.7614 115.349 9.72213 106.866 18.8729 101.589C23.9882 99.0005 29.6443 97.6479 35.3828 97.6411C41.1212 97.6343 46.7805 98.9735 51.902 101.55Z" fill="url(#paint2_radial_3907_2297)"/>
    <path d="M51.902 101.55C61.0135 106.788 61.0528 115.271 51.902 120.548C46.7836 123.131 41.1259 124.477 35.3875 124.477C29.649 124.477 23.9913 123.131 18.8729 120.548C9.7614 115.349 9.72213 106.866 18.8729 101.589C23.9882 99.0005 29.6443 97.6479 35.3828 97.6411C41.1212 97.6343 46.7805 98.9735 51.902 101.55Z" fill="url(#paint3_radial_3907_2297)"/>
    <path d="M51.902 101.55C61.0135 106.788 61.0528 115.271 51.902 120.548C46.7836 123.131 41.1259 124.477 35.3875 124.477C29.649 124.477 23.9913 123.131 18.8729 120.548C9.7614 115.349 9.72213 106.866 18.8729 101.589C23.9882 99.0005 29.6443 97.6479 35.3828 97.6411C41.1212 97.6343 46.7805 98.9735 51.902 101.55Z" fill="url(#paint4_radial_3907_2297)"/>
    <path d="M51.902 101.55C61.0135 106.788 61.0528 115.271 51.902 120.548C46.7836 123.131 41.1259 124.477 35.3875 124.477C29.649 124.477 23.9913 123.131 18.8729 120.548C9.7614 115.349 9.72213 106.866 18.8729 101.589C23.9882 99.0005 29.6443 97.6479 35.3828 97.6411C41.1212 97.6343 46.7805 98.9735 51.902 101.55Z" fill="url(#paint5_radial_3907_2297)"/>
    <path opacity="0.6" d="M20.758 103.661C25.2904 101.368 30.303 100.172 35.3875 100.172C40.4719 100.172 45.4845 101.368 50.0169 103.661C55.9079 107.023 57.5182 111.909 54.8475 116.131C58.3036 111.635 56.8505 106.202 50.4096 102.527C45.7519 100.184 40.6062 98.9635 35.3875 98.9635C30.1687 98.9635 25.023 100.184 20.3653 102.527C13.9637 106.436 12.5106 111.675 16.0452 116.17C13.3353 111.909 15.0633 107.062 20.758 103.661Z" fill="url(#paint6_linear_3907_2297)"/>
    <path d="M45.0291 91.1127C38.672 89.3348 31.9458 89.3348 25.5887 91.1127C16.595 93.6927 12.0785 98.4617 12 103.231C12 105.029 12 106.827 12 108.625C12 113.394 16.6735 118.124 25.6672 120.626C32.0859 122.441 38.8854 122.441 45.304 120.626C54.2584 118.046 58.7749 113.277 58.8535 108.508C58.8535 106.71 58.8535 104.912 58.8535 103.114C58.5393 98.3445 53.9835 93.6145 45.0291 91.1127Z" fill="url(#paint7_linear_3907_2297)"/>
    <path d="M51.8235 93.8491C60.9349 99.0482 60.9742 107.531 51.8235 112.808C46.7051 115.391 41.0474 116.737 35.3089 116.737C29.5704 116.737 23.9127 115.391 18.7943 112.808C9.64355 107.609 9.60428 99.0873 18.7943 93.81C23.9158 91.2335 29.5751 89.8944 35.3136 89.9011C41.0521 89.9079 46.7082 91.2605 51.8235 93.8491Z" fill="#41B7FF"/>
    <path d="M51.8235 93.8491C60.9349 99.0482 60.9742 107.531 51.8235 112.808C46.7051 115.391 41.0474 116.737 35.3089 116.737C29.5704 116.737 23.9127 115.391 18.7943 112.808C9.64355 107.609 9.60428 99.0873 18.7943 93.81C23.9158 91.2335 29.5751 89.8944 35.3136 89.9011C41.0521 89.9079 46.7082 91.2605 51.8235 93.8491Z" fill="url(#paint8_radial_3907_2297)"/>
    <path d="M51.8235 93.8491C60.9349 99.0482 60.9742 107.531 51.8235 112.808C46.7051 115.391 41.0474 116.737 35.3089 116.737C29.5704 116.737 23.9127 115.391 18.7943 112.808C9.64355 107.609 9.60428 99.0873 18.7943 93.81C23.9158 91.2335 29.5751 89.8944 35.3136 89.9011C41.0521 89.9079 46.7082 91.2605 51.8235 93.8491Z" fill="url(#paint9_radial_3907_2297)"/>
    <path d="M51.8235 93.8491C60.9349 99.0482 60.9742 107.531 51.8235 112.808C46.7051 115.391 41.0474 116.737 35.3089 116.737C29.5704 116.737 23.9127 115.391 18.7943 112.808C9.64355 107.609 9.60428 99.0873 18.7943 93.81C23.9158 91.2335 29.5751 89.8944 35.3136 89.9011C41.0521 89.9079 46.7082 91.2605 51.8235 93.8491Z" fill="url(#paint10_radial_3907_2297)"/>
    <path d="M51.8235 93.8491C60.9349 99.0482 60.9742 107.531 51.8235 112.808C46.7051 115.391 41.0474 116.737 35.3089 116.737C29.5704 116.737 23.9127 115.391 18.7943 112.808C9.64355 107.609 9.60428 99.0873 18.7943 93.81C23.9158 91.2335 29.5751 89.8944 35.3136 89.9011C41.0521 89.9079 46.7082 91.2605 51.8235 93.8491Z" fill="url(#paint11_radial_3907_2297)"/>
    <path d="M50.4096 94.7091C58.7356 99.4391 58.7749 107.179 50.4096 111.987C45.7478 114.34 40.5945 115.566 35.3678 115.566C30.1411 115.566 24.9878 114.34 20.326 111.987C12.0392 107.257 12 99.5173 20.326 94.7091C24.9832 92.3414 30.1382 91.1068 35.3678 91.1068C40.5974 91.1068 45.7524 92.3414 50.4096 94.7091Z" fill="url(#paint12_linear_3907_2297)"/>
    <path opacity="0.6" d="M20.6795 95.9209C25.2146 93.6367 30.2261 92.4464 35.3089 92.4464C40.3917 92.4464 45.4032 93.6367 49.9383 95.9209C55.8294 99.2828 57.4396 104.169 54.769 108.391C58.2251 103.895 56.772 98.4619 50.3311 94.8264C45.6789 92.4652 40.531 91.2341 35.3089 91.2341C30.0868 91.2341 24.9389 92.4652 20.2867 94.8264C13.8851 98.7355 12.432 103.974 15.9666 108.43C13.2568 104.091 14.8277 99.3219 20.6795 95.9209Z" fill="url(#paint13_linear_3907_2297)"/>
    <path d="M45.0684 85.0145C38.6527 83.1791 31.8473 83.1791 25.4316 85.0145C16.4379 87.5555 11.9214 92.3636 11.8429 97.1327C11.8429 98.9309 11.8429 100.729 11.8429 102.527C11.8429 107.296 16.5165 112.026 25.5101 114.528C31.9288 116.343 38.7283 116.343 45.147 114.528C54.1014 111.948 58.6178 107.179 58.6964 102.41C58.6964 100.612 58.6964 98.8136 58.6964 97.0155C58.6178 92.3636 54.0621 87.4773 45.0684 85.0145Z" fill="url(#paint14_linear_3907_2297)"/>
    <path d="M51.8627 87.7508C60.9742 92.9499 61.0135 101.433 51.8627 106.71C46.7444 109.293 41.0866 110.638 35.3482 110.638C29.6097 110.638 23.952 109.293 18.8336 106.71C9.68283 101.472 9.68283 92.989 18.8336 87.7117C23.9551 85.1352 29.6144 83.7961 35.3529 83.8029C41.0913 83.8097 46.7474 85.1622 51.8627 87.7508Z" fill="#41B7FF"/>
    <path d="M51.8627 87.7508C60.9742 92.9499 61.0135 101.433 51.8627 106.71C46.7444 109.293 41.0866 110.638 35.3482 110.638C29.6097 110.638 23.952 109.293 18.8336 106.71C9.68283 101.472 9.68283 92.989 18.8336 87.7117C23.9551 85.1352 29.6144 83.7961 35.3529 83.8029C41.0913 83.8097 46.7474 85.1622 51.8627 87.7508Z" fill="url(#paint15_radial_3907_2297)"/>
    <path d="M51.8627 87.7508C60.9742 92.9499 61.0135 101.433 51.8627 106.71C46.7444 109.293 41.0866 110.638 35.3482 110.638C29.6097 110.638 23.952 109.293 18.8336 106.71C9.68283 101.472 9.68283 92.989 18.8336 87.7117C23.9551 85.1352 29.6144 83.7961 35.3529 83.8029C41.0913 83.8097 46.7474 85.1622 51.8627 87.7508Z" fill="url(#paint16_radial_3907_2297)"/>
    <path d="M51.8627 87.7508C60.9742 92.9499 61.0135 101.433 51.8627 106.71C46.7444 109.293 41.0866 110.638 35.3482 110.638C29.6097 110.638 23.952 109.293 18.8336 106.71C9.68283 101.472 9.68283 92.989 18.8336 87.7117C23.9551 85.1352 29.6144 83.7961 35.3529 83.8029C41.0913 83.8097 46.7474 85.1622 51.8627 87.7508Z" fill="url(#paint17_radial_3907_2297)"/>
    <path d="M51.8627 87.7508C60.9742 92.9499 61.0135 101.433 51.8627 106.71C46.7444 109.293 41.0866 110.638 35.3482 110.638C29.6097 110.638 23.952 109.293 18.8336 106.71C9.68283 101.472 9.68283 92.989 18.8336 87.7117C23.9551 85.1352 29.6144 83.7961 35.3529 83.8029C41.0913 83.8097 46.7474 85.1622 51.8627 87.7508Z" fill="url(#paint18_radial_3907_2297)"/>
    <path d="M50.4096 88.4545C58.7356 93.2236 58.7749 100.964 50.4096 105.772C45.7519 108.115 40.6062 109.336 35.3875 109.336C30.1687 109.336 25.023 108.115 20.3653 105.772C12.0393 101.042 12 93.3018 20.3653 88.4936C25.0171 86.1355 30.1623 84.9029 35.3828 84.8961C40.6032 84.8894 45.7516 86.1085 50.4096 88.4545Z" fill="url(#paint19_linear_3907_2297)"/>
    <path opacity="0.6" d="M20.7187 89.8226C25.2539 87.5384 30.2654 86.3482 35.3482 86.3482C40.4309 86.3482 45.4424 87.5384 49.9776 89.8226C55.8686 93.1845 57.4789 98.0708 54.8083 102.293C58.2643 97.7972 56.8112 92.3636 50.3703 88.689C45.7154 86.3369 40.5686 85.1111 35.3482 85.1111C30.1277 85.1111 24.9809 86.3369 20.326 88.689C13.9244 92.3636 12.4713 97.8363 16.0059 102.293C13.296 98.149 15.0633 93.2236 20.7187 89.8226Z" fill="url(#paint20_linear_3907_2297)"/>
    <path d="M45.1077 78.9163C38.692 77.0808 31.8866 77.0808 25.4709 78.9163C16.4772 81.4572 11.9607 86.2654 11.8822 91.0345C11.8822 92.8327 11.8822 94.6308 11.8822 96.3899C11.8822 101.198 16.5558 105.928 25.5494 108.43C31.9681 110.245 38.7676 110.245 45.1862 108.43C54.1406 105.85 58.6571 101.081 58.7357 96.2727C58.7357 94.5136 58.7357 92.7154 58.7357 90.9172C58.6571 86.1481 54.1014 81.379 45.1077 78.9163Z" fill="url(#paint21_linear_3907_2297)"/>
    <path d="M51.902 81.6527C61.0135 86.8518 61.0528 95.3345 51.902 100.612C46.7836 103.194 41.1259 104.54 35.3875 104.54C29.649 104.54 23.9913 103.194 18.8729 100.612C9.7614 95.4127 9.72213 86.9299 18.8729 81.6527C23.9913 79.0701 29.649 77.7242 35.3875 77.7242C41.1259 77.7242 46.7836 79.0701 51.902 81.6527Z" fill="#41B7FF"/>
    <path d="M51.902 81.6527C61.0135 86.8518 61.0528 95.3345 51.902 100.612C46.7836 103.194 41.1259 104.54 35.3875 104.54C29.649 104.54 23.9913 103.194 18.8729 100.612C9.7614 95.4127 9.72213 86.9299 18.8729 81.6527C23.9913 79.0701 29.649 77.7242 35.3875 77.7242C41.1259 77.7242 46.7836 79.0701 51.902 81.6527Z" fill="url(#paint22_radial_3907_2297)"/>
    <path d="M51.902 81.6527C61.0135 86.8518 61.0528 95.3345 51.902 100.612C46.7836 103.194 41.1259 104.54 35.3875 104.54C29.649 104.54 23.9913 103.194 18.8729 100.612C9.7614 95.4127 9.72213 86.9299 18.8729 81.6527C23.9913 79.0701 29.649 77.7242 35.3875 77.7242C41.1259 77.7242 46.7836 79.0701 51.902 81.6527Z" fill="url(#paint23_radial_3907_2297)"/>
    <path d="M51.902 81.6527C61.0135 86.8518 61.0528 95.3345 51.902 100.612C46.7836 103.194 41.1259 104.54 35.3875 104.54C29.649 104.54 23.9913 103.194 18.8729 100.612C9.7614 95.4127 9.72213 86.9299 18.8729 81.6527C23.9913 79.0701 29.649 77.7242 35.3875 77.7242C41.1259 77.7242 46.7836 79.0701 51.902 81.6527Z" fill="url(#paint24_radial_3907_2297)"/>
    <path d="M51.902 81.6527C61.0135 86.8518 61.0528 95.3345 51.902 100.612C46.7836 103.194 41.1259 104.54 35.3875 104.54C29.649 104.54 23.9913 103.194 18.8729 100.612C9.7614 95.4127 9.72213 86.9299 18.8729 81.6527C23.9913 79.0701 29.649 77.7242 35.3875 77.7242C41.1259 77.7242 46.7836 79.0701 51.902 81.6527Z" fill="url(#paint25_radial_3907_2297)"/>
    <path opacity="0.6" d="M20.758 83.7245C25.2932 81.4403 30.3047 80.25 35.3875 80.25C40.4702 80.25 45.4817 81.4403 50.0169 83.7245C55.9079 87.0864 57.5182 91.9727 54.8475 96.1945C58.3036 91.6991 56.8505 86.2654 50.4096 82.5909C45.7547 80.2388 40.6079 79.0129 35.3875 79.0129C30.167 79.0129 25.0202 80.2388 20.3653 82.5909C13.9637 86.2654 12.5106 91.7382 16.0452 96.1945C13.3353 92.0509 15.0633 87.1254 20.758 83.7245Z" fill="url(#paint26_linear_3907_2297)"/>
    <path d="M52.4126 76.4536C60.7386 81.1836 60.7779 88.9236 52.4126 93.7318C47.7535 96.0934 42.5992 97.3244 37.3708 97.3244C32.1424 97.3244 26.9881 96.0934 22.329 93.7318C14.003 89.0018 14.003 81.2618 22.329 76.4536C26.9908 74.1012 32.144 72.8752 37.3708 72.8752C42.5975 72.8752 47.7507 74.1012 52.4126 76.4536Z" fill="url(#paint27_linear_3907_2297)"/>
    <path opacity="0.6" d="M22.9181 77.7046C27.4505 75.4112 32.463 74.2158 37.5475 74.2158C42.6319 74.2158 47.6445 75.4112 52.1769 77.7046C58.068 81.0664 59.6782 85.9528 57.0076 90.1746C60.4637 85.6791 58.9713 80.2455 52.5697 76.5709C47.9078 74.2185 42.7546 72.9926 37.5279 72.9926C32.3011 72.9926 27.1479 74.2185 22.486 76.5709C16.1237 80.48 14.6313 85.7182 18.166 90.2136C15.3383 85.9918 16.9092 81.1055 22.9181 77.7046Z" fill="url(#paint28_linear_3907_2297)"/>
    <path d="M45.9748 71.8817C39.6177 70.1039 32.8914 70.1039 26.5343 71.8817C17.58 74.4617 13.0635 79.2308 12.9849 84.039C12.9849 85.7981 12.9849 87.5962 12.9849 89.3944C12.9849 94.1635 17.6978 98.9326 26.6522 101.395C33.0064 103.194 39.7384 103.194 46.0926 101.395C55.0863 98.8544 59.6027 94.0462 59.6813 89.2771C59.6813 87.479 59.6813 85.6808 59.6813 83.9217C59.5242 79.1135 54.9684 74.5008 45.9748 71.8817Z" fill="url(#paint29_linear_3907_2297)"/>
    <path d="M36.3712 97.5557C49.2551 97.5019 59.6743 91.4554 59.6431 84.0503C59.612 76.6453 49.1422 70.6858 36.2583 70.7395C23.3745 70.7932 12.9553 76.8398 12.9864 84.2449C13.0176 91.6499 23.4873 97.6094 36.3712 97.5557Z" fill="#41B7FF"/>
    <path d="M36.3712 97.5557C49.2551 97.5019 59.6743 91.4554 59.6431 84.0503C59.612 76.6453 49.1422 70.6858 36.2583 70.7395C23.3745 70.7932 12.9553 76.8398 12.9864 84.2449C13.0176 91.6499 23.4873 97.6094 36.3712 97.5557Z" fill="url(#paint30_radial_3907_2297)"/>
    <path d="M36.3712 97.5557C49.2551 97.5019 59.6743 91.4554 59.6431 84.0503C59.612 76.6453 49.1422 70.6858 36.2583 70.7395C23.3745 70.7932 12.9553 76.8398 12.9864 84.2449C13.0176 91.6499 23.4873 97.6094 36.3712 97.5557Z" fill="url(#paint31_radial_3907_2297)"/>
    <path d="M36.3712 97.5557C49.2551 97.5019 59.6743 91.4554 59.6431 84.0503C59.612 76.6453 49.1422 70.6858 36.2583 70.7395C23.3745 70.7932 12.9553 76.8398 12.9864 84.2449C13.0176 91.6499 23.4873 97.6094 36.3712 97.5557Z" fill="url(#paint32_radial_3907_2297)"/>
    <path d="M36.3712 97.5557C49.2551 97.5019 59.6743 91.4554 59.6431 84.0503C59.612 76.6453 49.1422 70.6858 36.2583 70.7395C23.3745 70.7932 12.9553 76.8398 12.9864 84.2449C13.0176 91.6499 23.4873 97.6094 36.3712 97.5557Z" fill="url(#paint33_radial_3907_2297)"/>
    <g filter="url(#filter2_d_3907_2297)">
      <path d="M91.2935 101.902C84.9364 100.124 78.2101 100.124 71.8531 101.902C62.8594 104.482 58.3429 109.251 58.2643 114.059C58.2643 115.857 58.2643 117.616 58.2643 119.415C58.2643 124.223 62.9379 128.953 71.9316 131.455C78.2886 133.232 85.0149 133.232 91.372 131.455C100.326 128.875 104.843 124.105 104.921 119.297C104.921 117.499 104.921 115.74 104.921 113.942C104.843 109.134 100.287 104.404 91.2935 101.902Z" fill="url(#paint34_linear_3907_2297)"/>
    </g>
    <path d="M98.0878 104.638C107.199 109.837 107.239 118.359 98.0878 123.636C92.9694 126.219 87.3117 127.565 81.5732 127.565C75.8348 127.565 70.1771 126.219 65.0587 123.636C55.9472 118.437 55.9079 109.954 65.0587 104.677C70.174 102.089 75.8301 100.736 81.5685 100.729C87.307 100.722 92.9663 102.062 98.0878 104.638Z" fill="#41B7FF"/>
    <path d="M98.0878 104.638C107.199 109.837 107.239 118.359 98.0878 123.636C92.9694 126.219 87.3117 127.565 81.5732 127.565C75.8348 127.565 70.1771 126.219 65.0587 123.636C55.9472 118.437 55.9079 109.954 65.0587 104.677C70.174 102.089 75.8301 100.736 81.5685 100.729C87.307 100.722 92.9663 102.062 98.0878 104.638Z" fill="url(#paint35_radial_3907_2297)"/>
    <path d="M98.0878 104.638C107.199 109.837 107.239 118.359 98.0878 123.636C92.9694 126.219 87.3117 127.565 81.5732 127.565C75.8348 127.565 70.1771 126.219 65.0587 123.636C55.9472 118.437 55.9079 109.954 65.0587 104.677C70.174 102.089 75.8301 100.736 81.5685 100.729C87.307 100.722 92.9663 102.062 98.0878 104.638Z" fill="url(#paint36_radial_3907_2297)"/>
    <path d="M98.0878 104.638C107.199 109.837 107.239 118.359 98.0878 123.636C92.9694 126.219 87.3117 127.565 81.5732 127.565C75.8348 127.565 70.1771 126.219 65.0587 123.636C55.9472 118.437 55.9079 109.954 65.0587 104.677C70.174 102.089 75.8301 100.736 81.5685 100.729C87.307 100.722 92.9663 102.062 98.0878 104.638Z" fill="url(#paint37_radial_3907_2297)"/>
    <path d="M98.0878 104.638C107.199 109.837 107.239 118.359 98.0878 123.636C92.9694 126.219 87.3117 127.565 81.5732 127.565C75.8348 127.565 70.1771 126.219 65.0587 123.636C55.9472 118.437 55.9079 109.954 65.0587 104.677C70.174 102.089 75.8301 100.736 81.5685 100.729C87.307 100.722 92.9663 102.062 98.0878 104.638Z" fill="url(#paint38_radial_3907_2297)"/>
    <path opacity="0.6" d="M66.9438 106.749C71.4762 104.456 76.4888 103.26 81.5732 103.26C86.6577 103.26 91.6703 104.456 96.2027 106.749C102.094 110.111 103.704 114.997 101.033 119.219C104.489 114.724 103.036 109.29 96.5954 105.615C91.9404 103.263 86.7937 102.037 81.5732 102.037C76.3528 102.037 71.206 103.263 66.5511 105.615C60.1495 109.524 58.6964 114.763 62.231 119.258C59.5211 115.036 61.092 110.15 66.9438 106.749Z" fill="url(#paint39_linear_3907_2297)"/>
    <path d="M79.5635 118.721C91.2978 118.672 100.787 113.154 100.759 106.397C100.73 99.6395 91.1948 94.2012 79.4605 94.2502C67.7262 94.2991 58.2367 99.8167 58.2651 106.574C58.2936 113.332 67.8292 118.77 79.5635 118.721Z" fill="url(#paint40_linear_3907_2297)"/>
    <path opacity="0.6" d="M64.8231 99.0091C69.3583 96.7248 74.3698 95.5346 79.4525 95.5346C84.5353 95.5346 89.5468 96.7248 94.0819 99.0091C99.973 102.371 101.583 107.257 98.9126 111.479C102.369 106.984 100.916 101.55 94.4747 97.8755C89.8197 95.5234 84.673 94.2975 79.4525 94.2975C74.2321 94.2975 69.0853 95.5234 64.4303 97.8755C58.0287 101.55 56.5756 107.023 60.1103 111.479C57.4004 107.335 58.9713 102.41 64.8231 99.0091Z" fill="url(#paint41_linear_3907_2297)"/>
    <path d="M89.7232 95.0153C83.369 93.2171 76.6369 93.2171 70.2827 95.0153C61.289 97.5562 56.7726 102.364 56.694 107.133C56.694 108.932 56.694 110.73 56.694 112.489C56.694 117.297 61.3676 122.027 70.3612 124.529C76.7799 126.344 83.5794 126.344 89.9981 124.529C98.9525 121.949 103.469 117.18 103.547 112.372C103.547 110.613 103.547 108.814 103.547 107.016C103.273 102.247 98.7169 97.478 89.7232 95.0153Z" fill="url(#paint42_linear_3907_2297)"/>
    <path d="M96.2998 97.5952C105.401 102.795 105.44 111.278 96.2998 116.555C91.2093 119.138 85.5825 120.484 79.8754 120.484C74.1682 120.484 68.5414 119.138 63.451 116.555C54.3892 111.356 54.3502 102.873 63.451 97.5952C68.5414 95.0125 74.1682 93.6666 79.8754 93.6666C85.5825 93.6666 91.2093 95.0125 96.2998 97.5952Z" fill="#41B7FF"/>
    <path d="M96.2998 97.5952C105.401 102.795 105.44 111.278 96.2998 116.555C91.2093 119.138 85.5825 120.484 79.8754 120.484C74.1682 120.484 68.5414 119.138 63.451 116.555C54.3892 111.356 54.3502 102.873 63.451 97.5952C68.5414 95.0125 74.1682 93.6666 79.8754 93.6666C85.5825 93.6666 91.2093 95.0125 96.2998 97.5952Z" fill="url(#paint43_radial_3907_2297)"/>
    <path d="M96.2998 97.5952C105.401 102.795 105.44 111.278 96.2998 116.555C91.2093 119.138 85.5825 120.484 79.8754 120.484C74.1682 120.484 68.5414 119.138 63.451 116.555C54.3892 111.356 54.3502 102.873 63.451 97.5952C68.5414 95.0125 74.1682 93.6666 79.8754 93.6666C85.5825 93.6666 91.2093 95.0125 96.2998 97.5952Z" fill="url(#paint44_radial_3907_2297)"/>
    <path d="M96.2998 97.5952C105.401 102.795 105.44 111.278 96.2998 116.555C91.2093 119.138 85.5825 120.484 79.8754 120.484C74.1682 120.484 68.5414 119.138 63.451 116.555C54.3892 111.356 54.3502 102.873 63.451 97.5952C68.5414 95.0125 74.1682 93.6666 79.8754 93.6666C85.5825 93.6666 91.2093 95.0125 96.2998 97.5952Z" fill="url(#paint45_radial_3907_2297)"/>
    <path d="M96.2998 97.5952C105.401 102.795 105.44 111.278 96.2998 116.555C91.2093 119.138 85.5825 120.484 79.8754 120.484C74.1682 120.484 68.5414 119.138 63.451 116.555C54.3892 111.356 54.3502 102.873 63.451 97.5952C68.5414 95.0125 74.1682 93.6666 79.8754 93.6666C85.5825 93.6666 91.2093 95.0125 96.2998 97.5952Z" fill="url(#paint46_radial_3907_2297)"/>
  </g>
  <defs>
    <filter id="filter0_f_3907_2297" x="6" y="0" width="102" height="124" filterUnits="userSpaceOnUse" color-interpolation-filters="sRGB">
      <feFlood flood-opacity="0" result="BackgroundImageFix"/>
      <feBlend mode="normal" in="SourceGraphic" in2="BackgroundImageFix" result="shape"/>
      <feGaussianBlur stdDeviation="3" result="effect1_foregroundBlur_3907_2297"/>
    </filter>
    <filter id="filter1_d_3907_2297" x="-1.1178" y="84.4526" width="72.8535" height="58.2356" filterUnits="userSpaceOnUse" color-interpolation-filters="sRGB">
      <feFlood flood-opacity="0" result="BackgroundImageFix"/>
      <feColorMatrix in="SourceAlpha" type="matrix" values="0 0 0 0 0 0 0 0 0 0 0 0 0 0 0 0 0 0 127 0" result="hardAlpha"/>
      <feOffset/>
      <feGaussianBlur stdDeviation="6.5"/>
      <feComposite in2="hardAlpha" operator="out"/>
      <feColorMatrix type="matrix" values="0 0 0 0 0 0 0 0 0 0 0 0 0 0 0 0 0 0 0.8 0"/>
      <feBlend mode="normal" in2="BackgroundImageFix" result="effect1_dropShadow_3907_2297"/>
      <feBlend mode="normal" in="SourceGraphic" in2="effect1_dropShadow_3907_2297" result="shape"/>
    </filter>
    <filter id="filter2_d_3907_2297" x="45.2643" y="87.5685" width="72.6571" height="58.2195" filterUnits="userSpaceOnUse" color-interpolation-filters="sRGB">
      <feFlood flood-opacity="0" result="BackgroundImageFix"/>
      <feColorMatrix in="SourceAlpha" type="matrix" values="0 0 0 0 0 0 0 0 0 0 0 0 0 0 0 0 0 0 127 0" result="hardAlpha"/>
      <feOffset/>
      <feGaussianBlur stdDeviation="6.5"/>
      <feComposite in2="hardAlpha" operator="out"/>
      <feColorMatrix type="matrix" values="0 0 0 0 0 0 0 0 0 0 0 0 0 0 0 0 0 0 0.8 0"/>
      <feBlend mode="normal" in2="BackgroundImageFix" result="effect1_dropShadow_3907_2297"/>
      <feBlend mode="normal" in="SourceGraphic" in2="effect1_dropShadow_3907_2297" result="shape"/>
    </filter>
    <linearGradient id="paint0_linear_3907_2297" x1="56.9949" y1="140.934" x2="56.9949" y2="6" gradientUnits="userSpaceOnUse">
      <stop offset="1.38522e-07" stop-color="#3AE2D1"/>
      <stop offset="0.6397" stop-color="#054876" stop-opacity="0.3603"/>
      <stop offset="1" stop-color="#071033" stop-opacity="0"/>
    </linearGradient>
    <linearGradient id="paint1_linear_3907_2297" x1="20.835" y1="129.731" x2="68.1929" y2="111.054" gradientUnits="userSpaceOnUse">
      <stop stop-color="#A31FA9"/>
      <stop offset="0.0667915" stop-color="#8B17A0"/>
      <stop offset="0.1494" stop-color="#740F98"/>
      <stop offset="0.2393" stop-color="#640A92"/>
      <stop offset="0.3408" stop-color="#5B078F"/>
      <stop offset="0.4785" stop-color="#58068E"/>
      <stop offset="0.6264" stop-color="#4D22A3"/>
      <stop offset="0.9436" stop-color="#3168DA"/>
      <stop offset="1" stop-color="#2C75E4"/>
    </linearGradient>
    <radialGradient id="paint2_radial_3907_2297" cx="0" cy="0" r="1" gradientUnits="userSpaceOnUse" gradientTransform="translate(56.7107 102.84) rotate(127.783) scale(34.8035 26.0336)">
      <stop stop-color="#14E1E2"/>
      <stop offset="1" stop-color="#1ED0F4" stop-opacity="0.01"/>
    </radialGradient>
    <radialGradient id="paint3_radial_3907_2297" cx="0" cy="0" r="1" gradientUnits="userSpaceOnUse" gradientTransform="translate(20.0903 97.6411) scale(41.8141 18.9652)">
      <stop stop-color="#5C5CFF"/>
      <stop offset="1" stop-color="#5C5CFF" stop-opacity="0"/>
    </radialGradient>
    <radialGradient id="paint4_radial_3907_2297" cx="0" cy="0" r="1" gradientUnits="userSpaceOnUse" gradientTransform="translate(21.8518 124.477) scale(45.5428 37.0089)">
      <stop stop-color="#FF01DD"/>
      <stop offset="1" stop-color="#5C5CFF" stop-opacity="0"/>
    </radialGradient>
    <radialGradient id="paint5_radial_3907_2297" cx="0" cy="0" r="1" gradientUnits="userSpaceOnUse" gradientTransform="translate(13.8787 120.619) rotate(23.5203) scale(34.8831 32.822)">
      <stop stop-color="#FF6F4F"/>
      <stop offset="1" stop-color="#FF01DD" stop-opacity="0"/>
    </radialGradient>
    <linearGradient id="paint6_linear_3907_2297" x1="14.1648" y1="116.17" x2="65.1049" y2="107.028" gradientUnits="userSpaceOnUse">
      <stop stop-color="#FF01DD"/>
      <stop offset="1" stop-color="#41B7FF"/>
    </linearGradient>
    <linearGradient id="paint7_linear_3907_2297" x1="17.115" y1="117.247" x2="68.1845" y2="96.703" gradientUnits="userSpaceOnUse">
      <stop stop-color="#A31FA9"/>
      <stop offset="0.0667915" stop-color="#8B17A0"/>
      <stop offset="0.1494" stop-color="#740F98"/>
      <stop offset="0.2393" stop-color="#640A92"/>
      <stop offset="0.3408" stop-color="#5B078F"/>
      <stop offset="0.4785" stop-color="#58068E"/>
      <stop offset="0.6264" stop-color="#4D22A3"/>
      <stop offset="0.9436" stop-color="#3168DA"/>
      <stop offset="1" stop-color="#2C75E4"/>
    </linearGradient>
    <radialGradient id="paint8_radial_3907_2297" cx="0" cy="0" r="1" gradientUnits="userSpaceOnUse" gradientTransform="translate(56.6309 95.1005) rotate(127.801) scale(34.8117 26.0439)">
      <stop stop-color="#14E1E2"/>
      <stop offset="1" stop-color="#1ED0F4" stop-opacity="0.01"/>
    </radialGradient>
    <radialGradient id="paint9_radial_3907_2297" cx="0" cy="0" r="1" gradientUnits="userSpaceOnUse" gradientTransform="translate(19.9874 89.9011) scale(41.8404 18.9652)">
      <stop stop-color="#5C5CFF"/>
      <stop offset="1" stop-color="#5C5CFF" stop-opacity="0"/>
    </radialGradient>
    <radialGradient id="paint10_radial_3907_2297" cx="0" cy="0" r="1" gradientUnits="userSpaceOnUse" gradientTransform="translate(21.75 116.737) scale(45.5716 37.0089)">
      <stop stop-color="#FF01DD"/>
      <stop offset="1" stop-color="#5C5CFF" stop-opacity="0"/>
    </radialGradient>
    <radialGradient id="paint11_radial_3907_2297" cx="0" cy="0" r="1" gradientUnits="userSpaceOnUse" gradientTransform="translate(13.7719 112.879) rotate(23.5071) scale(34.9016 32.8253)">
      <stop stop-color="#FF6F4F"/>
      <stop offset="1" stop-color="#FF01DD" stop-opacity="0"/>
    </radialGradient>
    <linearGradient id="paint12_linear_3907_2297" x1="14.0962" y1="115.566" x2="65.9328" y2="109.011" gradientUnits="userSpaceOnUse">
      <stop stop-color="#FF01DD"/>
      <stop offset="1" stop-color="#41B7FF"/>
    </linearGradient>
    <linearGradient id="paint13_linear_3907_2297" x1="14.0862" y1="108.43" x2="65.0244" y2="99.2828" gradientUnits="userSpaceOnUse">
      <stop stop-color="#FF01DD"/>
      <stop offset="1" stop-color="#41B7FF"/>
    </linearGradient>
    <linearGradient id="paint14_linear_3907_2297" x1="21.765" y1="113.548" x2="67.2543" y2="93.9418" gradientUnits="userSpaceOnUse">
      <stop stop-color="#A31FA9"/>
      <stop offset="0.0667915" stop-color="#8B17A0"/>
      <stop offset="0.1494" stop-color="#740F98"/>
      <stop offset="0.2393" stop-color="#640A92"/>
      <stop offset="0.3408" stop-color="#5B078F"/>
      <stop offset="0.4785" stop-color="#58068E"/>
      <stop offset="0.6264" stop-color="#4D22A3"/>
      <stop offset="0.9436" stop-color="#3168DA"/>
      <stop offset="1" stop-color="#2C75E4"/>
    </linearGradient>
    <radialGradient id="paint15_radial_3907_2297" cx="0" cy="0" r="1" gradientUnits="userSpaceOnUse" gradientTransform="translate(56.6708 89.0022) rotate(127.792) scale(34.8076 26.0387)">
      <stop stop-color="#14E1E2"/>
      <stop offset="1" stop-color="#1ED0F4" stop-opacity="0.01"/>
    </radialGradient>
    <radialGradient id="paint16_radial_3907_2297" cx="0" cy="0" r="1" gradientUnits="userSpaceOnUse" gradientTransform="translate(20.0388 83.8029) scale(41.8273 18.9652)">
      <stop stop-color="#5C5CFF"/>
      <stop offset="1" stop-color="#5C5CFF" stop-opacity="0"/>
    </radialGradient>
    <radialGradient id="paint17_radial_3907_2297" cx="0" cy="0" r="1" gradientUnits="userSpaceOnUse" gradientTransform="translate(21.8009 110.638) scale(45.5572 37.0089)">
      <stop stop-color="#FF01DD"/>
      <stop offset="1" stop-color="#5C5CFF" stop-opacity="0"/>
    </radialGradient>
    <radialGradient id="paint18_radial_3907_2297" cx="0" cy="0" r="1" gradientUnits="userSpaceOnUse" gradientTransform="translate(13.8253 106.781) rotate(23.5137) scale(34.8923 32.8237)">
      <stop stop-color="#FF6F4F"/>
      <stop offset="1" stop-color="#FF01DD" stop-opacity="0"/>
    </radialGradient>
    <linearGradient id="paint19_linear_3907_2297" x1="14.106" y1="109.336" x2="65.9298" y2="102.779" gradientUnits="userSpaceOnUse">
      <stop stop-color="#FF01DD"/>
      <stop offset="1" stop-color="#41B7FF"/>
    </linearGradient>
    <linearGradient id="paint20_linear_3907_2297" x1="14.1255" y1="102.293" x2="65.061" y2="93.1382" gradientUnits="userSpaceOnUse">
      <stop stop-color="#FF01DD"/>
      <stop offset="1" stop-color="#41B7FF"/>
    </linearGradient>
    <linearGradient id="paint21_linear_3907_2297" x1="23.625" y1="108.462" x2="65.8486" y2="87.9302" gradientUnits="userSpaceOnUse">
      <stop stop-color="#A31FA9"/>
      <stop offset="0.0667915" stop-color="#8B17A0"/>
      <stop offset="0.1494" stop-color="#740F98"/>
      <stop offset="0.2393" stop-color="#640A92"/>
      <stop offset="0.3408" stop-color="#5B078F"/>
      <stop offset="0.4785" stop-color="#58068E"/>
      <stop offset="0.6264" stop-color="#4D22A3"/>
      <stop offset="0.9436" stop-color="#3168DA"/>
      <stop offset="1" stop-color="#2C75E4"/>
    </linearGradient>
    <radialGradient id="paint22_radial_3907_2297" cx="0" cy="0" r="1" gradientUnits="userSpaceOnUse" gradientTransform="translate(56.7107 82.9198) rotate(127.804) scale(34.7876 26.0265)">
      <stop stop-color="#14E1E2"/>
      <stop offset="1" stop-color="#1ED0F4" stop-opacity="0.01"/>
    </radialGradient>
    <radialGradient id="paint23_radial_3907_2297" cx="0" cy="0" r="1" gradientUnits="userSpaceOnUse" gradientTransform="translate(20.0903 77.7242) scale(41.8141 18.9513)">
      <stop stop-color="#5C5CFF"/>
      <stop offset="1" stop-color="#5C5CFF" stop-opacity="0"/>
    </radialGradient>
    <radialGradient id="paint24_radial_3907_2297" cx="0" cy="0" r="1" gradientUnits="userSpaceOnUse" gradientTransform="translate(21.8518 104.54) scale(45.5428 36.9819)">
      <stop stop-color="#FF01DD"/>
      <stop offset="1" stop-color="#5C5CFF" stop-opacity="0"/>
    </radialGradient>
    <radialGradient id="paint25_radial_3907_2297" cx="0" cy="0" r="1" gradientUnits="userSpaceOnUse" gradientTransform="translate(13.8787 100.685) rotate(23.505) scale(34.879 32.8019)">
      <stop stop-color="#FF6F4F"/>
      <stop offset="1" stop-color="#FF01DD" stop-opacity="0"/>
    </radialGradient>
    <linearGradient id="paint26_linear_3907_2297" x1="14.1648" y1="96.1945" x2="65.1003" y2="87.0401" gradientUnits="userSpaceOnUse">
      <stop stop-color="#FF01DD"/>
      <stop offset="1" stop-color="#41B7FF"/>
    </linearGradient>
    <linearGradient id="paint27_linear_3907_2297" x1="16.0845" y1="97.3244" x2="67.9378" y2="90.7625" gradientUnits="userSpaceOnUse">
      <stop stop-color="#FF01DD"/>
      <stop offset="1" stop-color="#41B7FF"/>
    </linearGradient>
    <linearGradient id="paint28_linear_3907_2297" x1="16.2951" y1="90.2137" x2="67.2608" y2="81.0705" gradientUnits="userSpaceOnUse">
      <stop stop-color="#FF01DD"/>
      <stop offset="1" stop-color="#41B7FF"/>
    </linearGradient>
    <linearGradient id="paint29_linear_3907_2297" x1="30.1648" y1="101.57" x2="61.2638" y2="88.0328" gradientUnits="userSpaceOnUse">
      <stop stop-color="#A31FA9"/>
      <stop offset="0.0667915" stop-color="#8B17A0"/>
      <stop offset="0.1494" stop-color="#740F98"/>
      <stop offset="0.2393" stop-color="#640A92"/>
      <stop offset="0.3408" stop-color="#5B078F"/>
      <stop offset="0.4785" stop-color="#58068E"/>
      <stop offset="0.6264" stop-color="#4D22A3"/>
      <stop offset="0.9436" stop-color="#3168DA"/>
      <stop offset="1" stop-color="#2C75E4"/>
    </linearGradient>
    <radialGradient id="paint30_radial_3907_2297" cx="0" cy="0" r="1" gradientUnits="userSpaceOnUse" gradientTransform="translate(57.572 75.8464) rotate(127.522) scale(34.7681 26.0032)">
      <stop stop-color="#14E1E2"/>
      <stop offset="1" stop-color="#1ED0F4" stop-opacity="0.01"/>
    </radialGradient>
    <radialGradient id="paint31_radial_3907_2297" cx="0" cy="0" r="1" gradientUnits="userSpaceOnUse" gradientTransform="translate(20.9838 70.8032) rotate(-0.238883) scale(41.7526 18.9516)">
      <stop stop-color="#5C5CFF"/>
      <stop offset="1" stop-color="#5C5CFF" stop-opacity="0"/>
    </radialGradient>
    <radialGradient id="paint32_radial_3907_2297" cx="0" cy="0" r="1" gradientUnits="userSpaceOnUse" gradientTransform="translate(22.8556 97.612) rotate(-0.238883) scale(45.4759 36.9825)">
      <stop stop-color="#FF01DD"/>
      <stop offset="1" stop-color="#5C5CFF" stop-opacity="0"/>
    </radialGradient>
    <radialGradient id="paint33_radial_3907_2297" cx="0" cy="0" r="1" gradientUnits="userSpaceOnUse" gradientTransform="translate(14.8781 93.7904) rotate(23.2969) scale(34.8365 32.7942)">
      <stop stop-color="#FF6F4F"/>
      <stop offset="1" stop-color="#FF01DD" stop-opacity="0"/>
    </radialGradient>
    <linearGradient id="paint34_linear_3907_2297" x1="78.495" y1="134.355" x2="114.2" y2="113.836" gradientUnits="userSpaceOnUse">
      <stop stop-color="#A31FA9"/>
      <stop offset="0.0667915" stop-color="#8B17A0"/>
      <stop offset="0.1494" stop-color="#740F98"/>
      <stop offset="0.2393" stop-color="#640A92"/>
      <stop offset="0.3408" stop-color="#5B078F"/>
      <stop offset="0.4785" stop-color="#58068E"/>
      <stop offset="0.6264" stop-color="#4D22A3"/>
      <stop offset="0.9436" stop-color="#3168DA"/>
      <stop offset="1" stop-color="#2C75E4"/>
    </linearGradient>
    <radialGradient id="paint35_radial_3907_2297" cx="0" cy="0" r="1" gradientUnits="userSpaceOnUse" gradientTransform="translate(102.897 105.929) rotate(127.783) scale(34.8035 26.0336)">
      <stop stop-color="#14E1E2"/>
      <stop offset="1" stop-color="#1ED0F4" stop-opacity="0.01"/>
    </radialGradient>
    <radialGradient id="paint36_radial_3907_2297" cx="0" cy="0" r="1" gradientUnits="userSpaceOnUse" gradientTransform="translate(66.2761 100.729) scale(41.814 18.9652)">
      <stop stop-color="#5C5CFF"/>
      <stop offset="1" stop-color="#5C5CFF" stop-opacity="0"/>
    </radialGradient>
    <radialGradient id="paint37_radial_3907_2297" cx="0" cy="0" r="1" gradientUnits="userSpaceOnUse" gradientTransform="translate(68.0376 127.565) scale(45.5428 37.0089)">
      <stop stop-color="#FF01DD"/>
      <stop offset="1" stop-color="#5C5CFF" stop-opacity="0"/>
    </radialGradient>
    <radialGradient id="paint38_radial_3907_2297" cx="0" cy="0" r="1" gradientUnits="userSpaceOnUse" gradientTransform="translate(60.0645 123.707) rotate(23.5203) scale(34.8831 32.822)">
      <stop stop-color="#FF6F4F"/>
      <stop offset="1" stop-color="#FF01DD" stop-opacity="0"/>
    </radialGradient>
    <linearGradient id="paint39_linear_3907_2297" x1="60.3506" y1="119.258" x2="111.293" y2="110.123" gradientUnits="userSpaceOnUse">
      <stop stop-color="#FF01DD"/>
      <stop offset="1" stop-color="#41B7FF"/>
    </linearGradient>
    <linearGradient id="paint40_linear_3907_2297" x1="58.3166" y1="118.809" x2="110.033" y2="112.064" gradientUnits="userSpaceOnUse">
      <stop stop-color="#FF01DD"/>
      <stop offset="1" stop-color="#41B7FF"/>
    </linearGradient>
    <linearGradient id="paint41_linear_3907_2297" x1="58.2299" y1="111.479" x2="109.165" y2="102.325" gradientUnits="userSpaceOnUse">
      <stop stop-color="#FF01DD"/>
      <stop offset="1" stop-color="#41B7FF"/>
    </linearGradient>
    <linearGradient id="paint42_linear_3907_2297" x1="65.9862" y1="124.16" x2="115.226" y2="108.743" gradientUnits="userSpaceOnUse">
      <stop stop-color="#A31FA9"/>
      <stop offset="0.0667915" stop-color="#8B17A0"/>
      <stop offset="0.1494" stop-color="#740F98"/>
      <stop offset="0.2393" stop-color="#640A92"/>
      <stop offset="0.3408" stop-color="#5B078F"/>
      <stop offset="0.4785" stop-color="#58068E"/>
      <stop offset="0.6264" stop-color="#4D22A3"/>
      <stop offset="0.9436" stop-color="#3168DA"/>
      <stop offset="1" stop-color="#2C75E4"/>
    </linearGradient>
    <radialGradient id="paint43_radial_3907_2297" cx="0" cy="0" r="1" gradientUnits="userSpaceOnUse" gradientTransform="translate(101.11 98.8625) rotate(127.668) scale(34.7256 25.9482)">
      <stop stop-color="#14E1E2"/>
      <stop offset="1" stop-color="#1ED0F4" stop-opacity="0.01"/>
    </radialGradient>
    <radialGradient id="paint44_radial_3907_2297" cx="0" cy="0" r="1" gradientUnits="userSpaceOnUse" gradientTransform="translate(64.6668 93.6666) scale(41.612 18.9522)">
      <stop stop-color="#5C5CFF"/>
      <stop offset="1" stop-color="#5C5CFF" stop-opacity="0"/>
    </radialGradient>
    <radialGradient id="paint45_radial_3907_2297" cx="0" cy="0" r="1" gradientUnits="userSpaceOnUse" gradientTransform="translate(66.4198 120.484) scale(45.3227 36.9837)">
      <stop stop-color="#FF01DD"/>
      <stop offset="1" stop-color="#5C5CFF" stop-opacity="0"/>
    </radialGradient>
    <radialGradient id="paint46_radial_3907_2297" cx="0" cy="0" r="1" gradientUnits="userSpaceOnUse" gradientTransform="translate(58.4853 116.629) rotate(23.6077) scale(34.7376 32.7779)">
      <stop stop-color="#FF6F4F"/>
      <stop offset="1" stop-color="#FF01DD" stop-opacity="0"/>
    </radialGradient>
    <clipPath id="clip0_3907_2297">
      <rect width="113" height="83" fill="white" transform="translate(0 65)"/>
    </clipPath>
  </defs>
</svg>
