<svg width="111" height="169" viewBox="0 0 111 169" fill="none" xmlns="http://www.w3.org/2000/svg">
  <g filter="url(#filter0_f_3907_2295)">
    <path d="M99 6H12V114.345H12.0689C11.8622 115.501 12.4133 116.658 13.791 117.525L50.7126 139.931C53.3302 141.521 57.9454 141.305 60.9762 139.498L96.4513 118.031C98.1734 117.019 99 115.718 98.9311 114.417H99V6Z" fill="url(#paint0_linear_3907_2295)"/>
  </g>
  <g clip-path="url(#clip0_3907_2295)">
    <g filter="url(#filter1_d_3907_2295)">
      <path d="M42.7517 107.813C36.402 105.999 29.6756 105.999 23.326 107.813C14.429 110.354 9.96113 115.163 9.88342 119.932C9.88342 121.73 9.88342 123.528 9.88342 125.287C9.88342 130.095 14.5067 134.825 23.4037 137.327C29.7533 139.142 36.4797 139.142 42.8294 137.327C51.6875 134.747 56.1554 129.978 56.2331 125.17C56.2331 123.411 56.2331 121.613 56.2331 119.814C56.1554 115.084 51.6486 110.315 42.7517 107.813Z" fill="url(#paint1_linear_3907_2295)"/>
    </g>
    <path d="M49.473 110.55C58.4865 115.788 58.5253 124.271 49.473 129.548C44.4096 132.131 38.8128 133.476 33.136 133.476C27.4592 133.476 21.8623 132.131 16.799 129.548C7.78549 124.349 7.74664 115.866 16.799 110.589C21.8593 108 27.4546 106.648 33.1313 106.641C38.8081 106.634 44.4066 107.973 49.473 110.55Z" fill="#41B7FF"/>
    <path d="M49.473 110.55C58.4865 115.788 58.5253 124.271 49.473 129.548C44.4096 132.131 38.8128 133.476 33.136 133.476C27.4592 133.476 21.8623 132.131 16.799 129.548C7.78549 124.349 7.74664 115.866 16.799 110.589C21.8593 108 27.4546 106.648 33.1313 106.641C38.8081 106.634 44.4066 107.973 49.473 110.55Z" fill="url(#paint2_radial_3907_2295)"/>
    <path d="M49.473 110.55C58.4865 115.788 58.5253 124.271 49.473 129.548C44.4096 132.131 38.8128 133.476 33.136 133.476C27.4592 133.476 21.8623 132.131 16.799 129.548C7.78549 124.349 7.74664 115.866 16.799 110.589C21.8593 108 27.4546 106.648 33.1313 106.641C38.8081 106.634 44.4066 107.973 49.473 110.55Z" fill="url(#paint3_radial_3907_2295)"/>
    <path d="M49.473 110.55C58.4865 115.788 58.5253 124.271 49.473 129.548C44.4096 132.131 38.8128 133.476 33.136 133.476C27.4592 133.476 21.8623 132.131 16.799 129.548C7.78549 124.349 7.74664 115.866 16.799 110.589C21.8593 108 27.4546 106.648 33.1313 106.641C38.8081 106.634 44.4066 107.973 49.473 110.55Z" fill="url(#paint4_radial_3907_2295)"/>
    <path d="M49.473 110.55C58.4865 115.788 58.5253 124.271 49.473 129.548C44.4096 132.131 38.8128 133.476 33.136 133.476C27.4592 133.476 21.8623 132.131 16.799 129.548C7.78549 124.349 7.74664 115.866 16.799 110.589C21.8593 108 27.4546 106.648 33.1313 106.641C38.8081 106.634 44.4066 107.973 49.473 110.55Z" fill="url(#paint5_radial_3907_2295)"/>
    <path opacity="0.6" d="M18.6638 112.661C23.1475 110.367 28.1062 109.172 33.136 109.172C38.1657 109.172 43.1244 110.367 47.6081 112.661C53.4358 116.023 55.0287 120.909 52.3868 125.131C55.8057 120.635 54.3682 115.202 47.9966 111.527C43.389 109.184 38.2986 107.963 33.136 107.963C27.9733 107.963 22.8829 109.184 18.2753 111.527C11.9425 115.436 10.505 120.674 14.0017 125.17C11.3209 120.909 13.0304 116.062 18.6638 112.661Z" fill="url(#paint6_linear_3907_2295)"/>
    <path d="M42.674 100.113C36.3853 98.3348 29.7313 98.3348 23.4426 100.113C14.5456 102.693 10.0777 107.462 10 112.231C10 114.029 10 115.827 10 117.625C10 122.394 14.6233 127.124 23.5203 129.626C29.8699 131.441 36.5963 131.441 42.9459 129.626C51.804 127.046 56.272 122.277 56.3497 117.508C56.3497 115.71 56.3497 113.912 56.3497 112.114C56.0389 107.344 51.5321 102.614 42.674 100.113Z" fill="url(#paint7_linear_3907_2295)"/>
    <path d="M49.3953 102.849C58.4088 108.048 58.4477 116.531 49.3953 121.808C44.332 124.391 38.7351 125.736 33.0583 125.736C27.3816 125.736 21.7847 124.391 16.7213 121.808C7.66897 116.609 7.63012 108.087 16.7213 102.81C21.7877 100.233 27.3862 98.8942 33.063 98.901C38.7397 98.9078 44.335 100.26 49.3953 102.849Z" fill="#41B7FF"/>
    <path d="M49.3953 102.849C58.4088 108.048 58.4477 116.531 49.3953 121.808C44.332 124.391 38.7351 125.736 33.0583 125.736C27.3816 125.736 21.7847 124.391 16.7213 121.808C7.66897 116.609 7.63012 108.087 16.7213 102.81C21.7877 100.233 27.3862 98.8942 33.063 98.901C38.7397 98.9078 44.335 100.26 49.3953 102.849Z" fill="url(#paint8_radial_3907_2295)"/>
    <path d="M49.3953 102.849C58.4088 108.048 58.4477 116.531 49.3953 121.808C44.332 124.391 38.7351 125.736 33.0583 125.736C27.3816 125.736 21.7847 124.391 16.7213 121.808C7.66897 116.609 7.63012 108.087 16.7213 102.81C21.7877 100.233 27.3862 98.8942 33.063 98.901C38.7397 98.9078 44.335 100.26 49.3953 102.849Z" fill="url(#paint9_radial_3907_2295)"/>
    <path d="M49.3953 102.849C58.4088 108.048 58.4477 116.531 49.3953 121.808C44.332 124.391 38.7351 125.736 33.0583 125.736C27.3816 125.736 21.7847 124.391 16.7213 121.808C7.66897 116.609 7.63012 108.087 16.7213 102.81C21.7877 100.233 27.3862 98.8942 33.063 98.901C38.7397 98.9078 44.335 100.26 49.3953 102.849Z" fill="url(#paint10_radial_3907_2295)"/>
    <path d="M49.3953 102.849C58.4088 108.048 58.4477 116.531 49.3953 121.808C44.332 124.391 38.7351 125.736 33.0583 125.736C27.3816 125.736 21.7847 124.391 16.7213 121.808C7.66897 116.609 7.63012 108.087 16.7213 102.81C21.7877 100.233 27.3862 98.8942 33.063 98.901C38.7397 98.9078 44.335 100.26 49.3953 102.849Z" fill="url(#paint11_radial_3907_2295)"/>
    <path d="M47.9967 103.709C56.2332 108.439 56.272 116.179 47.9967 120.987C43.3849 123.34 38.2872 124.566 33.1166 124.566C27.9461 124.566 22.8483 123.34 18.2365 120.987C10.0389 116.257 10 108.517 18.2365 103.709C22.8437 101.341 27.9433 100.107 33.1166 100.107C38.2899 100.107 43.3895 101.341 47.9967 103.709Z" fill="url(#paint12_linear_3907_2295)"/>
    <path opacity="0.6" d="M18.5862 104.921C23.0726 102.637 28.0302 101.446 33.0583 101.446C38.0864 101.446 43.044 102.637 47.5304 104.921C53.3581 108.283 54.951 113.169 52.3091 117.391C55.7281 112.895 54.2906 107.462 47.919 103.826C43.3168 101.465 38.2243 100.234 33.0583 100.234C27.8923 100.234 22.7998 101.465 18.1977 103.826C11.8649 107.735 10.4274 112.974 13.924 117.43C11.2433 113.091 12.7973 108.322 18.5862 104.921Z" fill="url(#paint13_linear_3907_2295)"/>
    <path d="M42.7128 94.0144C36.3661 92.1789 29.6339 92.1789 23.2872 94.0144C14.3902 96.5553 9.92231 101.364 9.8446 106.133C9.8446 107.931 9.8446 109.729 9.8446 111.527C9.8446 116.296 14.4679 121.026 23.3649 123.528C29.7145 125.343 36.4409 125.343 42.7906 123.528C51.6487 120.948 56.1166 116.179 56.1943 111.41C56.1943 109.612 56.1943 107.814 56.1943 106.015C56.1166 101.364 51.6098 96.4772 42.7128 94.0144Z" fill="url(#paint14_linear_3907_2295)"/>
    <path d="M49.4341 96.7508C58.4476 101.95 58.4865 110.433 49.4341 115.71C44.3708 118.293 38.7739 119.638 33.0971 119.638C27.4203 119.638 21.8234 118.293 16.7601 115.71C7.70773 110.472 7.70773 101.989 16.7601 96.7117C21.8265 94.1352 27.425 92.7961 33.1018 92.8029C38.7785 92.8097 44.3738 94.1622 49.4341 96.7508Z" fill="#41B7FF"/>
    <path d="M49.4341 96.7508C58.4476 101.95 58.4865 110.433 49.4341 115.71C44.3708 118.293 38.7739 119.638 33.0971 119.638C27.4203 119.638 21.8234 118.293 16.7601 115.71C7.70773 110.472 7.70773 101.989 16.7601 96.7117C21.8265 94.1352 27.425 92.7961 33.1018 92.8029C38.7785 92.8097 44.3738 94.1622 49.4341 96.7508Z" fill="url(#paint15_radial_3907_2295)"/>
    <path d="M49.4341 96.7508C58.4476 101.95 58.4865 110.433 49.4341 115.71C44.3708 118.293 38.7739 119.638 33.0971 119.638C27.4203 119.638 21.8234 118.293 16.7601 115.71C7.70773 110.472 7.70773 101.989 16.7601 96.7117C21.8265 94.1352 27.425 92.7961 33.1018 92.8029C38.7785 92.8097 44.3738 94.1622 49.4341 96.7508Z" fill="url(#paint16_radial_3907_2295)"/>
    <path d="M49.4341 96.7508C58.4476 101.95 58.4865 110.433 49.4341 115.71C44.3708 118.293 38.7739 119.638 33.0971 119.638C27.4203 119.638 21.8234 118.293 16.7601 115.71C7.70773 110.472 7.70773 101.989 16.7601 96.7117C21.8265 94.1352 27.425 92.7961 33.1018 92.8029C38.7785 92.8097 44.3738 94.1622 49.4341 96.7508Z" fill="url(#paint17_radial_3907_2295)"/>
    <path d="M49.4341 96.7508C58.4476 101.95 58.4865 110.433 49.4341 115.71C44.3708 118.293 38.7739 119.638 33.0971 119.638C27.4203 119.638 21.8234 118.293 16.7601 115.71C7.70773 110.472 7.70773 101.989 16.7601 96.7117C21.8265 94.1352 27.425 92.7961 33.1018 92.8029C38.7785 92.8097 44.3738 94.1622 49.4341 96.7508Z" fill="url(#paint18_radial_3907_2295)"/>
    <path d="M47.9966 97.4544C56.2331 102.224 56.272 109.963 47.9966 114.772C43.389 117.115 38.2986 118.335 33.136 118.335C27.9733 118.335 22.8829 117.115 18.2753 114.772C10.0388 110.042 9.99998 102.302 18.2753 97.4935C22.8772 95.1354 27.967 93.9028 33.1313 93.896C38.2956 93.8892 43.3887 95.1084 47.9966 97.4544Z" fill="url(#paint19_linear_3907_2295)"/>
    <path opacity="0.6" d="M18.625 98.8226C23.1114 96.5384 28.069 95.3482 33.0971 95.3482C38.1253 95.3482 43.0828 96.5384 47.5693 98.8226C53.397 102.184 54.9899 107.071 52.348 111.293C55.7669 106.797 54.3294 101.364 47.9578 97.689C43.3529 95.3369 38.2614 94.1111 33.0971 94.1111C27.9328 94.1111 22.8414 95.3369 18.2365 97.689C11.9037 101.364 10.4662 106.836 13.9628 111.293C11.2821 107.149 13.0304 102.224 18.625 98.8226Z" fill="url(#paint20_linear_3907_2295)"/>
    <path d="M42.7517 87.9163C36.4049 86.0808 29.6727 86.0808 23.326 87.9163C14.429 90.4572 9.96113 95.2654 9.88342 100.034C9.88342 101.833 9.88342 103.631 9.88342 105.39C9.88342 110.198 14.5067 114.928 23.4037 117.43C29.7533 119.245 36.4797 119.245 42.8294 117.43C51.6875 114.85 56.1554 110.081 56.2331 105.273C56.2331 103.514 56.2331 101.715 56.2331 99.9172C56.1554 95.1481 51.6486 90.379 42.7517 87.9163Z" fill="url(#paint21_linear_3907_2295)"/>
    <path d="M49.473 90.6527C58.4865 95.8518 58.5253 104.334 49.473 109.612C44.4096 112.194 38.8128 113.54 33.136 113.54C27.4592 113.54 21.8623 112.194 16.799 109.612C7.78549 104.413 7.74664 95.9299 16.799 90.6527C21.8623 88.0701 27.4592 86.7242 33.136 86.7242C38.8128 86.7242 44.4096 88.0701 49.473 90.6527Z" fill="#41B7FF"/>
    <path d="M49.473 90.6527C58.4865 95.8518 58.5253 104.334 49.473 109.612C44.4096 112.194 38.8128 113.54 33.136 113.54C27.4592 113.54 21.8623 112.194 16.799 109.612C7.78549 104.413 7.74664 95.9299 16.799 90.6527C21.8623 88.0701 27.4592 86.7242 33.136 86.7242C38.8128 86.7242 44.4096 88.0701 49.473 90.6527Z" fill="url(#paint22_radial_3907_2295)"/>
    <path d="M49.473 90.6527C58.4865 95.8518 58.5253 104.334 49.473 109.612C44.4096 112.194 38.8128 113.54 33.136 113.54C27.4592 113.54 21.8623 112.194 16.799 109.612C7.78549 104.413 7.74664 95.9299 16.799 90.6527C21.8623 88.0701 27.4592 86.7242 33.136 86.7242C38.8128 86.7242 44.4096 88.0701 49.473 90.6527Z" fill="url(#paint23_radial_3907_2295)"/>
    <path d="M49.473 90.6527C58.4865 95.8518 58.5253 104.334 49.473 109.612C44.4096 112.194 38.8128 113.54 33.136 113.54C27.4592 113.54 21.8623 112.194 16.799 109.612C7.78549 104.413 7.74664 95.9299 16.799 90.6527C21.8623 88.0701 27.4592 86.7242 33.136 86.7242C38.8128 86.7242 44.4096 88.0701 49.473 90.6527Z" fill="url(#paint24_radial_3907_2295)"/>
    <path d="M49.473 90.6527C58.4865 95.8518 58.5253 104.334 49.473 109.612C44.4096 112.194 38.8128 113.54 33.136 113.54C27.4592 113.54 21.8623 112.194 16.799 109.612C7.78549 104.413 7.74664 95.9299 16.799 90.6527C21.8623 88.0701 27.4592 86.7242 33.136 86.7242C38.8128 86.7242 44.4096 88.0701 49.473 90.6527Z" fill="url(#paint25_radial_3907_2295)"/>
    <path opacity="0.6" d="M18.6638 92.7244C23.1502 90.4401 28.1078 89.2499 33.136 89.2499C38.1641 89.2499 43.1217 90.4401 47.6081 92.7244C53.4358 96.0862 55.0287 100.973 52.3868 105.194C55.8057 100.699 54.3682 95.2653 47.9966 91.5908C43.3917 89.2387 38.3002 88.0128 33.136 88.0128C27.9717 88.0128 22.8802 89.2387 18.2753 91.5908C11.9425 95.2653 10.505 100.738 14.0017 105.194C11.3209 101.051 13.0304 96.1253 18.6638 92.7244Z" fill="url(#paint26_linear_3907_2295)"/>
    <path d="M44.6943 81.8181C38.3475 79.9827 31.6153 79.9827 25.2686 81.8181C16.4105 84.359 11.9426 89.1281 11.8649 93.9363C11.8649 95.7345 11.8649 97.4936 11.8649 99.2918C11.8649 104.1 16.5271 108.83 25.424 111.332C31.7737 113.146 38.5 113.146 44.8497 111.332C53.7078 108.752 58.1757 103.983 58.2534 99.1745C58.2534 97.3763 58.2534 95.6172 58.2534 93.819C58.098 89.1281 53.5912 84.359 44.6943 81.8181Z" fill="url(#paint27_linear_3907_2295)"/>
    <path d="M51.4155 84.5935C60.4679 89.7926 60.5067 98.3145 51.4155 103.592C46.359 106.174 40.7685 107.52 35.098 107.52C29.4275 107.52 23.8369 106.174 18.7804 103.592C9.72805 98.3926 9.6892 89.9099 18.7804 84.6326C23.8339 82.0443 29.4228 80.6919 35.0933 80.6851C40.7638 80.6783 46.356 82.0174 51.4155 84.5935Z" fill="#41B7FF"/>
    <path d="M51.4155 84.5935C60.4679 89.7926 60.5067 98.3145 51.4155 103.592C46.359 106.174 40.7685 107.52 35.098 107.52C29.4275 107.52 23.8369 106.174 18.7804 103.592C9.72805 98.3926 9.6892 89.9099 18.7804 84.6326C23.8339 82.0443 29.4228 80.6919 35.0933 80.6851C40.7638 80.6783 46.356 82.0174 51.4155 84.5935Z" fill="url(#paint28_radial_3907_2295)"/>
    <path d="M51.4155 84.5935C60.4679 89.7926 60.5067 98.3145 51.4155 103.592C46.359 106.174 40.7685 107.52 35.098 107.52C29.4275 107.52 23.8369 106.174 18.7804 103.592C9.72805 98.3926 9.6892 89.9099 18.7804 84.6326C23.8339 82.0443 29.4228 80.6919 35.0933 80.6851C40.7638 80.6783 46.356 82.0174 51.4155 84.5935Z" fill="url(#paint29_radial_3907_2295)"/>
    <path d="M51.4155 84.5935C60.4679 89.7926 60.5067 98.3145 51.4155 103.592C46.359 106.174 40.7685 107.52 35.098 107.52C29.4275 107.52 23.8369 106.174 18.7804 103.592C9.72805 98.3926 9.6892 89.9099 18.7804 84.6326C23.8339 82.0443 29.4228 80.6919 35.0933 80.6851C40.7638 80.6783 46.356 82.0174 51.4155 84.5935Z" fill="url(#paint30_radial_3907_2295)"/>
    <path d="M51.4155 84.5935C60.4679 89.7926 60.5067 98.3145 51.4155 103.592C46.359 106.174 40.7685 107.52 35.098 107.52C29.4275 107.52 23.8369 106.174 18.7804 103.592C9.72805 98.3926 9.6892 89.9099 18.7804 84.6326C23.8339 82.0443 29.4228 80.6919 35.0933 80.6851C40.7638 80.6783 46.356 82.0174 51.4155 84.5935Z" fill="url(#paint31_radial_3907_2295)"/>
    <path d="M49.978 85.4535C58.2145 90.1835 58.2534 97.9235 49.978 102.732C45.369 105.093 40.2702 106.324 35.098 106.324C29.9258 106.324 24.8269 105.093 20.2179 102.732C11.9814 98.0017 11.9814 90.2617 20.2179 85.4535C24.8296 83.101 29.9274 81.8751 35.098 81.8751C40.2685 81.8751 45.3663 83.101 49.978 85.4535Z" fill="url(#paint32_linear_3907_2295)"/>
    <path opacity="0.6" d="M20.8006 86.7044C25.2843 84.4111 30.243 83.2157 35.2728 83.2157C40.3025 83.2157 45.2612 84.4111 49.7449 86.7044C55.5726 90.0663 57.1655 94.9526 54.5236 99.1745C57.9425 94.679 56.4662 89.2453 50.1334 85.5708C45.5217 83.2183 40.4239 81.9924 35.2533 81.9924C30.0828 81.9924 24.985 83.2183 20.3733 85.5708C14.0794 89.4799 12.603 94.7181 16.0996 99.2135C13.3023 94.9917 14.8564 90.1054 20.8006 86.7044Z" fill="url(#paint33_linear_3907_2295)"/>
    <path d="M44.5 75.2899C38.2113 73.5121 31.5573 73.5121 25.2686 75.2899C16.4105 77.8699 11.9426 82.639 11.8649 87.4472C11.8649 89.2063 11.8649 91.0044 11.8649 92.8026C11.8649 97.5717 16.527 102.341 25.3851 104.804C31.6711 106.602 38.3306 106.602 44.6166 104.804C53.5135 102.263 57.9814 97.4544 58.0591 92.6853C58.0591 90.8872 58.0591 89.089 58.0591 87.3299C57.9037 82.5217 53.397 77.909 44.5 75.2899Z" fill="url(#paint34_linear_3907_2295)"/>
    <path d="M34.9997 100.964C47.745 100.91 58.0522 94.8635 58.0214 87.4584C57.9906 80.0533 47.6334 74.0939 34.8881 74.1476C22.1427 74.2013 11.8355 80.2479 11.8664 87.6529C11.8972 95.058 22.2543 101.017 34.9997 100.964Z" fill="#41B7FF"/>
    <path d="M34.9997 100.964C47.745 100.91 58.0522 94.8635 58.0214 87.4584C57.9906 80.0533 47.6334 74.0939 34.8881 74.1476C22.1427 74.2013 11.8355 80.2479 11.8664 87.6529C11.8972 95.058 22.2543 101.017 34.9997 100.964Z" fill="url(#paint35_radial_3907_2295)"/>
    <path d="M34.9997 100.964C47.745 100.91 58.0522 94.8635 58.0214 87.4584C57.9906 80.0533 47.6334 74.0939 34.8881 74.1476C22.1427 74.2013 11.8355 80.2479 11.8664 87.6529C11.8972 95.058 22.2543 101.017 34.9997 100.964Z" fill="url(#paint36_radial_3907_2295)"/>
    <path d="M34.9997 100.964C47.745 100.91 58.0522 94.8635 58.0214 87.4584C57.9906 80.0533 47.6334 74.0939 34.8881 74.1476C22.1427 74.2013 11.8355 80.2479 11.8664 87.6529C11.8972 95.058 22.2543 101.017 34.9997 100.964Z" fill="url(#paint37_radial_3907_2295)"/>
    <path d="M34.9997 100.964C47.745 100.91 58.0522 94.8635 58.0214 87.4584C57.9906 80.0533 47.6334 74.0939 34.8881 74.1476C22.1427 74.2013 11.8355 80.2479 11.8664 87.6529C11.8972 95.058 22.2543 101.017 34.9997 100.964Z" fill="url(#paint38_radial_3907_2295)"/>
    <g filter="url(#filter2_d_3907_2295)">
      <path d="M88.4408 110.902C82.1521 109.124 75.4982 109.124 69.2094 110.902C60.3125 113.482 55.8445 118.251 55.7668 123.059C55.7668 124.857 55.7668 126.616 55.7668 128.414C55.7668 133.223 60.3901 137.953 69.2871 140.454C75.5758 142.232 82.2298 142.232 88.5185 140.454C97.3766 137.874 101.845 133.105 101.922 128.297C101.922 126.499 101.922 124.74 101.922 122.942C101.845 118.134 97.3378 113.404 88.4408 110.902Z" fill="url(#paint39_linear_3907_2295)"/>
    </g>
    <path d="M95.1622 113.638C104.176 118.837 104.215 127.359 95.1622 132.636C90.0988 135.219 84.5019 136.565 78.8252 136.565C73.1484 136.565 67.5516 135.219 62.4882 132.636C53.4747 127.437 53.4358 118.954 62.4882 113.677C67.5485 111.089 73.1438 109.736 78.8206 109.729C84.4973 109.722 90.0958 111.062 95.1622 113.638Z" fill="#41B7FF"/>
    <path d="M95.1622 113.638C104.176 118.837 104.215 127.359 95.1622 132.636C90.0988 135.219 84.5019 136.565 78.8252 136.565C73.1484 136.565 67.5516 135.219 62.4882 132.636C53.4747 127.437 53.4358 118.954 62.4882 113.677C67.5485 111.089 73.1438 109.736 78.8206 109.729C84.4973 109.722 90.0958 111.062 95.1622 113.638Z" fill="url(#paint40_radial_3907_2295)"/>
    <path d="M95.1622 113.638C104.176 118.837 104.215 127.359 95.1622 132.636C90.0988 135.219 84.5019 136.565 78.8252 136.565C73.1484 136.565 67.5516 135.219 62.4882 132.636C53.4747 127.437 53.4358 118.954 62.4882 113.677C67.5485 111.089 73.1438 109.736 78.8206 109.729C84.4973 109.722 90.0958 111.062 95.1622 113.638Z" fill="url(#paint41_radial_3907_2295)"/>
    <path d="M95.1622 113.638C104.176 118.837 104.215 127.359 95.1622 132.636C90.0988 135.219 84.5019 136.565 78.8252 136.565C73.1484 136.565 67.5516 135.219 62.4882 132.636C53.4747 127.437 53.4358 118.954 62.4882 113.677C67.5485 111.089 73.1438 109.736 78.8206 109.729C84.4973 109.722 90.0958 111.062 95.1622 113.638Z" fill="url(#paint42_radial_3907_2295)"/>
    <path d="M95.1622 113.638C104.176 118.837 104.215 127.359 95.1622 132.636C90.0988 135.219 84.5019 136.565 78.8252 136.565C73.1484 136.565 67.5516 135.219 62.4882 132.636C53.4747 127.437 53.4358 118.954 62.4882 113.677C67.5485 111.089 73.1438 109.736 78.8206 109.729C84.4973 109.722 90.0958 111.062 95.1622 113.638Z" fill="url(#paint43_radial_3907_2295)"/>
    <path opacity="0.6" d="M64.353 115.749C68.8367 113.456 73.7954 112.26 78.8251 112.26C83.8549 112.26 88.8136 113.456 93.2973 115.749C99.125 119.111 100.718 123.997 98.076 128.219C101.495 123.724 100.057 118.29 93.6858 114.615C89.0809 112.263 83.9894 111.037 78.8251 111.037C73.6608 111.037 68.5694 112.263 63.9645 114.615C57.6317 118.524 56.1942 123.763 59.6909 128.258C57.0101 124.036 58.5642 119.15 64.353 115.749Z" fill="url(#paint44_linear_3907_2295)"/>
    <path d="M86.3429 103.201C79.9962 101.365 73.264 101.365 66.9173 103.201C58.0203 105.742 53.5524 110.55 53.4747 115.319C53.4747 117.117 53.4747 118.915 53.4747 120.674C53.4747 125.483 58.098 130.213 66.995 132.714C73.3446 134.529 80.071 134.529 86.4207 132.714C95.2788 130.134 99.7467 125.365 99.8244 120.596C99.8244 118.798 99.8244 117 99.8244 115.202C99.7467 110.433 95.2399 105.664 86.3429 103.201Z" fill="url(#paint45_linear_3907_2295)"/>
    <path d="M93.0642 105.937C102.117 111.136 102.117 119.619 93.0642 124.896C88.0009 127.479 82.404 128.825 76.7272 128.825C71.0504 128.825 65.4535 127.479 60.3902 124.896C51.3767 119.658 51.3378 111.175 60.3902 105.898C65.4566 103.322 71.0551 101.982 76.7318 101.989C82.4086 101.996 88.0039 103.349 93.0642 105.937Z" fill="#41B7FF"/>
    <path d="M93.0642 105.937C102.117 111.136 102.117 119.619 93.0642 124.896C88.0009 127.479 82.404 128.825 76.7272 128.825C71.0504 128.825 65.4535 127.479 60.3902 124.896C51.3767 119.658 51.3378 111.175 60.3902 105.898C65.4566 103.322 71.0551 101.982 76.7318 101.989C82.4086 101.996 88.0039 103.349 93.0642 105.937Z" fill="url(#paint46_radial_3907_2295)"/>
    <path d="M93.0642 105.937C102.117 111.136 102.117 119.619 93.0642 124.896C88.0009 127.479 82.404 128.825 76.7272 128.825C71.0504 128.825 65.4535 127.479 60.3902 124.896C51.3767 119.658 51.3378 111.175 60.3902 105.898C65.4566 103.322 71.0551 101.982 76.7318 101.989C82.4086 101.996 88.0039 103.349 93.0642 105.937Z" fill="url(#paint47_radial_3907_2295)"/>
    <path d="M93.0642 105.937C102.117 111.136 102.117 119.619 93.0642 124.896C88.0009 127.479 82.404 128.825 76.7272 128.825C71.0504 128.825 65.4535 127.479 60.3902 124.896C51.3767 119.658 51.3378 111.175 60.3902 105.898C65.4566 103.322 71.0551 101.982 76.7318 101.989C82.4086 101.996 88.0039 103.349 93.0642 105.937Z" fill="url(#paint48_radial_3907_2295)"/>
    <path d="M93.0642 105.937C102.117 111.136 102.117 119.619 93.0642 124.896C88.0009 127.479 82.404 128.825 76.7272 128.825C71.0504 128.825 65.4535 127.479 60.3902 124.896C51.3767 119.658 51.3378 111.175 60.3902 105.898C65.4566 103.322 71.0551 101.982 76.7318 101.989C82.4086 101.996 88.0039 103.349 93.0642 105.937Z" fill="url(#paint49_radial_3907_2295)"/>
    <path d="M76.837 127.721C88.4451 127.672 97.8326 122.154 97.8044 115.397C97.7763 108.64 88.3432 103.201 76.7351 103.25C65.1269 103.299 55.7395 108.817 55.7676 115.574C55.7957 122.332 65.2288 127.77 76.837 127.721Z" fill="url(#paint50_linear_3907_2295)"/>
    <path opacity="0.6" d="M62.2551 108.009C66.7415 105.725 71.6991 104.534 76.7273 104.534C81.7554 104.534 86.713 105.725 91.1994 108.009C97.0271 111.371 98.62 116.257 95.9781 120.479C99.397 115.984 97.9595 110.55 91.5879 106.875C86.983 104.523 81.8916 103.297 76.7273 103.297C71.563 103.297 66.4715 104.523 61.8666 106.875C55.5338 110.55 54.0963 116.023 57.593 120.479C54.9122 116.335 56.4663 111.41 62.2551 108.009Z" fill="url(#paint51_linear_3907_2295)"/>
    <path d="M86.5876 97.5094C80.3491 95.7548 73.7397 95.7548 67.5012 97.5094C58.6714 99.9886 54.2372 104.68 54.16 109.333C54.16 111.088 54.16 112.842 54.16 114.559C54.16 119.25 58.7485 123.865 67.5783 126.306C73.8801 128.077 80.5557 128.077 86.8574 126.306C95.6487 123.789 100.083 119.136 100.16 114.444C100.16 112.728 100.16 110.973 100.16 109.219C99.8901 104.566 95.4174 99.9123 86.5876 97.5094Z" fill="url(#paint52_linear_3907_2295)"/>
    <path d="M93.103 99.8391C102.155 105.038 102.194 113.521 93.103 118.798C88.0397 121.381 82.4428 122.727 76.766 122.727C71.0892 122.727 65.4923 121.381 60.429 118.798C51.4155 113.599 51.3766 105.116 60.429 99.8391C65.4923 97.2565 71.0892 95.9106 76.766 95.9106C82.4428 95.9106 88.0397 97.2565 93.103 99.8391Z" fill="#41B7FF"/>
    <path d="M93.103 99.8391C102.155 105.038 102.194 113.521 93.103 118.798C88.0397 121.381 82.4428 122.727 76.766 122.727C71.0892 122.727 65.4923 121.381 60.429 118.798C51.4155 113.599 51.3766 105.116 60.429 99.8391C65.4923 97.2565 71.0892 95.9106 76.766 95.9106C82.4428 95.9106 88.0397 97.2565 93.103 99.8391Z" fill="url(#paint53_radial_3907_2295)"/>
    <path d="M93.103 99.8391C102.155 105.038 102.194 113.521 93.103 118.798C88.0397 121.381 82.4428 122.727 76.766 122.727C71.0892 122.727 65.4923 121.381 60.429 118.798C51.4155 113.599 51.3766 105.116 60.429 99.8391C65.4923 97.2565 71.0892 95.9106 76.766 95.9106C82.4428 95.9106 88.0397 97.2565 93.103 99.8391Z" fill="url(#paint54_radial_3907_2295)"/>
    <path d="M93.103 99.8391C102.155 105.038 102.194 113.521 93.103 118.798C88.0397 121.381 82.4428 122.727 76.766 122.727C71.0892 122.727 65.4923 121.381 60.429 118.798C51.4155 113.599 51.3766 105.116 60.429 99.8391C65.4923 97.2565 71.0892 95.9106 76.766 95.9106C82.4428 95.9106 88.0397 97.2565 93.103 99.8391Z" fill="url(#paint55_radial_3907_2295)"/>
    <path d="M93.103 99.8391C102.155 105.038 102.194 113.521 93.103 118.798C88.0397 121.381 82.4428 122.727 76.766 122.727C71.0892 122.727 65.4923 121.381 60.429 118.798C51.4155 113.599 51.3766 105.116 60.429 99.8391C65.4923 97.2565 71.0892 95.9106 76.766 95.9106C82.4428 95.9106 88.0397 97.2565 93.103 99.8391Z" fill="url(#paint56_radial_3907_2295)"/>
    <g filter="url(#filter3_d_3907_2295)">
      <path d="M63.5372 129.079C57.1875 127.264 50.4612 127.264 44.1115 129.079C35.2534 131.659 30.7855 136.428 30.6689 141.197C30.6689 142.995 30.6689 144.794 30.6689 146.592C30.6689 151.361 35.2922 156.091 44.1892 158.593C50.4779 160.37 57.1319 160.37 63.4206 158.593C72.2787 156.013 76.7466 151.244 76.8243 146.474C76.8243 144.676 76.8243 142.878 76.8243 141.08C77.0963 136.311 72.5896 131.581 63.5372 129.079Z" fill="url(#paint57_linear_3907_2295)"/>
    </g>
    <path d="M70.4139 131.815C79.4663 137.014 79.5051 145.497 70.4139 150.774C65.3506 153.357 59.7537 154.703 54.0769 154.703C48.4002 154.703 42.8033 153.357 37.7399 150.774C28.7264 145.575 28.6876 137.054 37.7399 131.776C42.8063 129.2 48.4048 127.861 54.0815 127.867C59.7583 127.874 65.3536 129.227 70.4139 131.815Z" fill="url(#paint58_linear_3907_2295)"/>
    <path d="M54.2168 153.577C65.825 153.528 75.2125 148.01 75.1843 141.253C75.1562 134.496 65.7231 129.057 54.115 129.106C42.5068 129.155 33.1194 134.673 33.1475 141.43C33.1756 148.188 42.6087 153.626 54.2168 153.577Z" fill="url(#paint59_linear_3907_2295)"/>
    <path opacity="0.6" d="M39.6047 133.887C44.0911 131.603 49.0488 130.413 54.0769 130.413C59.105 130.413 64.0626 131.603 68.549 133.887C74.3767 137.249 75.9696 142.135 73.3277 146.357C76.7467 141.862 75.3091 136.428 68.9763 132.793C64.3673 130.431 59.2685 129.2 54.0963 129.2C48.9241 129.2 43.8252 130.431 39.2162 132.793C32.8834 136.702 31.4459 141.94 34.9426 146.396C32.4561 142.214 33.8159 137.288 39.6047 133.887Z" fill="url(#paint60_linear_3907_2295)"/>
    <path d="M62.8379 122.981C56.5492 121.203 49.8952 121.203 43.6065 122.981C34.7484 125.522 30.2805 130.33 30.2028 135.099C30.2028 136.897 30.2028 138.695 30.2028 140.494C30.2028 145.263 34.8649 149.993 43.723 152.494C50.0118 154.272 56.6657 154.272 62.9545 152.494C71.8514 149.914 76.3193 145.145 76.397 140.376C76.397 138.578 76.397 136.78 76.397 134.982C76.2416 130.213 71.7349 125.444 62.8379 122.981Z" fill="url(#paint61_linear_3907_2295)"/>
    <path d="M69.5591 125.717C78.6115 130.916 78.6503 139.399 69.5591 144.676C64.5026 147.259 58.912 148.604 53.2415 148.604C47.571 148.604 41.9805 147.259 36.924 144.676C27.8716 139.477 27.8328 130.955 36.924 125.678C41.9835 123.102 47.5757 121.763 53.2462 121.77C58.9167 121.776 64.5057 123.129 69.5591 125.717Z" fill="#41B7FF"/>
    <path d="M69.5591 125.717C78.6115 130.916 78.6503 139.399 69.5591 144.676C64.5026 147.259 58.912 148.604 53.2415 148.604C47.571 148.604 41.9805 147.259 36.924 144.676C27.8716 139.477 27.8328 130.955 36.924 125.678C41.9835 123.102 47.5757 121.763 53.2462 121.77C58.9167 121.776 64.5057 123.129 69.5591 125.717Z" fill="url(#paint62_radial_3907_2295)"/>
    <path d="M69.5591 125.717C78.6115 130.916 78.6503 139.399 69.5591 144.676C64.5026 147.259 58.912 148.604 53.2415 148.604C47.571 148.604 41.9805 147.259 36.924 144.676C27.8716 139.477 27.8328 130.955 36.924 125.678C41.9835 123.102 47.5757 121.763 53.2462 121.77C58.9167 121.776 64.5057 123.129 69.5591 125.717Z" fill="url(#paint63_radial_3907_2295)"/>
    <path d="M69.5591 125.717C78.6115 130.916 78.6503 139.399 69.5591 144.676C64.5026 147.259 58.912 148.604 53.2415 148.604C47.571 148.604 41.9805 147.259 36.924 144.676C27.8716 139.477 27.8328 130.955 36.924 125.678C41.9835 123.102 47.5757 121.763 53.2462 121.77C58.9167 121.776 64.5057 123.129 69.5591 125.717Z" fill="url(#paint64_radial_3907_2295)"/>
    <path d="M69.5591 125.717C78.6115 130.916 78.6503 139.399 69.5591 144.676C64.5026 147.259 58.912 148.604 53.2415 148.604C47.571 148.604 41.9805 147.259 36.924 144.676C27.8716 139.477 27.8328 130.955 36.924 125.678C41.9835 123.102 47.5757 121.763 53.2462 121.77C58.9167 121.776 64.5057 123.129 69.5591 125.717Z" fill="url(#paint65_radial_3907_2295)"/>
  </g>
  <defs>
    <filter id="filter0_f_3907_2295" x="6" y="0" width="99" height="147" filterUnits="userSpaceOnUse" color-interpolation-filters="sRGB">
      <feFlood flood-opacity="0" result="BackgroundImageFix"/>
      <feBlend mode="normal" in="SourceGraphic" in2="BackgroundImageFix" result="shape"/>
      <feGaussianBlur stdDeviation="3" result="effect1_foregroundBlur_3907_2295"/>
    </filter>
    <filter id="filter1_d_3907_2295" x="-3.11658" y="93.4525" width="72.3496" height="58.2356" filterUnits="userSpaceOnUse" color-interpolation-filters="sRGB">
      <feFlood flood-opacity="0" result="BackgroundImageFix"/>
      <feColorMatrix in="SourceAlpha" type="matrix" values="0 0 0 0 0 0 0 0 0 0 0 0 0 0 0 0 0 0 127 0" result="hardAlpha"/>
      <feOffset/>
      <feGaussianBlur stdDeviation="6.5"/>
      <feComposite in2="hardAlpha" operator="out"/>
      <feColorMatrix type="matrix" values="0 0 0 0 0 0 0 0 0 0 0 0 0 0 0 0 0 0 0.8 0"/>
      <feBlend mode="normal" in2="BackgroundImageFix" result="effect1_dropShadow_3907_2295"/>
      <feBlend mode="normal" in="SourceGraphic" in2="effect1_dropShadow_3907_2295" result="shape"/>
    </filter>
    <filter id="filter2_d_3907_2295" x="42.7668" y="96.5684" width="72.1554" height="58.2195" filterUnits="userSpaceOnUse" color-interpolation-filters="sRGB">
      <feFlood flood-opacity="0" result="BackgroundImageFix"/>
      <feColorMatrix in="SourceAlpha" type="matrix" values="0 0 0 0 0 0 0 0 0 0 0 0 0 0 0 0 0 0 127 0" result="hardAlpha"/>
      <feOffset/>
      <feGaussianBlur stdDeviation="6.5"/>
      <feComposite in2="hardAlpha" operator="out"/>
      <feColorMatrix type="matrix" values="0 0 0 0 0 0 0 0 0 0 0 0 0 0 0 0 0 0 0.8 0"/>
      <feBlend mode="normal" in2="BackgroundImageFix" result="effect1_dropShadow_3907_2295"/>
      <feBlend mode="normal" in="SourceGraphic" in2="effect1_dropShadow_3907_2295" result="shape"/>
    </filter>
    <filter id="filter3_d_3907_2295" x="17.6689" y="114.718" width="72.167" height="58.208" filterUnits="userSpaceOnUse" color-interpolation-filters="sRGB">
      <feFlood flood-opacity="0" result="BackgroundImageFix"/>
      <feColorMatrix in="SourceAlpha" type="matrix" values="0 0 0 0 0 0 0 0 0 0 0 0 0 0 0 0 0 0 127 0" result="hardAlpha"/>
      <feOffset/>
      <feGaussianBlur stdDeviation="6.5"/>
      <feComposite in2="hardAlpha" operator="out"/>
      <feColorMatrix type="matrix" values="0 0 0 0 0 0 0 0 0 0 0 0 0 0 0 0 0 0 0.8 0"/>
      <feBlend mode="normal" in2="BackgroundImageFix" result="effect1_dropShadow_3907_2295"/>
      <feBlend mode="normal" in="SourceGraphic" in2="effect1_dropShadow_3907_2295" result="shape"/>
    </filter>
    <linearGradient id="paint0_linear_3907_2295" x1="55.495" y1="150.218" x2="55.495" y2="15.2466" gradientUnits="userSpaceOnUse">
      <stop offset="1.38522e-07" stop-color="#3AE2D1"/>
      <stop offset="0.6397" stop-color="#054876" stop-opacity="0.3603"/>
      <stop offset="1" stop-color="#071033" stop-opacity="0"/>
    </linearGradient>
    <linearGradient id="paint1_linear_3907_2295" x1="18.74" y1="138.731" x2="65.7239" y2="120.4" gradientUnits="userSpaceOnUse">
      <stop stop-color="#A31FA9"/>
      <stop offset="0.0667915" stop-color="#8B17A0"/>
      <stop offset="0.1494" stop-color="#740F98"/>
      <stop offset="0.2393" stop-color="#640A92"/>
      <stop offset="0.3408" stop-color="#5B078F"/>
      <stop offset="0.4785" stop-color="#58068E"/>
      <stop offset="0.6264" stop-color="#4D22A3"/>
      <stop offset="0.9436" stop-color="#3168DA"/>
      <stop offset="1" stop-color="#2C75E4"/>
    </linearGradient>
    <radialGradient id="paint2_radial_3907_2295" cx="0" cy="0" r="1" gradientUnits="userSpaceOnUse" gradientTransform="translate(54.23 111.84) rotate(127.484) scale(34.6635 25.8577)">
      <stop stop-color="#14E1E2"/>
      <stop offset="1" stop-color="#1ED0F4" stop-opacity="0.01"/>
    </radialGradient>
    <radialGradient id="paint3_radial_3907_2295" cx="0" cy="0" r="1" gradientUnits="userSpaceOnUse" gradientTransform="translate(18.0033 106.641) scale(41.3644 18.9652)">
      <stop stop-color="#5C5CFF"/>
      <stop offset="1" stop-color="#5C5CFF" stop-opacity="0"/>
    </radialGradient>
    <radialGradient id="paint4_radial_3907_2295" cx="0" cy="0" r="1" gradientUnits="userSpaceOnUse" gradientTransform="translate(19.7459 133.476) scale(45.0531 37.0089)">
      <stop stop-color="#FF01DD"/>
      <stop offset="1" stop-color="#5C5CFF" stop-opacity="0"/>
    </radialGradient>
    <radialGradient id="paint5_radial_3907_2295" cx="0" cy="0" r="1" gradientUnits="userSpaceOnUse" gradientTransform="translate(11.8586 129.619) rotate(23.7478) scale(34.568 32.7651)">
      <stop stop-color="#FF6F4F"/>
      <stop offset="1" stop-color="#FF01DD" stop-opacity="0"/>
    </radialGradient>
    <linearGradient id="paint6_linear_3907_2295" x1="12.1415" y1="125.17" x2="62.5675" y2="116.217" gradientUnits="userSpaceOnUse">
      <stop stop-color="#FF01DD"/>
      <stop offset="1" stop-color="#41B7FF"/>
    </linearGradient>
    <linearGradient id="paint7_linear_3907_2295" x1="15.06" y1="126.247" x2="65.7313" y2="106.082" gradientUnits="userSpaceOnUse">
      <stop stop-color="#A31FA9"/>
      <stop offset="0.0667915" stop-color="#8B17A0"/>
      <stop offset="0.1494" stop-color="#740F98"/>
      <stop offset="0.2393" stop-color="#640A92"/>
      <stop offset="0.3408" stop-color="#5B078F"/>
      <stop offset="0.4785" stop-color="#58068E"/>
      <stop offset="0.6264" stop-color="#4D22A3"/>
      <stop offset="0.9436" stop-color="#3168DA"/>
      <stop offset="1" stop-color="#2C75E4"/>
    </linearGradient>
    <radialGradient id="paint8_radial_3907_2295" cx="0" cy="0" r="1" gradientUnits="userSpaceOnUse" gradientTransform="translate(54.1511 104.1) rotate(127.501) scale(34.6716 25.868)">
      <stop stop-color="#14E1E2"/>
      <stop offset="1" stop-color="#1ED0F4" stop-opacity="0.01"/>
    </radialGradient>
    <radialGradient id="paint9_radial_3907_2295" cx="0" cy="0" r="1" gradientUnits="userSpaceOnUse" gradientTransform="translate(17.9016 98.901) scale(41.3905 18.9652)">
      <stop stop-color="#5C5CFF"/>
      <stop offset="1" stop-color="#5C5CFF" stop-opacity="0"/>
    </radialGradient>
    <radialGradient id="paint10_radial_3907_2295" cx="0" cy="0" r="1" gradientUnits="userSpaceOnUse" gradientTransform="translate(19.6452 125.736) scale(45.0816 37.0089)">
      <stop stop-color="#FF01DD"/>
      <stop offset="1" stop-color="#5C5CFF" stop-opacity="0"/>
    </radialGradient>
    <radialGradient id="paint11_radial_3907_2295" cx="0" cy="0" r="1" gradientUnits="userSpaceOnUse" gradientTransform="translate(11.7529 121.879) rotate(23.7344) scale(34.5863 32.7684)">
      <stop stop-color="#FF6F4F"/>
      <stop offset="1" stop-color="#FF01DD" stop-opacity="0"/>
    </radialGradient>
    <linearGradient id="paint12_linear_3907_2295" x1="12.0737" y1="124.566" x2="63.3702" y2="118.149" gradientUnits="userSpaceOnUse">
      <stop stop-color="#FF01DD"/>
      <stop offset="1" stop-color="#41B7FF"/>
    </linearGradient>
    <linearGradient id="paint13_linear_3907_2295" x1="12.0638" y1="117.43" x2="62.488" y2="108.472" gradientUnits="userSpaceOnUse">
      <stop stop-color="#FF01DD"/>
      <stop offset="1" stop-color="#41B7FF"/>
    </linearGradient>
    <linearGradient id="paint14_linear_3907_2295" x1="19.66" y1="122.548" x2="64.8115" y2="103.297" gradientUnits="userSpaceOnUse">
      <stop stop-color="#A31FA9"/>
      <stop offset="0.0667915" stop-color="#8B17A0"/>
      <stop offset="0.1494" stop-color="#740F98"/>
      <stop offset="0.2393" stop-color="#640A92"/>
      <stop offset="0.3408" stop-color="#5B078F"/>
      <stop offset="0.4785" stop-color="#58068E"/>
      <stop offset="0.6264" stop-color="#4D22A3"/>
      <stop offset="0.9436" stop-color="#3168DA"/>
      <stop offset="1" stop-color="#2C75E4"/>
    </linearGradient>
    <radialGradient id="paint15_radial_3907_2295" cx="0" cy="0" r="1" gradientUnits="userSpaceOnUse" gradientTransform="translate(54.1905 98.0022) rotate(127.493) scale(34.6675 25.8628)">
      <stop stop-color="#14E1E2"/>
      <stop offset="1" stop-color="#1ED0F4" stop-opacity="0.01"/>
    </radialGradient>
    <radialGradient id="paint16_radial_3907_2295" cx="0" cy="0" r="1" gradientUnits="userSpaceOnUse" gradientTransform="translate(17.9524 92.8029) scale(41.3775 18.9652)">
      <stop stop-color="#5C5CFF"/>
      <stop offset="1" stop-color="#5C5CFF" stop-opacity="0"/>
    </radialGradient>
    <radialGradient id="paint17_radial_3907_2295" cx="0" cy="0" r="1" gradientUnits="userSpaceOnUse" gradientTransform="translate(19.6955 119.638) scale(45.0674 37.0089)">
      <stop stop-color="#FF01DD"/>
      <stop offset="1" stop-color="#5C5CFF" stop-opacity="0"/>
    </radialGradient>
    <radialGradient id="paint18_radial_3907_2295" cx="0" cy="0" r="1" gradientUnits="userSpaceOnUse" gradientTransform="translate(11.8057 115.781) rotate(23.7411) scale(34.5771 32.7667)">
      <stop stop-color="#FF6F4F"/>
      <stop offset="1" stop-color="#FF01DD" stop-opacity="0"/>
    </radialGradient>
    <linearGradient id="paint19_linear_3907_2295" x1="12.0834" y1="118.335" x2="63.3672" y2="111.917" gradientUnits="userSpaceOnUse">
      <stop stop-color="#FF01DD"/>
      <stop offset="1" stop-color="#41B7FF"/>
    </linearGradient>
    <linearGradient id="paint20_linear_3907_2295" x1="12.1027" y1="111.293" x2="62.5242" y2="102.328" gradientUnits="userSpaceOnUse">
      <stop stop-color="#FF01DD"/>
      <stop offset="1" stop-color="#41B7FF"/>
    </linearGradient>
    <linearGradient id="paint21_linear_3907_2295" x1="21.5" y1="117.462" x2="63.4411" y2="97.2868" gradientUnits="userSpaceOnUse">
      <stop stop-color="#A31FA9"/>
      <stop offset="0.0667915" stop-color="#8B17A0"/>
      <stop offset="0.1494" stop-color="#740F98"/>
      <stop offset="0.2393" stop-color="#640A92"/>
      <stop offset="0.3408" stop-color="#5B078F"/>
      <stop offset="0.4785" stop-color="#58068E"/>
      <stop offset="0.6264" stop-color="#4D22A3"/>
      <stop offset="0.9436" stop-color="#3168DA"/>
      <stop offset="1" stop-color="#2C75E4"/>
    </linearGradient>
    <radialGradient id="paint22_radial_3907_2295" cx="0" cy="0" r="1" gradientUnits="userSpaceOnUse" gradientTransform="translate(54.23 91.9198) rotate(127.504) scale(34.6476 25.8507)">
      <stop stop-color="#14E1E2"/>
      <stop offset="1" stop-color="#1ED0F4" stop-opacity="0.01"/>
    </radialGradient>
    <radialGradient id="paint23_radial_3907_2295" cx="0" cy="0" r="1" gradientUnits="userSpaceOnUse" gradientTransform="translate(18.0033 86.7242) scale(41.3644 18.9513)">
      <stop stop-color="#5C5CFF"/>
      <stop offset="1" stop-color="#5C5CFF" stop-opacity="0"/>
    </radialGradient>
    <radialGradient id="paint24_radial_3907_2295" cx="0" cy="0" r="1" gradientUnits="userSpaceOnUse" gradientTransform="translate(19.7459 113.54) scale(45.0531 36.9819)">
      <stop stop-color="#FF01DD"/>
      <stop offset="1" stop-color="#5C5CFF" stop-opacity="0"/>
    </radialGradient>
    <radialGradient id="paint25_radial_3907_2295" cx="0" cy="0" r="1" gradientUnits="userSpaceOnUse" gradientTransform="translate(11.8586 109.685) rotate(23.7324) scale(34.5639 32.745)">
      <stop stop-color="#FF6F4F"/>
      <stop offset="1" stop-color="#FF01DD" stop-opacity="0"/>
    </radialGradient>
    <linearGradient id="paint26_linear_3907_2295" x1="12.1415" y1="105.194" x2="62.563" y2="96.2298" gradientUnits="userSpaceOnUse">
      <stop stop-color="#FF01DD"/>
      <stop offset="1" stop-color="#41B7FF"/>
    </linearGradient>
    <linearGradient id="paint27_linear_3907_2295" x1="20.12" y1="110.527" x2="67.1211" y2="89.4387" gradientUnits="userSpaceOnUse">
      <stop stop-color="#A31FA9"/>
      <stop offset="0.0667915" stop-color="#8B17A0"/>
      <stop offset="0.1494" stop-color="#740F98"/>
      <stop offset="0.2393" stop-color="#640A92"/>
      <stop offset="0.3408" stop-color="#5B078F"/>
      <stop offset="0.4785" stop-color="#58068E"/>
      <stop offset="0.6264" stop-color="#4D22A3"/>
      <stop offset="0.9436" stop-color="#3168DA"/>
      <stop offset="1" stop-color="#2C75E4"/>
    </linearGradient>
    <radialGradient id="paint28_radial_3907_2295" cx="0" cy="0" r="1" gradientUnits="userSpaceOnUse" gradientTransform="translate(56.2008 85.8843) rotate(127.496) scale(34.6682 25.8642)">
      <stop stop-color="#14E1E2"/>
      <stop offset="1" stop-color="#1ED0F4" stop-opacity="0.01"/>
    </radialGradient>
    <radialGradient id="paint29_radial_3907_2295" cx="0" cy="0" r="1" gradientUnits="userSpaceOnUse" gradientTransform="translate(19.959 80.6851) scale(41.3818 18.9645)">
      <stop stop-color="#5C5CFF"/>
      <stop offset="1" stop-color="#5C5CFF" stop-opacity="0"/>
    </radialGradient>
    <radialGradient id="paint30_radial_3907_2295" cx="0" cy="0" r="1" gradientUnits="userSpaceOnUse" gradientTransform="translate(21.7022 107.52) scale(45.0721 37.0077)">
      <stop stop-color="#FF01DD"/>
      <stop offset="1" stop-color="#5C5CFF" stop-opacity="0"/>
    </radialGradient>
    <radialGradient id="paint31_radial_3907_2295" cx="0" cy="0" r="1" gradientUnits="userSpaceOnUse" gradientTransform="translate(13.8116 103.662) rotate(23.7382) scale(34.58 32.7664)">
      <stop stop-color="#FF6F4F"/>
      <stop offset="1" stop-color="#FF01DD" stop-opacity="0"/>
    </radialGradient>
    <linearGradient id="paint32_linear_3907_2295" x1="14.0405" y1="106.324" x2="65.3536" y2="99.9005" gradientUnits="userSpaceOnUse">
      <stop stop-color="#FF01DD"/>
      <stop offset="1" stop-color="#41B7FF"/>
    </linearGradient>
    <linearGradient id="paint33_linear_3907_2295" x1="14.2489" y1="99.2135" x2="64.7002" y2="90.26" gradientUnits="userSpaceOnUse">
      <stop stop-color="#FF01DD"/>
      <stop offset="1" stop-color="#41B7FF"/>
    </linearGradient>
    <linearGradient id="paint34_linear_3907_2295" x1="28.86" y1="104.978" x2="59.7298" y2="91.6852" gradientUnits="userSpaceOnUse">
      <stop stop-color="#A31FA9"/>
      <stop offset="0.0667915" stop-color="#8B17A0"/>
      <stop offset="0.1494" stop-color="#740F98"/>
      <stop offset="0.2393" stop-color="#640A92"/>
      <stop offset="0.3408" stop-color="#5B078F"/>
      <stop offset="0.4785" stop-color="#58068E"/>
      <stop offset="0.6264" stop-color="#4D22A3"/>
      <stop offset="0.9436" stop-color="#3168DA"/>
      <stop offset="1" stop-color="#2C75E4"/>
    </linearGradient>
    <radialGradient id="paint35_radial_3907_2295" cx="0" cy="0" r="1" gradientUnits="userSpaceOnUse" gradientTransform="translate(55.9725 79.2545) rotate(127.223) scale(34.6299 25.8263)">
      <stop stop-color="#14E1E2"/>
      <stop offset="1" stop-color="#1ED0F4" stop-opacity="0.01"/>
    </radialGradient>
    <radialGradient id="paint36_radial_3907_2295" cx="0" cy="0" r="1" gradientUnits="userSpaceOnUse" gradientTransform="translate(19.7778 74.2113) rotate(-0.24148) scale(41.3036 18.9516)">
      <stop stop-color="#5C5CFF"/>
      <stop offset="1" stop-color="#5C5CFF" stop-opacity="0"/>
    </radialGradient>
    <radialGradient id="paint37_radial_3907_2295" cx="0" cy="0" r="1" gradientUnits="userSpaceOnUse" gradientTransform="translate(21.6294 101.02) rotate(-0.24148) scale(44.9869 36.9825)">
      <stop stop-color="#FF01DD"/>
      <stop offset="1" stop-color="#5C5CFF" stop-opacity="0"/>
    </radialGradient>
    <radialGradient id="paint38_radial_3907_2295" cx="0" cy="0" r="1" gradientUnits="userSpaceOnUse" gradientTransform="translate(13.7377 97.1985) rotate(23.5228) scale(34.5207 32.7383)">
      <stop stop-color="#FF6F4F"/>
      <stop offset="1" stop-color="#FF01DD" stop-opacity="0"/>
    </radialGradient>
    <linearGradient id="paint39_linear_3907_2295" x1="75.78" y1="143.355" x2="111.289" y2="123.168" gradientUnits="userSpaceOnUse">
      <stop stop-color="#A31FA9"/>
      <stop offset="0.0667915" stop-color="#8B17A0"/>
      <stop offset="0.1494" stop-color="#740F98"/>
      <stop offset="0.2393" stop-color="#640A92"/>
      <stop offset="0.3408" stop-color="#5B078F"/>
      <stop offset="0.4785" stop-color="#58068E"/>
      <stop offset="0.6264" stop-color="#4D22A3"/>
      <stop offset="0.9436" stop-color="#3168DA"/>
      <stop offset="1" stop-color="#2C75E4"/>
    </linearGradient>
    <radialGradient id="paint40_radial_3907_2295" cx="0" cy="0" r="1" gradientUnits="userSpaceOnUse" gradientTransform="translate(99.9192 114.929) rotate(127.484) scale(34.6635 25.8577)">
      <stop stop-color="#14E1E2"/>
      <stop offset="1" stop-color="#1ED0F4" stop-opacity="0.01"/>
    </radialGradient>
    <radialGradient id="paint41_radial_3907_2295" cx="0" cy="0" r="1" gradientUnits="userSpaceOnUse" gradientTransform="translate(63.6925 109.729) scale(41.3644 18.9652)">
      <stop stop-color="#5C5CFF"/>
      <stop offset="1" stop-color="#5C5CFF" stop-opacity="0"/>
    </radialGradient>
    <radialGradient id="paint42_radial_3907_2295" cx="0" cy="0" r="1" gradientUnits="userSpaceOnUse" gradientTransform="translate(65.4351 136.565) scale(45.0531 37.0089)">
      <stop stop-color="#FF01DD"/>
      <stop offset="1" stop-color="#5C5CFF" stop-opacity="0"/>
    </radialGradient>
    <radialGradient id="paint43_radial_3907_2295" cx="0" cy="0" r="1" gradientUnits="userSpaceOnUse" gradientTransform="translate(57.5478 132.707) rotate(23.7478) scale(34.568 32.7651)">
      <stop stop-color="#FF6F4F"/>
      <stop offset="1" stop-color="#FF01DD" stop-opacity="0"/>
    </radialGradient>
    <linearGradient id="paint44_linear_3907_2295" x1="57.8307" y1="128.258" x2="108.259" y2="119.313" gradientUnits="userSpaceOnUse">
      <stop stop-color="#FF01DD"/>
      <stop offset="1" stop-color="#41B7FF"/>
    </linearGradient>
    <linearGradient id="paint45_linear_3907_2295" x1="68.8801" y1="134.107" x2="112.194" y2="114.854" gradientUnits="userSpaceOnUse">
      <stop stop-color="#A31FA9"/>
      <stop offset="0.0667915" stop-color="#8B17A0"/>
      <stop offset="0.1494" stop-color="#740F98"/>
      <stop offset="0.2393" stop-color="#640A92"/>
      <stop offset="0.3408" stop-color="#5B078F"/>
      <stop offset="0.4785" stop-color="#58068E"/>
      <stop offset="0.6264" stop-color="#4D22A3"/>
      <stop offset="0.9436" stop-color="#3168DA"/>
      <stop offset="1" stop-color="#2C75E4"/>
    </linearGradient>
    <radialGradient id="paint46_radial_3907_2295" cx="0" cy="0" r="1" gradientUnits="userSpaceOnUse" gradientTransform="translate(97.8351 107.189) rotate(127.492) scale(34.6676 25.8629)">
      <stop stop-color="#14E1E2"/>
      <stop offset="1" stop-color="#1ED0F4" stop-opacity="0.01"/>
    </radialGradient>
    <radialGradient id="paint47_radial_3907_2295" cx="0" cy="0" r="1" gradientUnits="userSpaceOnUse" gradientTransform="translate(61.597 101.989) scale(41.3775 18.9652)">
      <stop stop-color="#5C5CFF"/>
      <stop offset="1" stop-color="#5C5CFF" stop-opacity="0"/>
    </radialGradient>
    <radialGradient id="paint48_radial_3907_2295" cx="0" cy="0" r="1" gradientUnits="userSpaceOnUse" gradientTransform="translate(63.3401 128.825) scale(45.0674 37.009)">
      <stop stop-color="#FF01DD"/>
      <stop offset="1" stop-color="#5C5CFF" stop-opacity="0"/>
    </radialGradient>
    <radialGradient id="paint49_radial_3907_2295" cx="0" cy="0" r="1" gradientUnits="userSpaceOnUse" gradientTransform="translate(55.4503 124.967) rotate(23.7411) scale(34.5771 32.7668)">
      <stop stop-color="#FF6F4F"/>
      <stop offset="1" stop-color="#FF01DD" stop-opacity="0"/>
    </radialGradient>
    <linearGradient id="paint50_linear_3907_2295" x1="55.8186" y1="127.809" x2="106.997" y2="121.206" gradientUnits="userSpaceOnUse">
      <stop stop-color="#FF01DD"/>
      <stop offset="1" stop-color="#41B7FF"/>
    </linearGradient>
    <linearGradient id="paint51_linear_3907_2295" x1="55.7328" y1="120.479" x2="106.154" y2="111.514" gradientUnits="userSpaceOnUse">
      <stop stop-color="#FF01DD"/>
      <stop offset="1" stop-color="#41B7FF"/>
    </linearGradient>
    <linearGradient id="paint52_linear_3907_2295" x1="63.2829" y1="125.946" x2="111.573" y2="110.733" gradientUnits="userSpaceOnUse">
      <stop stop-color="#A31FA9"/>
      <stop offset="0.0667915" stop-color="#8B17A0"/>
      <stop offset="0.1494" stop-color="#740F98"/>
      <stop offset="0.2393" stop-color="#640A92"/>
      <stop offset="0.3408" stop-color="#5B078F"/>
      <stop offset="0.4785" stop-color="#58068E"/>
      <stop offset="0.6264" stop-color="#4D22A3"/>
      <stop offset="0.9436" stop-color="#3168DA"/>
      <stop offset="1" stop-color="#2C75E4"/>
    </linearGradient>
    <radialGradient id="paint53_radial_3907_2295" cx="0" cy="0" r="1" gradientUnits="userSpaceOnUse" gradientTransform="translate(97.8879 101.106) rotate(127.521) scale(34.6557 25.861)">
      <stop stop-color="#14E1E2"/>
      <stop offset="1" stop-color="#1ED0F4" stop-opacity="0.01"/>
    </radialGradient>
    <radialGradient id="paint54_radial_3907_2295" cx="0" cy="0" r="1" gradientUnits="userSpaceOnUse" gradientTransform="translate(61.6384 95.9106) scale(41.3905 18.9513)">
      <stop stop-color="#5C5CFF"/>
      <stop offset="1" stop-color="#5C5CFF" stop-opacity="0"/>
    </radialGradient>
    <radialGradient id="paint55_radial_3907_2295" cx="0" cy="0" r="1" gradientUnits="userSpaceOnUse" gradientTransform="translate(63.382 122.727) scale(45.0816 36.9819)">
      <stop stop-color="#FF01DD"/>
      <stop offset="1" stop-color="#5C5CFF" stop-opacity="0"/>
    </radialGradient>
    <radialGradient id="paint56_radial_3907_2295" cx="0" cy="0" r="1" gradientUnits="userSpaceOnUse" gradientTransform="translate(55.4897 118.872) rotate(23.719) scale(34.5822 32.7484)">
      <stop stop-color="#FF6F4F"/>
      <stop offset="1" stop-color="#FF01DD" stop-opacity="0"/>
    </radialGradient>
    <linearGradient id="paint57_linear_3907_2295" x1="37.6001" y1="159.075" x2="111.249" y2="139.841" gradientUnits="userSpaceOnUse">
      <stop stop-color="#A31FA9"/>
      <stop offset="0.0667915" stop-color="#8B17A0"/>
      <stop offset="0.1494" stop-color="#740F98"/>
      <stop offset="0.2393" stop-color="#640A92"/>
      <stop offset="0.3408" stop-color="#5B078F"/>
      <stop offset="0.4785" stop-color="#58068E"/>
      <stop offset="0.6264" stop-color="#4D22A3"/>
      <stop offset="0.9436" stop-color="#3168DA"/>
      <stop offset="1" stop-color="#2C75E4"/>
    </linearGradient>
    <linearGradient id="paint58_linear_3907_2295" x1="30.9652" y1="154.703" x2="87.2998" y2="147.649" gradientUnits="userSpaceOnUse">
      <stop stop-color="#FF01DD"/>
      <stop offset="1" stop-color="#41B7FF"/>
    </linearGradient>
    <linearGradient id="paint59_linear_3907_2295" x1="33.1984" y1="153.666" x2="84.3773" y2="147.062" gradientUnits="userSpaceOnUse">
      <stop stop-color="#FF01DD"/>
      <stop offset="1" stop-color="#41B7FF"/>
    </linearGradient>
    <linearGradient id="paint60_linear_3907_2295" x1="33.0824" y1="146.396" x2="83.5085" y2="137.438" gradientUnits="userSpaceOnUse">
      <stop stop-color="#FF01DD"/>
      <stop offset="1" stop-color="#41B7FF"/>
    </linearGradient>
    <linearGradient id="paint61_linear_3907_2295" x1="36.68" y1="151.677" x2="106.713" y2="121.424" gradientUnits="userSpaceOnUse">
      <stop stop-color="#A31FA9"/>
      <stop offset="0.0667915" stop-color="#8B17A0"/>
      <stop offset="0.1494" stop-color="#740F98"/>
      <stop offset="0.2393" stop-color="#640A92"/>
      <stop offset="0.3408" stop-color="#5B078F"/>
      <stop offset="0.4785" stop-color="#58068E"/>
      <stop offset="0.6264" stop-color="#4D22A3"/>
      <stop offset="0.9436" stop-color="#3168DA"/>
      <stop offset="1" stop-color="#2C75E4"/>
    </linearGradient>
    <radialGradient id="paint62_radial_3907_2295" cx="0" cy="0" r="1" gradientUnits="userSpaceOnUse" gradientTransform="translate(74.3444 126.969) rotate(127.496) scale(34.6682 25.8643)">
      <stop stop-color="#14E1E2"/>
      <stop offset="1" stop-color="#1ED0F4" stop-opacity="0.01"/>
    </radialGradient>
    <radialGradient id="paint63_radial_3907_2295" cx="0" cy="0" r="1" gradientUnits="userSpaceOnUse" gradientTransform="translate(38.1025 121.77) scale(41.3818 18.9646)">
      <stop stop-color="#5C5CFF"/>
      <stop offset="1" stop-color="#5C5CFF" stop-opacity="0"/>
    </radialGradient>
    <radialGradient id="paint64_radial_3907_2295" cx="0" cy="0" r="1" gradientUnits="userSpaceOnUse" gradientTransform="translate(39.8458 148.604) scale(45.0721 37.0078)">
      <stop stop-color="#FF01DD"/>
      <stop offset="1" stop-color="#5C5CFF" stop-opacity="0"/>
    </radialGradient>
    <radialGradient id="paint65_radial_3907_2295" cx="0" cy="0" r="1" gradientUnits="userSpaceOnUse" gradientTransform="translate(31.9552 144.747) rotate(23.7382) scale(34.58 32.7664)">
      <stop stop-color="#FF6F4F"/>
      <stop offset="1" stop-color="#FF01DD" stop-opacity="0"/>
    </radialGradient>
    <clipPath id="clip0_3907_2295">
      <rect width="111" height="95" fill="white" transform="translate(0 74)"/>
    </clipPath>
  </defs>
</svg>
