<svg width="524" height="524" viewBox="0 0 524 524" fill="none" xmlns="http://www.w3.org/2000/svg">
<g opacity="0.73">
<path d="M153.004 409.035C143.012 409.035 135.063 406.244 129.574 400.636C116.09 386.874 118.999 357.194 137.549 319.202C173.757 245.061 258.723 159.037 326.944 127.446C358.092 113.022 381.86 111.826 393.863 124.08C407.347 137.842 404.437 167.522 385.887 205.514C349.68 279.655 264.714 365.679 196.493 397.27C179.589 405.107 164.855 409.035 153.004 409.035ZM327.268 128.147L327.592 128.841C259.642 160.307 175.006 246.007 138.932 319.883C120.679 357.254 117.67 386.299 130.672 399.571C142.192 411.33 165.338 410.02 195.858 395.888C263.808 364.422 348.444 278.722 384.519 204.846C402.771 167.475 405.78 138.43 392.778 125.158C381.265 113.399 358.112 114.709 327.592 128.841L327.268 128.147Z" fill="url(#paint0_linear_4171_4770)"/>
<path d="M145.829 411.039C134.15 411.039 125.077 407.686 119.204 400.98C105.462 385.3 110.515 352.949 133.059 312.211C175.588 235.366 267.723 150.274 338.438 122.526C369.5 110.337 392.871 110.774 404.239 123.749C417.981 139.429 412.929 171.78 390.384 212.518C347.855 289.363 255.72 374.455 185.006 402.203C169.987 408.096 156.761 411.039 145.829 411.039ZM377.621 115.205C366.901 115.205 353.866 118.121 338.993 123.954C268.556 151.59 176.772 236.371 134.395 312.959C112.181 353.094 107.063 384.811 120.355 399.975C131.267 412.427 154.029 412.712 184.443 400.782C254.88 373.145 346.658 288.358 389.042 211.777C411.256 171.642 416.374 139.925 403.082 124.761C397.507 118.392 388.83 115.205 377.621 115.205Z" fill="url(#paint1_linear_4171_4770)"/>
<path d="M139.256 412.56C125.5 412.56 115.065 408.506 108.789 400.471C94.8811 382.661 102.314 347.572 129.184 304.209C178.247 225.03 277.444 141.624 350.315 118.28C381.093 108.42 403.941 110.542 414.648 124.252C428.556 142.061 421.129 177.15 394.253 220.513C345.19 299.693 245.992 383.098 173.122 406.442C160.378 410.529 148.983 412.56 139.256 412.56ZM384.208 113.69C374.652 113.69 363.409 115.701 350.785 119.741C278.212 142.993 179.391 226.108 130.486 305.023C103.974 347.81 96.5079 382.258 109.999 399.532C120.282 412.698 142.536 414.636 172.659 404.988C245.232 381.736 344.059 298.621 392.957 219.706C419.469 176.919 426.935 142.471 413.444 125.197C407.466 117.546 397.454 113.69 384.208 113.69Z" fill="url(#paint2_linear_4171_4770)"/>
<path d="M133.099 413.724C116.936 413.724 105.138 408.79 98.3994 399.036C84.4456 378.846 94.5108 340.992 126.023 295.182C181.798 214.098 287.887 133.179 362.523 114.801C393.268 107.229 414.886 110.992 425.044 125.68C438.998 145.87 428.933 183.724 397.421 229.533C341.639 310.624 235.55 391.543 160.92 409.914C150.584 412.46 141.286 413.724 133.099 413.724ZM390.351 112.526C382.296 112.526 373.117 113.776 362.887 116.296C288.568 134.595 182.876 215.236 127.286 296.055C96.1575 341.316 86.0857 378.528 99.6625 398.169C109.424 412.289 130.48 415.84 160.557 408.433C234.876 390.134 340.567 309.493 396.158 228.674C427.286 183.413 437.358 146.201 423.781 126.56C417.34 117.242 405.978 112.526 390.351 112.526Z" fill="url(#paint3_linear_4171_4770)"/>
<path d="M128.284 414.358C108.934 414.358 95.2118 408.347 88.0894 396.582C74.2613 373.747 87.2297 333.116 123.662 285.117C186.289 202.605 299.037 125.039 374.989 112.202L375.115 112.956L374.989 112.202C405.085 107.117 425.963 112.626 435.354 128.14C449.182 150.975 436.214 191.607 399.782 239.605C337.155 322.118 224.407 399.684 148.455 412.52C141.18 413.75 134.448 414.358 128.284 414.358ZM395.172 111.898C389.095 111.898 382.442 112.5 375.247 113.717C299.625 126.493 187.307 203.795 124.885 286.043C89.379 332.825 76.113 373.846 89.3988 395.789C98.4391 410.715 118.768 415.979 148.197 411.006C223.825 398.229 336.137 320.927 398.558 238.679C434.064 191.898 447.331 150.876 434.045 128.934C427.213 117.658 413.941 111.898 395.172 111.898Z" fill="url(#paint4_linear_4171_4770)"/>
<path d="M124.832 414.656C101.475 414.656 85.3582 407.263 77.9118 393.005C64.6524 367.61 81.1985 323.117 122.18 273.994C191.764 190.575 310.848 117.268 387.64 110.569C416.95 108.01 436.961 115.33 445.525 131.725C458.785 157.119 442.238 201.613 401.256 250.735C331.679 334.147 212.596 407.461 135.804 414.16C131.988 414.491 128.331 414.656 124.832 414.656ZM387.706 111.329L387.772 112.09C311.33 118.756 192.717 191.825 123.358 274.973C82.7857 323.606 66.3057 367.464 79.2741 392.297C87.5274 408.102 107.03 415.132 135.665 412.632C212.106 405.966 330.72 332.897 400.079 249.75C440.651 201.117 457.131 157.258 444.163 132.432C435.91 116.627 416.407 109.597 387.766 112.097L387.706 111.329Z" fill="url(#paint5_linear_4171_4770)"/>
<path d="M123.086 414.735C123.073 414.735 123.06 414.735 123.047 414.735C94.6564 414.729 75.6104 405.543 67.959 388.17C55.3675 359.582 75.4451 312.337 121.671 261.806C198.245 178.09 323.247 109.994 400.344 109.994C400.357 109.994 400.37 109.994 400.384 109.994C428.774 110 447.82 119.186 455.471 136.559C468.063 165.147 447.979 212.392 401.759 262.923C325.192 346.64 200.183 414.735 123.086 414.735ZM400.351 111.521C323.624 111.521 199.138 179.392 122.809 262.837C77.0058 312.912 57.0274 359.535 69.3676 387.555C76.7545 404.326 95.3177 413.195 123.053 413.201C123.06 413.201 123.08 413.201 123.093 413.201C199.819 413.208 324.312 345.33 400.635 261.885C446.438 211.81 466.416 165.187 454.076 137.167C446.689 120.396 428.126 111.528 400.39 111.521C400.377 111.521 400.364 111.521 400.351 111.521Z" fill="url(#paint6_linear_4171_4770)"/>
<path d="M123.172 414.742C118.728 414.742 114.436 414.55 110.29 414.154C82.9114 411.541 64.9368 400.405 58.3104 381.941C46.7902 349.854 70.6902 299.99 122.227 248.56C205.824 165.141 336.328 103.248 413.14 110.569C440.519 113.181 458.494 124.318 465.12 142.782C476.634 174.869 452.74 224.732 401.204 276.163C322.117 355.078 201.043 414.736 123.172 414.742ZM400.212 111.515C322.732 111.515 202.154 170.987 123.318 249.651C72.2046 300.652 48.4435 349.913 59.7586 381.425C66.1668 399.287 83.6917 410.073 110.442 412.626C186.844 419.914 316.806 358.213 400.126 275.078C451.239 224.078 475 174.816 463.685 143.304C457.277 125.442 439.752 114.656 413.002 112.103C408.888 111.706 404.616 111.515 400.212 111.515Z" fill="url(#paint7_linear_4171_4770)"/>
<path d="M125.401 414.854C115.481 414.854 106.183 414.028 97.6257 412.315C71.3185 407.044 54.5342 393.838 49.0717 374.137C39.1387 338.274 67.1257 285.99 123.939 234.282C214.5 151.868 349.925 97.2037 425.811 112.421C452.118 117.691 468.903 130.898 474.365 150.599C484.298 186.462 456.311 238.746 399.497 290.454C319.147 363.569 203.476 414.848 125.401 414.854ZM397.943 111.396C320.278 111.396 205.07 162.522 124.978 235.413C68.5938 286.718 40.7722 338.426 50.5531 373.721C55.8436 392.826 72.2311 405.656 97.9299 410.807C106.415 412.507 115.66 413.327 125.5 413.327C203.165 413.333 318.374 362.2 398.466 289.31C454.843 237.998 482.671 186.296 472.89 151.002C467.6 131.896 451.212 119.067 425.514 113.915C417.029 112.222 407.777 111.396 397.943 111.396Z" fill="url(#paint8_linear_4171_4770)"/>
<path d="M130.156 415.298C113.504 415.298 98.3135 413.3 85.1665 409.114C59.9703 401.086 44.4822 385.664 40.3755 364.522C32.638 324.651 64.9831 270.244 126.889 218.972C224.295 138.311 363.985 91.9397 438.271 115.615C463.467 123.643 478.955 139.065 483.062 160.208C490.799 200.078 458.454 254.485 396.548 305.757C316.383 372.14 207.576 415.298 130.156 415.298ZM393.175 110.939C316.158 110.939 207.781 153.978 127.868 220.156C66.4049 271.058 34.2583 324.915 41.8833 364.231C45.871 384.791 61.002 399.81 85.6294 407.659C159.485 431.189 298.521 384.95 395.569 304.58C457.039 253.672 489.185 199.814 481.554 160.505C477.566 139.945 462.435 124.926 437.808 117.083C424.766 112.917 409.688 110.939 393.175 110.939Z" fill="url(#paint9_linear_4171_4770)"/>
<path d="M137.748 416.362C112.935 416.362 90.8075 412.54 73.0313 404.465C48.9527 393.534 34.9063 375.678 32.4065 352.843C27.5988 308.845 64.5201 252.706 131.168 202.677C235.233 124.556 378.448 87.5816 450.412 120.257C474.491 131.189 488.537 149.044 491.037 171.88C495.845 215.877 458.923 272.016 392.276 322.045C313.916 380.869 213.363 416.362 137.748 416.362ZM385.603 109.861C310.372 109.861 210.202 145.262 132.08 203.907C65.8692 253.605 29.1793 309.222 33.9276 352.677C36.3612 374.951 50.1034 392.376 73.6595 403.07C145.168 435.541 287.688 398.639 391.357 320.815C457.568 271.11 494.264 215.494 489.509 172.038C487.076 149.765 473.334 132.34 449.777 121.646C432.153 113.651 410.211 109.861 385.603 109.861Z" fill="url(#paint10_linear_4171_4770)"/>
<path d="M148.309 418.386C113.802 418.386 83.5663 411.918 61.3328 398.295C38.3784 384.222 25.9457 363.655 25.3902 338.816C24.3122 290.712 65.9752 233.376 136.835 185.443C247.335 110.701 393.248 84.2286 462.105 126.434C485.059 140.507 497.485 161.074 498.047 185.913C499.125 234.017 457.462 291.353 386.602 339.286C311.774 389.903 220.691 418.386 148.309 418.386ZM375.082 107.831C303.058 107.831 212.305 136.241 137.695 186.713C67.2648 234.354 25.8597 291.201 26.9244 338.783C27.4667 363.08 39.6416 383.204 62.133 396.992C130.526 438.913 275.692 412.461 385.742 338.023C456.166 290.381 497.578 233.534 496.513 185.953C495.971 161.656 483.796 141.532 461.304 127.743C439.282 114.239 409.298 107.831 375.082 107.831Z" fill="url(#paint11_linear_4171_4770)"/>
<path d="M161.681 421.712C116.05 421.712 76.4105 411.554 50.229 390.491C28.4187 372.947 17.8508 349.291 19.6761 322.091C23.1612 270.112 69.632 212.246 143.997 167.303C260.601 96.8267 408.293 81.9867 473.221 134.224C495.031 151.769 505.599 175.424 503.774 202.624C500.289 254.604 453.818 312.469 379.453 357.412C309.862 399.472 229.208 421.712 161.681 421.712ZM361.769 104.498C294.553 104.498 214.176 126.685 144.784 168.626C70.8488 213.305 24.6492 270.72 21.2037 322.197C19.4182 348.875 29.781 372.08 51.1879 389.301C115.653 441.168 262.558 426.275 378.653 356.103C452.588 311.418 498.788 254.009 502.24 202.525C504.025 175.848 493.656 152.642 472.255 135.421C446.319 114.557 407.023 104.498 361.769 104.498Z" fill="url(#paint12_linear_4171_4770)"/>
<path d="M177.275 426.718C119.33 426.718 69.1229 411.541 39.8397 381.002C19.2397 359.515 10.874 332.335 15.6487 302.391C24.4773 247.025 75.7096 189.438 152.7 148.357C275.024 83.0846 423.464 81.0081 483.597 143.727C504.197 165.214 512.563 192.394 507.788 222.338C498.96 277.704 447.727 335.291 370.737 376.372C307.978 409.862 238.334 426.718 177.275 426.718ZM346.222 99.4985C285.42 99.4985 216.008 116.309 153.421 149.712C76.8537 190.569 25.919 247.733 17.1632 302.635C12.4678 332.084 20.6946 358.814 40.9441 379.943C100.635 442.2 248.254 439.998 370.016 375.023C446.583 334.167 497.524 276.996 506.274 222.1C510.969 192.652 502.742 165.921 482.493 144.792C453.487 114.53 403.703 99.4985 346.222 99.4985Z" fill="url(#paint13_linear_4171_4770)"/>
<path d="M194.105 433.695C123.126 433.695 61.445 411.812 30.3234 369.739C11.0791 343.723 5.37189 312.496 13.8169 279.443C28.6304 221.452 84.4126 165.088 163.03 128.663C290.592 69.5606 438.667 81.3718 493.114 154.99C512.358 181.006 518.065 212.233 509.62 245.286C494.807 303.277 439.024 359.641 360.407 396.066C305.756 421.388 247.315 433.695 194.105 433.695ZM329.418 92.5282C276.413 92.5282 218.177 104.796 163.672 130.051C85.4707 166.285 30.006 222.272 15.3049 279.82C6.97889 312.41 12.6001 343.187 31.5601 368.827C85.5963 441.889 232.826 453.489 359.765 394.678C437.973 358.444 493.438 302.457 508.139 244.902C516.465 212.313 510.843 181.535 491.884 155.896C461.046 114.206 399.861 92.5282 329.418 92.5282Z" fill="url(#paint14_linear_4171_4770)"/>
<path d="M210.929 442.894C126.724 442.901 53.1455 412.216 21.8388 356.652C4.21463 325.378 1.75453 289.568 14.7296 253.103C35.9248 193.525 95.8534 139.396 175.04 108.307C307.29 56.3872 453.785 83.2036 501.605 168.077C519.229 199.351 521.682 235.161 508.707 271.626C487.512 331.204 427.584 385.333 348.397 416.422C302.727 434.35 255.343 442.888 210.929 442.894ZM312.594 83.3425C268.345 83.3425 221.127 91.8537 175.595 109.729C96.8189 140.659 37.221 194.451 16.1713 253.612C3.35492 289.654 5.76873 325.021 23.168 355.898C70.6308 440.13 216.273 466.642 347.835 414.993C426.611 384.064 486.216 330.279 507.259 271.11C520.082 235.075 517.662 199.701 500.262 168.824C469.233 113.743 396.211 83.3425 312.594 83.3425Z" fill="url(#paint15_linear_4171_4770)"/>
<path d="M226.523 454.434C129.336 454.441 44.0656 412.494 14.5245 341.693C-1.076 304.322 0.458257 263.406 18.9421 223.377C46.6116 163.461 110.098 112.632 188.782 87.403C325.066 43.7097 468.678 86.6094 508.919 183.036C524.513 220.401 522.985 261.316 504.495 301.346C476.825 361.261 413.339 412.09 334.655 437.319C298.441 448.932 261.699 454.428 226.523 454.434ZM296.98 71.8157C261.937 71.8157 225.346 77.2914 189.245 88.8645C110.971 113.961 47.8218 164.486 20.3309 224.018C2.03219 263.651 0.511163 304.137 15.9331 341.098C45.2361 411.323 129.911 452.907 226.457 452.913C261.5 452.913 298.091 447.438 334.192 435.865C412.472 410.767 475.615 360.243 503.106 300.711C521.405 261.078 522.926 220.592 507.504 183.631C478.201 113.406 393.526 71.8157 296.98 71.8157Z" fill="url(#paint16_linear_4171_4770)"/>
<path d="M239.908 468.355C130.235 468.355 34.1722 412.341 8.54619 324.803C-4.44871 280.428 1.91978 233.977 26.9639 190.463C61.3458 130.713 125.983 85.3728 204.29 66.0689C343.881 31.6606 483.22 91.7082 514.897 199.92C527.885 244.287 521.517 290.738 496.473 334.253C462.091 394.003 397.454 439.343 319.141 458.647C292.483 465.227 265.805 468.355 239.908 468.355ZM283.568 57.9016C257.77 57.9016 231.232 61.0098 204.66 67.5635C126.75 86.7682 62.47 131.844 28.2931 191.23C3.46727 234.374 -2.85493 280.409 10.0143 324.373C35.442 411.244 130.89 466.821 239.875 466.827C265.673 466.827 292.212 463.719 318.784 457.166C396.693 437.961 460.973 392.886 495.15 333.499C519.976 290.355 526.298 244.321 513.429 200.363C487.995 113.485 392.547 57.9016 283.568 57.9016Z" fill="url(#paint17_linear_4171_4770)"/>
<path d="M250.43 484.623C128.84 484.63 23.4853 411.475 4.06245 305.962C-5.43407 254.392 7.03838 200.7 39.185 154.765C79.2675 97.4815 145.763 57.2734 221.616 44.4372C363.68 20.4049 497.26 98.6123 519.381 218.767C528.878 270.337 516.405 324.029 484.265 369.958C444.176 427.241 377.68 467.449 301.834 480.285C284.514 483.215 267.307 484.623 250.43 484.623ZM273.02 41.6332C256.216 41.6332 239.108 43.0352 221.867 45.9516C146.411 58.715 80.2859 98.6983 40.4349 155.644C8.53296 201.242 -3.85352 254.525 5.57025 305.684C24.8609 410.45 129.567 483.089 250.423 483.096C267.227 483.096 284.335 481.694 301.576 478.777C377.026 466.014 443.158 426.031 483.002 369.085C514.904 323.493 527.29 270.211 517.867 219.045C498.583 114.272 393.87 41.6332 273.02 41.6332Z" fill="url(#paint18_linear_4171_4770)"/>
<path d="M257.744 503.16C124.707 503.167 12.1307 409.617 1.23875 285.15C-10.3211 152.979 97.1232 35.225 240.748 22.66C310.312 16.5759 377.899 35.7805 431.049 76.7293C484.226 117.698 516.59 175.53 522.192 239.572C527.793 303.608 505.956 366.181 460.709 415.767C415.475 465.333 352.253 495.978 282.689 502.062C274.317 502.797 265.984 503.154 257.744 503.16ZM265.964 23.0898C257.645 23.0898 249.279 23.4536 240.88 24.1876C98.0954 36.6799 -8.72069 153.687 2.7664 285.018C13.5856 408.678 125.514 501.619 257.744 501.626C265.944 501.626 274.211 501.269 282.557 500.541C351.737 494.49 414.602 464.017 459.578 414.735C504.535 365.474 526.232 303.317 520.671 239.711C515.102 176.106 482.949 118.657 430.117 77.9527C383.685 42.1688 326.164 23.0898 265.964 23.0898Z" fill="url(#paint19_linear_4171_4770)"/>
<path d="M261.719 523.84C117.545 523.84 0.246704 406.542 0.246704 262.361C0.246704 118.187 117.545 0.889404 261.719 0.889404C405.899 0.889404 523.197 118.187 523.197 262.361C523.197 406.542 405.899 523.84 261.719 523.84ZM261.719 2.42366C118.391 2.42366 1.78096 119.034 1.78096 262.361C1.78096 405.695 118.391 522.305 261.719 522.305C405.046 522.305 521.663 405.695 521.663 262.361C521.663 119.034 405.052 2.42366 261.719 2.42366Z" fill="url(#paint20_linear_4171_4770)"/>
</g>
<g style="mix-blend-mode:multiply" opacity="0.75">
<path d="M153.004 409.035C143.012 409.035 135.063 406.244 129.574 400.636C116.09 386.874 118.999 357.194 137.549 319.202C173.757 245.061 258.723 159.037 326.944 127.446C358.092 113.022 381.86 111.826 393.863 124.08C407.347 137.842 404.437 167.522 385.887 205.514C349.68 279.655 264.714 365.679 196.493 397.27C179.589 405.107 164.855 409.035 153.004 409.035ZM327.268 128.147L327.592 128.841C259.642 160.307 175.006 246.007 138.932 319.883C120.679 357.254 117.67 386.299 130.672 399.571C142.192 411.33 165.338 410.02 195.858 395.888C263.808 364.422 348.444 278.722 384.519 204.846C402.771 167.475 405.78 138.43 392.778 125.158C381.265 113.399 358.112 114.709 327.592 128.841L327.268 128.147Z" fill="url(#paint21_linear_4171_4770)"/>
<path d="M145.829 411.039C134.15 411.039 125.077 407.686 119.204 400.98C105.462 385.3 110.515 352.949 133.059 312.211C175.588 235.366 267.723 150.274 338.438 122.526C369.5 110.337 392.871 110.774 404.239 123.749C417.981 139.429 412.929 171.78 390.384 212.518C347.855 289.363 255.72 374.455 185.006 402.203C169.987 408.096 156.761 411.039 145.829 411.039ZM377.621 115.205C366.901 115.205 353.866 118.121 338.993 123.954C268.556 151.59 176.772 236.371 134.395 312.959C112.181 353.094 107.063 384.811 120.355 399.975C131.267 412.427 154.029 412.712 184.443 400.782C254.88 373.145 346.658 288.358 389.042 211.777C411.256 171.642 416.374 139.925 403.082 124.761C397.507 118.392 388.83 115.205 377.621 115.205Z" fill="url(#paint22_linear_4171_4770)"/>
<path d="M139.256 412.56C125.5 412.56 115.065 408.506 108.789 400.471C94.8811 382.661 102.314 347.572 129.184 304.209C178.247 225.03 277.444 141.624 350.315 118.28C381.093 108.42 403.941 110.542 414.648 124.252C428.556 142.061 421.129 177.15 394.253 220.513C345.19 299.693 245.992 383.098 173.122 406.442C160.378 410.529 148.983 412.56 139.256 412.56ZM384.208 113.69C374.652 113.69 363.409 115.701 350.785 119.741C278.212 142.993 179.391 226.108 130.486 305.023C103.974 347.81 96.5079 382.258 109.999 399.532C120.282 412.698 142.536 414.636 172.659 404.988C245.232 381.736 344.059 298.621 392.957 219.706C419.469 176.919 426.935 142.471 413.444 125.197C407.466 117.546 397.454 113.69 384.208 113.69Z" fill="url(#paint23_linear_4171_4770)"/>
<path d="M133.099 413.724C116.936 413.724 105.138 408.79 98.3994 399.036C84.4456 378.846 94.5108 340.992 126.023 295.182C181.798 214.098 287.887 133.179 362.523 114.801C393.268 107.229 414.886 110.992 425.044 125.68C438.998 145.87 428.933 183.724 397.421 229.533C341.639 310.624 235.55 391.543 160.92 409.914C150.584 412.46 141.286 413.724 133.099 413.724ZM390.351 112.526C382.296 112.526 373.117 113.776 362.887 116.296C288.568 134.595 182.876 215.236 127.286 296.055C96.1575 341.316 86.0857 378.528 99.6625 398.169C109.424 412.289 130.48 415.84 160.557 408.433C234.876 390.134 340.567 309.493 396.158 228.674C427.286 183.413 437.358 146.201 423.781 126.56C417.34 117.242 405.978 112.526 390.351 112.526Z" fill="url(#paint24_linear_4171_4770)"/>
<path d="M128.284 414.358C108.934 414.358 95.2118 408.347 88.0894 396.582C74.2613 373.747 87.2297 333.116 123.662 285.117C186.289 202.605 299.037 125.039 374.989 112.202L375.115 112.956L374.989 112.202C405.085 107.117 425.963 112.626 435.354 128.14C449.182 150.975 436.214 191.607 399.782 239.605C337.155 322.118 224.407 399.684 148.455 412.52C141.18 413.75 134.448 414.358 128.284 414.358ZM395.172 111.898C389.095 111.898 382.442 112.5 375.247 113.717C299.625 126.493 187.307 203.795 124.885 286.043C89.379 332.825 76.113 373.846 89.3988 395.789C98.4391 410.715 118.768 415.979 148.197 411.006C223.825 398.229 336.137 320.927 398.558 238.679C434.064 191.898 447.331 150.876 434.045 128.934C427.213 117.658 413.941 111.898 395.172 111.898Z" fill="url(#paint25_linear_4171_4770)"/>
<path d="M124.832 414.656C101.475 414.656 85.3582 407.263 77.9118 393.005C64.6524 367.61 81.1985 323.117 122.18 273.994C191.764 190.575 310.848 117.268 387.64 110.569C416.95 108.01 436.961 115.33 445.525 131.725C458.785 157.119 442.238 201.613 401.256 250.735C331.679 334.147 212.596 407.461 135.804 414.16C131.988 414.491 128.331 414.656 124.832 414.656ZM387.706 111.329L387.772 112.09C311.33 118.756 192.717 191.825 123.358 274.973C82.7857 323.606 66.3057 367.464 79.2741 392.297C87.5274 408.102 107.03 415.132 135.665 412.632C212.106 405.966 330.72 332.897 400.079 249.75C440.651 201.117 457.131 157.258 444.163 132.432C435.91 116.627 416.407 109.597 387.766 112.097L387.706 111.329Z" fill="url(#paint26_linear_4171_4770)"/>
<path d="M123.086 414.735C123.073 414.735 123.06 414.735 123.047 414.735C94.6564 414.729 75.6104 405.543 67.959 388.17C55.3675 359.582 75.4451 312.337 121.671 261.806C198.245 178.09 323.247 109.994 400.344 109.994C400.357 109.994 400.37 109.994 400.384 109.994C428.774 110 447.82 119.186 455.471 136.559C468.063 165.147 447.979 212.392 401.759 262.923C325.192 346.64 200.183 414.735 123.086 414.735ZM400.351 111.521C323.624 111.521 199.138 179.392 122.809 262.837C77.0058 312.912 57.0274 359.535 69.3676 387.555C76.7545 404.326 95.3177 413.195 123.053 413.201C123.06 413.201 123.08 413.201 123.093 413.201C199.819 413.208 324.312 345.33 400.635 261.885C446.438 211.81 466.416 165.187 454.076 137.167C446.689 120.396 428.126 111.528 400.39 111.521C400.377 111.521 400.364 111.521 400.351 111.521Z" fill="url(#paint27_linear_4171_4770)"/>
<path d="M123.172 414.742C118.728 414.742 114.436 414.55 110.29 414.154C82.9114 411.541 64.9368 400.405 58.3104 381.941C46.7902 349.854 70.6902 299.99 122.227 248.56C205.824 165.141 336.328 103.248 413.14 110.569C440.519 113.181 458.494 124.318 465.12 142.782C476.634 174.869 452.74 224.732 401.204 276.163C322.117 355.078 201.043 414.736 123.172 414.742ZM400.212 111.515C322.732 111.515 202.154 170.987 123.318 249.651C72.2046 300.652 48.4435 349.913 59.7586 381.425C66.1668 399.287 83.6917 410.073 110.442 412.626C186.844 419.914 316.806 358.213 400.126 275.078C451.239 224.078 475 174.816 463.685 143.304C457.277 125.442 439.752 114.656 413.002 112.103C408.888 111.706 404.616 111.515 400.212 111.515Z" fill="url(#paint28_linear_4171_4770)"/>
<path d="M125.401 414.854C115.481 414.854 106.183 414.028 97.6257 412.315C71.3185 407.044 54.5342 393.838 49.0717 374.137C39.1387 338.274 67.1257 285.99 123.939 234.282C214.5 151.868 349.925 97.2037 425.811 112.421C452.118 117.691 468.903 130.898 474.365 150.599C484.298 186.462 456.311 238.746 399.497 290.454C319.147 363.569 203.476 414.848 125.401 414.854ZM397.943 111.396C320.278 111.396 205.07 162.522 124.978 235.413C68.5938 286.718 40.7722 338.426 50.5531 373.721C55.8436 392.826 72.2311 405.656 97.9299 410.807C106.415 412.507 115.66 413.327 125.5 413.327C203.165 413.333 318.374 362.2 398.466 289.31C454.843 237.998 482.671 186.296 472.89 151.002C467.6 131.896 451.212 119.067 425.514 113.915C417.029 112.222 407.777 111.396 397.943 111.396Z" fill="url(#paint29_linear_4171_4770)"/>
<path d="M130.156 415.298C113.504 415.298 98.3135 413.3 85.1665 409.114C59.9703 401.086 44.4822 385.664 40.3755 364.522C32.638 324.651 64.9831 270.244 126.889 218.972C224.295 138.311 363.985 91.9397 438.271 115.615C463.467 123.643 478.955 139.065 483.062 160.208C490.799 200.078 458.454 254.485 396.548 305.757C316.383 372.14 207.576 415.298 130.156 415.298ZM393.175 110.939C316.158 110.939 207.781 153.978 127.868 220.156C66.4049 271.058 34.2583 324.915 41.8833 364.231C45.871 384.791 61.002 399.81 85.6294 407.659C159.485 431.189 298.521 384.95 395.569 304.58C457.039 253.672 489.185 199.814 481.554 160.505C477.566 139.945 462.435 124.926 437.808 117.083C424.766 112.917 409.688 110.939 393.175 110.939Z" fill="url(#paint30_linear_4171_4770)"/>
<path d="M137.748 416.362C112.935 416.362 90.8075 412.54 73.0313 404.465C48.9527 393.534 34.9063 375.678 32.4065 352.843C27.5988 308.845 64.5201 252.706 131.168 202.677C235.233 124.556 378.448 87.5816 450.412 120.257C474.491 131.189 488.537 149.044 491.037 171.88C495.845 215.877 458.923 272.016 392.276 322.045C313.916 380.869 213.363 416.362 137.748 416.362ZM385.603 109.861C310.372 109.861 210.202 145.262 132.08 203.907C65.8692 253.605 29.1793 309.222 33.9276 352.677C36.3612 374.951 50.1034 392.376 73.6595 403.07C145.168 435.541 287.688 398.639 391.357 320.815C457.568 271.11 494.264 215.494 489.509 172.038C487.076 149.765 473.334 132.34 449.777 121.646C432.153 113.651 410.211 109.861 385.603 109.861Z" fill="url(#paint31_linear_4171_4770)"/>
<path d="M148.309 418.386C113.802 418.386 83.5663 411.918 61.3328 398.295C38.3784 384.222 25.9457 363.655 25.3902 338.816C24.3122 290.712 65.9752 233.376 136.835 185.443C247.335 110.701 393.248 84.2286 462.105 126.434C485.059 140.507 497.485 161.074 498.047 185.913C499.125 234.017 457.462 291.353 386.602 339.286C311.774 389.903 220.691 418.386 148.309 418.386ZM375.082 107.831C303.058 107.831 212.305 136.241 137.695 186.713C67.2648 234.354 25.8597 291.201 26.9244 338.783C27.4667 363.08 39.6416 383.204 62.133 396.992C130.526 438.913 275.692 412.461 385.742 338.023C456.166 290.381 497.578 233.534 496.513 185.953C495.971 161.656 483.796 141.532 461.304 127.743C439.282 114.239 409.298 107.831 375.082 107.831Z" fill="url(#paint32_linear_4171_4770)"/>
<path d="M161.681 421.712C116.05 421.712 76.4105 411.554 50.229 390.491C28.4187 372.947 17.8508 349.291 19.6761 322.091C23.1612 270.112 69.632 212.246 143.997 167.303C260.601 96.8267 408.293 81.9867 473.221 134.224C495.031 151.769 505.599 175.424 503.774 202.624C500.289 254.604 453.818 312.469 379.453 357.412C309.862 399.472 229.208 421.712 161.681 421.712ZM361.769 104.498C294.553 104.498 214.176 126.685 144.784 168.626C70.8488 213.305 24.6492 270.72 21.2037 322.197C19.4182 348.875 29.781 372.08 51.1879 389.301C115.653 441.168 262.558 426.275 378.653 356.103C452.588 311.418 498.788 254.009 502.24 202.525C504.025 175.848 493.656 152.642 472.255 135.421C446.319 114.557 407.023 104.498 361.769 104.498Z" fill="url(#paint33_linear_4171_4770)"/>
<path d="M177.275 426.718C119.33 426.718 69.1229 411.541 39.8397 381.002C19.2397 359.515 10.874 332.335 15.6487 302.391C24.4773 247.025 75.7096 189.438 152.7 148.357C275.024 83.0846 423.464 81.0081 483.597 143.727C504.197 165.214 512.563 192.394 507.788 222.338C498.96 277.704 447.727 335.291 370.737 376.372C307.978 409.862 238.334 426.718 177.275 426.718ZM346.222 99.4985C285.42 99.4985 216.008 116.309 153.421 149.712C76.8537 190.569 25.919 247.733 17.1632 302.635C12.4678 332.084 20.6946 358.814 40.9441 379.943C100.635 442.2 248.254 439.998 370.016 375.023C446.583 334.167 497.524 276.996 506.274 222.1C510.969 192.652 502.742 165.921 482.493 144.792C453.487 114.53 403.703 99.4985 346.222 99.4985Z" fill="url(#paint34_linear_4171_4770)"/>
<path d="M194.105 433.695C123.126 433.695 61.445 411.812 30.3234 369.739C11.0791 343.723 5.37189 312.496 13.8169 279.443C28.6304 221.452 84.4126 165.088 163.03 128.663C290.592 69.5606 438.667 81.3718 493.114 154.99C512.358 181.006 518.065 212.233 509.62 245.286C494.807 303.277 439.024 359.641 360.407 396.066C305.756 421.388 247.315 433.695 194.105 433.695ZM329.418 92.5282C276.413 92.5282 218.177 104.796 163.672 130.051C85.4707 166.285 30.006 222.272 15.3049 279.82C6.97889 312.41 12.6001 343.187 31.5601 368.827C85.5963 441.889 232.826 453.489 359.765 394.678C437.973 358.444 493.438 302.457 508.139 244.902C516.465 212.313 510.843 181.535 491.884 155.896C461.046 114.206 399.861 92.5282 329.418 92.5282Z" fill="url(#paint35_linear_4171_4770)"/>
<path d="M210.929 442.894C126.724 442.901 53.1455 412.216 21.8388 356.652C4.21463 325.378 1.75453 289.568 14.7296 253.103C35.9248 193.525 95.8534 139.396 175.04 108.307C307.29 56.3872 453.785 83.2036 501.605 168.077C519.229 199.351 521.682 235.161 508.707 271.626C487.512 331.204 427.584 385.333 348.397 416.422C302.727 434.35 255.343 442.888 210.929 442.894ZM312.594 83.3425C268.345 83.3425 221.127 91.8537 175.595 109.729C96.8189 140.659 37.221 194.451 16.1713 253.612C3.35492 289.654 5.76873 325.021 23.168 355.898C70.6308 440.13 216.273 466.642 347.835 414.993C426.611 384.064 486.216 330.279 507.259 271.11C520.082 235.075 517.662 199.701 500.262 168.824C469.233 113.743 396.211 83.3425 312.594 83.3425Z" fill="url(#paint36_linear_4171_4770)"/>
<path d="M226.523 454.434C129.336 454.441 44.0656 412.494 14.5245 341.693C-1.076 304.322 0.458257 263.406 18.9421 223.377C46.6116 163.461 110.098 112.632 188.782 87.403C325.066 43.7097 468.678 86.6094 508.919 183.036C524.513 220.401 522.985 261.316 504.495 301.346C476.825 361.261 413.339 412.09 334.655 437.319C298.441 448.932 261.699 454.428 226.523 454.434ZM296.98 71.8157C261.937 71.8157 225.346 77.2914 189.245 88.8645C110.971 113.961 47.8218 164.486 20.3309 224.018C2.03219 263.651 0.511163 304.137 15.9331 341.098C45.2361 411.323 129.911 452.907 226.457 452.913C261.5 452.913 298.091 447.438 334.192 435.865C412.472 410.767 475.615 360.243 503.106 300.711C521.405 261.078 522.926 220.592 507.504 183.631C478.201 113.406 393.526 71.8157 296.98 71.8157Z" fill="url(#paint37_linear_4171_4770)"/>
<path d="M239.908 468.355C130.235 468.355 34.1722 412.341 8.54619 324.803C-4.44871 280.428 1.91978 233.977 26.9639 190.463C61.3458 130.713 125.983 85.3728 204.29 66.0689C343.881 31.6606 483.22 91.7082 514.897 199.92C527.885 244.287 521.517 290.738 496.473 334.253C462.091 394.003 397.454 439.343 319.141 458.647C292.483 465.227 265.805 468.355 239.908 468.355ZM283.568 57.9016C257.77 57.9016 231.232 61.0098 204.66 67.5635C126.75 86.7682 62.47 131.844 28.2931 191.23C3.46727 234.374 -2.85493 280.409 10.0143 324.373C35.442 411.244 130.89 466.821 239.875 466.827C265.673 466.827 292.212 463.719 318.784 457.166C396.693 437.961 460.973 392.886 495.15 333.499C519.976 290.355 526.298 244.321 513.429 200.363C487.995 113.485 392.547 57.9016 283.568 57.9016Z" fill="url(#paint38_linear_4171_4770)"/>
<path d="M250.43 484.623C128.84 484.63 23.4853 411.475 4.06245 305.962C-5.43407 254.392 7.03838 200.7 39.185 154.765C79.2675 97.4815 145.763 57.2734 221.616 44.4372C363.68 20.4049 497.26 98.6123 519.381 218.767C528.878 270.337 516.405 324.029 484.265 369.958C444.176 427.241 377.68 467.449 301.834 480.285C284.514 483.215 267.307 484.623 250.43 484.623ZM273.02 41.6332C256.216 41.6332 239.108 43.0352 221.867 45.9516C146.411 58.715 80.2859 98.6983 40.4349 155.644C8.53296 201.242 -3.85352 254.525 5.57025 305.684C24.8609 410.45 129.567 483.089 250.423 483.096C267.227 483.096 284.335 481.694 301.576 478.777C377.026 466.014 443.158 426.031 483.002 369.085C514.904 323.493 527.29 270.211 517.867 219.045C498.583 114.272 393.87 41.6332 273.02 41.6332Z" fill="url(#paint39_linear_4171_4770)"/>
<path d="M257.744 503.16C124.707 503.167 12.1307 409.617 1.23875 285.15C-10.3211 152.979 97.1232 35.225 240.748 22.66C310.312 16.5759 377.899 35.7805 431.049 76.7293C484.226 117.698 516.59 175.53 522.192 239.572C527.793 303.608 505.956 366.181 460.709 415.767C415.475 465.333 352.253 495.978 282.689 502.062C274.317 502.797 265.984 503.154 257.744 503.16ZM265.964 23.0898C257.645 23.0898 249.279 23.4536 240.88 24.1876C98.0954 36.6799 -8.72069 153.687 2.7664 285.018C13.5856 408.678 125.514 501.619 257.744 501.626C265.944 501.626 274.211 501.269 282.557 500.541C351.737 494.49 414.602 464.017 459.578 414.735C504.535 365.474 526.232 303.317 520.671 239.711C515.102 176.106 482.949 118.657 430.117 77.9527C383.685 42.1688 326.164 23.0898 265.964 23.0898Z" fill="url(#paint40_linear_4171_4770)"/>
<path d="M261.719 523.84C117.545 523.84 0.246704 406.542 0.246704 262.361C0.246704 118.187 117.545 0.889404 261.719 0.889404C405.899 0.889404 523.197 118.187 523.197 262.361C523.197 406.542 405.899 523.84 261.719 523.84ZM261.719 2.42366C118.391 2.42366 1.78096 119.034 1.78096 262.361C1.78096 405.695 118.391 522.305 261.719 522.305C405.046 522.305 521.663 405.695 521.663 262.361C521.663 119.034 405.052 2.42366 261.719 2.42366Z" fill="url(#paint41_linear_4171_4770)"/>
</g>
<g filter="url(#filter0_dddddd_4171_4770)">
<path d="M240.882 169.983C253.797 162.6 269.653 162.6 282.568 169.983L331.788 198.119C344.871 205.598 352.945 219.512 352.945 234.582V290.132C352.945 305.202 344.871 319.117 331.788 326.595L282.568 354.731C269.653 362.114 253.797 362.114 240.882 354.731L191.661 326.595C178.579 319.117 170.505 305.202 170.505 290.132V234.582C170.505 219.512 178.579 205.598 191.661 198.119L240.882 169.983Z" fill="#12131D"/>
<path d="M282.817 169.549C269.748 162.078 253.702 162.078 240.633 169.549L191.413 197.685C178.175 205.253 170.005 219.333 170.005 234.582V290.132C170.005 305.381 178.175 319.462 191.413 327.029L240.633 355.165C253.702 362.636 269.748 362.636 282.817 355.165L332.037 327.029C345.275 319.462 353.445 305.381 353.445 290.132V234.582C353.445 219.333 345.275 205.253 332.037 197.685L282.817 169.549Z" stroke="url(#paint42_linear_4171_4770)"/>
</g>
<g filter="url(#filter1_dddddd_4171_4770)">
<path d="M240.882 169.983C253.797 162.6 269.653 162.6 282.568 169.983L331.788 198.119C344.871 205.598 352.945 219.512 352.945 234.582V290.132C352.945 305.202 344.871 319.117 331.788 326.595L282.568 354.731C269.653 362.114 253.797 362.114 240.882 354.731L191.661 326.595C178.579 319.117 170.505 305.202 170.505 290.132V234.582C170.505 219.512 178.579 205.598 191.661 198.119L240.882 169.983Z" fill="#12131D"/>
<path d="M282.817 169.549C269.748 162.078 253.702 162.078 240.633 169.549L191.413 197.685C178.175 205.253 170.005 219.333 170.005 234.582V290.132C170.005 305.381 178.175 319.462 191.413 327.029L240.633 355.165C253.702 362.636 269.748 362.636 282.817 355.165L332.037 327.029C345.275 319.462 353.445 305.381 353.445 290.132V234.582C353.445 219.333 345.275 205.253 332.037 197.685L282.817 169.549Z" stroke="url(#paint43_linear_4171_4770)"/>
</g>
<g filter="url(#filter2_dddddd_4171_4770)">
<path d="M240.882 169.983C253.797 162.6 269.653 162.6 282.568 169.983L331.788 198.119C344.871 205.598 352.945 219.512 352.945 234.582V290.132C352.945 305.202 344.871 319.117 331.788 326.595L282.568 354.731C269.653 362.114 253.797 362.114 240.882 354.731L191.661 326.595C178.579 319.117 170.505 305.202 170.505 290.132V234.582C170.505 219.512 178.579 205.598 191.661 198.119L240.882 169.983Z" fill="#12131D"/>
<path d="M282.817 169.549C269.748 162.078 253.702 162.078 240.633 169.549L191.413 197.685C178.175 205.253 170.005 219.333 170.005 234.582V290.132C170.005 305.381 178.175 319.462 191.413 327.029L240.633 355.165C253.702 362.636 269.748 362.636 282.817 355.165L332.037 327.029C345.275 319.462 353.445 305.381 353.445 290.132V234.582C353.445 219.333 345.275 205.253 332.037 197.685L282.817 169.549Z" stroke="url(#paint44_linear_4171_4770)"/>
</g>
<g clip-path="url(#clip0_4171_4770)">
<path d="M327.225 262.947C327.225 272.047 320.317 280.401 308.891 286.509C297.485 292.607 281.694 296.393 264.225 296.393C246.756 296.393 230.965 292.607 219.559 286.509C208.133 280.401 201.225 272.047 201.225 262.947C201.225 253.846 208.133 245.492 219.559 239.384C230.965 233.286 246.756 229.5 264.225 229.5C281.694 229.5 297.485 233.286 308.891 239.384C320.317 245.492 327.225 253.846 327.225 262.947Z" stroke="url(#paint45_linear_4171_4770)"/>
<g filter="url(#filter3_f_4171_4770)">
<path d="M327.225 262.947C327.225 272.047 320.317 280.401 308.891 286.509C297.485 292.607 281.694 296.393 264.225 296.393C246.756 296.393 230.965 292.607 219.559 286.509C208.133 280.401 201.225 272.047 201.225 262.947C201.225 253.846 208.133 245.492 219.559 239.384C230.965 233.286 246.756 229.5 264.225 229.5C281.694 229.5 297.485 233.286 308.891 239.384C320.317 245.492 327.225 253.846 327.225 262.947Z" stroke="url(#paint46_linear_4171_4770)"/>
</g>
<g style="mix-blend-mode:color-dodge" filter="url(#filter4_f_4171_4770)">
<ellipse cx="264.225" cy="262.947" rx="63.5" ry="33.9465" stroke="url(#paint47_linear_4171_4770)" stroke-width="3"/>
</g>
<g style="mix-blend-mode:color-dodge" filter="url(#filter5_f_4171_4770)">
<ellipse cx="264.225" cy="262.947" rx="63.5" ry="33.9465" stroke="url(#paint48_linear_4171_4770)" stroke-width="3"/>
</g>
<g style="mix-blend-mode:color-dodge" filter="url(#filter6_f_4171_4770)">
<ellipse cx="264.225" cy="262.947" rx="63.5" ry="33.9465" stroke="url(#paint49_linear_4171_4770)" stroke-width="3"/>
</g>
<path d="M327.225 262.947C327.225 272.047 320.317 280.401 308.891 286.509C297.485 292.607 281.694 296.393 264.225 296.393C246.756 296.393 230.965 292.607 219.559 286.509C208.133 280.401 201.225 272.047 201.225 262.947C201.225 253.846 208.133 245.492 219.559 239.384C230.965 233.286 246.756 229.5 264.225 229.5C281.694 229.5 297.485 233.286 308.891 239.384C320.317 245.492 327.225 253.846 327.225 262.947Z" stroke="url(#paint50_linear_4171_4770)"/>
<g filter="url(#filter7_f_4171_4770)">
<path d="M327.225 262.947C327.225 272.047 320.317 280.401 308.891 286.509C297.485 292.607 281.694 296.393 264.225 296.393C246.756 296.393 230.965 292.607 219.559 286.509C208.133 280.401 201.225 272.047 201.225 262.947C201.225 253.846 208.133 245.492 219.559 239.384C230.965 233.286 246.756 229.5 264.225 229.5C281.694 229.5 297.485 233.286 308.891 239.384C320.317 245.492 327.225 253.846 327.225 262.947Z" stroke="url(#paint51_linear_4171_4770)"/>
</g>
<g style="mix-blend-mode:color-dodge" filter="url(#filter8_f_4171_4770)">
<ellipse cx="264.225" cy="262.947" rx="63.5" ry="33.9465" stroke="url(#paint52_linear_4171_4770)" stroke-width="3"/>
</g>
<g style="mix-blend-mode:color-dodge" filter="url(#filter9_f_4171_4770)">
<ellipse cx="264.225" cy="262.947" rx="63.5" ry="33.9465" stroke="url(#paint53_linear_4171_4770)" stroke-width="3"/>
</g>
<g style="mix-blend-mode:color-dodge" filter="url(#filter10_f_4171_4770)">
<ellipse cx="264.225" cy="262.947" rx="63.5" ry="33.9465" stroke="url(#paint54_linear_4171_4770)" stroke-width="3"/>
</g>
<path d="M209.212 261.349C209.212 268.903 215.252 275.872 225.314 280.982C235.349 286.078 249.246 289.245 264.624 289.245C280.001 289.245 293.899 286.078 303.933 280.982C313.995 275.872 320.036 268.903 320.036 261.349C320.036 253.795 313.995 246.826 303.933 241.716C293.899 236.62 280.001 233.454 264.624 233.454C249.246 233.454 235.349 236.62 225.314 241.716C215.252 246.826 209.212 253.795 209.212 261.349Z" stroke="url(#paint55_linear_4171_4770)" style="mix-blend-mode:color-dodge"/>
<g filter="url(#filter11_f_4171_4770)">
<path d="M209.212 261.349C209.212 268.903 215.252 275.872 225.314 280.982C235.349 286.078 249.246 289.245 264.624 289.245C280.001 289.245 293.899 286.078 303.933 280.982C313.995 275.872 320.036 268.903 320.036 261.349C320.036 253.795 313.995 246.826 303.933 241.716C293.899 236.62 280.001 233.454 264.624 233.454C249.246 233.454 235.349 236.62 225.314 241.716C215.252 246.826 209.212 253.795 209.212 261.349Z" stroke="url(#paint56_linear_4171_4770)" style="mix-blend-mode:color-dodge"/>
</g>
<g style="mix-blend-mode:color-dodge" filter="url(#filter12_f_4171_4770)">
<ellipse rx="55.912" ry="28.3955" transform="matrix(-1 0 0 1 264.624 261.349)" stroke="url(#paint57_linear_4171_4770)" stroke-width="3" style="mix-blend-mode:color-dodge"/>
</g>
<g style="mix-blend-mode:color-dodge" filter="url(#filter13_f_4171_4770)">
<ellipse rx="55.912" ry="28.3955" transform="matrix(-1 0 0 1 264.624 261.349)" stroke="url(#paint58_linear_4171_4770)" stroke-width="3" style="mix-blend-mode:color-dodge"/>
</g>
<g style="mix-blend-mode:color-dodge" filter="url(#filter14_f_4171_4770)">
<ellipse rx="55.912" ry="28.3955" transform="matrix(-1 0 0 1 264.624 261.349)" stroke="url(#paint59_linear_4171_4770)" stroke-width="3" style="mix-blend-mode:color-dodge"/>
</g>
<path d="M209.212 261.349C209.212 268.903 215.252 275.872 225.314 280.982C235.349 286.078 249.246 289.245 264.624 289.245C280.001 289.245 293.899 286.078 303.933 280.982C313.995 275.872 320.036 268.903 320.036 261.349C320.036 253.795 313.995 246.826 303.933 241.716C293.899 236.62 280.001 233.454 264.624 233.454C249.246 233.454 235.349 236.62 225.314 241.716C215.252 246.826 209.212 253.795 209.212 261.349Z" stroke="url(#paint60_linear_4171_4770)" style="mix-blend-mode:color-dodge"/>
<g filter="url(#filter15_f_4171_4770)">
<path d="M209.212 261.349C209.212 268.903 215.252 275.872 225.314 280.982C235.349 286.078 249.246 289.245 264.624 289.245C280.001 289.245 293.899 286.078 303.933 280.982C313.995 275.872 320.036 268.903 320.036 261.349C320.036 253.795 313.995 246.826 303.933 241.716C293.899 236.62 280.001 233.454 264.624 233.454C249.246 233.454 235.349 236.62 225.314 241.716C215.252 246.826 209.212 253.795 209.212 261.349Z" stroke="url(#paint61_linear_4171_4770)" style="mix-blend-mode:color-dodge"/>
</g>
<g style="mix-blend-mode:color-dodge" filter="url(#filter16_f_4171_4770)">
<ellipse rx="55.912" ry="28.3955" transform="matrix(-1 0 0 1 264.624 261.349)" stroke="url(#paint62_linear_4171_4770)" stroke-width="2" style="mix-blend-mode:color-dodge"/>
</g>
<g style="mix-blend-mode:color-dodge" filter="url(#filter17_f_4171_4770)">
<ellipse rx="55.912" ry="28.3955" transform="matrix(-1 0 0 1 264.624 261.349)" stroke="url(#paint63_linear_4171_4770)" stroke-width="2" style="mix-blend-mode:color-dodge"/>
</g>
<g style="mix-blend-mode:color-dodge" filter="url(#filter18_f_4171_4770)">
<ellipse rx="55.912" ry="28.3955" transform="matrix(-1 0 0 1 264.624 261.349)" stroke="url(#paint64_linear_4171_4770)" stroke-width="2" style="mix-blend-mode:color-dodge"/>
</g>
<g filter="url(#filter19_f_4171_4770)">
<path d="M209.225 261.349C209.225 268.903 215.266 275.872 225.328 280.982C235.362 286.078 249.259 289.245 264.637 289.245C280.015 289.245 293.912 286.078 303.947 280.982C314.009 275.872 320.049 268.903 320.049 261.349C320.049 253.795 314.009 246.826 303.947 241.716C293.912 236.62 280.015 233.454 264.637 233.454C249.259 233.454 235.362 236.62 225.328 241.716C215.266 246.826 209.225 253.795 209.225 261.349Z" stroke="url(#paint65_linear_4171_4770)" style="mix-blend-mode:color-dodge"/>
</g>
<g filter="url(#filter20_f_4171_4770)">
<path d="M209.225 261.349C209.225 268.903 215.266 275.872 225.328 280.982C235.362 286.078 249.259 289.245 264.637 289.245C280.015 289.245 293.912 286.078 303.947 280.982C314.009 275.872 320.049 268.903 320.049 261.349C320.049 253.795 314.009 246.826 303.947 241.716C293.912 236.62 280.015 233.454 264.637 233.454C249.259 233.454 235.362 236.62 225.328 241.716C215.266 246.826 209.225 253.795 209.225 261.349Z" stroke="url(#paint66_linear_4171_4770)" style="mix-blend-mode:color-dodge"/>
</g>
<g style="mix-blend-mode:color-dodge" filter="url(#filter21_f_4171_4770)">
<ellipse rx="55.912" ry="28.3955" transform="matrix(-1 0 0 1 264.637 261.349)" stroke="url(#paint67_linear_4171_4770)" stroke-width="4" style="mix-blend-mode:color-dodge"/>
</g>
<g style="mix-blend-mode:color-dodge" filter="url(#filter22_f_4171_4770)">
<ellipse rx="55.912" ry="28.3955" transform="matrix(-1 0 0 1 264.637 261.349)" stroke="url(#paint68_linear_4171_4770)" stroke-width="4" style="mix-blend-mode:color-dodge"/>
</g>
<g style="mix-blend-mode:color-dodge" filter="url(#filter23_f_4171_4770)">
<ellipse rx="55.912" ry="28.3955" transform="matrix(-1 0 0 1 264.637 261.349)" stroke="url(#paint69_linear_4171_4770)" stroke-width="4" style="mix-blend-mode:color-dodge"/>
</g>
<path d="M327.225 262.947C327.225 272.047 320.317 280.401 308.891 286.509C297.485 292.607 281.694 296.393 264.225 296.393C246.756 296.393 230.965 292.607 219.559 286.509C208.133 280.401 201.225 272.047 201.225 262.947C201.225 253.846 208.133 245.492 219.559 239.384C230.965 233.286 246.756 229.5 264.225 229.5C281.694 229.5 297.485 233.286 308.891 239.384C320.317 245.492 327.225 253.846 327.225 262.947Z" stroke="url(#paint70_linear_4171_4770)"/>
<g filter="url(#filter24_f_4171_4770)">
<path d="M327.225 262.947C327.225 272.047 320.317 280.401 308.891 286.509C297.485 292.607 281.694 296.393 264.225 296.393C246.756 296.393 230.965 292.607 219.559 286.509C208.133 280.401 201.225 272.047 201.225 262.947C201.225 253.846 208.133 245.492 219.559 239.384C230.965 233.286 246.756 229.5 264.225 229.5C281.694 229.5 297.485 233.286 308.891 239.384C320.317 245.492 327.225 253.846 327.225 262.947Z" stroke="url(#paint71_linear_4171_4770)"/>
</g>
<g style="mix-blend-mode:color-dodge" filter="url(#filter25_f_4171_4770)">
<ellipse cx="264.225" cy="262.947" rx="63.5" ry="33.9465" stroke="url(#paint72_linear_4171_4770)" stroke-width="2"/>
</g>
<g style="mix-blend-mode:color-dodge" filter="url(#filter26_f_4171_4770)">
<ellipse cx="264.225" cy="262.947" rx="63.5" ry="33.9465" stroke="url(#paint73_linear_4171_4770)" stroke-width="2"/>
</g>
<g style="mix-blend-mode:color-dodge" filter="url(#filter27_f_4171_4770)">
<ellipse cx="264.225" cy="262.947" rx="63.5" ry="33.9465" stroke="url(#paint74_linear_4171_4770)" stroke-width="2"/>
</g>
<g filter="url(#filter28_f_4171_4770)">
<path d="M327.225 262.947C327.225 272.047 320.317 280.401 308.891 286.509C297.485 292.607 281.694 296.393 264.225 296.393C246.756 296.393 230.965 292.607 219.559 286.509C208.133 280.401 201.225 272.047 201.225 262.947C201.225 253.846 208.133 245.492 219.559 239.384C230.965 233.286 246.756 229.5 264.225 229.5C281.694 229.5 297.485 233.286 308.891 239.384C320.317 245.492 327.225 253.846 327.225 262.947Z" stroke="url(#paint75_linear_4171_4770)"/>
</g>
<g filter="url(#filter29_f_4171_4770)">
<path d="M327.225 262.947C327.225 272.047 320.317 280.401 308.891 286.509C297.485 292.607 281.694 296.393 264.225 296.393C246.756 296.393 230.965 292.607 219.559 286.509C208.133 280.401 201.225 272.047 201.225 262.947C201.225 253.846 208.133 245.492 219.559 239.384C230.965 233.286 246.756 229.5 264.225 229.5C281.694 229.5 297.485 233.286 308.891 239.384C320.317 245.492 327.225 253.846 327.225 262.947Z" stroke="url(#paint76_linear_4171_4770)"/>
</g>
<g style="mix-blend-mode:color-dodge" filter="url(#filter30_f_4171_4770)">
<ellipse cx="264.225" cy="262.947" rx="63.5" ry="33.9465" stroke="url(#paint77_linear_4171_4770)" stroke-width="4"/>
</g>
<g style="mix-blend-mode:color-dodge" filter="url(#filter31_f_4171_4770)">
<ellipse cx="264.225" cy="262.947" rx="63.5" ry="33.9465" stroke="url(#paint78_linear_4171_4770)" stroke-width="4"/>
</g>
<g style="mix-blend-mode:color-dodge" filter="url(#filter32_f_4171_4770)">
<ellipse cx="264.225" cy="262.947" rx="63.5" ry="33.9465" stroke="url(#paint79_linear_4171_4770)" stroke-width="4"/>
</g>
<path fill-rule="evenodd" clip-rule="evenodd" d="M249.917 236.426L243.414 232.649C240.666 231.052 237.279 231.052 234.531 232.649L228.028 236.426C225.279 238.022 223.586 240.973 223.586 244.166V251.72C223.586 254.913 225.279 257.863 228.028 259.46L234.531 263.237C237.279 264.834 240.666 264.834 243.414 263.237L245.799 261.852V259.894C245.799 256.701 247.492 253.75 250.241 252.154L254.359 249.762V244.166C254.359 240.973 252.665 238.022 249.917 236.426ZM267.258 249.524L273.761 253.302C276.509 254.898 278.202 257.849 278.202 261.042V268.596C278.202 271.789 276.509 274.739 273.761 276.336L267.258 280.113C264.509 281.71 261.123 281.71 258.375 280.113L251.872 276.336C249.123 274.739 247.43 271.789 247.43 268.596V261.042C247.43 257.849 249.123 254.898 251.872 253.302L258.375 249.524C261.123 247.928 264.509 247.928 267.258 249.524Z" fill="white" fill-opacity="0.1"/>
<path fill-rule="evenodd" clip-rule="evenodd" d="M296.282 236.426L289.779 232.649C287.031 231.052 283.645 231.052 280.896 232.649L274.393 236.426C271.645 238.022 269.952 240.973 269.952 244.166V249.045L275.616 252.335C278.365 253.932 280.058 256.882 280.058 260.075V262.75L280.896 263.237C283.645 264.834 287.031 264.834 289.779 263.237L296.282 259.46C299.031 257.863 300.724 254.913 300.724 251.72V244.166C300.724 240.973 299.031 238.022 296.282 236.426Z" fill="white" fill-opacity="0.1"/>
<path fill-rule="evenodd" clip-rule="evenodd" d="M247.725 248.447C247.725 243.477 243.696 239.447 238.725 239.447C233.755 239.447 229.725 243.477 229.725 248.447C229.725 253.417 233.755 257.447 238.725 257.447C243.696 257.447 247.725 253.418 247.725 248.447ZM242.477 249.082H239.058H235.705C235.637 249.082 235.603 249.082 235.586 249.065C235.57 249.049 235.57 249.017 235.57 248.953V247.952C235.57 247.873 235.593 247.845 235.677 247.845H242.483C242.556 247.845 242.59 247.873 242.59 247.941C242.618 248.289 242.618 248.639 242.59 248.987C242.585 249.082 242.55 249.082 242.477 249.082ZM242.208 246.596C242.218 246.621 242.218 246.649 242.208 246.675H242.235C242.224 246.709 242.168 246.72 242.168 246.72H235.677C235.57 246.72 235.57 246.697 235.57 246.613V244.616C235.57 244.543 235.581 244.509 235.665 244.509H238.686C239.007 244.507 239.328 244.54 239.642 244.611C240.264 244.758 240.843 245.051 241.33 245.466C241.427 245.538 241.514 245.624 241.588 245.719C241.747 245.876 241.887 246.052 242.005 246.242C242.083 246.353 242.151 246.472 242.208 246.596ZM241.921 250.252C242.016 250.242 242.113 250.242 242.208 250.252V250.253C242.252 250.275 242.213 250.36 242.213 250.36C241.867 251.038 241.319 251.589 240.644 251.94H240.604C240.474 252.018 240.337 252.082 240.194 252.132C239.802 252.281 239.391 252.372 238.973 252.402C238.838 252.43 238.7 252.44 238.563 252.43H235.683C235.57 252.43 235.57 252.407 235.57 252.317V250.365C235.57 250.252 235.598 250.252 235.683 250.252H241.921ZM234.44 253.408V253.442L234.438 253.443V253.449H238.342C238.784 253.455 239.224 253.419 239.658 253.342C240.115 253.252 240.561 253.111 240.986 252.92C241.17 252.835 241.347 252.732 241.525 252.628C241.57 252.601 241.615 252.575 241.661 252.549C241.871 252.399 242.072 252.237 242.263 252.065C242.786 251.592 243.191 251.002 243.444 250.344C243.461 250.27 243.533 250.223 243.607 250.237H244.671C244.755 250.237 244.783 250.209 244.783 250.113V249.432C244.789 249.367 244.789 249.301 244.783 249.236C244.783 249.219 244.788 249.202 244.792 249.185C244.801 249.151 244.809 249.117 244.783 249.084H243.895C243.788 249.084 243.788 249.072 243.788 248.977C243.818 248.634 243.818 248.29 243.788 247.947C243.782 247.846 243.805 247.846 243.883 247.846H244.66C244.75 247.846 244.784 247.824 244.784 247.734V246.811C244.781 246.75 244.779 246.719 244.763 246.703C244.746 246.687 244.714 246.687 244.649 246.687H243.642C243.563 246.7 243.488 246.647 243.474 246.569C243.358 246.267 243.211 245.978 243.034 245.708C242.856 245.442 242.655 245.191 242.432 244.96C242.136 244.665 241.804 244.408 241.443 244.195C240.898 243.879 240.302 243.657 239.682 243.543C239.381 243.487 239.077 243.454 238.771 243.441H234.552C234.44 243.441 234.44 243.464 234.44 243.554V246.586C234.44 246.693 234.417 246.693 234.333 246.693H233.123C233.034 246.693 233.034 246.709 233.034 246.771V247.761C233.034 247.851 233.062 247.851 233.129 247.851H234.35C234.44 247.851 234.44 247.868 234.44 247.935V248.993C234.44 249.088 234.411 249.088 234.338 249.088H233.034V250.157C233.034 250.247 233.062 250.247 233.129 250.247H234.35C234.44 250.247 234.44 250.258 234.44 250.331V251.653V252.098V253.408Z" fill="#F5AC37"/>
<path fill-rule="evenodd" clip-rule="evenodd" d="M260.547 273.177C265.37 274.38 270.253 271.445 271.456 266.624C272.658 261.802 269.723 256.918 264.901 255.716C260.08 254.514 255.196 257.449 253.995 262.271C252.792 267.092 255.726 271.975 260.547 273.177ZM262.612 265.925C263.346 265.925 263.674 265.906 263.738 265.901L263.736 265.901C265.986 265.801 267.665 265.408 267.665 264.94C267.665 264.471 265.986 264.078 263.736 263.978V265.511C263.673 265.517 263.322 265.546 262.622 265.546C262.039 265.546 261.617 265.521 261.469 265.51V263.977C259.214 264.078 257.532 264.47 257.532 264.94C257.532 265.409 259.214 265.802 261.469 265.901C261.614 265.908 262.029 265.925 262.612 265.925ZM263.738 263.819V263.82L263.738 263.819C263.738 263.819 263.738 263.819 263.738 263.819ZM263.738 262.448V263.819C266.286 263.937 268.199 264.442 268.199 265.047C268.199 265.652 266.284 266.157 263.738 266.274V270.672H261.469V266.275C258.917 266.158 256.998 265.653 256.998 265.047C256.998 264.442 258.917 263.936 261.469 263.819V262.448H258.33V260.355H266.878V262.448H263.738Z" fill="#50AF95"/>
<path fill-rule="evenodd" clip-rule="evenodd" d="M294.725 248.447C294.725 243.476 290.696 239.447 285.725 239.447C280.754 239.447 276.725 243.476 276.725 248.447C276.725 253.417 280.754 257.447 285.725 257.447C290.696 257.447 294.725 253.417 294.725 248.447ZM283.667 254.972C283.872 255.036 284.038 254.916 284.038 254.704V254.175C284.038 254.033 283.928 253.871 283.794 253.821C281.641 253.031 280.099 250.963 280.099 248.538C280.099 246.113 281.641 244.045 283.794 243.255C283.928 243.209 284.038 243.043 284.038 242.902V242.379C284.038 242.168 283.872 242.048 283.667 242.111C280.946 242.979 278.973 245.531 278.973 248.542C278.973 251.552 280.946 254.104 283.667 254.972ZM286.287 252.759C286.287 252.915 286.16 253.042 286.004 253.042H285.443C285.288 253.042 285.161 252.915 285.161 252.759V251.87C283.933 251.704 283.333 251.016 283.17 250.081C283.142 249.922 283.269 249.777 283.431 249.777H284.074C284.208 249.777 284.321 249.873 284.349 250.006C284.469 250.564 284.79 250.991 285.775 250.991C286.502 250.991 287.017 250.585 287.017 249.979C287.017 249.371 286.714 249.142 285.648 248.965C284.074 248.754 283.329 248.277 283.329 247.042C283.329 246.089 284.049 245.348 285.164 245.189V244.317C285.164 244.162 285.292 244.035 285.447 244.035H286.008C286.163 244.035 286.29 244.162 286.29 244.317V245.214C287.197 245.376 287.773 245.891 287.96 246.745C287.995 246.908 287.868 247.059 287.702 247.059H287.109C286.982 247.059 286.876 246.975 286.837 246.851C286.679 246.308 286.29 246.075 285.616 246.075C284.871 246.075 284.487 246.435 284.487 246.94C284.487 247.472 284.706 247.741 285.849 247.907C287.395 248.118 288.193 248.56 288.193 249.876C288.193 250.875 287.451 251.683 286.29 251.87V252.759H286.287ZM287.412 254.704C287.412 254.916 287.578 255.036 287.783 254.972C290.504 254.101 292.474 251.552 292.477 248.549C292.477 245.538 290.504 242.987 287.783 242.118C287.578 242.052 287.412 242.175 287.412 242.387V242.909C287.412 243.05 287.522 243.213 287.656 243.262C289.809 244.053 291.351 246.121 291.351 248.545C291.351 250.97 289.809 253.038 287.656 253.829C287.508 253.882 287.412 254.027 287.412 254.182V254.704Z" fill="#2775CA"/>
</g>
<defs>
<filter id="filter0_dddddd_4171_4770" x="65.505" y="59.446" width="392.44" height="405.822" filterUnits="userSpaceOnUse" color-interpolation-filters="sRGB">
<feFlood flood-opacity="0" result="BackgroundImageFix"/>
<feColorMatrix in="SourceAlpha" type="matrix" values="0 0 0 0 0 0 0 0 0 0 0 0 0 0 0 0 0 0 127 0" result="hardAlpha"/>
<feOffset dx="-24" dy="24"/>
<feGaussianBlur stdDeviation="40"/>
<feColorMatrix type="matrix" values="0 0 0 0 0.254902 0 0 0 0 0.717647 0 0 0 0 1 0 0 0 0.16 0"/>
<feBlend mode="normal" in2="BackgroundImageFix" result="effect1_dropShadow_4171_4770"/>
<feColorMatrix in="SourceAlpha" type="matrix" values="0 0 0 0 0 0 0 0 0 0 0 0 0 0 0 0 0 0 127 0" result="hardAlpha"/>
<feOffset dx="24" dy="-24"/>
<feGaussianBlur stdDeviation="40"/>
<feColorMatrix type="matrix" values="0 0 0 0 1 0 0 0 0 0.00392157 0 0 0 0 0.866667 0 0 0 0.16 0"/>
<feBlend mode="normal" in2="effect1_dropShadow_4171_4770" result="effect2_dropShadow_4171_4770"/>
<feColorMatrix in="SourceAlpha" type="matrix" values="0 0 0 0 0 0 0 0 0 0 0 0 0 0 0 0 0 0 127 0" result="hardAlpha"/>
<feOffset dx="4" dy="4"/>
<feGaussianBlur stdDeviation="20"/>
<feColorMatrix type="matrix" values="0 0 0 0 0.360784 0 0 0 0 0.360784 0 0 0 0 1 0 0 0 0.8 0"/>
<feBlend mode="normal" in2="effect2_dropShadow_4171_4770" result="effect3_dropShadow_4171_4770"/>
<feColorMatrix in="SourceAlpha" type="matrix" values="0 0 0 0 0 0 0 0 0 0 0 0 0 0 0 0 0 0 127 0" result="hardAlpha"/>
<feOffset dx="-5" dy="1"/>
<feGaussianBlur stdDeviation="8.5"/>
<feColorMatrix type="matrix" values="0 0 0 0 0.254902 0 0 0 0 0.717647 0 0 0 0 1 0 0 0 0.72 0"/>
<feBlend mode="normal" in2="effect3_dropShadow_4171_4770" result="effect4_dropShadow_4171_4770"/>
<feColorMatrix in="SourceAlpha" type="matrix" values="0 0 0 0 0 0 0 0 0 0 0 0 0 0 0 0 0 0 127 0" result="hardAlpha"/>
<feMorphology radius="78" operator="erode" in="SourceAlpha" result="effect5_dropShadow_4171_4770"/>
<feOffset dx="-5"/>
<feGaussianBlur stdDeviation="13.5"/>
<feColorMatrix type="matrix" values="0 0 0 0 0 0 0 0 0 1 0 0 0 0 0.45098 0 0 0 0.37 0"/>
<feBlend mode="normal" in2="effect4_dropShadow_4171_4770" result="effect5_dropShadow_4171_4770"/>
<feColorMatrix in="SourceAlpha" type="matrix" values="0 0 0 0 0 0 0 0 0 0 0 0 0 0 0 0 0 0 127 0" result="hardAlpha"/>
<feOffset dx="10" dy="-2"/>
<feGaussianBlur stdDeviation="18"/>
<feColorMatrix type="matrix" values="0 0 0 0 1 0 0 0 0 0.00392157 0 0 0 0 0.866667 0 0 0 0.38 0"/>
<feBlend mode="normal" in2="effect5_dropShadow_4171_4770" result="effect6_dropShadow_4171_4770"/>
<feBlend mode="normal" in="SourceGraphic" in2="effect6_dropShadow_4171_4770" result="shape"/>
</filter>
<filter id="filter1_dddddd_4171_4770" x="65.505" y="59.446" width="392.44" height="405.822" filterUnits="userSpaceOnUse" color-interpolation-filters="sRGB">
<feFlood flood-opacity="0" result="BackgroundImageFix"/>
<feColorMatrix in="SourceAlpha" type="matrix" values="0 0 0 0 0 0 0 0 0 0 0 0 0 0 0 0 0 0 127 0" result="hardAlpha"/>
<feOffset dx="-24" dy="24"/>
<feGaussianBlur stdDeviation="40"/>
<feColorMatrix type="matrix" values="0 0 0 0 0.254902 0 0 0 0 0.717647 0 0 0 0 1 0 0 0 0.16 0"/>
<feBlend mode="normal" in2="BackgroundImageFix" result="effect1_dropShadow_4171_4770"/>
<feColorMatrix in="SourceAlpha" type="matrix" values="0 0 0 0 0 0 0 0 0 0 0 0 0 0 0 0 0 0 127 0" result="hardAlpha"/>
<feOffset dx="24" dy="-24"/>
<feGaussianBlur stdDeviation="40"/>
<feColorMatrix type="matrix" values="0 0 0 0 1 0 0 0 0 0.00392157 0 0 0 0 0.866667 0 0 0 0.16 0"/>
<feBlend mode="normal" in2="effect1_dropShadow_4171_4770" result="effect2_dropShadow_4171_4770"/>
<feColorMatrix in="SourceAlpha" type="matrix" values="0 0 0 0 0 0 0 0 0 0 0 0 0 0 0 0 0 0 127 0" result="hardAlpha"/>
<feOffset dx="4" dy="4"/>
<feGaussianBlur stdDeviation="20"/>
<feColorMatrix type="matrix" values="0 0 0 0 0.360784 0 0 0 0 0.360784 0 0 0 0 1 0 0 0 0.8 0"/>
<feBlend mode="normal" in2="effect2_dropShadow_4171_4770" result="effect3_dropShadow_4171_4770"/>
<feColorMatrix in="SourceAlpha" type="matrix" values="0 0 0 0 0 0 0 0 0 0 0 0 0 0 0 0 0 0 127 0" result="hardAlpha"/>
<feOffset dx="-5" dy="1"/>
<feGaussianBlur stdDeviation="8.5"/>
<feColorMatrix type="matrix" values="0 0 0 0 0.254902 0 0 0 0 0.717647 0 0 0 0 1 0 0 0 0.72 0"/>
<feBlend mode="normal" in2="effect3_dropShadow_4171_4770" result="effect4_dropShadow_4171_4770"/>
<feColorMatrix in="SourceAlpha" type="matrix" values="0 0 0 0 0 0 0 0 0 0 0 0 0 0 0 0 0 0 127 0" result="hardAlpha"/>
<feMorphology radius="78" operator="erode" in="SourceAlpha" result="effect5_dropShadow_4171_4770"/>
<feOffset dx="-5"/>
<feGaussianBlur stdDeviation="13.5"/>
<feColorMatrix type="matrix" values="0 0 0 0 0 0 0 0 0 1 0 0 0 0 0.45098 0 0 0 0.37 0"/>
<feBlend mode="normal" in2="effect4_dropShadow_4171_4770" result="effect5_dropShadow_4171_4770"/>
<feColorMatrix in="SourceAlpha" type="matrix" values="0 0 0 0 0 0 0 0 0 0 0 0 0 0 0 0 0 0 127 0" result="hardAlpha"/>
<feOffset dx="10" dy="-2"/>
<feGaussianBlur stdDeviation="18"/>
<feColorMatrix type="matrix" values="0 0 0 0 1 0 0 0 0 0.00392157 0 0 0 0 0.866667 0 0 0 0.38 0"/>
<feBlend mode="normal" in2="effect5_dropShadow_4171_4770" result="effect6_dropShadow_4171_4770"/>
<feBlend mode="normal" in="SourceGraphic" in2="effect6_dropShadow_4171_4770" result="shape"/>
</filter>
<filter id="filter2_dddddd_4171_4770" x="65.505" y="59.446" width="392.44" height="405.822" filterUnits="userSpaceOnUse" color-interpolation-filters="sRGB">
<feFlood flood-opacity="0" result="BackgroundImageFix"/>
<feColorMatrix in="SourceAlpha" type="matrix" values="0 0 0 0 0 0 0 0 0 0 0 0 0 0 0 0 0 0 127 0" result="hardAlpha"/>
<feOffset dx="-24" dy="24"/>
<feGaussianBlur stdDeviation="40"/>
<feColorMatrix type="matrix" values="0 0 0 0 0.254902 0 0 0 0 0.717647 0 0 0 0 1 0 0 0 0.16 0"/>
<feBlend mode="normal" in2="BackgroundImageFix" result="effect1_dropShadow_4171_4770"/>
<feColorMatrix in="SourceAlpha" type="matrix" values="0 0 0 0 0 0 0 0 0 0 0 0 0 0 0 0 0 0 127 0" result="hardAlpha"/>
<feOffset dx="24" dy="-24"/>
<feGaussianBlur stdDeviation="40"/>
<feColorMatrix type="matrix" values="0 0 0 0 1 0 0 0 0 0.00392157 0 0 0 0 0.866667 0 0 0 0.16 0"/>
<feBlend mode="normal" in2="effect1_dropShadow_4171_4770" result="effect2_dropShadow_4171_4770"/>
<feColorMatrix in="SourceAlpha" type="matrix" values="0 0 0 0 0 0 0 0 0 0 0 0 0 0 0 0 0 0 127 0" result="hardAlpha"/>
<feOffset dx="4" dy="4"/>
<feGaussianBlur stdDeviation="20"/>
<feColorMatrix type="matrix" values="0 0 0 0 0.360784 0 0 0 0 0.360784 0 0 0 0 1 0 0 0 0.8 0"/>
<feBlend mode="normal" in2="effect2_dropShadow_4171_4770" result="effect3_dropShadow_4171_4770"/>
<feColorMatrix in="SourceAlpha" type="matrix" values="0 0 0 0 0 0 0 0 0 0 0 0 0 0 0 0 0 0 127 0" result="hardAlpha"/>
<feOffset dx="-5" dy="1"/>
<feGaussianBlur stdDeviation="8.5"/>
<feColorMatrix type="matrix" values="0 0 0 0 0.254902 0 0 0 0 0.717647 0 0 0 0 1 0 0 0 0.72 0"/>
<feBlend mode="normal" in2="effect3_dropShadow_4171_4770" result="effect4_dropShadow_4171_4770"/>
<feColorMatrix in="SourceAlpha" type="matrix" values="0 0 0 0 0 0 0 0 0 0 0 0 0 0 0 0 0 0 127 0" result="hardAlpha"/>
<feMorphology radius="78" operator="erode" in="SourceAlpha" result="effect5_dropShadow_4171_4770"/>
<feOffset dx="-5"/>
<feGaussianBlur stdDeviation="13.5"/>
<feColorMatrix type="matrix" values="0 0 0 0 0 0 0 0 0 1 0 0 0 0 0.45098 0 0 0 0.37 0"/>
<feBlend mode="normal" in2="effect4_dropShadow_4171_4770" result="effect5_dropShadow_4171_4770"/>
<feColorMatrix in="SourceAlpha" type="matrix" values="0 0 0 0 0 0 0 0 0 0 0 0 0 0 0 0 0 0 127 0" result="hardAlpha"/>
<feOffset dx="10" dy="-2"/>
<feGaussianBlur stdDeviation="18"/>
<feColorMatrix type="matrix" values="0 0 0 0 1 0 0 0 0 0.00392157 0 0 0 0 0.866667 0 0 0 0.38 0"/>
<feBlend mode="normal" in2="effect5_dropShadow_4171_4770" result="effect6_dropShadow_4171_4770"/>
<feBlend mode="normal" in="SourceGraphic" in2="effect6_dropShadow_4171_4770" result="shape"/>
</filter>
<filter id="filter3_f_4171_4770" x="192.725" y="221" width="143" height="83.8931" filterUnits="userSpaceOnUse" color-interpolation-filters="sRGB">
<feFlood flood-opacity="0" result="BackgroundImageFix"/>
<feBlend mode="normal" in="SourceGraphic" in2="BackgroundImageFix" result="shape"/>
<feGaussianBlur stdDeviation="4" result="effect1_foregroundBlur_4171_4770"/>
</filter>
<filter id="filter4_f_4171_4770" x="191.225" y="219.5" width="146" height="86.8931" filterUnits="userSpaceOnUse" color-interpolation-filters="sRGB">
<feFlood flood-opacity="0" result="BackgroundImageFix"/>
<feBlend mode="normal" in="SourceGraphic" in2="BackgroundImageFix" result="shape"/>
<feGaussianBlur stdDeviation="4" result="effect1_foregroundBlur_4171_4770"/>
</filter>
<filter id="filter5_f_4171_4770" x="191.225" y="219.5" width="146" height="86.8931" filterUnits="userSpaceOnUse" color-interpolation-filters="sRGB">
<feFlood flood-opacity="0" result="BackgroundImageFix"/>
<feBlend mode="normal" in="SourceGraphic" in2="BackgroundImageFix" result="shape"/>
<feGaussianBlur stdDeviation="4" result="effect1_foregroundBlur_4171_4770"/>
</filter>
<filter id="filter6_f_4171_4770" x="191.225" y="219.5" width="146" height="86.8931" filterUnits="userSpaceOnUse" color-interpolation-filters="sRGB">
<feFlood flood-opacity="0" result="BackgroundImageFix"/>
<feBlend mode="normal" in="SourceGraphic" in2="BackgroundImageFix" result="shape"/>
<feGaussianBlur stdDeviation="4" result="effect1_foregroundBlur_4171_4770"/>
</filter>
<filter id="filter7_f_4171_4770" x="192.725" y="221" width="143" height="83.8931" filterUnits="userSpaceOnUse" color-interpolation-filters="sRGB">
<feFlood flood-opacity="0" result="BackgroundImageFix"/>
<feBlend mode="normal" in="SourceGraphic" in2="BackgroundImageFix" result="shape"/>
<feGaussianBlur stdDeviation="4" result="effect1_foregroundBlur_4171_4770"/>
</filter>
<filter id="filter8_f_4171_4770" x="191.225" y="219.5" width="146" height="86.8931" filterUnits="userSpaceOnUse" color-interpolation-filters="sRGB">
<feFlood flood-opacity="0" result="BackgroundImageFix"/>
<feBlend mode="normal" in="SourceGraphic" in2="BackgroundImageFix" result="shape"/>
<feGaussianBlur stdDeviation="4" result="effect1_foregroundBlur_4171_4770"/>
</filter>
<filter id="filter9_f_4171_4770" x="191.225" y="219.5" width="146" height="86.8931" filterUnits="userSpaceOnUse" color-interpolation-filters="sRGB">
<feFlood flood-opacity="0" result="BackgroundImageFix"/>
<feBlend mode="normal" in="SourceGraphic" in2="BackgroundImageFix" result="shape"/>
<feGaussianBlur stdDeviation="4" result="effect1_foregroundBlur_4171_4770"/>
</filter>
<filter id="filter10_f_4171_4770" x="191.225" y="219.5" width="146" height="86.8931" filterUnits="userSpaceOnUse" color-interpolation-filters="sRGB">
<feFlood flood-opacity="0" result="BackgroundImageFix"/>
<feBlend mode="normal" in="SourceGraphic" in2="BackgroundImageFix" result="shape"/>
<feGaussianBlur stdDeviation="4" result="effect1_foregroundBlur_4171_4770"/>
</filter>
<filter id="filter11_f_4171_4770" x="200.712" y="224.954" width="127.824" height="72.7911" filterUnits="userSpaceOnUse" color-interpolation-filters="sRGB">
<feFlood flood-opacity="0" result="BackgroundImageFix"/>
<feBlend mode="normal" in="SourceGraphic" in2="BackgroundImageFix" result="shape"/>
<feGaussianBlur stdDeviation="4" result="effect1_foregroundBlur_4171_4770"/>
</filter>
<filter id="filter12_f_4171_4770" x="199.212" y="223.454" width="130.824" height="75.7911" filterUnits="userSpaceOnUse" color-interpolation-filters="sRGB">
<feFlood flood-opacity="0" result="BackgroundImageFix"/>
<feBlend mode="normal" in="SourceGraphic" in2="BackgroundImageFix" result="shape"/>
<feGaussianBlur stdDeviation="4" result="effect1_foregroundBlur_4171_4770"/>
</filter>
<filter id="filter13_f_4171_4770" x="199.212" y="223.454" width="130.824" height="75.7911" filterUnits="userSpaceOnUse" color-interpolation-filters="sRGB">
<feFlood flood-opacity="0" result="BackgroundImageFix"/>
<feBlend mode="normal" in="SourceGraphic" in2="BackgroundImageFix" result="shape"/>
<feGaussianBlur stdDeviation="4" result="effect1_foregroundBlur_4171_4770"/>
</filter>
<filter id="filter14_f_4171_4770" x="199.212" y="223.454" width="130.824" height="75.7911" filterUnits="userSpaceOnUse" color-interpolation-filters="sRGB">
<feFlood flood-opacity="0" result="BackgroundImageFix"/>
<feBlend mode="normal" in="SourceGraphic" in2="BackgroundImageFix" result="shape"/>
<feGaussianBlur stdDeviation="4" result="effect1_foregroundBlur_4171_4770"/>
</filter>
<filter id="filter15_f_4171_4770" x="200.712" y="224.954" width="127.824" height="72.7911" filterUnits="userSpaceOnUse" color-interpolation-filters="sRGB">
<feFlood flood-opacity="0" result="BackgroundImageFix"/>
<feBlend mode="normal" in="SourceGraphic" in2="BackgroundImageFix" result="shape"/>
<feGaussianBlur stdDeviation="4" result="effect1_foregroundBlur_4171_4770"/>
</filter>
<filter id="filter16_f_4171_4770" x="199.712" y="223.954" width="129.824" height="74.7911" filterUnits="userSpaceOnUse" color-interpolation-filters="sRGB">
<feFlood flood-opacity="0" result="BackgroundImageFix"/>
<feBlend mode="normal" in="SourceGraphic" in2="BackgroundImageFix" result="shape"/>
<feGaussianBlur stdDeviation="4" result="effect1_foregroundBlur_4171_4770"/>
</filter>
<filter id="filter17_f_4171_4770" x="199.712" y="223.954" width="129.824" height="74.7911" filterUnits="userSpaceOnUse" color-interpolation-filters="sRGB">
<feFlood flood-opacity="0" result="BackgroundImageFix"/>
<feBlend mode="normal" in="SourceGraphic" in2="BackgroundImageFix" result="shape"/>
<feGaussianBlur stdDeviation="4" result="effect1_foregroundBlur_4171_4770"/>
</filter>
<filter id="filter18_f_4171_4770" x="199.712" y="223.954" width="129.824" height="74.7911" filterUnits="userSpaceOnUse" color-interpolation-filters="sRGB">
<feFlood flood-opacity="0" result="BackgroundImageFix"/>
<feBlend mode="normal" in="SourceGraphic" in2="BackgroundImageFix" result="shape"/>
<feGaussianBlur stdDeviation="4" result="effect1_foregroundBlur_4171_4770"/>
</filter>
<filter id="filter19_f_4171_4770" x="207.725" y="231.954" width="113.824" height="58.7911" filterUnits="userSpaceOnUse" color-interpolation-filters="sRGB">
<feFlood flood-opacity="0" result="BackgroundImageFix"/>
<feBlend mode="normal" in="SourceGraphic" in2="BackgroundImageFix" result="shape"/>
<feGaussianBlur stdDeviation="0.5" result="effect1_foregroundBlur_4171_4770"/>
</filter>
<filter id="filter20_f_4171_4770" x="200.725" y="224.954" width="127.824" height="72.7911" filterUnits="userSpaceOnUse" color-interpolation-filters="sRGB">
<feFlood flood-opacity="0" result="BackgroundImageFix"/>
<feBlend mode="normal" in="SourceGraphic" in2="BackgroundImageFix" result="shape"/>
<feGaussianBlur stdDeviation="4" result="effect1_foregroundBlur_4171_4770"/>
</filter>
<filter id="filter21_f_4171_4770" x="198.725" y="222.954" width="131.824" height="76.7911" filterUnits="userSpaceOnUse" color-interpolation-filters="sRGB">
<feFlood flood-opacity="0" result="BackgroundImageFix"/>
<feBlend mode="normal" in="SourceGraphic" in2="BackgroundImageFix" result="shape"/>
<feGaussianBlur stdDeviation="4" result="effect1_foregroundBlur_4171_4770"/>
</filter>
<filter id="filter22_f_4171_4770" x="198.725" y="222.954" width="131.824" height="76.7911" filterUnits="userSpaceOnUse" color-interpolation-filters="sRGB">
<feFlood flood-opacity="0" result="BackgroundImageFix"/>
<feBlend mode="normal" in="SourceGraphic" in2="BackgroundImageFix" result="shape"/>
<feGaussianBlur stdDeviation="4" result="effect1_foregroundBlur_4171_4770"/>
</filter>
<filter id="filter23_f_4171_4770" x="198.725" y="222.954" width="131.824" height="76.7911" filterUnits="userSpaceOnUse" color-interpolation-filters="sRGB">
<feFlood flood-opacity="0" result="BackgroundImageFix"/>
<feBlend mode="normal" in="SourceGraphic" in2="BackgroundImageFix" result="shape"/>
<feGaussianBlur stdDeviation="4" result="effect1_foregroundBlur_4171_4770"/>
</filter>
<filter id="filter24_f_4171_4770" x="192.725" y="221" width="143" height="83.8931" filterUnits="userSpaceOnUse" color-interpolation-filters="sRGB">
<feFlood flood-opacity="0" result="BackgroundImageFix"/>
<feBlend mode="normal" in="SourceGraphic" in2="BackgroundImageFix" result="shape"/>
<feGaussianBlur stdDeviation="4" result="effect1_foregroundBlur_4171_4770"/>
</filter>
<filter id="filter25_f_4171_4770" x="191.725" y="220" width="145" height="85.8931" filterUnits="userSpaceOnUse" color-interpolation-filters="sRGB">
<feFlood flood-opacity="0" result="BackgroundImageFix"/>
<feBlend mode="normal" in="SourceGraphic" in2="BackgroundImageFix" result="shape"/>
<feGaussianBlur stdDeviation="4" result="effect1_foregroundBlur_4171_4770"/>
</filter>
<filter id="filter26_f_4171_4770" x="191.725" y="220" width="145" height="85.8931" filterUnits="userSpaceOnUse" color-interpolation-filters="sRGB">
<feFlood flood-opacity="0" result="BackgroundImageFix"/>
<feBlend mode="normal" in="SourceGraphic" in2="BackgroundImageFix" result="shape"/>
<feGaussianBlur stdDeviation="4" result="effect1_foregroundBlur_4171_4770"/>
</filter>
<filter id="filter27_f_4171_4770" x="191.725" y="220" width="145" height="85.8931" filterUnits="userSpaceOnUse" color-interpolation-filters="sRGB">
<feFlood flood-opacity="0" result="BackgroundImageFix"/>
<feBlend mode="normal" in="SourceGraphic" in2="BackgroundImageFix" result="shape"/>
<feGaussianBlur stdDeviation="4" result="effect1_foregroundBlur_4171_4770"/>
</filter>
<filter id="filter28_f_4171_4770" x="199.725" y="228" width="129" height="69.8931" filterUnits="userSpaceOnUse" color-interpolation-filters="sRGB">
<feFlood flood-opacity="0" result="BackgroundImageFix"/>
<feBlend mode="normal" in="SourceGraphic" in2="BackgroundImageFix" result="shape"/>
<feGaussianBlur stdDeviation="0.5" result="effect1_foregroundBlur_4171_4770"/>
</filter>
<filter id="filter29_f_4171_4770" x="192.725" y="221" width="143" height="83.8931" filterUnits="userSpaceOnUse" color-interpolation-filters="sRGB">
<feFlood flood-opacity="0" result="BackgroundImageFix"/>
<feBlend mode="normal" in="SourceGraphic" in2="BackgroundImageFix" result="shape"/>
<feGaussianBlur stdDeviation="4" result="effect1_foregroundBlur_4171_4770"/>
</filter>
<filter id="filter30_f_4171_4770" x="190.725" y="219" width="147" height="87.8931" filterUnits="userSpaceOnUse" color-interpolation-filters="sRGB">
<feFlood flood-opacity="0" result="BackgroundImageFix"/>
<feBlend mode="normal" in="SourceGraphic" in2="BackgroundImageFix" result="shape"/>
<feGaussianBlur stdDeviation="4" result="effect1_foregroundBlur_4171_4770"/>
</filter>
<filter id="filter31_f_4171_4770" x="190.725" y="219" width="147" height="87.8931" filterUnits="userSpaceOnUse" color-interpolation-filters="sRGB">
<feFlood flood-opacity="0" result="BackgroundImageFix"/>
<feBlend mode="normal" in="SourceGraphic" in2="BackgroundImageFix" result="shape"/>
<feGaussianBlur stdDeviation="4" result="effect1_foregroundBlur_4171_4770"/>
</filter>
<filter id="filter32_f_4171_4770" x="190.725" y="219" width="147" height="87.8931" filterUnits="userSpaceOnUse" color-interpolation-filters="sRGB">
<feFlood flood-opacity="0" result="BackgroundImageFix"/>
<feBlend mode="normal" in="SourceGraphic" in2="BackgroundImageFix" result="shape"/>
<feGaussianBlur stdDeviation="4" result="effect1_foregroundBlur_4171_4770"/>
</filter>
<linearGradient id="paint0_linear_4171_4770" x1="121.203" y1="409.035" x2="467.184" y2="384.955" gradientUnits="userSpaceOnUse">
<stop stop-color="#FF01DD"/>
<stop offset="1" stop-color="#41B7FF"/>
</linearGradient>
<linearGradient id="paint1_linear_4171_4770" x1="111.604" y1="411.039" x2="481.03" y2="383.939" gradientUnits="userSpaceOnUse">
<stop stop-color="#FF01DD"/>
<stop offset="1" stop-color="#41B7FF"/>
</linearGradient>
<linearGradient id="paint2_linear_4171_4770" x1="101.924" y1="412.56" x2="494.933" y2="382.183" gradientUnits="userSpaceOnUse">
<stop stop-color="#FF01DD"/>
<stop offset="1" stop-color="#41B7FF"/>
</linearGradient>
<linearGradient id="paint3_linear_4171_4770" x1="92.255" y1="413.724" x2="508.785" y2="379.844" gradientUnits="userSpaceOnUse">
<stop stop-color="#FF01DD"/>
<stop offset="1" stop-color="#41B7FF"/>
</linearGradient>
<linearGradient id="paint4_linear_4171_4770" x1="82.6788" y1="414.359" x2="522.437" y2="376.725" gradientUnits="userSpaceOnUse">
<stop stop-color="#FF01DD"/>
<stop offset="1" stop-color="#41B7FF"/>
</linearGradient>
<linearGradient id="paint5_linear_4171_4770" x1="73.4269" y1="414.656" x2="535.559" y2="373.146" gradientUnits="userSpaceOnUse">
<stop stop-color="#FF01DD"/>
<stop offset="1" stop-color="#41B7FF"/>
</linearGradient>
<linearGradient id="paint6_linear_4171_4770" x1="64.2711" y1="414.736" x2="548.485" y2="369.151" gradientUnits="userSpaceOnUse">
<stop stop-color="#FF01DD"/>
<stop offset="1" stop-color="#41B7FF"/>
</linearGradient>
<linearGradient id="paint7_linear_4171_4770" x1="55.4658" y1="414.742" x2="560.867" y2="365.044" gradientUnits="userSpaceOnUse">
<stop stop-color="#FF01DD"/>
<stop offset="1" stop-color="#41B7FF"/>
</linearGradient>
<linearGradient id="paint8_linear_4171_4770" x1="47.0994" y1="414.855" x2="572.604" y2="361.121" gradientUnits="userSpaceOnUse">
<stop stop-color="#FF01DD"/>
<stop offset="1" stop-color="#41B7FF"/>
</linearGradient>
<linearGradient id="paint9_linear_4171_4770" x1="39.2456" y1="415.298" x2="583.597" y2="357.768" gradientUnits="userSpaceOnUse">
<stop stop-color="#FF01DD"/>
<stop offset="1" stop-color="#41B7FF"/>
</linearGradient>
<linearGradient id="paint10_linear_4171_4770" x1="31.9888" y1="416.362" x2="593.783" y2="355.476" gradientUnits="userSpaceOnUse">
<stop stop-color="#FF01DD"/>
<stop offset="1" stop-color="#41B7FF"/>
</linearGradient>
<linearGradient id="paint11_linear_4171_4770" x1="25.3698" y1="418.386" x2="603.134" y2="354.8" gradientUnits="userSpaceOnUse">
<stop stop-color="#FF01DD"/>
<stop offset="1" stop-color="#41B7FF"/>
</linearGradient>
<linearGradient id="paint12_linear_4171_4770" x1="19.474" y1="421.712" x2="611.616" y2="356.314" gradientUnits="userSpaceOnUse">
<stop stop-color="#FF01DD"/>
<stop offset="1" stop-color="#41B7FF"/>
</linearGradient>
<linearGradient id="paint13_linear_4171_4770" x1="14.3421" y1="426.719" x2="619.156" y2="360.582" gradientUnits="userSpaceOnUse">
<stop stop-color="#FF01DD"/>
<stop offset="1" stop-color="#41B7FF"/>
</linearGradient>
<linearGradient id="paint14_linear_4171_4770" x1="10.0209" y1="433.696" x2="625.744" y2="367.98" gradientUnits="userSpaceOnUse">
<stop stop-color="#FF01DD"/>
<stop offset="1" stop-color="#41B7FF"/>
</linearGradient>
<linearGradient id="paint15_linear_4171_4770" x1="6.52907" y1="442.895" x2="631.319" y2="378.731" gradientUnits="userSpaceOnUse">
<stop stop-color="#FF01DD"/>
<stop offset="1" stop-color="#41B7FF"/>
</linearGradient>
<linearGradient id="paint16_linear_4171_4770" x1="3.85427" y1="454.434" x2="635.84" y2="392.792" gradientUnits="userSpaceOnUse">
<stop stop-color="#FF01DD"/>
<stop offset="1" stop-color="#41B7FF"/>
</linearGradient>
<linearGradient id="paint17_linear_4171_4770" x1="1.97927" y1="468.355" x2="639.267" y2="409.976" gradientUnits="userSpaceOnUse">
<stop stop-color="#FF01DD"/>
<stop offset="1" stop-color="#41B7FF"/>
</linearGradient>
<linearGradient id="paint18_linear_4171_4770" x1="0.960104" y1="484.624" x2="641.47" y2="430.03" gradientUnits="userSpaceOnUse">
<stop stop-color="#FF01DD"/>
<stop offset="1" stop-color="#41B7FF"/>
</linearGradient>
<linearGradient id="paint19_linear_4171_4770" x1="0.386862" y1="503.16" x2="642.97" y2="452.496" gradientUnits="userSpaceOnUse">
<stop stop-color="#FF01DD"/>
<stop offset="1" stop-color="#41B7FF"/>
</linearGradient>
<linearGradient id="paint20_linear_4171_4770" x1="0.246725" y1="523.84" x2="643.778" y2="477.087" gradientUnits="userSpaceOnUse">
<stop stop-color="#FF01DD"/>
<stop offset="1" stop-color="#41B7FF"/>
</linearGradient>
<linearGradient id="paint21_linear_4171_4770" x1="121.203" y1="409.035" x2="467.184" y2="384.955" gradientUnits="userSpaceOnUse">
<stop stop-color="#FF01DD"/>
<stop offset="1" stop-color="#41B7FF"/>
</linearGradient>
<linearGradient id="paint22_linear_4171_4770" x1="111.604" y1="411.039" x2="481.03" y2="383.939" gradientUnits="userSpaceOnUse">
<stop stop-color="#FF01DD"/>
<stop offset="1" stop-color="#41B7FF"/>
</linearGradient>
<linearGradient id="paint23_linear_4171_4770" x1="101.924" y1="412.56" x2="494.933" y2="382.183" gradientUnits="userSpaceOnUse">
<stop stop-color="#FF01DD"/>
<stop offset="1" stop-color="#41B7FF"/>
</linearGradient>
<linearGradient id="paint24_linear_4171_4770" x1="92.255" y1="413.724" x2="508.785" y2="379.844" gradientUnits="userSpaceOnUse">
<stop stop-color="#FF01DD"/>
<stop offset="1" stop-color="#41B7FF"/>
</linearGradient>
<linearGradient id="paint25_linear_4171_4770" x1="82.6788" y1="414.359" x2="522.437" y2="376.725" gradientUnits="userSpaceOnUse">
<stop stop-color="#FF01DD"/>
<stop offset="1" stop-color="#41B7FF"/>
</linearGradient>
<linearGradient id="paint26_linear_4171_4770" x1="73.4269" y1="414.656" x2="535.559" y2="373.146" gradientUnits="userSpaceOnUse">
<stop stop-color="#FF01DD"/>
<stop offset="1" stop-color="#41B7FF"/>
</linearGradient>
<linearGradient id="paint27_linear_4171_4770" x1="64.2711" y1="414.736" x2="548.485" y2="369.151" gradientUnits="userSpaceOnUse">
<stop stop-color="#FF01DD"/>
<stop offset="1" stop-color="#41B7FF"/>
</linearGradient>
<linearGradient id="paint28_linear_4171_4770" x1="55.4658" y1="414.742" x2="560.867" y2="365.044" gradientUnits="userSpaceOnUse">
<stop stop-color="#FF01DD"/>
<stop offset="1" stop-color="#41B7FF"/>
</linearGradient>
<linearGradient id="paint29_linear_4171_4770" x1="47.0994" y1="414.855" x2="572.604" y2="361.121" gradientUnits="userSpaceOnUse">
<stop stop-color="#FF01DD"/>
<stop offset="1" stop-color="#41B7FF"/>
</linearGradient>
<linearGradient id="paint30_linear_4171_4770" x1="39.2456" y1="415.298" x2="583.597" y2="357.768" gradientUnits="userSpaceOnUse">
<stop stop-color="#FF01DD"/>
<stop offset="1" stop-color="#41B7FF"/>
</linearGradient>
<linearGradient id="paint31_linear_4171_4770" x1="31.9888" y1="416.362" x2="593.783" y2="355.476" gradientUnits="userSpaceOnUse">
<stop stop-color="#FF01DD"/>
<stop offset="1" stop-color="#41B7FF"/>
</linearGradient>
<linearGradient id="paint32_linear_4171_4770" x1="25.3698" y1="418.386" x2="603.134" y2="354.8" gradientUnits="userSpaceOnUse">
<stop stop-color="#FF01DD"/>
<stop offset="1" stop-color="#41B7FF"/>
</linearGradient>
<linearGradient id="paint33_linear_4171_4770" x1="19.474" y1="421.712" x2="611.616" y2="356.314" gradientUnits="userSpaceOnUse">
<stop stop-color="#FF01DD"/>
<stop offset="1" stop-color="#41B7FF"/>
</linearGradient>
<linearGradient id="paint34_linear_4171_4770" x1="14.3421" y1="426.719" x2="619.156" y2="360.582" gradientUnits="userSpaceOnUse">
<stop stop-color="#FF01DD"/>
<stop offset="1" stop-color="#41B7FF"/>
</linearGradient>
<linearGradient id="paint35_linear_4171_4770" x1="10.0209" y1="433.696" x2="625.744" y2="367.98" gradientUnits="userSpaceOnUse">
<stop stop-color="#FF01DD"/>
<stop offset="1" stop-color="#41B7FF"/>
</linearGradient>
<linearGradient id="paint36_linear_4171_4770" x1="6.52907" y1="442.895" x2="631.319" y2="378.731" gradientUnits="userSpaceOnUse">
<stop stop-color="#FF01DD"/>
<stop offset="1" stop-color="#41B7FF"/>
</linearGradient>
<linearGradient id="paint37_linear_4171_4770" x1="3.85427" y1="454.434" x2="635.84" y2="392.792" gradientUnits="userSpaceOnUse">
<stop stop-color="#FF01DD"/>
<stop offset="1" stop-color="#41B7FF"/>
</linearGradient>
<linearGradient id="paint38_linear_4171_4770" x1="1.97927" y1="468.355" x2="639.267" y2="409.976" gradientUnits="userSpaceOnUse">
<stop stop-color="#FF01DD"/>
<stop offset="1" stop-color="#41B7FF"/>
</linearGradient>
<linearGradient id="paint39_linear_4171_4770" x1="0.960104" y1="484.624" x2="641.47" y2="430.03" gradientUnits="userSpaceOnUse">
<stop stop-color="#FF01DD"/>
<stop offset="1" stop-color="#41B7FF"/>
</linearGradient>
<linearGradient id="paint40_linear_4171_4770" x1="0.386862" y1="503.16" x2="642.97" y2="452.496" gradientUnits="userSpaceOnUse">
<stop stop-color="#FF01DD"/>
<stop offset="1" stop-color="#41B7FF"/>
</linearGradient>
<linearGradient id="paint41_linear_4171_4770" x1="0.246725" y1="523.84" x2="643.778" y2="477.087" gradientUnits="userSpaceOnUse">
<stop stop-color="#FF01DD"/>
<stop offset="1" stop-color="#41B7FF"/>
</linearGradient>
<linearGradient id="paint42_linear_4171_4770" x1="351.932" y1="366.646" x2="124.868" y2="214.514" gradientUnits="userSpaceOnUse">
<stop offset="0.12342" stop-color="white" stop-opacity="0"/>
<stop offset="0.5" stop-color="white" stop-opacity="0.14"/>
<stop offset="0.692708" stop-color="white" stop-opacity="0"/>
</linearGradient>
<linearGradient id="paint43_linear_4171_4770" x1="351.932" y1="366.646" x2="124.868" y2="214.514" gradientUnits="userSpaceOnUse">
<stop offset="0.12342" stop-color="white" stop-opacity="0"/>
<stop offset="0.5" stop-color="white" stop-opacity="0.14"/>
<stop offset="0.692708" stop-color="white" stop-opacity="0"/>
</linearGradient>
<linearGradient id="paint44_linear_4171_4770" x1="351.932" y1="366.646" x2="124.868" y2="214.514" gradientUnits="userSpaceOnUse">
<stop offset="0.12342" stop-color="white" stop-opacity="0"/>
<stop offset="0.5" stop-color="white" stop-opacity="0.14"/>
<stop offset="0.692708" stop-color="white" stop-opacity="0"/>
</linearGradient>
<linearGradient id="paint45_linear_4171_4770" x1="258.634" y1="296.893" x2="271.549" y2="252.118" gradientUnits="userSpaceOnUse">
<stop stop-color="#5C5CFF"/>
<stop offset="0.46875" stop-color="#5C5CFF" stop-opacity="0.391892"/>
<stop offset="0.739182" stop-color="#5C5CFF" stop-opacity="0"/>
</linearGradient>
<linearGradient id="paint46_linear_4171_4770" x1="258.634" y1="296.893" x2="273.065" y2="237.711" gradientUnits="userSpaceOnUse">
<stop stop-color="#5C5CFF"/>
<stop offset="0.46875" stop-color="#5C5CFF" stop-opacity="0.391892"/>
<stop offset="0.739182" stop-color="#5C5CFF" stop-opacity="0"/>
</linearGradient>
<linearGradient id="paint47_linear_4171_4770" x1="258.634" y1="296.893" x2="273.065" y2="237.711" gradientUnits="userSpaceOnUse">
<stop stop-color="#5C5CFF"/>
<stop offset="0.46875" stop-color="#5C5CFF" stop-opacity="0.391892"/>
<stop offset="0.739182" stop-color="#5C5CFF" stop-opacity="0"/>
</linearGradient>
<linearGradient id="paint48_linear_4171_4770" x1="254.64" y1="303.283" x2="269.541" y2="260.19" gradientUnits="userSpaceOnUse">
<stop stop-color="#5C5CFF"/>
<stop offset="0.46875" stop-color="#5C5CFF" stop-opacity="0.391892"/>
<stop offset="0.739182" stop-color="#5C5CFF" stop-opacity="0"/>
</linearGradient>
<linearGradient id="paint49_linear_4171_4770" x1="245.055" y1="306.079" x2="256.362" y2="276.087" gradientUnits="userSpaceOnUse">
<stop stop-color="#5C5CFF"/>
<stop offset="0.46875" stop-color="#5C5CFF" stop-opacity="0.391892"/>
<stop offset="0.739182" stop-color="#5C5CFF" stop-opacity="0"/>
</linearGradient>
<linearGradient id="paint50_linear_4171_4770" x1="258.634" y1="296.893" x2="271.549" y2="252.118" gradientUnits="userSpaceOnUse">
<stop stop-color="white"/>
<stop offset="0.46875" stop-color="white" stop-opacity="0.391892"/>
<stop offset="0.739182" stop-color="white" stop-opacity="0"/>
</linearGradient>
<linearGradient id="paint51_linear_4171_4770" x1="258.634" y1="296.893" x2="273.065" y2="237.711" gradientUnits="userSpaceOnUse">
<stop stop-color="#5C5CFF"/>
<stop offset="0.46875" stop-color="#5C5CFF" stop-opacity="0.391892"/>
<stop offset="0.739182" stop-color="#5C5CFF" stop-opacity="0"/>
</linearGradient>
<linearGradient id="paint52_linear_4171_4770" x1="258.634" y1="296.893" x2="273.065" y2="237.711" gradientUnits="userSpaceOnUse">
<stop stop-color="#5C5CFF"/>
<stop offset="0.46875" stop-color="#5C5CFF" stop-opacity="0.391892"/>
<stop offset="0.739182" stop-color="#5C5CFF" stop-opacity="0"/>
</linearGradient>
<linearGradient id="paint53_linear_4171_4770" x1="254.64" y1="303.283" x2="269.541" y2="260.19" gradientUnits="userSpaceOnUse">
<stop stop-color="#5C5CFF"/>
<stop offset="0.46875" stop-color="#5C5CFF" stop-opacity="0.391892"/>
<stop offset="0.739182" stop-color="#5C5CFF" stop-opacity="0"/>
</linearGradient>
<linearGradient id="paint54_linear_4171_4770" x1="245.055" y1="306.079" x2="256.362" y2="276.087" gradientUnits="userSpaceOnUse">
<stop stop-color="#5C5CFF"/>
<stop offset="0.46875" stop-color="#5C5CFF" stop-opacity="0.391892"/>
<stop offset="0.739182" stop-color="#5C5CFF" stop-opacity="0"/>
</linearGradient>
<linearGradient id="paint55_linear_4171_4770" x1="264.491" y1="292.364" x2="256.801" y2="271.164" gradientUnits="userSpaceOnUse">
<stop stop-color="#A45CFF"/>
<stop offset="1" stop-color="#A45CFF" stop-opacity="0"/>
</linearGradient>
<linearGradient id="paint56_linear_4171_4770" x1="264.491" y1="292.364" x2="262.834" y2="272.581" gradientUnits="userSpaceOnUse">
<stop stop-color="#A45CFF"/>
<stop offset="1" stop-color="#A45CFF" stop-opacity="0"/>
</linearGradient>
<linearGradient id="paint57_linear_4171_4770" x1="56.0446" y1="59.4099" x2="59.7327" y2="38.4901" gradientUnits="userSpaceOnUse">
<stop stop-color="#A45CFF"/>
<stop offset="1" stop-color="#A45CFF" stop-opacity="0"/>
</linearGradient>
<linearGradient id="paint58_linear_4171_4770" x1="56.0446" y1="59.4099" x2="62.8839" y2="26.6033" gradientUnits="userSpaceOnUse">
<stop stop-color="#A45CFF"/>
<stop offset="1" stop-color="#A45CFF" stop-opacity="0"/>
</linearGradient>
<linearGradient id="paint59_linear_4171_4770" x1="47.5252" y1="62.3421" x2="57.1458" y2="21.0953" gradientUnits="userSpaceOnUse">
<stop stop-color="#A45CFF"/>
<stop offset="1" stop-color="#A45CFF" stop-opacity="0"/>
</linearGradient>
<linearGradient id="paint60_linear_4171_4770" x1="264.491" y1="292.364" x2="262.757" y2="283.366" gradientUnits="userSpaceOnUse">
<stop stop-color="white"/>
<stop offset="1" stop-color="white" stop-opacity="0"/>
</linearGradient>
<linearGradient id="paint61_linear_4171_4770" x1="264.491" y1="292.364" x2="264.425" y2="285.713" gradientUnits="userSpaceOnUse">
<stop stop-color="#A45CFF"/>
<stop offset="1" stop-color="#A45CFF" stop-opacity="0"/>
</linearGradient>
<linearGradient id="paint62_linear_4171_4770" x1="56.0446" y1="59.4099" x2="57.3318" y2="51.9969" gradientUnits="userSpaceOnUse">
<stop stop-color="#A45CFF"/>
<stop offset="1" stop-color="#A45CFF" stop-opacity="0"/>
</linearGradient>
<linearGradient id="paint63_linear_4171_4770" x1="55.912" y1="62.7415" x2="57.9377" y2="48.4247" gradientUnits="userSpaceOnUse">
<stop stop-color="#A45CFF"/>
<stop offset="1" stop-color="#A45CFF" stop-opacity="0"/>
</linearGradient>
<linearGradient id="paint64_linear_4171_4770" x1="47.5252" y1="62.3421" x2="52.7788" y2="46.9238" gradientUnits="userSpaceOnUse">
<stop stop-color="#A45CFF"/>
<stop offset="1" stop-color="#A45CFF" stop-opacity="0"/>
</linearGradient>
<linearGradient id="paint65_linear_4171_4770" x1="264.505" y1="292.364" x2="263.534" y2="285.976" gradientUnits="userSpaceOnUse">
<stop stop-color="white"/>
<stop offset="1" stop-color="white" stop-opacity="0"/>
</linearGradient>
<linearGradient id="paint66_linear_4171_4770" x1="264.505" y1="292.364" x2="264.438" y2="285.713" gradientUnits="userSpaceOnUse">
<stop stop-color="#8220FE"/>
<stop offset="1" stop-color="#A45CFF" stop-opacity="0"/>
</linearGradient>
<linearGradient id="paint67_linear_4171_4770" x1="56.0446" y1="59.4099" x2="57.0151" y2="53.0221" gradientUnits="userSpaceOnUse">
<stop stop-color="#8220FE"/>
<stop offset="1" stop-color="#A45CFF" stop-opacity="0"/>
</linearGradient>
<linearGradient id="paint68_linear_4171_4770" x1="55.912" y1="62.7415" x2="58.1734" y2="51.0607" gradientUnits="userSpaceOnUse">
<stop stop-color="#8220FE"/>
<stop offset="1" stop-color="#A45CFF" stop-opacity="0"/>
</linearGradient>
<linearGradient id="paint69_linear_4171_4770" x1="47.5252" y1="62.3421" x2="51.1602" y2="51.1018" gradientUnits="userSpaceOnUse">
<stop stop-color="#8220FE"/>
<stop offset="1" stop-color="#A45CFF" stop-opacity="0"/>
</linearGradient>
<linearGradient id="paint70_linear_4171_4770" x1="258.634" y1="296.893" x2="262.789" y2="283.13" gradientUnits="userSpaceOnUse">
<stop stop-color="white"/>
<stop offset="0.46875" stop-color="white" stop-opacity="0.391892"/>
<stop offset="0.739182" stop-color="#5C5CFF" stop-opacity="0"/>
</linearGradient>
<linearGradient id="paint71_linear_4171_4770" x1="258.634" y1="296.893" x2="268.286" y2="273.687" gradientUnits="userSpaceOnUse">
<stop stop-color="#5C5CFF"/>
<stop offset="0.46875" stop-color="#5C5CFF" stop-opacity="0.391892"/>
<stop offset="0.739182" stop-color="#5C5CFF" stop-opacity="0"/>
</linearGradient>
<linearGradient id="paint72_linear_4171_4770" x1="258.634" y1="296.893" x2="271.734" y2="267.738" gradientUnits="userSpaceOnUse">
<stop stop-color="#5C5CFF"/>
<stop offset="0.46875" stop-color="#5C5CFF" stop-opacity="0.391892"/>
<stop offset="0.739182" stop-color="#5C5CFF" stop-opacity="0"/>
</linearGradient>
<linearGradient id="paint73_linear_4171_4770" x1="254.64" y1="303.283" x2="265.184" y2="271.508" gradientUnits="userSpaceOnUse">
<stop stop-color="#5C5CFF"/>
<stop offset="0.46875" stop-color="#5C5CFF" stop-opacity="0.391892"/>
<stop offset="0.739182" stop-color="#5C5CFF" stop-opacity="0"/>
</linearGradient>
<linearGradient id="paint74_linear_4171_4770" x1="245.055" y1="306.079" x2="253.788" y2="286.642" gradientUnits="userSpaceOnUse">
<stop stop-color="#5C5CFF"/>
<stop offset="0.46875" stop-color="#5C5CFF" stop-opacity="0.391892"/>
<stop offset="0.739182" stop-color="#5C5CFF" stop-opacity="0"/>
</linearGradient>
<linearGradient id="paint75_linear_4171_4770" x1="258.634" y1="296.893" x2="259.847" y2="290.242" gradientUnits="userSpaceOnUse">
<stop stop-color="white"/>
<stop offset="0.46875" stop-color="white" stop-opacity="0.391892"/>
<stop offset="0.739182" stop-color="#5C5CFF" stop-opacity="0"/>
</linearGradient>
<linearGradient id="paint76_linear_4171_4770" x1="258.634" y1="296.893" x2="264.036" y2="281.264" gradientUnits="userSpaceOnUse">
<stop stop-color="#5C5CFF"/>
<stop offset="0.46875" stop-color="#5C5CFF" stop-opacity="0.391892"/>
<stop offset="0.739182" stop-color="#5C5CFF" stop-opacity="0"/>
</linearGradient>
<linearGradient id="paint77_linear_4171_4770" x1="258.634" y1="296.893" x2="263.437" y2="279.618" gradientUnits="userSpaceOnUse">
<stop stop-color="#5C5CFF"/>
<stop offset="0.46875" stop-color="#5C5CFF" stop-opacity="0.391892"/>
<stop offset="0.739182" stop-color="#5C5CFF" stop-opacity="0"/>
</linearGradient>
<linearGradient id="paint78_linear_4171_4770" x1="254.64" y1="303.283" x2="260.678" y2="280.919" gradientUnits="userSpaceOnUse">
<stop stop-color="#5C5CFF"/>
<stop offset="0.46875" stop-color="#5C5CFF" stop-opacity="0.391892"/>
<stop offset="0.739182" stop-color="#5C5CFF" stop-opacity="0"/>
</linearGradient>
<linearGradient id="paint79_linear_4171_4770" x1="245.055" y1="306.079" x2="251.99" y2="290.638" gradientUnits="userSpaceOnUse">
<stop stop-color="#5C5CFF"/>
<stop offset="0.46875" stop-color="#5C5CFF" stop-opacity="0.391892"/>
<stop offset="0.739182" stop-color="#5C5CFF" stop-opacity="0"/>
</linearGradient>
<clipPath id="clip0_4171_4770">
<rect width="140" height="97" fill="white" transform="translate(194 216)"/>
</clipPath>
</defs>
</svg>
