<svg width="112" height="103" viewBox="0 0 112 103" fill="none" xmlns="http://www.w3.org/2000/svg">
<path d="M105.561 1L62.5889 32.8014L70.5799 14.0598L105.561 1Z" fill="#E17726" stroke="#E17726" stroke-width="0.25" stroke-linecap="round" stroke-linejoin="round"/>
<path d="M6.44043 1L49.0298 33.0982L41.4216 14.0598L6.44043 1Z" fill="#E27625" stroke="#E27625" stroke-width="0.25" stroke-linecap="round" stroke-linejoin="round"/>
<path d="M90.0869 74.7366L78.6533 92.2062L103.136 98.9482L110.149 75.1185L90.0869 74.7366Z" fill="#E27625" stroke="#E27625" stroke-width="0.25" stroke-linecap="round" stroke-linejoin="round"/>
<path d="M1.8916 75.1185L8.86228 98.9482L33.3024 92.2062L21.9111 74.7366L1.8916 75.1185Z" fill="#E27625" stroke="#E27625" stroke-width="0.25" stroke-linecap="round" stroke-linejoin="round"/>
<path d="M31.9842 45.2251L25.1836 55.4865L49.411 56.5889L48.6035 30.5118L31.9842 45.2251Z" fill="#E27625" stroke="#E27625" stroke-width="0.25" stroke-linecap="round" stroke-linejoin="round"/>
<path d="M80.0144 45.2255L63.1405 30.2152L62.5879 56.5893L86.8152 55.4868L80.0144 45.2255Z" fill="#E27625" stroke="#E27625" stroke-width="0.25" stroke-linecap="round" stroke-linejoin="round"/>
<path d="M33.3018 92.2062L47.9656 85.1252L35.342 75.288L33.3018 92.2062Z" fill="#E27625" stroke="#E27625" stroke-width="0.25" stroke-linecap="round" stroke-linejoin="round"/>
<path d="M64.0332 85.1252L78.6545 92.2062L76.6567 75.288L64.0332 85.1252Z" fill="#E27625" stroke="#E27625" stroke-width="0.25" stroke-linecap="round" stroke-linejoin="round"/>
<path d="M78.6545 92.2069L64.0332 85.1259L65.2232 94.6238L65.0956 98.652L78.6545 92.2069Z" fill="#D5BFB2" stroke="#D5BFB2" stroke-width="0.25" stroke-linecap="round" stroke-linejoin="round"/>
<path d="M33.3018 92.2069L46.9032 98.652L46.8182 94.6238L47.9656 85.1259L33.3018 92.2069Z" fill="#D5BFB2" stroke="#D5BFB2" stroke-width="0.25" stroke-linecap="round" stroke-linejoin="round"/>
<path d="M47.1593 69.0126L35.0029 65.451L43.5888 61.5075L47.1593 69.0126Z" fill="#233447" stroke="#233447" stroke-width="0.25" stroke-linecap="round" stroke-linejoin="round"/>
<path d="M64.8408 69.0126L68.4113 61.5075L77.0397 65.451L64.8408 69.0126Z" fill="#233447" stroke="#233447" stroke-width="0.25" stroke-linecap="round" stroke-linejoin="round"/>
<path d="M33.3032 92.2062L35.4285 74.7366L21.9121 75.1185L33.3032 92.2062Z" fill="#CC6228" stroke="#CC6228" stroke-width="0.25" stroke-linecap="round" stroke-linejoin="round"/>
<path d="M76.5713 74.7366L78.6541 92.2062L90.0877 75.1185L76.5713 74.7366Z" fill="#CC6228" stroke="#CC6228" stroke-width="0.25" stroke-linecap="round" stroke-linejoin="round"/>
<path d="M86.8152 55.4861L62.5879 56.5886L64.8405 69.0126L68.411 61.5072L77.0394 65.4507L86.8152 55.4861Z" fill="#CC6228" stroke="#CC6228" stroke-width="0.25" stroke-linecap="round" stroke-linejoin="round"/>
<path d="M35.0021 65.4507L43.5879 61.5072L47.1584 69.0126L49.411 56.5886L25.1836 55.4861L35.0021 65.4507Z" fill="#CC6228" stroke="#CC6228" stroke-width="0.25" stroke-linecap="round" stroke-linejoin="round"/>
<path d="M25.1865 55.4861L35.3451 75.288L35.0049 65.4507L25.1865 55.4861Z" fill="#E27525" stroke="#E27525" stroke-width="0.25" stroke-linecap="round" stroke-linejoin="round"/>
<path d="M77.0387 65.4507L76.6562 75.288L86.8148 55.4861L77.0387 65.4507Z" fill="#E27525" stroke="#E27525" stroke-width="0.25" stroke-linecap="round" stroke-linejoin="round"/>
<path d="M49.4131 56.5886L47.1602 69.0126L50.0079 83.6834L50.6456 64.3483L49.4131 56.5886Z" fill="#E27525" stroke="#E27525" stroke-width="0.25" stroke-linecap="round" stroke-linejoin="round"/>
<path d="M62.5887 56.5886L61.3984 64.306L61.9936 83.6834L64.8413 69.0126L62.5887 56.5886Z" fill="#E27525" stroke="#E27525" stroke-width="0.25" stroke-linecap="round" stroke-linejoin="round"/>
<path d="M64.8409 69.013L61.9932 83.6838L64.0335 85.1256L76.6573 75.2883L77.0398 65.451L64.8409 69.013Z" fill="#F5841F" stroke="#F5841F" stroke-width="0.25" stroke-linecap="round" stroke-linejoin="round"/>
<path d="M35.0029 65.451L35.3432 75.2883L47.9667 85.1256L50.007 83.6838L47.1593 69.013L35.0029 65.451Z" fill="#F5841F" stroke="#F5841F" stroke-width="0.25" stroke-linecap="round" stroke-linejoin="round"/>
<path d="M65.095 98.6517L65.2223 94.6235L64.1174 93.6905H47.8808L46.8182 94.6235L46.9032 98.6517L33.3018 92.2065L38.0622 96.1075L47.7107 102.765H64.2447L73.9357 96.1075L78.6536 92.2065L65.095 98.6517Z" fill="#C0AC9D" stroke="#C0AC9D" stroke-width="0.25" stroke-linecap="round" stroke-linejoin="round"/>
<path d="M64.0345 85.1252L61.9942 83.6837H50.008L47.9681 85.1252L46.8203 94.6235L47.883 93.6905H64.1196L65.2248 94.6235L64.0345 85.1252Z" fill="#161616" stroke="#161616" stroke-width="0.25" stroke-linecap="round" stroke-linejoin="round"/>
<path d="M107.387 34.879L111 17.3247L105.56 1L64.0332 31.7415L80.0146 45.2251L102.584 51.7976L107.557 45.9886L105.39 44.4195L108.832 41.282L106.197 39.2466L109.64 36.6176L107.387 34.879Z" fill="#763E1A" stroke="#763E1A" stroke-width="0.25" stroke-linecap="round" stroke-linejoin="round"/>
<path d="M1 17.3247L4.65537 34.879L2.31765 36.6176L5.80298 39.2466L3.16772 41.282L6.61056 44.4195L4.44284 45.9886L9.41586 51.7976L31.9858 45.2251L47.9672 31.7415L6.44056 1L1 17.3247Z" fill="#763E1A" stroke="#763E1A" stroke-width="0.25" stroke-linecap="round" stroke-linejoin="round"/>
<path d="M102.584 51.7972L80.0141 45.2251L86.8148 55.4864L76.6562 75.2879L90.0876 75.1184H110.15L102.584 51.7972Z" fill="#F5841F" stroke="#F5841F" stroke-width="0.25" stroke-linecap="round" stroke-linejoin="round"/>
<path d="M31.9845 45.2251L9.41485 51.7972L1.8916 75.1184H21.9111L35.3423 75.2879L25.184 55.4864L31.9845 45.2251Z" fill="#F5841F" stroke="#F5841F" stroke-width="0.25" stroke-linecap="round" stroke-linejoin="round"/>
<path d="M62.5881 56.5889L64.0332 31.7412L70.5787 14.0597H41.4209L47.9664 31.7412L49.4116 56.5889L49.9642 64.3908L50.0067 83.6838H61.9929L62.0355 64.3908L62.5881 56.5889Z" fill="#F5841F" stroke="#F5841F" stroke-width="0.25" stroke-linecap="round" stroke-linejoin="round"/>
</svg>
