<svg width="1156" height="1241" viewBox="0 0 1156 1241" fill="none" xmlns="http://www.w3.org/2000/svg">
<path d="M887.396 738.52C815.84 792.706 727.475 815.786 638.572 803.514C549.668 791.242 470.869 745.086 416.691 673.541C362.518 602.002 339.453 513.64 351.742 424.739C364.031 335.838 410.203 257.04 481.76 202.853C553.316 148.667 641.68 125.587 730.584 137.859C819.487 150.131 898.282 196.291 952.455 267.831C1006.63 339.37 1029.69 427.731 1017.41 516.628C1005.12 605.535 958.947 684.337 887.396 738.52ZM483.328 204.925C412.326 258.691 366.508 336.881 354.319 425.091C342.124 513.306 365.015 600.976 418.772 671.966C472.525 742.95 550.716 788.752 638.928 800.933C727.139 813.115 814.827 790.205 885.824 736.443C956.82 682.68 1002.64 604.487 1014.83 516.276C1027.03 428.062 1004.14 340.392 950.38 269.402C896.622 198.413 818.436 152.616 730.224 140.434C642.012 128.262 554.325 151.162 483.328 204.925Z" fill="url(#paint0_linear_4210_1553)"/>
<path d="M882.322 731.819C812.556 784.65 726.399 807.156 639.72 795.187C553.04 783.218 476.214 738.22 423.393 668.467C370.572 598.713 348.081 512.57 360.065 425.887C372.043 339.209 417.064 262.38 486.83 209.549C556.596 156.718 642.753 134.212 729.433 146.181C816.112 158.15 892.938 203.148 945.759 272.901C998.58 342.654 1021.07 428.802 1009.09 515.481C997.104 602.163 952.083 678.992 882.322 731.819ZM488.402 211.625C419.191 264.036 374.529 340.253 362.645 426.244C350.762 512.236 373.072 597.702 425.468 666.895C477.865 736.088 554.081 780.741 640.074 792.615C726.063 804.484 811.537 782.163 880.749 729.752C949.96 677.341 994.622 601.124 1006.51 515.133C1018.39 429.147 996.083 343.68 943.682 274.482C891.282 205.284 815.064 160.64 729.076 148.771C643.088 136.893 557.609 159.219 488.402 211.625Z" fill="url(#paint1_linear_4210_1553)"/>
<path d="M877.248 725.118C809.272 776.594 725.328 798.522 640.871 786.865C556.414 775.208 481.563 731.359 430.098 663.397C378.634 595.435 356.724 511.496 368.395 427.045C380.071 342.591 423.936 267.735 491.912 216.26C559.887 164.785 643.832 142.856 728.289 154.513C812.746 166.17 887.597 210.02 939.061 277.981C990.526 345.943 1012.44 429.879 1000.76 514.333C989.083 598.791 945.219 673.647 877.248 725.118ZM493.476 218.326C426.055 269.381 382.549 343.624 370.968 427.392C359.391 511.155 381.125 594.413 432.17 661.82C483.214 729.227 557.462 772.719 641.227 784.284C724.992 795.85 808.254 774.097 875.675 723.042C943.097 671.986 986.598 597.738 998.184 513.976C1009.76 430.212 988.026 346.954 936.982 279.547C885.938 212.141 811.69 168.649 727.925 157.083C644.159 145.527 560.892 167.275 493.476 218.326Z" fill="url(#paint2_linear_4210_1553)"/>
<path d="M872.174 718.418C805.989 768.537 724.257 789.887 642.024 778.534C559.79 767.18 486.913 724.489 436.801 658.313C386.689 592.137 365.353 510.415 376.719 428.184C388.084 345.952 430.797 273.065 496.978 222.95C563.163 172.83 644.895 151.48 727.128 162.834C809.361 174.187 882.239 216.879 932.351 283.055C982.463 349.23 1003.79 430.956 992.433 513.184C981.068 595.416 938.354 668.303 872.174 718.418ZM498.55 225.026C432.919 274.726 390.569 347.005 379.294 428.545C368.019 510.084 389.183 591.13 438.871 656.745C488.559 722.361 560.837 764.7 642.374 775.957C723.917 787.21 804.97 766.041 870.602 716.341C936.233 666.642 978.583 594.362 989.858 512.823C1001.13 431.283 979.968 350.238 930.281 284.622C880.593 219.007 808.315 176.668 726.778 165.411C645.23 154.162 564.176 175.331 498.55 225.026Z" fill="url(#paint3_linear_4210_1553)"/>
<path d="M867.1 711.718C802.705 760.481 723.177 781.252 643.171 770.207C563.166 759.162 492.253 717.627 443.497 653.242C394.742 588.858 373.982 509.344 385.045 429.337C396.104 349.333 437.656 278.414 502.052 229.65C566.447 180.887 645.975 160.116 725.98 171.161C805.986 182.206 876.899 223.742 925.655 288.126C974.41 352.51 995.165 432.028 984.107 512.031C973.047 592.044 931.49 662.958 867.1 711.718ZM503.624 231.727C439.783 280.071 398.589 350.377 387.626 429.694C376.662 509.011 397.242 587.847 445.577 651.676C493.912 715.505 564.216 756.687 643.535 767.637C722.854 778.587 801.695 757.995 865.536 709.651C929.376 661.308 970.571 591.001 981.534 511.685C992.498 432.368 971.918 353.532 923.583 289.702C875.248 225.873 804.944 184.692 725.625 173.742C646.306 162.792 567.46 183.387 503.624 231.727Z" fill="url(#paint4_linear_4210_1553)"/>
<path d="M862.026 705.017C799.421 752.425 722.106 772.617 644.323 761.885C566.536 751.147 497.598 710.76 450.199 648.167C402.8 585.575 382.62 508.265 393.368 430.484C404.12 352.699 444.52 283.759 507.126 236.351C569.731 188.942 647.046 168.75 724.829 179.483C802.616 190.221 871.554 230.607 918.953 293.2C966.352 355.793 986.532 433.102 975.784 510.883C965.032 588.669 924.626 657.613 862.026 705.017ZM508.698 238.427C446.648 285.416 406.605 353.752 395.948 430.841C385.295 507.935 405.296 584.558 452.274 646.596C499.253 708.634 567.588 748.663 644.679 759.304C721.774 769.951 798.403 749.928 860.454 702.94C922.504 655.952 962.547 587.615 973.204 510.526C983.856 433.432 963.856 356.81 916.878 294.772C869.899 232.734 801.564 192.705 724.473 182.063C647.377 171.426 570.744 191.443 508.698 238.427Z" fill="url(#paint5_linear_4210_1553)"/>
<path d="M856.952 698.317C796.137 744.369 721.035 763.983 645.476 753.554C569.916 743.125 502.948 703.89 456.905 643.089C410.863 582.288 391.259 507.186 401.699 431.633C412.145 356.076 451.385 289.104 512.2 243.051C573.015 196.999 648.117 177.385 723.676 187.814C799.235 198.243 866.204 237.478 912.246 298.279C958.289 359.08 977.898 434.178 967.453 509.735C957.011 585.297 917.762 652.268 856.952 698.317ZM513.772 245.128C453.512 290.761 414.625 357.124 404.274 431.994C393.924 506.865 413.353 581.275 458.98 641.527C504.606 701.778 570.963 740.644 645.83 750.982C720.703 761.317 795.123 741.878 855.384 696.245C915.644 650.613 954.531 584.249 964.881 509.379C975.232 434.509 955.802 360.098 910.18 299.852C864.558 239.605 798.197 200.734 723.326 190.391C648.448 180.061 574.027 199.5 513.772 245.128Z" fill="url(#paint6_linear_4210_1553)"/>
<path d="M851.878 691.616C730.032 783.885 555.854 759.843 463.602 638.018C371.349 516.193 395.427 342.021 517.274 249.752C639.12 157.483 813.298 181.525 905.55 303.35C997.803 425.174 973.719 599.351 851.878 691.616ZM518.846 251.828C398.146 343.23 374.293 515.768 465.681 636.452C557.069 757.135 729.613 780.951 850.313 689.55C971.014 598.149 994.867 425.61 903.479 304.927C812.09 184.243 639.547 160.427 518.846 251.828Z" fill="url(#paint7_linear_4210_1553)"/>
<path d="M846.804 684.915C728.654 774.385 559.755 751.069 470.303 632.943C380.852 514.818 404.198 345.922 522.348 256.452C640.497 166.983 809.397 190.299 898.849 308.424C988.299 426.559 964.954 595.446 846.804 684.915ZM523.92 258.529C406.911 347.135 383.796 514.393 472.383 631.377C560.97 748.361 728.236 771.451 845.24 682.849C962.243 594.247 985.364 426.985 896.777 310.001C808.19 193.017 640.924 169.927 523.92 258.529Z" fill="url(#paint8_linear_4210_1553)"/>
<path d="M841.734 678.22C727.281 764.891 563.663 742.306 477.009 627.874C390.354 513.442 412.973 349.828 527.426 263.158C641.879 176.488 805.497 199.072 892.151 313.504C978.806 427.936 956.187 591.55 841.734 678.22ZM528.994 265.23C415.682 351.036 393.294 513.012 479.084 626.302C564.874 739.593 726.853 761.955 840.165 676.149C953.478 590.342 975.866 428.367 890.076 315.076C804.286 201.786 642.301 179.427 528.994 265.23Z" fill="url(#paint9_linear_4210_1553)"/>
<path d="M836.66 671.52C725.898 755.395 567.567 733.537 483.71 622.799C399.853 512.061 421.738 353.734 532.5 269.859C643.261 185.983 801.593 207.841 885.45 318.579C969.307 429.317 947.417 587.649 836.66 671.52ZM534.068 271.93C424.453 354.937 402.793 511.631 485.786 621.227C568.778 730.824 725.476 752.455 835.092 669.448C944.707 586.441 966.367 429.747 883.374 320.151C800.382 210.554 643.684 188.923 534.068 271.93Z" fill="url(#paint10_linear_4210_1553)"/>
<path d="M831.586 664.819C724.521 745.895 571.472 724.769 490.412 617.724C409.351 510.68 430.509 357.635 537.574 276.559C644.639 195.483 797.688 216.609 878.748 323.654C959.808 430.698 938.646 583.747 831.586 664.819ZM539.142 278.63C433.223 358.838 412.291 510.25 492.487 616.153C572.683 722.056 724.098 742.956 830.017 662.748C935.937 582.54 956.869 431.128 876.673 325.225C796.477 219.322 645.061 198.422 539.142 278.63Z" fill="url(#paint11_linear_4210_1553)"/>
<path d="M826.512 658.119C723.144 736.395 575.376 716 497.113 612.65C418.85 509.299 439.279 361.536 542.648 283.26C646.016 204.983 793.788 225.383 872.047 328.729C950.306 432.074 929.881 579.842 826.512 658.119ZM544.212 285.326C441.984 362.739 421.786 508.864 499.184 611.073C576.583 713.282 722.717 733.451 824.939 656.042C927.167 578.629 947.366 432.504 869.967 330.295C792.569 228.086 646.435 207.917 544.212 285.326Z" fill="url(#paint12_linear_4210_1553)"/>
<path d="M821.438 651.418C721.766 726.895 579.276 707.227 503.814 607.575C428.349 507.918 448.044 365.441 547.722 289.96C647.399 214.479 789.883 234.152 865.345 333.803C940.802 433.459 921.11 575.941 821.438 651.418ZM549.286 292.026C450.755 366.64 431.288 507.488 505.886 605.998C580.483 704.508 721.334 723.955 819.865 649.341C918.397 574.728 937.863 433.88 863.266 335.37C788.668 236.859 647.812 217.417 549.286 292.026Z" fill="url(#paint13_linear_4210_1553)"/>
<path d="M816.364 644.718C720.384 717.399 583.181 698.458 510.516 602.5C437.851 506.542 456.815 369.342 552.796 296.661C648.776 223.979 785.979 242.92 858.644 338.878C931.309 434.836 912.339 572.04 816.364 644.718ZM554.36 298.727C459.526 370.541 440.787 506.107 512.587 600.923C584.388 695.74 719.957 714.455 814.791 642.641C909.626 570.827 928.365 435.261 856.564 340.444C784.764 245.628 649.195 226.913 554.36 298.727Z" fill="url(#paint14_linear_4210_1553)"/>
<path d="M811.29 638.017C719.006 707.9 587.085 689.69 517.213 597.42C447.342 505.151 465.578 373.233 557.862 303.351C650.145 233.468 782.067 251.678 851.938 343.948C921.81 436.217 903.574 568.135 811.29 638.017ZM559.434 305.427C468.296 374.442 450.285 504.726 519.289 595.849C588.292 686.971 718.579 704.955 809.717 635.94C900.861 566.922 918.866 436.642 849.863 345.519C780.86 254.396 650.572 236.413 559.434 305.427Z" fill="url(#paint15_linear_4210_1553)"/>
<path d="M806.216 631.317C717.629 698.4 590.989 680.921 523.915 592.345C456.84 503.77 474.348 377.134 562.936 310.051C651.523 242.968 778.162 260.446 845.237 349.022C912.311 437.598 894.803 564.233 806.216 631.317ZM564.508 312.128C477.062 378.347 459.784 503.345 525.99 590.774C592.196 678.203 717.202 695.455 804.643 629.24C892.09 563.02 909.368 438.023 843.161 350.594C776.955 263.165 651.95 245.912 564.508 312.128Z" fill="url(#paint16_linear_4210_1553)"/>
<path d="M801.142 624.616C716.246 688.904 594.89 672.147 530.616 587.271C466.343 502.394 483.114 381.039 568.01 316.752C652.906 252.464 774.262 269.22 838.536 354.097C902.813 438.979 886.033 560.332 801.142 624.616ZM569.582 318.828C485.833 382.248 469.287 501.969 532.692 585.699C596.101 669.434 715.82 685.959 799.57 622.539C883.319 559.119 899.865 439.398 836.46 355.668C773.055 271.938 653.332 255.408 569.582 318.828Z" fill="url(#paint17_linear_4210_1553)"/>
<path d="M796.068 617.916C714.869 679.404 598.794 663.379 537.318 582.196C475.841 501.013 491.885 384.941 573.084 323.452C654.283 261.964 770.358 277.989 831.834 359.172C893.31 440.355 877.262 556.431 796.068 617.916ZM574.656 325.529C494.603 386.15 478.785 500.588 539.393 580.624C600.005 660.666 714.442 676.46 794.495 615.839C874.549 555.218 890.367 440.78 829.759 360.743C769.151 280.707 654.71 264.908 574.656 325.529Z" fill="url(#paint18_linear_4210_1553)"/>
<path d="M790.994 611.215C713.492 669.904 602.699 654.611 544.019 577.121C485.34 499.632 500.655 388.842 578.158 330.153C655.66 271.463 766.453 286.757 825.133 364.246C883.812 441.736 868.497 552.526 790.994 611.215ZM579.73 332.229C503.369 390.055 488.284 499.207 546.099 575.555C603.914 651.903 713.069 666.965 789.425 609.144C865.787 551.318 880.872 442.166 823.061 365.823C765.246 289.475 656.087 274.408 579.73 332.229Z" fill="url(#paint19_linear_4210_1553)"/>
<path d="M785.92 604.514C712.114 660.404 606.603 645.842 550.721 572.046C494.839 498.251 509.426 392.743 583.232 336.853C657.038 280.963 762.549 295.526 818.431 369.321C874.313 443.117 859.726 548.624 785.92 604.514ZM584.804 338.93C512.139 393.956 497.782 497.826 552.8 570.48C607.814 643.129 711.69 657.475 784.355 602.448C857.021 547.422 871.377 443.552 816.36 370.898C761.342 298.244 657.464 283.908 584.804 338.93Z" fill="url(#paint20_linear_4210_1553)"/>
<path d="M780.846 597.814C710.731 650.909 610.507 637.073 557.422 566.972C504.337 496.87 518.191 396.648 588.306 343.554C658.42 290.459 758.645 304.294 811.73 374.396C864.815 444.498 850.955 544.723 780.846 597.814ZM589.878 345.63C520.91 397.857 507.281 496.445 559.502 565.405C611.722 634.366 710.313 647.975 779.281 595.748C848.25 543.521 861.879 444.933 809.658 375.973C757.438 307.012 658.847 293.403 589.878 345.63Z" fill="url(#paint21_linear_4210_1553)"/>
<path d="M775.776 591.119C709.358 641.414 614.412 628.305 564.128 561.903C513.844 495.5 526.966 400.555 593.384 350.26C659.802 299.964 754.748 313.073 805.032 379.476C855.316 445.879 842.194 540.824 775.776 591.119ZM594.952 352.331C529.68 401.759 516.784 495.07 566.203 560.331C615.623 625.592 708.935 638.475 774.207 589.047C839.479 539.62 852.376 446.309 802.957 381.048C753.533 315.781 660.224 302.903 594.952 352.331Z" fill="url(#paint22_linear_4210_1553)"/>
<path d="M770.702 584.418C707.981 631.914 618.316 619.537 570.829 556.828C523.342 494.119 535.736 404.456 598.458 356.96C661.179 309.464 750.844 321.842 798.33 384.551C845.817 447.26 833.423 536.922 770.702 584.418ZM600.026 359.032C538.446 405.664 526.282 493.689 572.904 555.256C619.527 616.824 707.558 628.975 769.133 582.347C830.714 535.715 842.878 447.69 796.255 386.122C749.633 324.555 661.602 312.403 600.026 359.032Z" fill="url(#paint23_linear_4210_1553)"/>
<path d="M765.628 577.718C706.598 622.419 622.22 610.768 577.531 551.753C532.841 492.738 544.507 408.357 603.532 363.661C662.562 318.96 746.94 330.61 791.629 389.625C836.319 448.641 824.653 533.021 765.628 577.718ZM605.1 365.732C547.216 409.565 535.781 492.308 579.606 550.181C623.431 608.055 706.175 619.479 764.059 575.646C821.943 531.813 833.379 449.071 789.554 391.197C745.728 333.323 662.984 321.899 605.1 365.732Z" fill="url(#paint24_linear_4210_1553)"/>
<path d="M760.554 571.017C705.221 612.919 626.125 602 584.232 546.678C542.339 491.357 553.272 412.263 608.606 370.361C663.939 328.46 743.035 339.379 784.928 394.7C826.82 450.022 815.882 529.12 760.554 571.017ZM610.17 372.427C555.983 413.461 545.275 490.921 586.303 545.101C627.332 599.281 704.794 609.974 758.981 568.941C813.169 527.907 823.876 450.447 782.848 396.266C741.82 342.086 664.358 331.394 610.17 372.427Z" fill="url(#paint25_linear_4210_1553)"/>
<path d="M755.48 564.317C703.843 603.419 630.029 593.231 590.934 541.603C551.838 489.976 562.043 416.164 613.68 377.062C665.317 337.959 739.131 348.147 778.226 399.775C817.318 451.397 807.117 525.214 755.48 564.317ZM615.244 379.128C564.748 417.366 554.774 489.54 593.005 540.026C631.236 590.513 703.417 600.474 753.907 562.24C804.403 524.002 814.383 451.824 776.152 401.337C737.92 350.86 665.735 340.893 615.244 379.128Z" fill="url(#paint26_linear_4210_1553)"/>
<path d="M750.406 557.616C702.466 593.919 633.93 584.458 597.635 536.529C561.341 488.6 570.81 420.06 618.75 383.757C666.69 347.454 735.226 356.916 771.525 404.85C807.823 452.784 798.346 521.313 750.406 557.616ZM620.318 385.828C573.519 421.268 564.276 488.165 599.706 534.952C635.137 581.739 702.039 590.975 748.833 555.54C795.633 520.1 804.881 453.199 769.451 406.412C734.021 359.625 667.113 350.393 620.318 385.828Z" fill="url(#paint27_linear_4210_1553)"/>
<path d="M745.332 550.916C701.083 584.423 637.834 575.689 604.332 531.449C570.831 487.208 579.576 423.956 623.82 390.452C668.068 356.944 731.318 365.679 764.819 409.919C798.32 454.159 789.575 517.412 745.332 550.916ZM625.392 392.529C582.29 425.169 573.77 486.787 606.403 529.881C639.036 572.975 700.651 581.483 743.759 548.839C786.862 516.199 795.382 454.58 762.749 411.487C730.111 368.397 668.495 359.889 625.392 392.529Z" fill="url(#paint28_linear_4210_1553)"/>
<path d="M740.258 544.215C699.706 574.924 641.738 566.921 611.034 526.374C580.33 485.827 588.342 427.861 628.894 397.153C669.446 366.444 727.414 374.447 758.118 414.994C788.822 455.54 780.805 513.511 740.258 544.215ZM630.466 399.229C591.06 429.07 583.274 485.403 613.109 524.802C642.945 564.202 699.279 571.979 738.685 542.139C778.091 512.298 785.884 455.961 756.048 416.561C726.207 377.166 669.873 369.389 630.466 399.229Z" fill="url(#paint29_linear_4210_1553)"/>
<path d="M735.184 537.515C698.329 565.424 645.643 558.152 617.736 521.299C589.833 484.452 597.113 431.762 633.968 403.853C670.823 375.944 723.509 383.216 751.416 420.069C779.324 456.921 772.04 509.606 735.184 537.515ZM635.541 405.93C599.826 432.975 592.767 484.026 619.806 519.732C646.844 555.438 697.897 562.483 733.611 535.438C769.326 508.393 776.385 457.342 749.346 421.636C722.302 385.934 671.25 378.889 635.541 405.93Z" fill="url(#paint30_linear_4210_1553)"/>
<path d="M730.11 530.814C696.946 555.928 649.543 549.378 624.437 516.224C599.331 483.07 605.883 435.663 639.042 410.553C672.206 385.44 719.609 391.989 744.715 425.143C769.821 458.297 763.269 505.704 730.11 530.814ZM640.615 412.63C608.596 436.876 602.266 482.644 626.507 514.657C650.749 546.669 696.519 552.983 728.537 528.737C760.555 504.491 766.886 458.723 742.645 426.711C718.398 394.702 672.633 388.384 640.615 412.63Z" fill="url(#paint31_linear_4210_1553)"/>
<path d="M725.036 524.114C695.569 546.428 653.447 540.61 631.138 511.15C608.83 481.69 614.648 439.569 644.116 417.254C673.583 394.94 715.705 400.758 738.014 430.218C760.326 459.683 754.498 501.803 725.036 524.114ZM645.689 419.331C617.367 440.777 611.768 481.269 633.209 509.582C654.649 537.895 695.137 543.488 723.463 522.037C751.785 500.59 757.384 460.099 735.943 431.786C714.503 403.472 674.01 397.884 645.689 419.331Z" fill="url(#paint32_linear_4210_1553)"/>
<path d="M719.962 517.413C694.191 536.928 657.352 531.841 637.84 506.075C618.328 480.309 623.419 443.47 649.19 423.955C674.961 404.439 711.8 409.526 731.312 435.293C750.824 461.059 745.733 497.898 719.962 517.413ZM650.762 426.031C626.132 444.683 621.267 479.888 639.914 504.513C658.561 529.138 693.767 533.998 718.397 515.347C743.027 496.695 747.893 461.49 729.246 436.865C710.593 412.245 675.387 407.384 650.762 426.031Z" fill="url(#paint33_linear_4210_1553)"/>
<path d="M714.888 510.713C692.814 527.429 661.256 523.073 644.541 501C627.827 478.928 632.19 447.371 654.264 430.655C676.338 413.939 707.896 418.295 724.61 440.368C741.325 462.44 736.962 493.997 714.888 510.713ZM655.836 432.732C634.903 448.584 630.765 478.507 646.616 499.438C662.466 520.369 692.39 524.499 713.323 508.647C734.257 492.795 738.395 462.872 722.544 441.94C706.689 421.013 676.765 416.884 655.836 432.732Z" fill="url(#paint34_linear_4210_1553)"/>
<path d="M709.818 504.017C691.435 517.938 665.164 514.31 651.247 495.931C637.329 477.552 640.964 451.278 659.342 437.361C677.725 423.441 703.995 427.069 717.913 445.448C731.831 463.826 728.195 490.101 709.818 504.017ZM660.911 439.433C643.674 452.485 640.264 477.126 653.317 494.363C666.37 511.601 691.012 514.999 708.249 501.946C725.486 488.893 728.896 464.253 715.843 447.015C702.79 429.778 678.147 426.38 660.911 439.433Z" fill="url(#paint35_linear_4210_1553)"/>
<path d="M704.744 497.317C690.058 508.438 669.065 505.536 657.948 490.856C646.828 476.171 649.73 455.183 664.416 444.061C679.102 432.94 700.095 435.842 711.211 450.522C722.328 465.202 719.425 486.199 704.744 497.317ZM665.984 446.133C652.444 456.386 649.766 475.75 660.018 489.288C670.27 502.827 689.63 505.503 703.175 495.245C716.715 484.992 719.393 465.628 709.141 452.09C698.88 438.55 679.525 435.879 665.984 446.133Z" fill="url(#paint36_linear_4210_1553)"/>
<path d="M673.517 1037.76C601.961 1091.94 513.596 1115.02 424.693 1102.75C335.789 1090.48 256.99 1044.32 202.816 972.784C148.643 901.245 125.578 812.884 137.867 723.982C150.156 635.081 196.334 556.279 267.885 502.097C339.435 447.914 427.805 424.83 516.709 437.102C605.612 449.374 684.407 495.535 738.58 567.074C792.754 638.613 815.818 726.974 803.534 815.872C791.245 904.773 745.068 983.575 673.517 1037.76ZM269.453 504.168C198.451 557.935 152.633 636.124 140.438 724.338C128.244 812.553 151.138 900.228 204.892 971.213C258.645 1042.2 336.836 1088 425.047 1100.18C513.264 1112.36 600.947 1089.45 671.949 1035.69C742.95 981.919 788.769 903.73 800.958 815.52C813.152 727.305 790.262 639.635 736.505 568.645C682.747 497.656 604.561 451.859 516.349 439.678C428.133 427.5 340.45 450.405 269.453 504.168Z" fill="url(#paint37_linear_4210_1553)"/>
<path d="M668.447 1031.06C598.681 1083.89 512.524 1106.4 425.845 1094.43C339.165 1082.46 262.339 1037.46 209.518 967.709C156.697 897.956 134.206 811.812 146.19 725.13C158.168 638.451 203.189 561.622 272.955 508.792C342.721 455.961 428.878 433.455 515.558 445.424C602.237 457.393 679.063 502.391 731.884 572.144C784.705 641.897 807.19 728.045 795.212 814.724C783.225 901.401 738.208 978.235 668.447 1031.06ZM274.527 510.868C205.316 563.279 160.654 639.496 148.77 725.487C136.887 811.479 159.193 896.94 211.593 966.138C263.994 1035.34 340.211 1079.98 426.2 1091.85C512.189 1103.72 597.663 1081.4 666.875 1028.99C736.086 976.574 780.748 900.358 792.632 814.366C804.519 728.38 782.21 642.914 729.809 573.716C677.408 504.518 601.191 459.873 515.202 448.005C429.209 436.13 343.734 458.461 274.527 510.868Z" fill="url(#paint38_linear_4210_1553)"/>
<path d="M663.373 1024.36C595.397 1075.84 511.453 1097.76 426.996 1086.11C342.535 1074.45 267.684 1030.6 216.219 962.635C164.755 894.673 142.84 810.737 154.516 726.283C166.192 641.828 210.057 566.973 278.033 515.497C346.008 464.022 429.953 442.094 514.405 453.755C598.862 465.412 673.713 509.261 725.177 577.223C776.642 645.185 798.557 729.12 786.881 813.575C775.204 898.029 731.344 972.89 663.373 1024.36ZM279.601 517.569C212.18 568.624 168.674 642.867 157.093 726.635C145.511 810.402 167.251 893.656 218.295 961.063C269.339 1028.47 343.587 1071.96 427.352 1083.53C511.117 1095.09 594.379 1073.34 661.801 1022.28C729.222 971.23 772.724 896.981 784.309 813.219C795.886 729.455 774.151 646.197 723.107 578.791C672.063 511.384 597.815 467.892 514.05 456.326C430.28 444.765 347.017 466.518 279.601 517.569Z" fill="url(#paint39_linear_4210_1553)"/>
<path d="M658.299 1017.66C592.114 1067.78 510.382 1089.13 428.149 1077.78C345.915 1066.42 273.038 1023.73 222.926 957.556C172.818 891.386 151.478 809.658 162.844 727.426C174.209 645.195 216.922 572.308 283.103 522.193C349.283 472.077 431.02 450.723 513.253 462.077C595.486 473.43 668.364 516.122 718.476 582.298C768.588 648.473 789.918 730.199 778.558 812.427C767.189 894.654 724.48 967.546 658.299 1017.66ZM284.675 524.269C219.044 573.969 176.694 646.248 165.419 727.788C154.144 809.327 175.309 890.373 224.996 955.988C274.684 1021.6 346.962 1063.94 428.499 1075.2C510.042 1086.45 591.095 1065.28 656.727 1015.58C722.358 965.885 764.708 893.605 775.983 812.066C787.258 730.526 766.093 649.481 716.406 583.865C666.718 518.25 594.44 475.911 512.903 464.654C431.351 453.399 350.301 474.574 284.675 524.269Z" fill="url(#paint40_linear_4210_1553)"/>
<path d="M653.225 1010.96C588.83 1059.72 509.302 1080.49 429.296 1069.45C349.291 1058.4 278.378 1016.87 229.622 952.485C180.867 888.101 160.107 808.587 171.17 728.58C182.229 648.576 223.781 577.657 288.177 528.893C352.572 480.129 432.1 459.359 512.106 470.404C592.111 481.449 663.024 522.984 711.78 587.369C760.535 651.753 781.29 731.271 770.232 811.274C759.168 891.282 717.615 962.201 653.225 1010.96ZM289.749 530.97C225.908 579.314 184.714 649.62 173.751 728.937C162.778 808.252 183.363 887.084 231.698 950.914C280.033 1014.74 350.337 1055.92 429.656 1066.87C508.975 1077.82 587.816 1057.23 651.657 1008.89C715.498 960.545 756.692 890.239 767.655 810.922C778.619 731.605 758.039 652.769 709.704 588.94C661.369 525.111 591.065 483.929 511.746 472.98C432.427 462.03 353.59 482.626 289.749 530.97Z" fill="url(#paint41_linear_4210_1553)"/>
<path d="M648.151 1004.26C585.546 1051.67 508.231 1071.86 430.448 1061.13C352.661 1050.39 283.722 1010 236.324 947.41C188.925 884.818 168.745 807.508 179.492 729.727C190.245 651.942 230.645 583.002 293.251 535.594C355.856 488.186 433.171 467.993 510.954 478.726C588.741 489.464 657.679 529.85 705.078 592.443C752.477 655.036 772.656 732.346 761.909 810.127C751.153 887.906 710.751 956.856 648.151 1004.26ZM294.823 537.67C232.773 584.659 192.73 652.996 182.073 730.084C171.415 807.183 191.42 883.801 238.399 945.839C285.378 1007.88 353.713 1047.91 430.804 1058.55C507.898 1069.19 584.528 1049.17 646.578 1002.18C708.629 955.195 748.672 886.858 759.329 809.769C769.981 732.675 749.981 656.053 703.003 594.015C656.024 531.977 587.693 491.953 510.598 481.307C433.498 470.664 356.874 490.682 294.823 537.67Z" fill="url(#paint42_linear_4210_1553)"/>
<path d="M643.077 997.559C582.262 1043.61 507.16 1063.23 431.601 1052.8C356.042 1042.37 289.073 1003.13 243.031 942.332C196.988 881.53 177.384 806.429 187.824 730.876C198.27 655.319 237.51 588.347 298.325 542.294C359.14 496.242 434.242 476.628 509.801 487.057C585.36 497.486 652.329 536.721 698.371 597.522C744.414 658.323 764.023 733.421 753.578 808.978C743.132 884.535 703.892 951.507 643.077 997.559ZM299.897 544.371C239.637 590.004 200.75 656.367 190.4 731.237C180.049 806.108 199.479 880.518 245.101 940.764C290.723 1001.01 357.084 1039.88 431.955 1050.23C506.828 1060.56 581.248 1041.12 641.509 995.488C701.769 949.855 740.656 883.492 751.006 808.622C761.357 733.752 741.927 659.341 696.301 599.09C650.675 538.838 584.318 499.972 509.447 489.629C434.574 479.294 360.158 498.738 299.897 544.371Z" fill="url(#paint43_linear_4210_1553)"/>
<path d="M638.003 990.859C516.157 1083.13 341.979 1059.09 249.727 937.261C157.474 815.436 181.552 641.264 303.399 548.995C425.245 456.726 599.423 480.768 691.675 602.593C783.928 724.417 759.844 898.594 638.003 990.859ZM304.967 551.066C184.262 642.471 160.418 815.011 251.802 935.689C343.186 1056.37 515.734 1080.19 636.435 988.787C757.135 897.386 780.988 724.847 689.6 604.164C598.212 483.481 425.668 459.665 304.967 551.066Z" fill="url(#paint44_linear_4210_1553)"/>
<path d="M632.929 984.158C514.78 1073.63 345.88 1050.31 256.428 932.186C166.977 814.061 190.323 645.165 308.473 555.695C426.622 466.226 595.522 489.542 684.974 607.667C774.425 725.793 751.079 894.689 632.929 984.158ZM310.041 557.767C193.032 646.373 169.917 813.631 258.504 930.615C347.091 1047.6 514.357 1070.69 631.361 982.087C748.364 893.485 771.485 726.223 682.898 609.239C594.311 492.255 427.045 469.165 310.041 557.767Z" fill="url(#paint45_linear_4210_1553)"/>
<path d="M627.855 977.458C513.402 1064.13 349.784 1041.54 263.129 927.112C176.475 812.68 199.093 649.066 313.546 562.396C428 475.726 591.618 498.31 678.272 612.742C764.926 727.174 742.308 890.788 627.855 977.458ZM315.115 564.467C201.803 650.274 179.415 812.25 265.205 925.54C350.995 1038.83 512.974 1061.19 626.286 975.387C739.599 889.58 761.987 727.604 676.197 614.314C590.407 501.023 428.422 478.665 315.115 564.467Z" fill="url(#paint46_linear_4210_1553)"/>
<path d="M622.781 970.757C512.019 1054.63 353.688 1032.77 269.831 922.037C185.974 811.299 207.859 652.971 318.621 569.096C429.382 485.221 587.713 507.079 671.571 617.817C755.428 728.555 733.537 886.886 622.781 970.757ZM320.189 571.168C210.573 654.175 188.913 810.868 271.906 920.465C354.899 1030.06 511.597 1051.69 621.212 968.686C730.828 885.679 752.488 728.985 669.495 619.388C586.502 509.792 429.805 488.161 320.189 571.168Z" fill="url(#paint47_linear_4210_1553)"/>
<path d="M617.707 964.057C510.642 1045.13 357.593 1024.01 276.533 916.962C195.472 809.918 216.63 656.873 323.695 575.797C430.76 494.721 583.809 515.847 664.869 622.892C745.929 729.936 724.772 882.981 617.707 964.057ZM325.263 577.868C219.344 658.076 198.412 809.488 278.608 915.391C358.804 1021.29 510.219 1042.19 616.139 961.986C722.058 881.778 742.99 730.366 662.794 624.463C582.598 518.56 431.182 497.66 325.263 577.868Z" fill="url(#paint48_linear_4210_1553)"/>
<path d="M612.633 957.356C509.265 1035.63 361.497 1015.24 283.234 911.887C204.971 808.537 225.4 660.774 328.769 582.497C432.137 504.221 579.905 524.616 658.168 627.966C736.431 731.317 716.002 879.08 612.633 957.356ZM330.337 584.569C228.109 661.981 207.911 808.106 285.309 910.316C362.708 1012.52 508.842 1032.69 611.064 955.285C713.292 877.872 733.491 731.747 656.092 629.538C578.694 527.329 432.56 507.16 330.337 584.569Z" fill="url(#paint49_linear_4210_1553)"/>
<path d="M607.559 950.656C507.887 1026.13 365.397 1006.46 289.936 906.813C214.47 807.156 234.166 664.679 333.843 589.198C433.52 513.717 576.005 533.389 651.466 633.041C726.932 732.698 707.231 875.179 607.559 950.656ZM335.411 591.269C236.88 665.883 217.413 806.731 292.011 905.241C366.609 1003.75 507.459 1023.2 605.991 948.584C704.522 873.971 723.989 733.123 649.391 634.613C574.794 536.102 433.943 516.656 335.411 591.269Z" fill="url(#paint50_linear_4210_1553)"/>
<path d="M602.489 943.961C506.509 1016.64 369.306 997.701 296.641 901.743C223.976 805.785 242.94 668.586 338.921 595.904C434.901 523.222 572.104 542.163 644.769 638.121C717.434 734.079 698.464 871.283 602.489 943.961ZM340.485 597.97C245.651 669.784 226.912 805.35 298.712 900.166C370.513 994.983 506.082 1013.7 600.916 941.884C695.751 870.07 714.49 734.504 642.689 639.687C570.889 544.871 435.32 526.156 340.485 597.97Z" fill="url(#paint51_linear_4210_1553)"/>
<path d="M597.415 937.26C505.131 1007.14 373.21 988.933 303.338 896.663C233.467 804.394 251.703 672.476 343.987 602.594C436.271 532.711 568.192 550.921 638.063 643.191C707.935 735.46 689.699 867.378 597.415 937.26ZM345.559 604.671C254.421 673.685 236.411 803.969 305.414 895.092C374.417 986.214 504.705 1004.2 595.842 935.184C686.986 866.165 704.991 735.885 635.988 644.762C566.985 553.64 436.697 535.656 345.559 604.671Z" fill="url(#paint52_linear_4210_1553)"/>
<path d="M592.341 930.56C503.754 997.643 377.114 980.164 310.04 891.589C242.965 803.013 260.473 676.377 349.061 609.294C437.648 542.211 564.291 559.695 631.362 648.265C698.432 736.836 680.928 863.477 592.341 930.56ZM350.633 611.371C263.187 677.59 245.909 802.588 312.115 890.017C378.321 977.446 503.327 994.698 590.768 928.483C678.215 862.264 695.493 737.266 629.286 649.837C563.08 562.408 438.075 545.156 350.633 611.371Z" fill="url(#paint53_linear_4210_1553)"/>
<path d="M587.267 923.859C502.371 988.147 381.015 971.39 316.741 886.514C252.468 801.637 269.239 680.283 354.135 615.995C439.031 551.707 560.387 568.463 624.661 653.34C688.934 738.217 672.158 859.575 587.267 923.859ZM355.707 618.071C271.958 681.492 255.412 801.212 318.817 884.942C382.226 968.677 501.945 985.202 585.694 921.782C669.444 858.362 685.99 738.642 622.585 654.912C559.176 571.176 439.457 554.651 355.707 618.071Z" fill="url(#paint54_linear_4210_1553)"/>
<path d="M582.193 917.158C500.994 978.647 384.919 962.622 323.443 881.439C261.966 800.256 278.01 684.184 359.209 622.695C440.408 561.207 556.483 577.232 617.959 658.415C679.435 739.598 663.392 855.67 582.193 917.158ZM360.781 624.772C280.728 685.393 264.91 799.831 325.518 879.867C386.13 959.909 500.567 975.703 580.62 915.082C660.674 854.461 676.492 740.023 615.884 659.986C555.272 579.945 440.835 564.151 360.781 624.772Z" fill="url(#paint55_linear_4210_1553)"/>
<path d="M577.119 910.458C499.617 969.147 388.824 953.853 330.144 876.364C271.465 798.875 286.78 688.085 364.283 629.396C441.785 570.706 552.578 586 611.258 663.489C669.937 740.979 654.622 851.769 577.119 910.458ZM365.855 631.472C289.494 689.298 274.409 798.45 332.224 874.798C390.039 951.146 499.194 966.208 575.55 908.386C651.912 850.561 666.997 741.409 609.186 665.066C551.367 588.713 442.212 573.651 365.855 631.472Z" fill="url(#paint56_linear_4210_1553)"/>
<path d="M572.045 903.757C498.239 959.647 392.728 945.085 336.846 871.289C280.964 797.494 295.545 691.99 369.357 636.096C443.163 580.206 548.674 594.769 604.556 668.564C660.438 742.36 645.851 847.867 572.045 903.757ZM370.925 638.168C298.26 693.194 283.903 797.064 338.921 869.718C393.935 942.367 497.811 956.712 570.476 901.686C643.142 846.66 657.498 742.79 602.481 670.136C547.467 597.487 443.591 583.141 370.925 638.168Z" fill="url(#paint57_linear_4210_1553)"/>
<path d="M566.971 897.057C496.856 950.152 396.632 936.317 343.547 866.215C290.462 796.113 304.316 695.892 374.431 642.797C444.545 589.702 544.77 603.537 597.855 673.639C650.94 743.741 637.08 843.966 566.971 897.057ZM375.999 644.868C307.031 697.095 293.402 795.683 345.623 864.643C397.843 933.604 496.434 947.213 565.402 894.986C634.371 842.759 648 744.171 595.779 675.211C543.558 606.25 444.968 592.641 375.999 644.868Z" fill="url(#paint58_linear_4210_1553)"/>
<path d="M561.897 890.357C495.479 940.652 400.533 927.543 350.249 861.14C299.965 794.737 313.087 699.793 379.505 649.497C445.923 599.202 540.869 612.311 591.153 678.714C641.437 745.116 628.315 840.061 561.897 890.357ZM381.073 651.569C315.801 700.996 302.904 794.307 352.324 859.569C401.744 924.83 495.056 937.713 560.328 888.285C625.6 838.857 638.497 745.547 589.078 680.285C539.658 615.024 446.345 602.141 381.073 651.569Z" fill="url(#paint59_linear_4210_1553)"/>
<path d="M556.823 883.656C494.102 931.152 404.437 918.774 356.95 856.065C309.463 793.356 321.858 703.694 384.579 656.198C447.3 608.702 536.965 621.079 584.452 683.788C631.938 746.497 619.544 836.16 556.823 883.656ZM386.147 658.269C324.567 704.902 312.403 792.926 359.026 854.494C405.648 916.061 493.679 928.213 555.254 881.584C616.83 834.956 628.999 746.928 582.376 685.36C535.754 623.792 447.723 611.641 386.147 658.269Z" fill="url(#paint60_linear_4210_1553)"/>
<path d="M551.749 876.956C492.724 921.652 408.341 910.006 363.652 850.991C318.962 791.975 330.628 707.595 389.653 662.898C448.683 618.198 533.06 629.848 577.75 688.863C622.44 747.878 610.774 832.259 551.749 876.956ZM391.221 664.97C333.337 708.803 321.902 791.545 365.727 849.419C409.552 907.293 492.296 918.717 550.18 874.884C608.064 831.051 619.5 748.309 575.675 690.435C531.849 632.561 449.105 621.137 391.221 664.97Z" fill="url(#paint61_linear_4210_1553)"/>
<path d="M546.675 870.255C491.342 912.157 412.246 901.237 370.353 845.916C328.461 790.594 339.393 711.5 394.727 669.599C450.06 627.697 529.156 638.616 571.049 693.938C612.941 749.259 602.003 828.357 546.675 870.255ZM396.295 671.67C342.108 712.704 331.4 790.164 372.429 844.344C413.457 898.524 490.919 909.217 545.106 868.184C599.294 827.15 610.002 749.69 568.973 695.51C527.945 641.329 450.483 630.637 396.295 671.67Z" fill="url(#paint62_linear_4210_1553)"/>
<path d="M541.601 863.554C489.964 902.657 416.15 892.469 377.055 840.841C337.959 789.213 348.164 715.402 399.801 676.299C451.438 637.197 525.252 647.385 564.347 699.013C603.443 750.64 593.238 824.452 541.601 863.554ZM401.369 678.371C350.873 716.609 340.899 788.783 379.13 839.27C417.361 889.756 489.542 899.717 540.032 861.483C590.523 823.249 600.503 751.071 562.272 700.584C524.041 650.098 451.86 640.136 401.369 678.371Z" fill="url(#paint63_linear_4210_1553)"/>
<path d="M536.531 856.859C488.591 893.162 420.054 883.7 383.76 835.772C347.466 787.843 356.935 719.303 404.875 683C452.815 646.697 521.351 656.159 557.65 704.093C593.948 752.027 584.471 820.556 536.531 856.859ZM406.443 685.071C359.644 720.51 350.401 787.407 385.831 834.195C421.261 880.982 488.164 890.218 534.958 854.782C581.758 819.343 591.006 752.442 555.576 705.655C520.146 658.868 453.243 649.632 406.443 685.071Z" fill="url(#paint64_linear_4210_1553)"/>
<path d="M531.457 850.159C487.208 883.666 423.959 874.932 390.457 830.692C356.956 786.451 365.701 723.199 409.945 689.695C454.193 656.188 517.443 664.922 550.944 709.162C584.445 753.402 575.7 816.655 531.457 850.159ZM411.517 691.772C368.415 724.412 359.895 786.031 392.528 829.124C425.161 872.218 486.776 880.726 529.884 848.082C572.992 815.438 581.507 753.823 548.874 710.73C516.236 667.64 454.62 659.132 411.517 691.772Z" fill="url(#paint65_linear_4210_1553)"/>
<path d="M526.383 843.458C485.831 874.166 427.858 866.168 397.154 825.621C366.449 785.074 374.461 727.108 415.013 696.4C455.566 665.691 513.533 673.694 544.237 714.241C574.942 754.787 566.935 812.75 526.383 843.458ZM416.591 698.472C377.185 728.313 369.398 784.645 399.234 824.045C429.07 863.445 485.404 871.222 524.81 841.381C564.216 811.541 572.008 755.204 542.173 715.804C512.331 676.408 455.997 668.632 416.591 698.472Z" fill="url(#paint66_linear_4210_1553)"/>
<path d="M521.309 836.758C484.454 864.667 431.768 857.395 403.861 820.542C375.954 783.689 383.232 731.009 420.093 703.096C456.954 675.183 509.634 682.459 537.541 719.311C565.449 756.164 558.164 808.849 521.309 836.758ZM421.666 705.173C385.951 732.218 378.892 783.268 405.931 818.975C432.969 854.681 484.022 861.726 519.736 834.681C555.451 807.636 562.51 756.585 535.471 720.879C508.427 685.177 457.375 678.132 421.666 705.173Z" fill="url(#paint67_linear_4210_1553)"/>
<path d="M516.235 830.057C483.071 855.171 435.668 848.621 410.562 815.467C385.456 782.314 392.008 734.906 425.167 709.797C458.331 684.683 505.734 691.232 530.84 724.386C555.946 757.54 549.394 804.947 516.235 830.057ZM426.74 711.873C394.721 736.119 388.39 781.887 412.632 813.9C436.874 845.912 482.644 852.226 514.662 827.98C546.681 803.734 553.011 757.966 528.77 725.954C504.523 693.945 458.758 687.627 426.74 711.873Z" fill="url(#paint68_linear_4210_1553)"/>
<path d="M511.161 823.357C481.693 845.671 439.572 839.853 417.263 810.393C394.955 780.933 400.773 738.812 430.241 716.497C459.708 694.183 501.83 700.001 524.138 729.461C546.447 758.921 540.623 801.046 511.161 823.357ZM431.813 718.574C403.492 740.021 397.893 780.512 419.333 808.825C440.774 837.139 481.262 842.731 509.588 821.28C537.91 799.833 543.509 759.342 522.068 731.029C500.628 702.715 460.135 697.127 431.813 718.574Z" fill="url(#paint69_linear_4210_1553)"/>
<path d="M506.087 816.656C480.316 836.171 443.477 831.084 423.965 805.318C404.453 779.552 409.544 742.713 435.315 723.198C461.086 703.683 497.925 708.769 517.437 734.536C536.949 760.302 531.858 797.141 506.087 816.656ZM436.883 725.269C412.253 743.92 407.388 779.126 426.035 803.75C444.682 828.375 479.888 833.236 504.518 814.585C529.148 795.933 534.014 760.728 515.367 736.103C496.714 711.482 461.508 706.622 436.883 725.269Z" fill="url(#paint70_linear_4210_1553)"/>
<path d="M501.013 809.955C478.939 826.671 447.381 822.316 430.666 800.243C413.952 778.17 418.315 746.614 440.389 729.898C462.463 713.182 494.021 717.538 510.736 739.61C527.45 761.683 523.087 793.24 501.013 809.955ZM441.958 731.969C421.024 747.821 416.886 777.744 432.737 798.675C448.587 819.607 478.511 823.736 499.444 807.884C520.378 792.032 524.516 762.109 508.665 741.178C492.814 720.256 462.891 716.117 441.958 731.969Z" fill="url(#paint71_linear_4210_1553)"/>
<path d="M495.939 803.255C477.556 817.176 451.285 813.547 437.368 795.169C423.45 776.79 427.085 750.515 445.463 736.599C463.846 722.678 490.116 726.306 504.034 744.685C517.951 763.064 514.316 789.339 495.939 803.255ZM447.031 738.67C429.795 751.723 426.385 776.363 439.438 793.601C452.491 810.838 477.133 814.236 494.37 801.184C511.607 788.131 515.017 763.49 501.964 746.253C488.911 729.015 464.268 725.617 447.031 738.67Z" fill="url(#paint72_linear_4210_1553)"/>
<path d="M490.865 796.555C476.179 807.676 455.186 804.774 444.069 790.094C432.949 775.409 435.851 754.421 450.537 743.299C465.223 732.178 486.216 735.08 497.333 749.76C508.453 764.445 505.551 785.434 490.865 796.555ZM452.106 745.371C438.565 755.624 435.887 774.988 446.139 788.526C456.391 802.065 475.751 804.741 489.296 794.483C502.836 784.23 505.514 764.866 495.262 751.328C485.005 737.793 465.646 735.117 452.106 745.371Z" fill="url(#paint73_linear_4210_1553)"/>
<defs>
<linearGradient id="paint0_linear_4210_1553" x1="405.142" y1="855.619" x2="984.074" y2="701.263" gradientUnits="userSpaceOnUse">
<stop stop-color="#FF01DD" stop-opacity="0"/>
<stop offset="1" stop-color="#41B7FF"/>
</linearGradient>
<linearGradient id="paint1_linear_4210_1553" x1="412.131" y1="845.988" x2="976.586" y2="695.493" gradientUnits="userSpaceOnUse">
<stop stop-color="#FF01DD" stop-opacity="0"/>
<stop offset="1" stop-color="#41B7FF"/>
</linearGradient>
<linearGradient id="paint2_linear_4210_1553" x1="419.123" y1="836.361" x2="969.095" y2="689.732" gradientUnits="userSpaceOnUse">
<stop stop-color="#FF01DD" stop-opacity="0"/>
<stop offset="1" stop-color="#41B7FF"/>
</linearGradient>
<linearGradient id="paint3_linear_4210_1553" x1="426.119" y1="826.723" x2="961.597" y2="683.95" gradientUnits="userSpaceOnUse">
<stop stop-color="#FF01DD" stop-opacity="0"/>
<stop offset="1" stop-color="#41B7FF"/>
</linearGradient>
<linearGradient id="paint4_linear_4210_1553" x1="433.102" y1="817.099" x2="954.108" y2="678.189" gradientUnits="userSpaceOnUse">
<stop stop-color="#FF01DD" stop-opacity="0"/>
<stop offset="1" stop-color="#41B7FF"/>
</linearGradient>
<linearGradient id="paint5_linear_4210_1553" x1="440.092" y1="807.469" x2="946.615" y2="672.42" gradientUnits="userSpaceOnUse">
<stop stop-color="#FF01DD" stop-opacity="0"/>
<stop offset="1" stop-color="#41B7FF"/>
</linearGradient>
<linearGradient id="paint6_linear_4210_1553" x1="447.09" y1="797.834" x2="939.119" y2="666.646" gradientUnits="userSpaceOnUse">
<stop stop-color="#FF01DD" stop-opacity="0"/>
<stop offset="1" stop-color="#41B7FF"/>
</linearGradient>
<linearGradient id="paint7_linear_4210_1553" x1="454.073" y1="788.21" x2="931.63" y2="660.884" gradientUnits="userSpaceOnUse">
<stop stop-color="#FF01DD" stop-opacity="0"/>
<stop offset="1" stop-color="#41B7FF"/>
</linearGradient>
<linearGradient id="paint8_linear_4210_1553" x1="461.063" y1="778.58" x2="924.138" y2="655.116" gradientUnits="userSpaceOnUse">
<stop stop-color="#FF01DD" stop-opacity="0"/>
<stop offset="1" stop-color="#41B7FF"/>
</linearGradient>
<linearGradient id="paint9_linear_4210_1553" x1="468.058" y1="768.956" x2="916.649" y2="649.354" gradientUnits="userSpaceOnUse">
<stop stop-color="#FF01DD" stop-opacity="0"/>
<stop offset="1" stop-color="#41B7FF"/>
</linearGradient>
<linearGradient id="paint10_linear_4210_1553" x1="475.048" y1="759.326" x2="909.157" y2="643.585" gradientUnits="userSpaceOnUse">
<stop stop-color="#FF01DD" stop-opacity="0"/>
<stop offset="1" stop-color="#41B7FF"/>
</linearGradient>
<linearGradient id="paint11_linear_4210_1553" x1="482.038" y1="749.696" x2="901.664" y2="637.817" gradientUnits="userSpaceOnUse">
<stop stop-color="#FF01DD" stop-opacity="0"/>
<stop offset="1" stop-color="#41B7FF"/>
</linearGradient>
<linearGradient id="paint12_linear_4210_1553" x1="489.029" y1="740.067" x2="894.172" y2="632.05" gradientUnits="userSpaceOnUse">
<stop stop-color="#FF01DD" stop-opacity="0"/>
<stop offset="1" stop-color="#41B7FF"/>
</linearGradient>
<linearGradient id="paint13_linear_4210_1553" x1="496.019" y1="730.437" x2="886.679" y2="626.281" gradientUnits="userSpaceOnUse">
<stop stop-color="#FF01DD" stop-opacity="0"/>
<stop offset="1" stop-color="#41B7FF"/>
</linearGradient>
<linearGradient id="paint14_linear_4210_1553" x1="503.009" y1="720.807" x2="879.187" y2="620.513" gradientUnits="userSpaceOnUse">
<stop stop-color="#FF01DD" stop-opacity="0"/>
<stop offset="1" stop-color="#41B7FF"/>
</linearGradient>
<linearGradient id="paint15_linear_4210_1553" x1="509.997" y1="711.174" x2="871.692" y2="614.738" gradientUnits="userSpaceOnUse">
<stop stop-color="#FF01DD" stop-opacity="0"/>
<stop offset="1" stop-color="#41B7FF"/>
</linearGradient>
<linearGradient id="paint16_linear_4210_1553" x1="516.988" y1="701.544" x2="864.2" y2="608.97" gradientUnits="userSpaceOnUse">
<stop stop-color="#FF01DD" stop-opacity="0"/>
<stop offset="1" stop-color="#41B7FF"/>
</linearGradient>
<linearGradient id="paint17_linear_4210_1553" x1="523.978" y1="691.915" x2="856.707" y2="603.201" gradientUnits="userSpaceOnUse">
<stop stop-color="#FF01DD" stop-opacity="0"/>
<stop offset="1" stop-color="#41B7FF"/>
</linearGradient>
<linearGradient id="paint18_linear_4210_1553" x1="530.968" y1="682.285" x2="849.215" y2="597.434" gradientUnits="userSpaceOnUse">
<stop stop-color="#FF01DD" stop-opacity="0"/>
<stop offset="1" stop-color="#41B7FF"/>
</linearGradient>
<linearGradient id="paint19_linear_4210_1553" x1="537.959" y1="672.655" x2="841.722" y2="591.665" gradientUnits="userSpaceOnUse">
<stop stop-color="#FF01DD" stop-opacity="0"/>
<stop offset="1" stop-color="#41B7FF"/>
</linearGradient>
<linearGradient id="paint20_linear_4210_1553" x1="544.949" y1="663.026" x2="834.23" y2="585.897" gradientUnits="userSpaceOnUse">
<stop stop-color="#FF01DD" stop-opacity="0"/>
<stop offset="1" stop-color="#41B7FF"/>
</linearGradient>
<linearGradient id="paint21_linear_4210_1553" x1="551.939" y1="653.396" x2="826.737" y2="580.129" gradientUnits="userSpaceOnUse">
<stop stop-color="#FF01DD" stop-opacity="0"/>
<stop offset="1" stop-color="#41B7FF"/>
</linearGradient>
<linearGradient id="paint22_linear_4210_1553" x1="558.934" y1="643.772" x2="819.248" y2="574.367" gradientUnits="userSpaceOnUse">
<stop stop-color="#FF01DD" stop-opacity="0"/>
<stop offset="1" stop-color="#41B7FF"/>
</linearGradient>
<linearGradient id="paint23_linear_4210_1553" x1="565.924" y1="634.142" x2="811.756" y2="568.599" gradientUnits="userSpaceOnUse">
<stop stop-color="#FF01DD" stop-opacity="0"/>
<stop offset="1" stop-color="#41B7FF"/>
</linearGradient>
<linearGradient id="paint24_linear_4210_1553" x1="572.914" y1="624.512" x2="804.263" y2="562.831" gradientUnits="userSpaceOnUse">
<stop stop-color="#FF01DD" stop-opacity="0"/>
<stop offset="1" stop-color="#41B7FF"/>
</linearGradient>
<linearGradient id="paint25_linear_4210_1553" x1="579.905" y1="614.882" x2="796.771" y2="557.062" gradientUnits="userSpaceOnUse">
<stop stop-color="#FF01DD" stop-opacity="0"/>
<stop offset="1" stop-color="#41B7FF"/>
</linearGradient>
<linearGradient id="paint26_linear_4210_1553" x1="586.895" y1="605.253" x2="789.278" y2="551.294" gradientUnits="userSpaceOnUse">
<stop stop-color="#FF01DD" stop-opacity="0"/>
<stop offset="1" stop-color="#41B7FF"/>
</linearGradient>
<linearGradient id="paint27_linear_4210_1553" x1="593.884" y1="595.621" x2="781.785" y2="545.523" gradientUnits="userSpaceOnUse">
<stop stop-color="#FF01DD" stop-opacity="0"/>
<stop offset="1" stop-color="#41B7FF"/>
</linearGradient>
<linearGradient id="paint28_linear_4210_1553" x1="600.873" y1="585.99" x2="774.291" y2="539.751" gradientUnits="userSpaceOnUse">
<stop stop-color="#FF01DD" stop-opacity="0"/>
<stop offset="1" stop-color="#41B7FF"/>
</linearGradient>
<linearGradient id="paint29_linear_4210_1553" x1="607.864" y1="576.36" x2="766.799" y2="533.983" gradientUnits="userSpaceOnUse">
<stop stop-color="#FF01DD" stop-opacity="0"/>
<stop offset="1" stop-color="#41B7FF"/>
</linearGradient>
<linearGradient id="paint30_linear_4210_1553" x1="614.854" y1="566.731" x2="759.307" y2="528.215" gradientUnits="userSpaceOnUse">
<stop stop-color="#FF01DD" stop-opacity="0"/>
<stop offset="1" stop-color="#41B7FF"/>
</linearGradient>
<linearGradient id="paint31_linear_4210_1553" x1="621.845" y1="557.101" x2="751.814" y2="522.446" gradientUnits="userSpaceOnUse">
<stop stop-color="#FF01DD" stop-opacity="0"/>
<stop offset="1" stop-color="#41B7FF"/>
</linearGradient>
<linearGradient id="paint32_linear_4210_1553" x1="628.835" y1="547.471" x2="744.321" y2="516.678" gradientUnits="userSpaceOnUse">
<stop stop-color="#FF01DD" stop-opacity="0"/>
<stop offset="1" stop-color="#41B7FF"/>
</linearGradient>
<linearGradient id="paint33_linear_4210_1553" x1="635.825" y1="537.841" x2="736.829" y2="510.91" gradientUnits="userSpaceOnUse">
<stop stop-color="#FF01DD" stop-opacity="0"/>
<stop offset="1" stop-color="#41B7FF"/>
</linearGradient>
<linearGradient id="paint34_linear_4210_1553" x1="642.816" y1="528.212" x2="729.336" y2="505.142" gradientUnits="userSpaceOnUse">
<stop stop-color="#FF01DD" stop-opacity="0"/>
<stop offset="1" stop-color="#41B7FF"/>
</linearGradient>
<linearGradient id="paint35_linear_4210_1553" x1="649.81" y1="518.587" x2="721.848" y2="499.38" gradientUnits="userSpaceOnUse">
<stop stop-color="#FF01DD" stop-opacity="0"/>
<stop offset="1" stop-color="#41B7FF"/>
</linearGradient>
<linearGradient id="paint36_linear_4210_1553" x1="656.8" y1="508.957" x2="714.355" y2="493.611" gradientUnits="userSpaceOnUse">
<stop stop-color="#FF01DD" stop-opacity="0"/>
<stop offset="1" stop-color="#41B7FF"/>
</linearGradient>
<linearGradient id="paint37_linear_4210_1553" x1="358.013" y1="1061.08" x2="791.291" y2="1090.49" gradientUnits="userSpaceOnUse">
<stop stop-color="#FF01DD"/>
<stop offset="1" stop-color="#41B7FF" stop-opacity="0"/>
</linearGradient>
<linearGradient id="paint38_linear_4210_1553" x1="360.835" y1="1053.8" x2="783.279" y2="1082.47" gradientUnits="userSpaceOnUse">
<stop stop-color="#FF01DD"/>
<stop offset="1" stop-color="#41B7FF" stop-opacity="0"/>
</linearGradient>
<linearGradient id="paint39_linear_4210_1553" x1="363.654" y1="1046.52" x2="775.255" y2="1074.45" gradientUnits="userSpaceOnUse">
<stop stop-color="#FF01DD"/>
<stop offset="1" stop-color="#41B7FF" stop-opacity="0"/>
</linearGradient>
<linearGradient id="paint40_linear_4210_1553" x1="366.477" y1="1039.23" x2="767.238" y2="1066.42" gradientUnits="userSpaceOnUse">
<stop stop-color="#FF01DD"/>
<stop offset="1" stop-color="#41B7FF" stop-opacity="0"/>
</linearGradient>
<linearGradient id="paint41_linear_4210_1553" x1="369.291" y1="1031.95" x2="759.218" y2="1058.41" gradientUnits="userSpaceOnUse">
<stop stop-color="#FF01DD"/>
<stop offset="1" stop-color="#41B7FF" stop-opacity="0"/>
</linearGradient>
<linearGradient id="paint42_linear_4210_1553" x1="372.11" y1="1024.67" x2="751.197" y2="1050.39" gradientUnits="userSpaceOnUse">
<stop stop-color="#FF01DD"/>
<stop offset="1" stop-color="#41B7FF" stop-opacity="0"/>
</linearGradient>
<linearGradient id="paint43_linear_4210_1553" x1="374.933" y1="1017.38" x2="743.177" y2="1042.36" gradientUnits="userSpaceOnUse">
<stop stop-color="#FF01DD"/>
<stop offset="1" stop-color="#41B7FF" stop-opacity="0"/>
</linearGradient>
<linearGradient id="paint44_linear_4210_1553" x1="377.748" y1="1010.1" x2="735.156" y2="1034.35" gradientUnits="userSpaceOnUse">
<stop stop-color="#FF01DD"/>
<stop offset="1" stop-color="#41B7FF" stop-opacity="0"/>
</linearGradient>
<linearGradient id="paint45_linear_4210_1553" x1="380.567" y1="1002.81" x2="727.136" y2="1026.33" gradientUnits="userSpaceOnUse">
<stop stop-color="#FF01DD"/>
<stop offset="1" stop-color="#41B7FF" stop-opacity="0"/>
</linearGradient>
<linearGradient id="paint46_linear_4210_1553" x1="383.385" y1="995.531" x2="719.115" y2="1018.31" gradientUnits="userSpaceOnUse">
<stop stop-color="#FF01DD"/>
<stop offset="1" stop-color="#41B7FF" stop-opacity="0"/>
</linearGradient>
<linearGradient id="paint47_linear_4210_1553" x1="386.204" y1="988.247" x2="711.095" y2="1010.3" gradientUnits="userSpaceOnUse">
<stop stop-color="#FF01DD"/>
<stop offset="1" stop-color="#41B7FF" stop-opacity="0"/>
</linearGradient>
<linearGradient id="paint48_linear_4210_1553" x1="389.023" y1="980.963" x2="703.074" y2="1002.28" gradientUnits="userSpaceOnUse">
<stop stop-color="#FF01DD"/>
<stop offset="1" stop-color="#41B7FF" stop-opacity="0"/>
</linearGradient>
<linearGradient id="paint49_linear_4210_1553" x1="391.842" y1="973.679" x2="695.054" y2="994.257" gradientUnits="userSpaceOnUse">
<stop stop-color="#FF01DD"/>
<stop offset="1" stop-color="#41B7FF" stop-opacity="0"/>
</linearGradient>
<linearGradient id="paint50_linear_4210_1553" x1="394.661" y1="966.395" x2="687.034" y2="986.238" gradientUnits="userSpaceOnUse">
<stop stop-color="#FF01DD"/>
<stop offset="1" stop-color="#41B7FF" stop-opacity="0"/>
</linearGradient>
<linearGradient id="paint51_linear_4210_1553" x1="397.484" y1="959.117" x2="679.017" y2="978.224" gradientUnits="userSpaceOnUse">
<stop stop-color="#FF01DD"/>
<stop offset="1" stop-color="#41B7FF" stop-opacity="0"/>
</linearGradient>
<linearGradient id="paint52_linear_4210_1553" x1="400.301" y1="951.83" x2="670.998" y2="970.198" gradientUnits="userSpaceOnUse">
<stop stop-color="#FF01DD"/>
<stop offset="1" stop-color="#41B7FF" stop-opacity="0"/>
</linearGradient>
<linearGradient id="paint53_linear_4210_1553" x1="403.119" y1="944.547" x2="662.978" y2="962.179" gradientUnits="userSpaceOnUse">
<stop stop-color="#FF01DD"/>
<stop offset="1" stop-color="#41B7FF" stop-opacity="0"/>
</linearGradient>
<linearGradient id="paint54_linear_4210_1553" x1="405.938" y1="937.263" x2="654.957" y2="954.16" gradientUnits="userSpaceOnUse">
<stop stop-color="#FF01DD"/>
<stop offset="1" stop-color="#41B7FF" stop-opacity="0"/>
</linearGradient>
<linearGradient id="paint55_linear_4210_1553" x1="408.757" y1="929.979" x2="646.937" y2="946.141" gradientUnits="userSpaceOnUse">
<stop stop-color="#FF01DD"/>
<stop offset="1" stop-color="#41B7FF" stop-opacity="0"/>
</linearGradient>
<linearGradient id="paint56_linear_4210_1553" x1="411.576" y1="922.695" x2="638.917" y2="938.122" gradientUnits="userSpaceOnUse">
<stop stop-color="#FF01DD"/>
<stop offset="1" stop-color="#41B7FF" stop-opacity="0"/>
</linearGradient>
<linearGradient id="paint57_linear_4210_1553" x1="414.395" y1="915.411" x2="630.896" y2="930.103" gradientUnits="userSpaceOnUse">
<stop stop-color="#FF01DD"/>
<stop offset="1" stop-color="#41B7FF" stop-opacity="0"/>
</linearGradient>
<linearGradient id="paint58_linear_4210_1553" x1="417.214" y1="908.127" x2="622.876" y2="922.084" gradientUnits="userSpaceOnUse">
<stop stop-color="#FF01DD"/>
<stop offset="1" stop-color="#41B7FF" stop-opacity="0"/>
</linearGradient>
<linearGradient id="paint59_linear_4210_1553" x1="420.033" y1="900.844" x2="614.855" y2="914.064" gradientUnits="userSpaceOnUse">
<stop stop-color="#FF01DD"/>
<stop offset="1" stop-color="#41B7FF" stop-opacity="0"/>
</linearGradient>
<linearGradient id="paint60_linear_4210_1553" x1="422.852" y1="893.56" x2="606.835" y2="906.045" gradientUnits="userSpaceOnUse">
<stop stop-color="#FF01DD"/>
<stop offset="1" stop-color="#41B7FF" stop-opacity="0"/>
</linearGradient>
<linearGradient id="paint61_linear_4210_1553" x1="425.67" y1="886.276" x2="598.814" y2="898.026" gradientUnits="userSpaceOnUse">
<stop stop-color="#FF01DD"/>
<stop offset="1" stop-color="#41B7FF" stop-opacity="0"/>
</linearGradient>
<linearGradient id="paint62_linear_4210_1553" x1="428.489" y1="878.992" x2="590.794" y2="890.007" gradientUnits="userSpaceOnUse">
<stop stop-color="#FF01DD"/>
<stop offset="1" stop-color="#41B7FF" stop-opacity="0"/>
</linearGradient>
<linearGradient id="paint63_linear_4210_1553" x1="431.308" y1="871.708" x2="582.773" y2="881.988" gradientUnits="userSpaceOnUse">
<stop stop-color="#FF01DD"/>
<stop offset="1" stop-color="#41B7FF" stop-opacity="0"/>
</linearGradient>
<linearGradient id="paint64_linear_4210_1553" x1="434.13" y1="864.428" x2="574.757" y2="873.971" gradientUnits="userSpaceOnUse">
<stop stop-color="#FF01DD"/>
<stop offset="1" stop-color="#41B7FF" stop-opacity="0"/>
</linearGradient>
<linearGradient id="paint65_linear_4210_1553" x1="436.948" y1="857.143" x2="566.738" y2="865.948" gradientUnits="userSpaceOnUse">
<stop stop-color="#FF01DD"/>
<stop offset="1" stop-color="#41B7FF" stop-opacity="0"/>
</linearGradient>
<linearGradient id="paint66_linear_4210_1553" x1="439.761" y1="849.863" x2="558.712" y2="857.933" gradientUnits="userSpaceOnUse">
<stop stop-color="#FF01DD"/>
<stop offset="1" stop-color="#41B7FF" stop-opacity="0"/>
</linearGradient>
<linearGradient id="paint67_linear_4210_1553" x1="442.586" y1="842.576" x2="550.697" y2="849.91" gradientUnits="userSpaceOnUse">
<stop stop-color="#FF01DD"/>
<stop offset="1" stop-color="#41B7FF" stop-opacity="0"/>
</linearGradient>
<linearGradient id="paint68_linear_4210_1553" x1="445.404" y1="835.292" x2="542.677" y2="841.891" gradientUnits="userSpaceOnUse">
<stop stop-color="#FF01DD"/>
<stop offset="1" stop-color="#41B7FF" stop-opacity="0"/>
</linearGradient>
<linearGradient id="paint69_linear_4210_1553" x1="448.223" y1="828.008" x2="534.656" y2="833.872" gradientUnits="userSpaceOnUse">
<stop stop-color="#FF01DD"/>
<stop offset="1" stop-color="#41B7FF" stop-opacity="0"/>
</linearGradient>
<linearGradient id="paint70_linear_4210_1553" x1="451.042" y1="820.724" x2="526.636" y2="825.852" gradientUnits="userSpaceOnUse">
<stop stop-color="#FF01DD"/>
<stop offset="1" stop-color="#41B7FF" stop-opacity="0"/>
</linearGradient>
<linearGradient id="paint71_linear_4210_1553" x1="453.861" y1="813.44" x2="518.615" y2="817.833" gradientUnits="userSpaceOnUse">
<stop stop-color="#FF01DD"/>
<stop offset="1" stop-color="#41B7FF" stop-opacity="0"/>
</linearGradient>
<linearGradient id="paint72_linear_4210_1553" x1="456.68" y1="806.156" x2="510.595" y2="809.814" gradientUnits="userSpaceOnUse">
<stop stop-color="#FF01DD"/>
<stop offset="1" stop-color="#41B7FF" stop-opacity="0"/>
</linearGradient>
<linearGradient id="paint73_linear_4210_1553" x1="459.499" y1="798.873" x2="502.574" y2="801.795" gradientUnits="userSpaceOnUse">
<stop stop-color="#FF01DD"/>
<stop offset="1" stop-color="#41B7FF" stop-opacity="0"/>
</linearGradient>
</defs>
</svg>
