<svg width="21" height="22" viewBox="0 0 21 22" fill="none" xmlns="http://www.w3.org/2000/svg">
  <path fill-rule="evenodd" clip-rule="evenodd" d="M5.6004 12.4482C5.53427 11.9571 5.5 11.4545 5.5 10.9429C5.5 10.425 5.53512 9.91633 5.60284 9.4196H3.66621C3.55739 9.90998 3.5 10.4197 3.5 10.9429C3.5 11.4596 3.55599 11.9633 3.66225 12.4482H5.6004ZM6.06326 14.4482H4.43953C5.15098 15.6755 6.22458 16.6669 7.51415 17.2759C6.90153 16.4353 6.40829 15.482 6.06326 14.4482ZM8.24253 14.4482L12.7575 14.4482C12.232 15.6142 11.4525 16.6132 10.5 17.3547C9.54754 16.6132 8.76803 15.6142 8.24253 14.4482ZM13.3702 12.4482L7.62983 12.4482C7.54464 11.9611 7.5 11.4578 7.5 10.9429C7.5 10.4216 7.54575 9.91228 7.633 9.4196L13.367 9.4196C13.4543 9.91228 13.5 10.4216 13.5 10.9429C13.5 11.4578 13.4554 11.9611 13.3702 12.4482ZM14.9367 14.4482C14.5917 15.482 14.0985 16.4353 13.4859 17.2759C14.7754 16.6669 15.849 15.6755 16.5605 14.4482H14.9367ZM17.3378 12.4482H15.3996C15.4657 11.9571 15.5 11.4545 15.5 10.9429C15.5 10.425 15.4649 9.91633 15.3972 9.4196H17.3338C17.4426 9.90998 17.5 10.4197 17.5 10.9429C17.5 11.4596 17.444 11.9633 17.3378 12.4482ZM10.5 4.53108C9.55244 5.26869 8.77606 6.26122 8.25066 7.4196L12.7493 7.4196C12.2239 6.26122 11.4476 5.26869 10.5 4.53108ZM14.9307 7.4196H16.55C15.8385 6.20051 14.7691 5.21588 13.4859 4.6098C14.0949 5.44554 14.586 6.39268 14.9307 7.4196ZM4.45 7.4196H6.06928C6.41402 6.39268 6.90508 5.44554 7.51415 4.6098C6.23089 5.21588 5.16148 6.2005 4.45 7.4196ZM10.5 1.94287C15.4706 1.94287 19.5 5.97231 19.5 10.9429C19.5 15.9134 15.4706 19.9429 10.5 19.9429C5.52944 19.9429 1.5 15.9134 1.5 10.9429C1.5 5.97231 5.52944 1.94287 10.5 1.94287Z" fill="white"/>
</svg>
