<svg width="18" height="18" viewBox="0 0 18 18" fill="none" xmlns="http://www.w3.org/2000/svg">
  <path d="M17.9391 2.85953C17.2745 3.19762 16.5664 3.42172 15.8281 3.53053C16.5876 3.00461 17.1673 2.17817 17.4398 1.18204C16.7317 1.67168 15.9498 2.01754 15.1166 2.21055C14.4442 1.38023 13.4859 0.865967 12.4405 0.865967C10.4122 0.865967 8.77922 2.77533 8.77922 5.11605C8.77922 5.45285 8.80379 5.77669 8.8641 6.08498C5.81826 5.9127 3.12314 4.21966 1.31261 1.64059C0.99652 2.27662 0.811111 3.00461 0.811111 3.7883C0.811111 5.25984 1.46451 6.56427 2.43846 7.31946C1.84985 7.30651 1.2724 7.10832 0.783188 6.79614C0.783188 6.80909 0.783188 6.82593 0.783188 6.84277C0.783188 8.90758 2.05313 10.6226 3.71845 11.0177C3.42024 11.1123 3.09521 11.1576 2.7579 11.1576C2.52335 11.1576 2.28656 11.1421 2.0643 11.0851C2.53899 12.7678 3.88599 14.0048 5.48766 14.045C4.24117 15.1758 2.6585 15.8572 0.945142 15.8572C0.64469 15.8572 0.356525 15.8417 0.0683594 15.7989C1.69124 17.0127 3.61458 17.7057 5.6887 17.7057C12.4304 17.7057 16.1163 11.2289 16.1163 5.61477C16.1163 5.42694 16.1107 5.24559 16.1029 5.06553C16.83 4.46707 17.4409 3.71965 17.9391 2.85953Z" fill="#FDFCFC"/>
</svg>
