<svg width="24" height="24" viewBox="0 0 32 36" fill="none" xmlns="http://www.w3.org/2000/svg">
<path d="M4.33072 7.62349L13.6966 12.6789C15.0129 13.3894 16.5789 13.3894 17.8952 12.6789L23.8437 9.4681C23.9955 9.38618 24.1494 9.30165 24.3435 9.18622C25.4797 8.51027 26.1129 7.61909 26.2428 6.51265C26.2876 6.13159 26.3694 5.56892 26.7301 5.6997V5.6997C26.7488 5.70649 26.767 5.71486 26.7844 5.72472L26.9151 5.79901L27.0438 5.87263C27.065 5.88485 27.0862 5.89702 27.1073 5.90918L27.2327 5.98179L27.356 6.05374L27.4772 6.125C27.5173 6.14864 27.557 6.17219 27.5963 6.19561L27.7133 6.26552C27.7326 6.27712 27.7518 6.2887 27.771 6.30024L27.8847 6.36916C27.9035 6.38059 27.9222 6.39199 27.9408 6.40336L28.0514 6.47127C28.0697 6.48254 28.0878 6.49377 28.1059 6.50498L28.2133 6.57188L28.3186 6.63812C28.3534 6.66008 28.3878 6.68193 28.4218 6.70367L28.5229 6.76857C28.5396 6.77933 28.5561 6.79006 28.5726 6.80076L28.6705 6.86464L28.7662 6.92785L28.8599 6.99039L28.9514 7.05227C28.9815 7.07278 29.0113 7.09318 29.0408 7.11346L29.128 7.17399C29.947 7.74579 30.4789 8.2267 30.7236 8.61671L30.7464 8.65368C31.2896 9.54888 31.5918 10.5993 31.5918 11.6946V24.1016C31.5918 26.1362 30.5489 28.0162 28.8559 29.0335L18.5318 35.237C16.8388 36.2543 14.753 36.2543 13.06 35.237L2.73594 29.0335C1.04294 28.0162 0 26.1362 0 24.1016V11.6946C0 10.5679 0.319825 9.48857 0.892784 8.57692L0.914666 8.54238C1.66102 7.37345 3.13361 6.97733 4.33072 7.62349ZM19.1318 0.869298C19.4601 1.07264 19.789 1.27629 20.1178 1.47995C21.7895 2.51517 22.0026 3.71294 21.4875 4.6139C21.3236 4.90048 20.9266 5.2323 20.127 5.69788C19.2825 6.18956 17.955 6.8638 16.1445 7.7206C15.9273 7.84705 15.6632 7.84957 15.4438 7.72729L8.74771 3.99476C8.48131 3.84627 8.38101 3.50113 8.52369 3.22387C8.57296 3.12814 8.64749 3.04905 8.73852 2.99596C10.2982 2.08619 11.4681 1.40386 12.2479 0.948978C15.0103 -0.662306 17.8953 0.103582 19.1318 0.869298Z" fill="#41B7FF"/>
<path d="M4.33072 7.62349L13.6966 12.6789C15.0129 13.3894 16.5789 13.3894 17.8952 12.6789L23.8437 9.4681C23.9955 9.38618 24.1494 9.30165 24.3435 9.18622C25.4797 8.51027 26.1129 7.61909 26.2428 6.51265C26.2876 6.13159 26.3694 5.56892 26.7301 5.6997V5.6997C26.7488 5.70649 26.767 5.71486 26.7844 5.72472L26.9151 5.79901L27.0438 5.87263C27.065 5.88485 27.0862 5.89702 27.1073 5.90918L27.2327 5.98179L27.356 6.05374L27.4772 6.125C27.5173 6.14864 27.557 6.17219 27.5963 6.19561L27.7133 6.26552C27.7326 6.27712 27.7518 6.2887 27.771 6.30024L27.8847 6.36916C27.9035 6.38059 27.9222 6.39199 27.9408 6.40336L28.0514 6.47127C28.0697 6.48254 28.0878 6.49377 28.1059 6.50498L28.2133 6.57188L28.3186 6.63812C28.3534 6.66008 28.3878 6.68193 28.4218 6.70367L28.5229 6.76857C28.5396 6.77933 28.5561 6.79006 28.5726 6.80076L28.6705 6.86464L28.7662 6.92785L28.8599 6.99039L28.9514 7.05227C28.9815 7.07278 29.0113 7.09318 29.0408 7.11346L29.128 7.17399C29.947 7.74579 30.4789 8.2267 30.7236 8.61671L30.7464 8.65368C31.2896 9.54888 31.5918 10.5993 31.5918 11.6946V24.1016C31.5918 26.1362 30.5489 28.0162 28.8559 29.0335L18.5318 35.237C16.8388 36.2543 14.753 36.2543 13.06 35.237L2.73594 29.0335C1.04294 28.0162 0 26.1362 0 24.1016V11.6946C0 10.5679 0.319825 9.48857 0.892784 8.57692L0.914666 8.54238C1.66102 7.37345 3.13361 6.97733 4.33072 7.62349ZM19.1318 0.869298C19.4601 1.07264 19.789 1.27629 20.1178 1.47995C21.7895 2.51517 22.0026 3.71294 21.4875 4.6139C21.3236 4.90048 20.9266 5.2323 20.127 5.69788C19.2825 6.18956 17.955 6.8638 16.1445 7.7206C15.9273 7.84705 15.6632 7.84957 15.4438 7.72729L8.74771 3.99476C8.48131 3.84627 8.38101 3.50113 8.52369 3.22387C8.57296 3.12814 8.64749 3.04905 8.73852 2.99596C10.2982 2.08619 11.4681 1.40386 12.2479 0.948978C15.0103 -0.662306 17.8953 0.103582 19.1318 0.869298Z" fill="url(#paint0_radial)"/>
<path d="M4.33072 7.62349L13.6966 12.6789C15.0129 13.3894 16.5789 13.3894 17.8952 12.6789L23.8437 9.4681C23.9955 9.38618 24.1494 9.30165 24.3435 9.18622C25.4797 8.51027 26.1129 7.61909 26.2428 6.51265C26.2876 6.13159 26.3694 5.56892 26.7301 5.6997V5.6997C26.7488 5.70649 26.767 5.71486 26.7844 5.72472L26.9151 5.79901L27.0438 5.87263C27.065 5.88485 27.0862 5.89702 27.1073 5.90918L27.2327 5.98179L27.356 6.05374L27.4772 6.125C27.5173 6.14864 27.557 6.17219 27.5963 6.19561L27.7133 6.26552C27.7326 6.27712 27.7518 6.2887 27.771 6.30024L27.8847 6.36916C27.9035 6.38059 27.9222 6.39199 27.9408 6.40336L28.0514 6.47127C28.0697 6.48254 28.0878 6.49377 28.1059 6.50498L28.2133 6.57188L28.3186 6.63812C28.3534 6.66008 28.3878 6.68193 28.4218 6.70367L28.5229 6.76857C28.5396 6.77933 28.5561 6.79006 28.5726 6.80076L28.6705 6.86464L28.7662 6.92785L28.8599 6.99039L28.9514 7.05227C28.9815 7.07278 29.0113 7.09318 29.0408 7.11346L29.128 7.17399C29.947 7.74579 30.4789 8.2267 30.7236 8.61671L30.7464 8.65368C31.2896 9.54888 31.5918 10.5993 31.5918 11.6946V24.1016C31.5918 26.1362 30.5489 28.0162 28.8559 29.0335L18.5318 35.237C16.8388 36.2543 14.753 36.2543 13.06 35.237L2.73594 29.0335C1.04294 28.0162 0 26.1362 0 24.1016V11.6946C0 10.5679 0.319825 9.48857 0.892784 8.57692L0.914666 8.54238C1.66102 7.37345 3.13361 6.97733 4.33072 7.62349ZM19.1318 0.869298C19.4601 1.07264 19.789 1.27629 20.1178 1.47995C21.7895 2.51517 22.0026 3.71294 21.4875 4.6139C21.3236 4.90048 20.9266 5.2323 20.127 5.69788C19.2825 6.18956 17.955 6.8638 16.1445 7.7206C15.9273 7.84705 15.6632 7.84957 15.4438 7.72729L8.74771 3.99476C8.48131 3.84627 8.38101 3.50113 8.52369 3.22387C8.57296 3.12814 8.64749 3.04905 8.73852 2.99596C10.2982 2.08619 11.4681 1.40386 12.2479 0.948978C15.0103 -0.662306 17.8953 0.103582 19.1318 0.869298Z" fill="url(#paint1_radial)"/>
<path d="M4.33072 7.62349L13.6966 12.6789C15.0129 13.3894 16.5789 13.3894 17.8952 12.6789L23.8437 9.4681C23.9955 9.38618 24.1494 9.30165 24.3435 9.18622C25.4797 8.51027 26.1129 7.61909 26.2428 6.51265C26.2876 6.13159 26.3694 5.56892 26.7301 5.6997V5.6997C26.7488 5.70649 26.767 5.71486 26.7844 5.72472L26.9151 5.79901L27.0438 5.87263C27.065 5.88485 27.0862 5.89702 27.1073 5.90918L27.2327 5.98179L27.356 6.05374L27.4772 6.125C27.5173 6.14864 27.557 6.17219 27.5963 6.19561L27.7133 6.26552C27.7326 6.27712 27.7518 6.2887 27.771 6.30024L27.8847 6.36916C27.9035 6.38059 27.9222 6.39199 27.9408 6.40336L28.0514 6.47127C28.0697 6.48254 28.0878 6.49377 28.1059 6.50498L28.2133 6.57188L28.3186 6.63812C28.3534 6.66008 28.3878 6.68193 28.4218 6.70367L28.5229 6.76857C28.5396 6.77933 28.5561 6.79006 28.5726 6.80076L28.6705 6.86464L28.7662 6.92785L28.8599 6.99039L28.9514 7.05227C28.9815 7.07278 29.0113 7.09318 29.0408 7.11346L29.128 7.17399C29.947 7.74579 30.4789 8.2267 30.7236 8.61671L30.7464 8.65368C31.2896 9.54888 31.5918 10.5993 31.5918 11.6946V24.1016C31.5918 26.1362 30.5489 28.0162 28.8559 29.0335L18.5318 35.237C16.8388 36.2543 14.753 36.2543 13.06 35.237L2.73594 29.0335C1.04294 28.0162 0 26.1362 0 24.1016V11.6946C0 10.5679 0.319825 9.48857 0.892784 8.57692L0.914666 8.54238C1.66102 7.37345 3.13361 6.97733 4.33072 7.62349ZM19.1318 0.869298C19.4601 1.07264 19.789 1.27629 20.1178 1.47995C21.7895 2.51517 22.0026 3.71294 21.4875 4.6139C21.3236 4.90048 20.9266 5.2323 20.127 5.69788C19.2825 6.18956 17.955 6.8638 16.1445 7.7206C15.9273 7.84705 15.6632 7.84957 15.4438 7.72729L8.74771 3.99476C8.48131 3.84627 8.38101 3.50113 8.52369 3.22387C8.57296 3.12814 8.64749 3.04905 8.73852 2.99596C10.2982 2.08619 11.4681 1.40386 12.2479 0.948978C15.0103 -0.662306 17.8953 0.103582 19.1318 0.869298Z" fill="url(#paint2_radial)"/>
<path d="M4.33072 7.62349L13.6966 12.6789C15.0129 13.3894 16.5789 13.3894 17.8952 12.6789L23.8437 9.4681C23.9955 9.38618 24.1494 9.30165 24.3435 9.18622C25.4797 8.51027 26.1129 7.61909 26.2428 6.51265C26.2876 6.13159 26.3694 5.56892 26.7301 5.6997V5.6997C26.7488 5.70649 26.767 5.71486 26.7844 5.72472L26.9151 5.79901L27.0438 5.87263C27.065 5.88485 27.0862 5.89702 27.1073 5.90918L27.2327 5.98179L27.356 6.05374L27.4772 6.125C27.5173 6.14864 27.557 6.17219 27.5963 6.19561L27.7133 6.26552C27.7326 6.27712 27.7518 6.2887 27.771 6.30024L27.8847 6.36916C27.9035 6.38059 27.9222 6.39199 27.9408 6.40336L28.0514 6.47127C28.0697 6.48254 28.0878 6.49377 28.1059 6.50498L28.2133 6.57188L28.3186 6.63812C28.3534 6.66008 28.3878 6.68193 28.4218 6.70367L28.5229 6.76857C28.5396 6.77933 28.5561 6.79006 28.5726 6.80076L28.6705 6.86464L28.7662 6.92785L28.8599 6.99039L28.9514 7.05227C28.9815 7.07278 29.0113 7.09318 29.0408 7.11346L29.128 7.17399C29.947 7.74579 30.4789 8.2267 30.7236 8.61671L30.7464 8.65368C31.2896 9.54888 31.5918 10.5993 31.5918 11.6946V24.1016C31.5918 26.1362 30.5489 28.0162 28.8559 29.0335L18.5318 35.237C16.8388 36.2543 14.753 36.2543 13.06 35.237L2.73594 29.0335C1.04294 28.0162 0 26.1362 0 24.1016V11.6946C0 10.5679 0.319825 9.48857 0.892784 8.57692L0.914666 8.54238C1.66102 7.37345 3.13361 6.97733 4.33072 7.62349ZM19.1318 0.869298C19.4601 1.07264 19.789 1.27629 20.1178 1.47995C21.7895 2.51517 22.0026 3.71294 21.4875 4.6139C21.3236 4.90048 20.9266 5.2323 20.127 5.69788C19.2825 6.18956 17.955 6.8638 16.1445 7.7206C15.9273 7.84705 15.6632 7.84957 15.4438 7.72729L8.74771 3.99476C8.48131 3.84627 8.38101 3.50113 8.52369 3.22387C8.57296 3.12814 8.64749 3.04905 8.73852 2.99596C10.2982 2.08619 11.4681 1.40386 12.2479 0.948978C15.0103 -0.662306 17.8953 0.103582 19.1318 0.869298Z" fill="url(#paint3_radial)"/>
<defs>
<radialGradient id="paint0_radial" cx="0" cy="0" r="1" gradientUnits="userSpaceOnUse" gradientTransform="translate(30.2128 6.975) rotate(111.341) scale(39.6164 20.744)">
<stop stop-color="#14E1E2"/>
<stop offset="1" stop-color="#1ED0F4" stop-opacity="0.01"/>
</radialGradient>
<radialGradient id="paint1_radial" cx="0" cy="0" r="1" gradientUnits="userSpaceOnUse" gradientTransform="translate(5.45335) scale(28.2709 25.4419)">
<stop stop-color="#5C5CFF"/>
<stop offset="1" stop-color="#5C5CFF" stop-opacity="0"/>
</radialGradient>
<radialGradient id="paint2_radial" cx="0" cy="0" r="1" gradientUnits="userSpaceOnUse" gradientTransform="translate(6.64431 36) scale(30.792 49.6477)">
<stop stop-color="#FF01DD"/>
<stop offset="1" stop-color="#5C5CFF" stop-opacity="0"/>
</radialGradient>
<radialGradient id="paint3_radial" cx="0" cy="0" r="1" gradientUnits="userSpaceOnUse" gradientTransform="translate(1.25364 30.825) rotate(40.8129) scale(28.5729 36.3443)">
<stop stop-color="#FF6F4F"/>
<stop offset="1" stop-color="#FF01DD" stop-opacity="0"/>
</radialGradient>
</defs>
</svg>
