<svg width="299" height="306" viewBox="0 0 299 306" fill="none" xmlns="http://www.w3.org/2000/svg">
<g filter="url(#filter0_dddddd_104_798)">
<path d="M141.063 107.823C146.291 104.834 152.709 104.834 157.937 107.823L184.671 123.105C189.966 126.132 193.234 131.764 193.234 137.864V168.136C193.234 174.236 189.966 179.868 184.671 182.895L157.937 198.177C152.709 201.166 146.291 201.166 141.063 198.177L114.329 182.895C109.034 179.868 105.766 174.236 105.766 168.136V137.864C105.766 131.764 109.034 126.132 114.329 123.105L141.063 107.823Z" fill="#12131D"/>
<path d="M184.919 122.671L158.185 107.389C152.804 104.312 146.196 104.312 140.815 107.389L114.081 122.671C108.63 125.787 105.266 131.585 105.266 137.864V168.136C105.266 174.415 108.63 180.213 114.081 183.329L140.815 198.611C146.196 201.688 152.804 201.688 158.185 198.611L184.919 183.329C190.37 180.213 193.734 174.415 193.734 168.136V137.864C193.734 131.585 190.37 125.787 184.919 122.671Z" stroke="url(#paint0_linear_104_798)"/>
</g>
<circle cx="150" cy="153" r="23" fill="#8247E5"/>
<g clip-path="url(#clip0_104_798)">
<path d="M156.957 148.451C156.439 148.154 155.772 148.154 155.179 148.451L151.031 150.895L148.216 152.451L144.141 154.895C143.623 155.192 142.956 155.192 142.363 154.895L139.178 152.969C138.659 152.673 138.289 152.08 138.289 151.414V147.71C138.289 147.117 138.585 146.525 139.178 146.154L142.363 144.302C142.882 144.006 143.549 144.006 144.141 144.302L147.327 146.228C147.845 146.525 148.216 147.117 148.216 147.784V150.228L151.031 148.599V146.08C151.031 145.487 150.734 144.895 150.142 144.524L144.215 141.043C143.697 140.747 143.03 140.747 142.437 141.043L136.363 144.599C135.77 144.895 135.474 145.487 135.474 146.08V153.043C135.474 153.636 135.77 154.229 136.363 154.599L142.363 158.081C142.882 158.377 143.549 158.377 144.141 158.081L148.216 155.71L151.031 154.08L155.105 151.71C155.624 151.414 156.291 151.414 156.883 151.71L160.069 153.562C160.587 153.858 160.958 154.451 160.958 155.117V158.821C160.958 159.414 160.661 160.007 160.069 160.377L156.957 162.229C156.439 162.525 155.772 162.525 155.179 162.229L151.994 160.377C151.475 160.081 151.105 159.488 151.105 158.821V156.451L148.29 158.081V160.525C148.29 161.118 148.586 161.71 149.179 162.081L155.179 165.562C155.698 165.859 156.365 165.859 156.957 165.562L162.958 162.081C163.477 161.784 163.847 161.192 163.847 160.525V153.488C163.847 152.895 163.551 152.303 162.958 151.932L156.957 148.451Z" fill="white"/>
</g>
<defs>
<filter id="filter0_dddddd_104_798" x="0.765625" y="0.581482" width="297.469" height="304.837" filterUnits="userSpaceOnUse" color-interpolation-filters="sRGB">
<feFlood flood-opacity="0" result="BackgroundImageFix"/>
<feColorMatrix in="SourceAlpha" type="matrix" values="0 0 0 0 0 0 0 0 0 0 0 0 0 0 0 0 0 0 127 0" result="hardAlpha"/>
<feOffset dx="-24" dy="24"/>
<feGaussianBlur stdDeviation="40"/>
<feColorMatrix type="matrix" values="0 0 0 0 0.254902 0 0 0 0 0.717647 0 0 0 0 1 0 0 0 0.16 0"/>
<feBlend mode="normal" in2="BackgroundImageFix" result="effect1_dropShadow_104_798"/>
<feColorMatrix in="SourceAlpha" type="matrix" values="0 0 0 0 0 0 0 0 0 0 0 0 0 0 0 0 0 0 127 0" result="hardAlpha"/>
<feOffset dx="24" dy="-24"/>
<feGaussianBlur stdDeviation="40"/>
<feColorMatrix type="matrix" values="0 0 0 0 1 0 0 0 0 0.00392157 0 0 0 0 0.866667 0 0 0 0.16 0"/>
<feBlend mode="normal" in2="effect1_dropShadow_104_798" result="effect2_dropShadow_104_798"/>
<feColorMatrix in="SourceAlpha" type="matrix" values="0 0 0 0 0 0 0 0 0 0 0 0 0 0 0 0 0 0 127 0" result="hardAlpha"/>
<feOffset dx="4" dy="4"/>
<feGaussianBlur stdDeviation="20"/>
<feColorMatrix type="matrix" values="0 0 0 0 0.360784 0 0 0 0 0.360784 0 0 0 0 1 0 0 0 0.8 0"/>
<feBlend mode="normal" in2="effect2_dropShadow_104_798" result="effect3_dropShadow_104_798"/>
<feColorMatrix in="SourceAlpha" type="matrix" values="0 0 0 0 0 0 0 0 0 0 0 0 0 0 0 0 0 0 127 0" result="hardAlpha"/>
<feOffset dx="-5" dy="1"/>
<feGaussianBlur stdDeviation="8.5"/>
<feColorMatrix type="matrix" values="0 0 0 0 0.254902 0 0 0 0 0.717647 0 0 0 0 1 0 0 0 0.72 0"/>
<feBlend mode="normal" in2="effect3_dropShadow_104_798" result="effect4_dropShadow_104_798"/>
<feColorMatrix in="SourceAlpha" type="matrix" values="0 0 0 0 0 0 0 0 0 0 0 0 0 0 0 0 0 0 127 0" result="hardAlpha"/>
<feMorphology radius="78" operator="erode" in="SourceAlpha" result="effect5_dropShadow_104_798"/>
<feOffset dx="-5"/>
<feGaussianBlur stdDeviation="13.5"/>
<feColorMatrix type="matrix" values="0 0 0 0 0 0 0 0 0 1 0 0 0 0 0.45098 0 0 0 0.37 0"/>
<feBlend mode="normal" in2="effect4_dropShadow_104_798" result="effect5_dropShadow_104_798"/>
<feColorMatrix in="SourceAlpha" type="matrix" values="0 0 0 0 0 0 0 0 0 0 0 0 0 0 0 0 0 0 127 0" result="hardAlpha"/>
<feOffset dx="10" dy="-2"/>
<feGaussianBlur stdDeviation="18"/>
<feColorMatrix type="matrix" values="0 0 0 0 1 0 0 0 0 0.00392157 0 0 0 0 0.866667 0 0 0 0.38 0"/>
<feBlend mode="normal" in2="effect5_dropShadow_104_798" result="effect6_dropShadow_104_798"/>
<feBlend mode="normal" in="SourceGraphic" in2="effect6_dropShadow_104_798" result="shape"/>
</filter>
<linearGradient id="paint0_linear_104_798" x1="192.749" y1="203" x2="83.8858" y2="130.062" gradientUnits="userSpaceOnUse">
<stop offset="0.12342" stop-color="white" stop-opacity="0"/>
<stop offset="0.5" stop-color="white" stop-opacity="0.14"/>
<stop offset="0.692708" stop-color="white" stop-opacity="0"/>
</linearGradient>
<clipPath id="clip0_104_798">
<rect width="28.4474" height="24.8158" fill="white" transform="translate(135.474 140.895)"/>
</clipPath>
</defs>
</svg>
