<svg width="299" height="306" viewBox="0 0 299 306" fill="none" xmlns="http://www.w3.org/2000/svg">
<g filter="url(#filter0_dddddd_104_797)">
<path d="M141.063 107.823C146.291 104.834 152.709 104.834 157.937 107.823L184.671 123.105C189.966 126.132 193.234 131.764 193.234 137.864V168.136C193.234 174.236 189.966 179.868 184.671 182.895L157.937 198.177C152.709 201.166 146.291 201.166 141.063 198.177L114.329 182.895C109.034 179.868 105.766 174.236 105.766 168.136V137.864C105.766 131.764 109.034 126.132 114.329 123.105L141.063 107.823Z" fill="#12131D"/>
<path d="M184.919 122.671L158.185 107.389C152.804 104.312 146.196 104.312 140.815 107.389L114.081 122.671C108.63 125.787 105.266 131.585 105.266 137.864V168.136C105.266 174.415 108.63 180.213 114.081 183.329L140.815 198.611C146.196 201.688 152.804 201.688 158.185 198.611L184.919 183.329C190.37 180.213 193.734 174.415 193.734 168.136V137.864C193.734 131.585 190.37 125.787 184.919 122.671Z" stroke="url(#paint0_linear_104_797)"/>
</g>
<circle cx="150" cy="153" r="23" fill="white"/>
<path d="M149.998 136.9L149.781 137.647V159.308L149.998 159.528L159.961 153.584L149.998 136.9Z" fill="#343434"/>
<path d="M149.996 136.9L140.033 153.584L149.996 159.528V149.014V136.9Z" fill="#8C8C8C"/>
<path d="M149.998 161.432L149.875 161.584V169.3L149.998 169.661L159.967 155.492L149.998 161.432Z" fill="#3C3C3B"/>
<path d="M149.996 169.661V161.432L140.033 155.492L149.996 169.661Z" fill="#8C8C8C"/>
<path d="M150.002 159.527L159.965 153.584L150.002 149.013V159.527Z" fill="#141414"/>
<path d="M140.033 153.584L149.996 159.527V149.013L140.033 153.584Z" fill="#393939"/>
<defs>
<filter id="filter0_dddddd_104_797" x="0.765625" y="0.581482" width="297.469" height="304.837" filterUnits="userSpaceOnUse" color-interpolation-filters="sRGB">
<feFlood flood-opacity="0" result="BackgroundImageFix"/>
<feColorMatrix in="SourceAlpha" type="matrix" values="0 0 0 0 0 0 0 0 0 0 0 0 0 0 0 0 0 0 127 0" result="hardAlpha"/>
<feOffset dx="-24" dy="24"/>
<feGaussianBlur stdDeviation="40"/>
<feColorMatrix type="matrix" values="0 0 0 0 0.254902 0 0 0 0 0.717647 0 0 0 0 1 0 0 0 0.16 0"/>
<feBlend mode="normal" in2="BackgroundImageFix" result="effect1_dropShadow_104_797"/>
<feColorMatrix in="SourceAlpha" type="matrix" values="0 0 0 0 0 0 0 0 0 0 0 0 0 0 0 0 0 0 127 0" result="hardAlpha"/>
<feOffset dx="24" dy="-24"/>
<feGaussianBlur stdDeviation="40"/>
<feColorMatrix type="matrix" values="0 0 0 0 1 0 0 0 0 0.00392157 0 0 0 0 0.866667 0 0 0 0.16 0"/>
<feBlend mode="normal" in2="effect1_dropShadow_104_797" result="effect2_dropShadow_104_797"/>
<feColorMatrix in="SourceAlpha" type="matrix" values="0 0 0 0 0 0 0 0 0 0 0 0 0 0 0 0 0 0 127 0" result="hardAlpha"/>
<feOffset dx="4" dy="4"/>
<feGaussianBlur stdDeviation="20"/>
<feColorMatrix type="matrix" values="0 0 0 0 0.360784 0 0 0 0 0.360784 0 0 0 0 1 0 0 0 0.8 0"/>
<feBlend mode="normal" in2="effect2_dropShadow_104_797" result="effect3_dropShadow_104_797"/>
<feColorMatrix in="SourceAlpha" type="matrix" values="0 0 0 0 0 0 0 0 0 0 0 0 0 0 0 0 0 0 127 0" result="hardAlpha"/>
<feOffset dx="-5" dy="1"/>
<feGaussianBlur stdDeviation="8.5"/>
<feColorMatrix type="matrix" values="0 0 0 0 0.254902 0 0 0 0 0.717647 0 0 0 0 1 0 0 0 0.72 0"/>
<feBlend mode="normal" in2="effect3_dropShadow_104_797" result="effect4_dropShadow_104_797"/>
<feColorMatrix in="SourceAlpha" type="matrix" values="0 0 0 0 0 0 0 0 0 0 0 0 0 0 0 0 0 0 127 0" result="hardAlpha"/>
<feMorphology radius="78" operator="erode" in="SourceAlpha" result="effect5_dropShadow_104_797"/>
<feOffset dx="-5"/>
<feGaussianBlur stdDeviation="13.5"/>
<feColorMatrix type="matrix" values="0 0 0 0 0 0 0 0 0 1 0 0 0 0 0.45098 0 0 0 0.37 0"/>
<feBlend mode="normal" in2="effect4_dropShadow_104_797" result="effect5_dropShadow_104_797"/>
<feColorMatrix in="SourceAlpha" type="matrix" values="0 0 0 0 0 0 0 0 0 0 0 0 0 0 0 0 0 0 127 0" result="hardAlpha"/>
<feOffset dx="10" dy="-2"/>
<feGaussianBlur stdDeviation="18"/>
<feColorMatrix type="matrix" values="0 0 0 0 1 0 0 0 0 0.00392157 0 0 0 0 0.866667 0 0 0 0.38 0"/>
<feBlend mode="normal" in2="effect5_dropShadow_104_797" result="effect6_dropShadow_104_797"/>
<feBlend mode="normal" in="SourceGraphic" in2="effect6_dropShadow_104_797" result="shape"/>
</filter>
<linearGradient id="paint0_linear_104_797" x1="192.749" y1="203" x2="83.8858" y2="130.062" gradientUnits="userSpaceOnUse">
<stop offset="0.12342" stop-color="white" stop-opacity="0"/>
<stop offset="0.5" stop-color="white" stop-opacity="0.14"/>
<stop offset="0.692708" stop-color="white" stop-opacity="0"/>
</linearGradient>
</defs>
</svg>
