<svg width="103" height="83" viewBox="0 0 103 83" fill="none" xmlns="http://www.w3.org/2000/svg">
<path opacity="0.15" d="M45.32 60.8398C45.32 67.2864 43.1227 72.6586 38.728 76.9563C34.608 80.9855 29.252 83 22.66 83C16.068 83 10.5747 80.9855 6.18 76.9563C2.06 72.6586 0 67.2864 0 60.8398V26.1893C0 17.5938 2.472 11.1472 7.416 6.8495C12.6347 2.28317 19.6387 0 28.428 0H44.496V14.5049H27.604C20.188 14.5049 16.48 17.9968 16.48 24.9806V40.2913C18.128 39.754 20.4627 39.4854 23.484 39.4854C29.8013 39.4854 35.02 41.5 39.14 45.5291C43.26 49.5583 45.32 54.6618 45.32 60.8398ZM103 60.8398C103 67.2864 100.803 72.6586 96.408 76.9563C92.288 80.9855 86.932 83 80.34 83C73.748 83 68.2547 80.9855 63.86 76.9563C59.74 72.6586 57.68 67.2864 57.68 60.8398V26.1893C57.68 17.5938 60.152 11.1472 65.096 6.8495C70.3147 2.28317 77.3187 0 86.108 0H102.176V14.5049H85.284C77.868 14.5049 74.16 17.9968 74.16 24.9806V40.2913C75.808 39.754 78.1427 39.4854 81.164 39.4854C87.4813 39.4854 92.7 41.5 96.82 45.5291C100.94 49.5583 103 54.6618 103 60.8398Z" fill="white"/>
</svg>
