<svg width="235" height="9" viewBox="0 0 235 9" fill="none" xmlns="http://www.w3.org/2000/svg">
<path d="M1 4.04395C0.723858 4.04395 0.5 4.2678 0.5 4.54395C0.5 4.82009 0.723858 5.04395 1 5.04395L1 4.04395ZM234.354 4.89752C234.549 4.70226 234.549 4.38567 234.354 4.19041L231.172 1.00843C230.976 0.813169 230.66 0.813169 230.464 1.00843C230.269 1.20369 230.269 1.52028 230.464 1.71554L233.293 4.54397L230.464 7.37239C230.269 7.56765 230.269 7.88424 230.464 8.0795C230.66 8.27476 230.976 8.27476 231.172 8.0795L234.354 4.89752ZM1 5.04395L234 5.04397L234 4.04397L1 4.04395L1 5.04395Z" fill="url(#paint0_linear_3816_823)"/>
<defs>
<linearGradient id="paint0_linear_3816_823" x1="-28.9622" y1="294.544" x2="340.614" y2="-57.864" gradientUnits="userSpaceOnUse">
<stop stop-color="#41B7FF"/>
<stop offset="1" stop-color="#00FF73"/>
</linearGradient>
</defs>
</svg>
