<svg width="430" height="130" viewBox="0 0 430 130" fill="none" xmlns="http://www.w3.org/2000/svg">
<path d="M429.5 1.04395C429.5 0.767803 429.276 0.543945 429 0.543945C428.724 0.543945 428.5 0.767803 428.5 1.04395H429.5ZM58.1181 59.3191L58.0714 58.8213L58.1181 59.3191ZM1.27518 116.162L0.777363 116.115L1.27518 116.162ZM375.75 58.5439H71.5V59.5439H375.75V58.5439ZM428.5 1.04395V5.79395H429.5V1.04395H428.5ZM71.5 58.5439C64.5464 58.5439 61.0351 58.5434 58.0714 58.8213L58.1648 59.8169C61.0701 59.5445 64.5237 59.5439 71.5 59.5439V58.5439ZM1.5 129.544C1.5 122.568 1.50055 119.114 1.77299 116.209L0.777363 116.115C0.499449 119.079 0.5 122.59 0.5 129.544H1.5ZM58.0714 58.8213C27.6871 61.6705 3.6266 85.731 0.777363 116.115L1.77299 116.209C4.57736 86.3029 28.2589 62.6213 58.1648 59.8169L58.0714 58.8213ZM375.75 59.5439C405.435 59.5439 429.5 35.4792 429.5 5.79395H428.5C428.5 34.927 404.883 58.5439 375.75 58.5439V59.5439Z" fill="url(#paint0_linear_3831_443)"/>
<defs>
<linearGradient id="paint0_linear_3831_443" x1="-41.4999" y1="242.544" x2="312.24" y2="-235.911" gradientUnits="userSpaceOnUse">
<stop stop-color="#41B7FF"/>
<stop offset="1" stop-color="#00FF73"/>
</linearGradient>
</defs>
</svg>
